<?xml version="1.0" encoding="UTF-8" standalone="no"?>
<svg
   width="403"
   height="356"
   viewBox="0 0 403 356"
   fill="none"
   version="1.1"
   id="svg177"
   xmlns="http://www.w3.org/2000/svg">
  <defs
     id="defs175">
    <clipPath
       id="clip0_124_59">
      <rect
         width="403"
         height="356"
         fill="white"
         id="rect172" />
    </clipPath>
    <clipPath
       id="cp13">
      <path
         transform="matrix(1,0,0,-1,0,250)"
         d="M 0,250 H 250 V 0 H 0 Z"
         id="path361" />
    </clipPath>
  </defs>
  <g
     clip-path="url(#cp13)"
     id="g416"
     transform="matrix(5.8710507,0,0,5.5039925,-532.17877,-371.68737)">
    <path
       transform="matrix(1,0,0,-1,149.667,116.98489)"
       d="m 0,0 c -9.371,4.7 -15.87,-5.684 -15.87,-5.684 0,0 8.895,5.585 15.87,5.684"
       fill="#ffffff"
       id="path402" />
    <path
       transform="matrix(1,0,0,-1,140.474,107.1904)"
       d="m 0,0 c 3.927,-9.207 -6.677,-15.479 -6.677,-15.479 0,0 6.137,8.524 6.677,15.479"
       fill="#ffffff"
       id="path404" />
    <path
       d="m 0,0 c 5.421,4.483 6.354,11.125 6.354,18.489 0,10.215 -4.886,21.311 -14.24,24.197 -0.272,0.084 -0.098,1.092 0.167,1.042 C 4.182,41.487 13.221,31.03 13.221,18.489 13.221,10.11 9.187,2.655 2.958,-2.034"
       fill="#ffffff"
       id="path406"
       transform="matrix(1,0,0,-1,138.0203,116.448)" />
    <path
       transform="matrix(1,0,0,-1,105.1555,77.273899)"
       d="M 0,0 C 6.401,-3.505 11.183,3.556 11.183,3.556 11.183,3.556 4.855,-0.106 0,0"
       fill="#ffffff"
       id="path408" />
    <path
       transform="matrix(1,0,0,-1,111.3049,84.3183)"
       d="M 0,0 C -2.501,6.503 5.034,10.6 5.034,10.6 5.034,10.6 0.55,4.825 0,0"
       fill="#ffffff"
       id="path410" />
    <path
       transform="matrix(1,0,0,-1,112.9996,77.874408)"
       d="m 0,0 c -4.796,-3.753 -5.603,-12.569 -5.603,-20.084 0,-10.511 5.811,-22.347 14.37,-23.913 0.351,-0.064 0.272,-1.527 -0.174,-1.457 -12.279,1.915 -21.704,12.562 -21.704,25.37 0,8.848 4.499,16.666 11.33,21.285 z"
       fill="#ffffff"
       id="path412" />
    <path
       transform="matrix(1,0,0,-1,150.0708,77.024997)"
       d="m 0,0 c 0.371,0.216 -0.21,0.867 -0.538,1.222 0,0 0.472,-0.345 0.495,-0.131 0.021,0.199 -0.081,0.602 -0.737,0.922 -0.363,0.176 -0.608,0.183 -0.866,0.42 -0.257,0.236 -0.6,0.5 -0.666,0.726 -0.064,0.22 -0.158,0.259 0.082,0.404 0.164,0.098 0.206,0.389 0.152,0.533 C -2.195,4.404 -2.399,4.414 -2.481,4.188 -2.527,4.062 -2.676,4.102 -2.827,4.131 -2.975,4.159 -3.179,4.126 -3.274,3.958 -3.467,3.618 -3.651,3.554 -3.728,3.277 -3.791,3.054 -4.477,2.757 -4.921,2.568 -5.366,2.379 -7.284,1.835 -8.407,1.741 -9.53,1.646 -10.934,1.552 -12.034,0.795 c 0,0 -0.655,0.024 -1.31,0 -0.655,-0.023 -3.392,-0.732 -3.954,-0.898 -0.561,-0.165 -0.787,-0.239 -1.385,-0.124 -0.598,0.115 -1.216,0.268 -1.793,0.023 -0.92,-0.391 -1.472,-0.874 -1.472,-0.874 0,0 -0.759,-0.035 -1.035,-0.035 h -0.725 c 0,0 -0.16,1.268 -0.16,1.82 0,0.552 -0.104,0.883 -0.104,0.883 0,0 0.207,-0.161 0.414,0.069 0.207,0.23 0.147,0.756 0.126,1.055 -0.017,0.252 -0.213,0.822 -0.452,0.754 -0.058,-0.017 -0.087,-0.026 -0.1,-0.031 0,0.017 -0.13,1.322 -0.31,1.74 -0.159,0.369 -0.414,0.805 -0.851,1.196 -0.251,0.225 -0.632,0.419 -1.045,0.548 -0.084,0.296 -0.342,0.895 -1.059,0.953 -0.869,0.069 -1.615,-0.4 -1.708,-0.955 -0.049,-0.293 0.051,-0.49 0.157,-0.612 -0.054,-0.052 -0.108,-0.107 -0.162,-0.164 -0.483,-0.506 -0.644,-0.966 -0.667,-1.61 -0.007,-0.183 0.152,-1.212 0.29,-1.672 0.099,-0.33 0.095,-0.403 0.095,-0.403 0,0 -0.345,0.077 -0.362,-0.201 -0.017,-0.276 0.086,-0.736 0.155,-0.989 0.069,-0.253 0.213,-0.598 0.466,-0.621 0.253,-0.023 0.345,0.138 0.345,0.138 0,0 0.344,-0.759 0.459,-0.92 0.115,-0.161 0.552,-0.644 0.667,-1.035 0.115,-0.391 0.115,-1.104 0.069,-1.334 -0.046,-0.23 -0.988,-0.575 -1.368,-0.989 -0.266,-0.289 -0.724,-0.552 -0.724,-0.552 0,0 -0.966,-0.023 -1.449,-0.46 -0.483,-0.437 -1.334,-1.241 -1.679,-1.908 -0.345,-0.667 -0.497,-1.083 -0.497,-1.083 0,0 -1.121,-0.598 -1.904,-1.325 -0.788,-0.731 -1.88,-2.098 -2.348,-2.625 -0.245,-0.277 -0.906,-0.726 -1.495,-1.289 -0.735,-0.704 -1.273,-1.126 -2.277,-2.321 -1.005,-1.196 -2.827,-3.118 -3.341,-3.54 -0.514,-0.422 -0.879,-0.342 -1.121,-0.727 -0.268,-0.427 -0.498,-0.685 -0.553,-1.289 -0.034,-0.38 -0.102,-0.537 -0.183,-0.697 -0.101,-0.2 -0.329,-0.316 -0.341,-0.442 -0.014,-0.142 0.175,-0.163 0.274,-0.181 0.148,-0.026 0.566,0.118 0.624,0.453 0.073,0.42 0.459,0.375 0.459,0.257 0,-0.117 -0.328,-0.965 -0.478,-1.336 -0.192,-0.471 -0.277,-1.073 -0.272,-1.349 0.004,-0.212 0.123,-0.44 0.271,-0.276 0.155,0.173 0.25,0.613 0.25,0.613 0,0 -0.048,-0.414 -0.026,-0.742 0.028,-0.413 0.311,-0.63 0.474,0.043 0,0 -0.002,-0.339 0.231,-0.33 0.233,0.009 0.296,0.468 0.296,0.468 -0.023,-0.311 0.128,-0.413 0.329,-0.182 0.131,0.15 0.49,0.819 0.537,1.407 0.047,0.588 0.234,2.2 0.234,2.552 0,0.351 0.058,0.283 0.257,0.351 0.222,0.077 0.35,0.469 0.654,0.704 0.304,0.234 2.81,2.123 4.001,3.129 1.277,1.078 1.69,1.414 2.122,2.035 0.155,0.225 0.507,0.392 0.81,0.673 0.304,0.281 2.049,1.57 2.586,1.992 0.537,0.422 1.312,0.745 2.071,1.457 0.759,0.713 1.208,1.047 1.208,1.047 0,0 1.081,-0.619 1.485,-0.976 0.404,-0.356 0.79,-1.334 1.051,-1.893 0.26,-0.56 0.059,-1.555 0.01,-2.071 -0.05,-0.516 -0.111,-0.571 -0.231,-0.822 -0.44,-0.919 -0.592,-2.606 -0.565,-2.882 0.026,-0.277 -2.712,-3.133 -3.58,-4.523 -0.868,-1.39 -2.8,-5.274 -3.103,-6.507 -0.293,-1.19 -0.459,-1.812 -0.128,-2.339 0.33,-0.527 1.351,-1.005 2.015,-0.713 0.664,0.292 1.346,0.813 1.942,1.292 0.433,0.349 3.109,3.58 3.634,3.841 0.525,0.261 2.019,1.295 2.449,1.955 0.494,0.758 1.023,1.517 1.182,1.933 0.062,0.162 0.655,0.215 0.577,-0.094 -0.078,-0.308 -0.36,-4.399 -0.185,-5.542 0.174,-1.144 0.069,-3.626 0.041,-4.591 -0.027,-0.966 -0.028,-2.5 -0.047,-2.987 -0.004,-0.115 0.039,0.102 -0.262,-0.542 -0.301,-0.645 -0.698,-2.011 -0.462,-3.09 0.235,-1.079 -0.163,-3.377 -0.176,-3.721 l -0.013,-0.345 c 0,0 -0.752,0.201 -1.009,-0.204 -0.257,-0.404 -0.524,-1.084 -0.424,-2.089 0.1,-1.005 -0.343,-2.68 -0.562,-2.982 -0.218,-0.303 -1.141,-0.958 -0.965,-2.691 0.176,-1.733 0.903,-1.691 1.575,-1.268 0.672,0.424 2.212,2.458 2.594,4.7 0.074,0.435 0.87,2.004 0.754,2.595 -0.115,0.592 0.399,2.333 0.751,3.424 0.352,1.091 1.759,3.523 1.372,6.127 -0.094,0.629 0.323,1.708 0.62,2.517 0.526,1.433 2.034,6.56 2.665,10.333 0.166,0.996 0.233,1.019 0.445,3.544 0.139,1.652 -0.505,4.537 -0.711,4.897 -0.362,0.632 -0.405,1.956 -0.745,2.955 -0.189,0.558 -0.151,1.724 -0.197,2.345 -0.046,0.621 -0.138,2.185 -0.391,3.427 -0.253,1.241 -0.253,1.54 -0.207,1.862 0.046,0.322 0.755,0.325 1.34,0.419 0.585,0.095 1.9,0.201 3.533,1.3 0.21,0.142 1.427,0.496 1.824,0.615 0.398,0.118 0.925,0.201 1.159,0.177 0.233,-0.024 0.432,0.224 0.573,0.295 0.14,0.071 4.988,1.603 5.795,2.058 0.557,0.314 0.863,0.15 1.001,0.322 0.126,0.158 0.246,0.055 0.69,-0.016 0.445,-0.071 1.077,-0.26 1.264,-0.425 0.187,-0.166 0.714,-1.345 0.759,-1.732 0.046,-0.391 0.242,-0.627 0.357,-0.319 0.143,0.384 -0.043,0.931 -0.043,0.931 0,0 0.055,-0.095 0.172,-0.189 C -0.073,-0.75 0.147,-0.336 0,0"
       id="path414"
       style="fill:#000000" />
  </g>
</svg>
