<?xml version="1.0" encoding="UTF-8" standalone="no"?>
<svg
   width="562"
   height="173"
   viewBox="0 0 562 173"
   fill="none"
   version="1.1"
   id="svg598"
   sodipodi:docname="logo-with-text.svg"
   inkscape:version="1.2.1 (9c6d41e410, 2022-07-14)"
   xmlns:inkscape="http://www.inkscape.org/namespaces/inkscape"
   xmlns:sodipodi="http://sodipodi.sourceforge.net/DTD/sodipodi-0.dtd"
   xmlns="http://www.w3.org/2000/svg"
   xmlns:svg="http://www.w3.org/2000/svg">
  <sodipodi:namedview
     id="namedview600"
     pagecolor="#ffffff"
     bordercolor="#000000"
     borderopacity="0.25"
     inkscape:showpageshadow="2"
     inkscape:pageopacity="0.0"
     inkscape:pagecheckerboard="0"
     inkscape:deskcolor="#d1d1d1"
     showgrid="false"
     inkscape:zoom="1.3641618"
     inkscape:cx="179.23094"
     inkscape:cy="84.300851"
     inkscape:window-width="1662"
     inkscape:window-height="997"
     inkscape:window-x="174"
     inkscape:window-y="68"
     inkscape:window-maximized="0"
     inkscape:current-layer="svg598" />
  <path
     d="m 182.675,96.5753 c -1.556,0 -2.967,-0.293 -4.235,-0.8789 -1.268,-0.5966 -2.275,-1.4542 -3.02,-2.5728 -0.746,-1.1293 -1.119,-2.4929 -1.119,-4.0909 0,-1.4063 0.277,-2.5462 0.831,-3.4198 0.554,-0.8842 1.294,-1.5767 2.221,-2.0774 0.927,-0.5007 1.95,-0.8736 3.069,-1.1186 1.129,-0.2557 2.263,-0.4581 3.403,-0.6072 1.492,-0.1918 2.701,-0.3356 3.628,-0.4315 0.937,-0.1065 1.619,-0.2823 2.045,-0.5273 0.437,-0.2451 0.655,-0.6712 0.655,-1.2785 v -0.1278 c 0,-1.5767 -0.431,-2.8018 -1.294,-3.6754 -0.852,-0.8736 -2.147,-1.3104 -3.883,-1.3104 -1.801,0 -3.212,0.3942 -4.235,1.1825 -1.023,0.7884 -1.742,1.63 -2.157,2.5249 l -3.58,-1.2784 c 0.639,-1.4915 1.492,-2.6527 2.557,-3.4837 1.076,-0.8416 2.248,-1.4275 3.516,-1.7578 1.278,-0.3409 2.535,-0.5114 3.771,-0.5114 0.788,0 1.694,0.0959 2.717,0.2877 1.033,0.1811 2.029,0.5593 2.988,1.1346 0.969,0.5753 1.774,1.4435 2.413,2.6047 0.639,1.1613 0.959,2.7167 0.959,4.6662 V 96 h -3.772 v -3.3239 h -0.191 c -0.256,0.5327 -0.682,1.1027 -1.279,1.7099 -0.596,0.6073 -1.39,1.1239 -2.381,1.5501 -0.991,0.4261 -2.2,0.6392 -3.627,0.6392 z m 0.575,-3.3878 c 1.491,0 2.749,-0.293 3.771,-0.8789 1.034,-0.5859 1.811,-1.3423 2.333,-2.2692 0.533,-0.9268 0.799,-1.9016 0.799,-2.9243 v -3.4517 c -0.159,0.1917 -0.511,0.3675 -1.054,0.5273 -0.533,0.1491 -1.151,0.2823 -1.854,0.3995 -0.692,0.1065 -1.369,0.2024 -2.029,0.2876 -0.65,0.0746 -1.178,0.1385 -1.582,0.1918 -0.981,0.1278 -1.897,0.3356 -2.749,0.6232 -0.842,0.277 -1.523,0.6978 -2.046,1.2625 -0.511,0.5539 -0.767,1.3103 -0.767,2.2691 0,1.3104 0.485,2.3012 1.455,2.9723 0.98,0.6605 2.221,0.9908 3.723,0.9908 z m 26.827,3.3239 c -2.046,0 -3.852,-0.5167 -5.418,-1.5501 -1.566,-1.044 -2.791,-2.5142 -3.675,-4.4105 -0.884,-1.907 -1.326,-4.1602 -1.326,-6.7596 0,-2.5781 0.442,-4.8153 1.326,-6.7117 0.884,-1.8963 2.115,-3.3611 3.691,-4.3945 1.577,-1.0334 3.399,-1.5501 5.466,-1.5501 1.598,0 2.86,0.2664 3.787,0.799 0.937,0.5221 1.651,1.1187 2.141,1.7898 0.501,0.6605 0.89,1.2039 1.167,1.63 h 0.319 v -12.081 h 3.772 V 96 h -3.644 v -3.7713 h -0.447 c -0.277,0.4474 -0.671,1.0121 -1.183,1.6939 -0.511,0.6711 -1.241,1.2731 -2.189,1.8057 -0.948,0.5221 -2.211,0.7831 -3.787,0.7831 z m 0.511,-3.3878 c 1.513,0 2.791,-0.3942 3.835,-1.1825 1.044,-0.7991 1.838,-1.9017 2.381,-3.3079 0.544,-1.4169 0.815,-3.0522 0.815,-4.9059 0,-1.8324 -0.266,-3.4358 -0.799,-4.81 -0.532,-1.385 -1.321,-2.461 -2.365,-3.228 -1.044,-0.7777 -2.333,-1.1666 -3.867,-1.1666 -1.598,0 -2.93,0.4102 -3.995,1.2305 -1.055,0.8097 -1.848,1.9123 -2.381,3.3079 -0.522,1.3849 -0.783,2.9403 -0.783,4.6662 0,1.7471 0.266,3.3345 0.799,4.762 0.543,1.4169 1.342,2.5462 2.397,3.3878 1.065,0.831 2.386,1.2465 3.963,1.2465 z m 27.438,3.3878 c -2.046,0 -3.851,-0.5167 -5.417,-1.5501 -1.566,-1.044 -2.792,-2.5142 -3.676,-4.4105 -0.884,-1.907 -1.326,-4.1602 -1.326,-6.7596 0,-2.5781 0.442,-4.8153 1.326,-6.7117 0.884,-1.8963 2.115,-3.3611 3.692,-4.3945 1.576,-1.0334 3.398,-1.5501 5.465,-1.5501 1.598,0 2.86,0.2664 3.787,0.799 0.938,0.5221 1.651,1.1187 2.141,1.7898 0.501,0.6605 0.89,1.2039 1.167,1.63 h 0.32 v -12.081 h 3.771 V 96 h -3.644 v -3.7713 h -0.447 c -0.277,0.4474 -0.671,1.0121 -1.183,1.6939 -0.511,0.6711 -1.241,1.2731 -2.189,1.8057 -0.948,0.5221 -2.21,0.7831 -3.787,0.7831 z m 0.511,-3.3878 c 1.513,0 2.791,-0.3942 3.835,-1.1825 1.044,-0.7991 1.838,-1.9017 2.381,-3.3079 0.544,-1.4169 0.815,-3.0522 0.815,-4.9059 0,-1.8324 -0.266,-3.4358 -0.799,-4.81 -0.532,-1.385 -1.321,-2.461 -2.365,-3.228 -1.044,-0.7777 -2.333,-1.1666 -3.867,-1.1666 -1.598,0 -2.929,0.4102 -3.995,1.2305 -1.055,0.8097 -1.848,1.9123 -2.381,3.3079 -0.522,1.3849 -0.783,2.9403 -0.783,4.6662 0,1.7471 0.266,3.3345 0.799,4.762 0.543,1.4169 1.342,2.5462 2.397,3.3878 1.065,0.831 2.386,1.2465 3.963,1.2465 z"
     fill="#868686"
     id="path543"
     clip-path="url(#clipPath809)" />
  <path
     d="M 257.218,96 V 63.2727 h 3.771 v 12.081 h 0.32 c 0.277,-0.4261 0.66,-0.9695 1.15,-1.63 0.501,-0.6711 1.215,-1.2677 2.142,-1.7898 0.937,-0.5326 2.205,-0.799 3.803,-0.799 2.067,0 3.889,0.5167 5.465,1.5501 1.577,1.0334 2.807,2.4982 3.692,4.3945 0.884,1.8964 1.326,4.1336 1.326,6.7117 0,2.5994 -0.442,4.8526 -1.326,6.7596 -0.885,1.8963 -2.11,3.3665 -3.676,4.4105 -1.566,1.0334 -3.372,1.5501 -5.417,1.5501 -1.577,0 -2.839,-0.261 -3.787,-0.7831 -0.948,-0.5326 -1.678,-1.1346 -2.19,-1.8057 -0.511,-0.6818 -0.905,-1.2465 -1.182,-1.6939 h -0.448 V 96 Z m 3.707,-12.2727 c 0,1.8537 0.272,3.489 0.815,4.9059 0.544,1.4062 1.337,2.5088 2.381,3.3079 1.044,0.7883 2.323,1.1825 3.836,1.1825 1.576,0 2.892,-0.4155 3.947,-1.2465 1.065,-0.8416 1.864,-1.9709 2.397,-3.3878 0.543,-1.4275 0.815,-3.0149 0.815,-4.762 0,-1.7259 -0.267,-3.2813 -0.799,-4.6662 -0.522,-1.3956 -1.316,-2.4982 -2.381,-3.3079 -1.055,-0.8203 -2.381,-1.2305 -3.979,-1.2305 -1.535,0 -2.824,0.3889 -3.868,1.1666 -1.044,0.767 -1.832,1.843 -2.365,3.228 -0.532,1.3742 -0.799,2.9776 -0.799,4.81 z M 284.656,96 V 71.4545 h 3.771 V 96 Z m 1.917,-28.6364 c -0.735,0 -1.369,-0.2503 -1.901,-0.751 -0.522,-0.5007 -0.783,-1.1027 -0.783,-1.8058 0,-0.7031 0.261,-1.305 0.783,-1.8057 0.532,-0.5007 1.166,-0.7511 1.901,-0.7511 0.736,0 1.364,0.2504 1.886,0.7511 0.533,0.5007 0.799,1.1026 0.799,1.8057 0,0.7031 -0.266,1.3051 -0.799,1.8058 -0.522,0.5007 -1.15,0.751 -1.886,0.751 z m 18.733,29.1478 c -2.216,0 -4.16,-0.5274 -5.833,-1.5821 -1.662,-1.0547 -2.961,-2.5302 -3.899,-4.4265 -0.927,-1.8963 -1.39,-4.1122 -1.39,-6.6477 0,-2.5568 0.463,-4.7887 1.39,-6.6957 0.938,-1.9069 2.237,-3.3877 3.899,-4.4424 1.673,-1.0547 3.617,-1.5821 5.833,-1.5821 2.216,0 4.155,0.5274 5.817,1.5821 1.672,1.0547 2.972,2.5355 3.899,4.4424 0.938,1.907 1.406,4.1389 1.406,6.6957 0,2.5355 -0.468,4.7514 -1.406,6.6477 -0.927,1.8963 -2.227,3.3718 -3.899,4.4265 -1.662,1.0547 -3.601,1.5821 -5.817,1.5821 z m 0,-3.3878 c 1.683,0 3.068,-0.4315 4.155,-1.2944 1.087,-0.8629 1.891,-1.9975 2.413,-3.4038 0.522,-1.4062 0.783,-2.9297 0.783,-4.5703 0,-1.6406 -0.261,-3.1694 -0.783,-4.5863 -0.522,-1.4169 -1.326,-2.5621 -2.413,-3.4357 -1.087,-0.8736 -2.472,-1.3104 -4.155,-1.3104 -1.683,0 -3.068,0.4368 -4.155,1.3104 -1.086,0.8736 -1.891,2.0188 -2.413,3.4357 -0.522,1.4169 -0.783,2.9457 -0.783,4.5863 0,1.6406 0.261,3.1641 0.783,4.5703 0.522,1.4063 1.327,2.5409 2.413,3.4038 1.087,0.8629 2.472,1.2944 4.155,1.2944 z M 322.185,96 V 71.4545 h 3.644 v 3.8353 h 0.319 c 0.512,-1.3104 1.337,-2.3278 2.477,-3.0522 1.14,-0.7351 2.509,-1.1027 4.107,-1.1027 1.619,0 2.967,0.3676 4.043,1.1027 1.087,0.7244 1.934,1.7418 2.541,3.0522 h 0.255 c 0.629,-1.2678 1.572,-2.2745 2.829,-3.0203 1.257,-0.7564 2.765,-1.1346 4.522,-1.1346 2.195,0 3.99,0.6872 5.386,2.0615 1.395,1.3636 2.093,3.489 2.093,6.376 V 96 H 350.63 V 79.5724 c 0,-1.811 -0.496,-3.1054 -1.486,-3.8831 -0.991,-0.7777 -2.158,-1.1666 -3.5,-1.1666 -1.726,0 -3.063,0.522 -4.011,1.5661 -0.948,1.0334 -1.422,2.3437 -1.422,3.9311 V 96 h -3.836 V 79.1889 c 0,-1.3956 -0.452,-2.5195 -1.358,-3.3718 -0.905,-0.8629 -2.072,-1.2944 -3.5,-1.2944 -0.98,0 -1.896,0.261 -2.748,0.7831 -0.842,0.522 -1.524,1.2464 -2.046,2.1732 -0.511,0.9162 -0.767,1.9763 -0.767,3.1801 V 96 Z m 49.403,0.5114 c -2.365,0 -4.406,-0.5221 -6.121,-1.5661 -1.704,-1.0547 -3.02,-2.5248 -3.947,-4.4105 -0.916,-1.8963 -1.374,-4.1016 -1.374,-6.6158 0,-2.5142 0.458,-4.7301 1.374,-6.6477 0.927,-1.9283 2.216,-3.4304 3.867,-4.5064 1.662,-1.0866 3.601,-1.63 5.817,-1.63 1.279,0 2.541,0.2131 3.787,0.6392 1.247,0.4262 2.381,1.1187 3.404,2.0775 1.023,0.9481 1.838,2.2052 2.445,3.7713 0.607,1.566 0.911,3.4943 0.911,5.7848 v 1.598 h -18.92 v -3.26 h 15.085 c 0,-1.3849 -0.277,-2.6207 -0.831,-3.7073 -0.544,-1.0867 -1.321,-1.9443 -2.333,-2.5728 -1.002,-0.6286 -2.184,-0.9429 -3.548,-0.9429 -1.502,0 -2.802,0.3729 -3.899,1.1186 -1.087,0.7351 -1.923,1.6939 -2.509,2.8765 -0.586,1.1825 -0.879,2.4502 -0.879,3.8032 v 2.1733 c 0,1.8537 0.32,3.4251 0.959,4.7142 0.65,1.2784 1.55,2.2531 2.701,2.9243 1.15,0.6605 2.487,0.9908 4.011,0.9908 0.99,0 1.885,-0.1385 2.684,-0.4155 0.81,-0.2876 1.508,-0.7138 2.094,-1.2784 0.586,-0.5753 1.038,-1.2891 1.358,-2.1413 l 3.643,1.0227 c -0.383,1.2358 -1.028,2.3224 -1.933,3.2599 -0.906,0.9269 -2.024,1.6513 -3.356,2.1733 -1.332,0.5114 -2.828,0.7671 -4.49,0.7671 z m 25.871,0 c -2.301,0 -4.282,-0.5434 -5.944,-1.63 -1.662,-1.0867 -2.941,-2.5835 -3.835,-4.4904 -0.895,-1.907 -1.343,-4.0856 -1.343,-6.5359 0,-2.4929 0.458,-4.6928 1.375,-6.5998 0.926,-1.9176 2.215,-3.4144 3.867,-4.4904 1.662,-1.0866 3.601,-1.63 5.817,-1.63 1.725,0 3.281,0.3196 4.666,0.9589 1.385,0.6392 2.519,1.534 3.403,2.6846 0.885,1.1506 1.433,2.4929 1.646,4.027 h -3.771 c -0.288,-1.1186 -0.927,-2.1094 -1.918,-2.9723 -0.98,-0.8736 -2.301,-1.3104 -3.963,-1.3104 -1.47,0 -2.759,0.3835 -3.867,1.1506 -1.097,0.7564 -1.955,1.8271 -2.573,3.212 -0.607,1.3743 -0.91,2.9883 -0.91,4.842 0,1.8963 0.298,3.5476 0.894,4.9538 0.608,1.4063 1.46,2.4982 2.557,3.2759 1.108,0.7777 2.408,1.1666 3.899,1.1666 0.981,0 1.87,-0.1705 2.669,-0.5114 0.799,-0.3409 1.476,-0.831 2.03,-1.4702 0.554,-0.6392 0.948,-1.4062 1.182,-2.3011 h 3.771 c -0.213,1.4489 -0.74,2.7539 -1.582,3.9151 -0.831,1.1506 -1.933,2.0668 -3.307,2.7486 -1.364,0.6712 -2.951,1.0068 -4.763,1.0068 z m 18.937,-15.277 V 96 h -3.771 V 63.2727 h 3.771 v 12.0171 h 0.319 c 0.576,-1.2678 1.439,-2.2745 2.589,-3.0203 1.161,-0.7564 2.706,-1.1346 4.634,-1.1346 1.673,0 3.138,0.3356 4.395,1.0068 1.257,0.6605 2.232,1.6779 2.924,3.0522 0.703,1.3636 1.055,3.1001 1.055,5.2095 V 96 h -3.771 V 80.6591 c 0,-1.9496 -0.506,-3.457 -1.518,-4.5224 -1.002,-1.076 -2.392,-1.614 -4.171,-1.614 -1.236,0 -2.344,0.261 -3.324,0.7831 -0.969,0.522 -1.737,1.2837 -2.301,2.2851 -0.554,1.0014 -0.831,2.2159 -0.831,3.6435 z m 30.038,15.3409 c -1.555,0 -2.966,-0.293 -4.234,-0.8789 -1.268,-0.5966 -2.275,-1.4542 -3.02,-2.5728 -0.746,-1.1293 -1.119,-2.4929 -1.119,-4.0909 0,-1.4063 0.277,-2.5462 0.831,-3.4198 0.554,-0.8842 1.294,-1.5767 2.221,-2.0774 0.927,-0.5007 1.95,-0.8736 3.068,-1.1186 1.13,-0.2557 2.264,-0.4581 3.404,-0.6072 1.492,-0.1918 2.701,-0.3356 3.628,-0.4315 0.937,-0.1065 1.619,-0.2823 2.045,-0.5273 0.437,-0.2451 0.655,-0.6712 0.655,-1.2785 v -0.1278 c 0,-1.5767 -0.431,-2.8018 -1.294,-3.6754 -0.852,-0.8736 -2.147,-1.3104 -3.883,-1.3104 -1.801,0 -3.212,0.3942 -4.235,1.1825 -1.023,0.7884 -1.742,1.63 -2.157,2.5249 l -3.58,-1.2784 c 0.639,-1.4915 1.492,-2.6527 2.557,-3.4837 1.076,-0.8416 2.248,-1.4275 3.515,-1.7578 1.279,-0.3409 2.536,-0.5114 3.772,-0.5114 0.788,0 1.694,0.0959 2.716,0.2877 1.034,0.1811 2.03,0.5593 2.989,1.1346 0.969,0.5753 1.773,1.4435 2.413,2.6047 0.639,1.1613 0.958,2.7167 0.958,4.6662 V 96 h -3.771 v -3.3239 h -0.192 c -0.255,0.5327 -0.681,1.1027 -1.278,1.7099 -0.597,0.6073 -1.39,1.1239 -2.381,1.5501 -0.991,0.4261 -2.2,0.6392 -3.628,0.6392 z m 0.576,-3.3878 c 1.491,0 2.748,-0.293 3.771,-0.8789 1.033,-0.5859 1.811,-1.3423 2.333,-2.2692 0.533,-0.9268 0.799,-1.9016 0.799,-2.9243 v -3.4517 c -0.16,0.1917 -0.511,0.3675 -1.055,0.5273 -0.532,0.1491 -1.15,0.2823 -1.853,0.3995 -0.693,0.1065 -1.369,0.2024 -2.03,0.2876 -0.65,0.0746 -1.177,0.1385 -1.582,0.1918 -0.98,0.1278 -1.896,0.3356 -2.748,0.6232 -0.842,0.277 -1.524,0.6978 -2.046,1.2625 -0.511,0.5539 -0.767,1.3103 -0.767,2.2691 0,1.3104 0.485,2.3012 1.454,2.9723 0.981,0.6605 2.222,0.9908 3.724,0.9908 z M 468.339,81.2344 V 96 h -3.771 V 71.4545 h 3.643 v 3.8353 h 0.32 c 0.575,-1.2465 1.449,-2.2479 2.621,-3.0043 1.172,-0.767 2.684,-1.1506 4.538,-1.1506 1.662,0 3.116,0.341 4.363,1.0228 1.246,0.6711 2.216,1.6939 2.908,3.0682 0.692,1.3636 1.039,3.0894 1.039,5.1775 V 96 h -3.772 V 80.6591 c 0,-1.9283 -0.5,-3.4304 -1.502,-4.5064 -1.001,-1.0866 -2.375,-1.63 -4.123,-1.63 -1.203,0 -2.279,0.261 -3.228,0.7831 -0.937,0.522 -1.677,1.2837 -2.221,2.2851 -0.543,1.0014 -0.815,2.2159 -0.815,3.6435 z M 490.891,96 V 71.4545 h 3.771 V 96 Z m 1.918,-28.6364 c -0.735,0 -1.369,-0.2503 -1.902,-0.751 -0.522,-0.5007 -0.783,-1.1027 -0.783,-1.8058 0,-0.7031 0.261,-1.305 0.783,-1.8057 0.533,-0.5007 1.167,-0.7511 1.902,-0.7511 0.735,0 1.363,0.2504 1.885,0.7511 0.533,0.5007 0.799,1.1026 0.799,1.8057 0,0.7031 -0.266,1.3051 -0.799,1.8058 -0.522,0.5007 -1.15,0.751 -1.885,0.751 z m 18.732,29.1478 c -2.301,0 -4.282,-0.5434 -5.944,-1.63 -1.662,-1.0867 -2.94,-2.5835 -3.835,-4.4904 -0.895,-1.907 -1.343,-4.0856 -1.343,-6.5359 0,-2.4929 0.458,-4.6928 1.375,-6.5998 0.926,-1.9176 2.215,-3.4144 3.867,-4.4904 1.662,-1.0866 3.601,-1.63 5.817,-1.63 1.725,0 3.281,0.3196 4.666,0.9589 1.385,0.6392 2.519,1.534 3.403,2.6846 0.885,1.1506 1.433,2.4929 1.646,4.027 h -3.771 c -0.288,-1.1186 -0.927,-2.1094 -1.917,-2.9723 -0.981,-0.8736 -2.302,-1.3104 -3.964,-1.3104 -1.47,0 -2.759,0.3835 -3.867,1.1506 -1.097,0.7564 -1.955,1.8271 -2.573,3.212 -0.607,1.3743 -0.91,2.9883 -0.91,4.842 0,1.8963 0.298,3.5476 0.894,4.9538 0.608,1.4063 1.46,2.4982 2.557,3.2759 1.108,0.7777 2.408,1.1666 3.899,1.1666 0.981,0 1.87,-0.1705 2.669,-0.5114 0.799,-0.3409 1.476,-0.831 2.03,-1.4702 0.554,-0.6392 0.948,-1.4062 1.182,-2.3011 h 3.771 c -0.213,1.4489 -0.74,2.7539 -1.582,3.9151 -0.831,1.1506 -1.933,2.0668 -3.307,2.7486 -1.364,0.6712 -2.951,1.0068 -4.763,1.0068 z m 32.552,-19.5597 -3.388,0.9588 c -0.213,-0.5646 -0.527,-1.1133 -0.943,-1.6459 -0.404,-0.5434 -0.958,-0.9908 -1.662,-1.3424 -0.703,-0.3515 -1.603,-0.5273 -2.7,-0.5273 -1.502,0 -2.754,0.3462 -3.756,1.0387 -0.99,0.6818 -1.486,1.5501 -1.486,2.6048 0,0.9375 0.341,1.6779 1.023,2.2212 0.682,0.5433 1.747,0.9961 3.196,1.3583 l 3.644,0.8949 c 2.194,0.5327 3.829,1.3476 4.905,2.4449 1.076,1.0867 1.614,2.4876 1.614,4.2028 0,1.4063 -0.404,2.6634 -1.214,3.7713 -0.799,1.108 -1.918,1.9816 -3.356,2.6208 -1.438,0.6392 -3.111,0.9588 -5.018,0.9588 -2.503,0 -4.575,-0.5434 -6.216,-1.63 -1.641,-1.0867 -2.679,-2.674 -3.116,-4.7621 l 3.579,-0.8949 c 0.341,1.3211 0.986,2.3118 1.934,2.9723 0.959,0.6605 2.211,0.9908 3.755,0.9908 1.758,0 3.154,-0.3729 4.187,-1.1186 1.044,-0.7564 1.566,-1.6619 1.566,-2.7166 0,-0.8523 -0.298,-1.5661 -0.895,-2.1414 -0.596,-0.5859 -1.512,-1.0227 -2.748,-1.3103 l -4.091,-0.9588 c -2.248,-0.5327 -3.899,-1.3583 -4.954,-2.477 -1.044,-1.1292 -1.566,-2.5408 -1.566,-4.2347 0,-1.3849 0.389,-2.6101 1.167,-3.6754 0.788,-1.0654 1.859,-1.9016 3.212,-2.5089 1.363,-0.6072 2.908,-0.9109 4.634,-0.9109 2.429,0 4.336,0.5327 5.721,1.5981 1.395,1.0653 2.386,2.4715 2.972,4.2187 z"
     fill="#0d6efd"
     id="path545"
     clip-path="url(#clipPath803)"
     style="fill:#2c579e;fill-opacity:1" />
  <defs
     id="defs596">
    <clipPath
       clipPathUnits="userSpaceOnUse"
       id="clipPath671">
      <g
         id="g675">
        <rect
           width="562"
           height="173"
           fill="#ffffff"
           id="rect673"
           x="0"
           y="0" />
      </g>
    </clipPath>
    <clipPath
       clipPathUnits="userSpaceOnUse"
       id="clipPath677">
      <g
         id="g681">
        <rect
           width="562"
           height="173"
           fill="#ffffff"
           id="rect679"
           x="0"
           y="0" />
      </g>
    </clipPath>
    <clipPath
       clipPathUnits="userSpaceOnUse"
       id="clipPath683">
      <g
         id="g687">
        <rect
           width="562"
           height="173"
           fill="#ffffff"
           id="rect685"
           x="0"
           y="0" />
      </g>
    </clipPath>
    <clipPath
       clipPathUnits="userSpaceOnUse"
       id="clipPath689">
      <g
         id="g693">
        <rect
           width="562"
           height="173"
           fill="#ffffff"
           id="rect691"
           x="0"
           y="0" />
      </g>
    </clipPath>
    <clipPath
       clipPathUnits="userSpaceOnUse"
       id="clipPath695">
      <g
         id="g699">
        <rect
           width="562"
           height="173"
           fill="#ffffff"
           id="rect697"
           x="0"
           y="0" />
      </g>
    </clipPath>
    <clipPath
       clipPathUnits="userSpaceOnUse"
       id="clipPath701">
      <g
         id="g705">
        <rect
           width="562"
           height="173"
           fill="#ffffff"
           id="rect703"
           x="0"
           y="0" />
      </g>
    </clipPath>
    <clipPath
       clipPathUnits="userSpaceOnUse"
       id="clipPath707">
      <g
         id="g711">
        <rect
           width="562"
           height="173"
           fill="#ffffff"
           id="rect709"
           x="0"
           y="0" />
      </g>
    </clipPath>
    <clipPath
       clipPathUnits="userSpaceOnUse"
       id="clipPath713">
      <g
         id="g717">
        <rect
           width="562"
           height="173"
           fill="#ffffff"
           id="rect715"
           x="0"
           y="0" />
      </g>
    </clipPath>
    <clipPath
       clipPathUnits="userSpaceOnUse"
       id="clipPath719">
      <g
         id="g723">
        <rect
           width="562"
           height="173"
           fill="#ffffff"
           id="rect721"
           x="0"
           y="0" />
      </g>
    </clipPath>
    <clipPath
       clipPathUnits="userSpaceOnUse"
       id="clipPath725">
      <g
         id="g729">
        <rect
           width="562"
           height="173"
           fill="#ffffff"
           id="rect727"
           x="0"
           y="0" />
      </g>
    </clipPath>
    <clipPath
       clipPathUnits="userSpaceOnUse"
       id="clipPath731">
      <g
         id="g735">
        <rect
           width="562"
           height="173"
           fill="#ffffff"
           id="rect733"
           x="0"
           y="0" />
      </g>
    </clipPath>
    <clipPath
       clipPathUnits="userSpaceOnUse"
       id="clipPath737">
      <g
         id="g741">
        <rect
           width="562"
           height="173"
           fill="#ffffff"
           id="rect739"
           x="0"
           y="0" />
      </g>
    </clipPath>
    <clipPath
       clipPathUnits="userSpaceOnUse"
       id="clipPath743">
      <g
         id="g747">
        <rect
           width="562"
           height="173"
           fill="#ffffff"
           id="rect745"
           x="0"
           y="0" />
      </g>
    </clipPath>
    <clipPath
       clipPathUnits="userSpaceOnUse"
       id="clipPath749">
      <g
         id="g753">
        <rect
           width="562"
           height="173"
           fill="#ffffff"
           id="rect751"
           x="0"
           y="0" />
      </g>
    </clipPath>
    <clipPath
       clipPathUnits="userSpaceOnUse"
       id="clipPath755">
      <g
         id="g759">
        <rect
           width="562"
           height="173"
           fill="#ffffff"
           id="rect757"
           x="0"
           y="0" />
      </g>
    </clipPath>
    <clipPath
       clipPathUnits="userSpaceOnUse"
       id="clipPath761">
      <g
         id="g765">
        <rect
           width="562"
           height="173"
           fill="#ffffff"
           id="rect763"
           x="0"
           y="0" />
      </g>
    </clipPath>
    <clipPath
       clipPathUnits="userSpaceOnUse"
       id="clipPath767">
      <g
         id="g771">
        <rect
           width="562"
           height="173"
           fill="#ffffff"
           id="rect769"
           x="0"
           y="0" />
      </g>
    </clipPath>
    <clipPath
       clipPathUnits="userSpaceOnUse"
       id="clipPath773">
      <g
         id="g777">
        <rect
           width="562"
           height="173"
           fill="#ffffff"
           id="rect775"
           x="0"
           y="0" />
      </g>
    </clipPath>
    <clipPath
       clipPathUnits="userSpaceOnUse"
       id="clipPath779">
      <g
         id="g783">
        <rect
           width="562"
           height="173"
           fill="#ffffff"
           id="rect781"
           x="0"
           y="0" />
      </g>
    </clipPath>
    <clipPath
       clipPathUnits="userSpaceOnUse"
       id="clipPath785">
      <g
         id="g789">
        <rect
           width="562"
           height="173"
           fill="#ffffff"
           id="rect787"
           x="0"
           y="0" />
      </g>
    </clipPath>
    <clipPath
       clipPathUnits="userSpaceOnUse"
       id="clipPath791">
      <g
         id="g795">
        <rect
           width="562"
           height="173"
           fill="#ffffff"
           id="rect793"
           x="0"
           y="0" />
      </g>
    </clipPath>
    <clipPath
       clipPathUnits="userSpaceOnUse"
       id="clipPath797">
      <g
         id="g801">
        <rect
           width="562"
           height="173"
           fill="#ffffff"
           id="rect799"
           x="0"
           y="0" />
      </g>
    </clipPath>
    <clipPath
       clipPathUnits="userSpaceOnUse"
       id="clipPath803">
      <g
         id="g807">
        <rect
           width="562"
           height="173"
           fill="#ffffff"
           id="rect805"
           x="0"
           y="0" />
      </g>
    </clipPath>
    <clipPath
       clipPathUnits="userSpaceOnUse"
       id="clipPath809">
      <g
         id="g813">
        <rect
           width="562"
           height="173"
           fill="#ffffff"
           id="rect811"
           x="0"
           y="0" />
      </g>
    </clipPath>
  </defs>
  <g
     class="layer"
     id="g467"
     transform="matrix(0.71694146,0,0,0.72846436,12.484555,6.590559)">
    <title
       id="title459">Layer 1</title>
    <path
       clip-rule="evenodd"
       d="m 110,192 c 49.71,0 90,-38.06 90,-85 0,-46.94 -40.29,-85 -90,-85 -49.71,0 -90,38.06 -90,85 0,46.94 40.29,85 90,85 z m 0,-7 c 37.56,0 68,-34.25 68,-76.5 C 178,66.25 147.56,32 110,32 72.44,32 42,66.25 42,108.5 42,150.75 72.44,185 110,185 Z"
       fill="#d9d9d9"
       fill-rule="evenodd"
       id="svg_3" />
    <path
       d="M 69.27,179.98 8.85,151.26 62.17,113.46 Z"
       fill="#2c579e"
       id="svg_4" />
    <path
       d="M 124.5,25.5 C 63,19.5 30.58,83.22 48,133 L 25.25,143.79 C 4.38,68.62 61,12 124.5,25.5 Z"
       fill="#2c579e"
       id="svg_5" />
    <path
       d="m 163.81,40.75 52.22,25.23 -46.44,32.48 z"
       fill="#2c579e"
       id="svg_6" />
    <path
       d="m 102.5,187.5 c 51,9 96.46,-56.62 79.04,-106.39 L 196.53,74.2 C 217.39,149.37 153,206 102.5,187.5 Z"
       fill="#2c579e"
       id="svg_7" />
    <path
       d="m 187.01,30.12 c 1.22,-0.75 -0.7,-3.02 -1.76,-4.27 0,0 1.55,1.21 1.62,0.47 0.08,-0.71 -0.25,-2.13 -2.42,-3.25 -1.2,-0.61 -2,-0.63 -2.84,-1.46 -0.84,-0.82 -1.99,-1.75 -2.2,-2.55 -0.21,-0.75 -0.53,-0.89 0.28,-1.41 0.53,-0.34 0.67,-1.35 0.49,-1.86 -0.38,-1.08 -1.05,-1.12 -1.33,-0.31 -0.14,0.43 -0.63,0.3 -1.13,0.18 -0.49,-0.09 -1.16,0.03 -1.47,0.63 -0.63,1.19 -1.22,1.41 -1.5,2.37 -0.18,0.78 -2.46,1.82 -3.92,2.48 -1.45,0.65 -7.78,2.55 -11.49,2.88 -3.68,0.34 -8.3,0.67 -11.92,3.31 0,0 -2.17,-0.09 -4.32,0 -2.14,0.07 -11.17,2.55 -13.01,3.14 -1.86,0.58 -2.59,0.85 -4.55,0.43 -1.99,-0.38 -4,-0.94 -5.89,-0.07 -3.04,1.36 -4.84,3.05 -4.84,3.05 0,0 -2.51,0.13 -3.41,0.13 h -2.38 c 0,0 -0.55,-4.43 -0.55,-6.36 0,-1.95 -0.34,-3.09 -0.34,-3.09 0,0 0.7,0.57 1.37,-0.24 0.67,-0.81 0.49,-2.64 0.42,-3.69 -0.07,-0.88 -0.71,-2.88 -1.5,-2.64 -0.18,0.07 -0.28,0.09 -0.34,0.11 0,-0.07 -0.42,-4.64 -1.01,-6.09 -0.53,-1.29 -1.37,-2.82 -2.8,-4.19 -0.82,-0.78 -2.09,-1.46 -3.43,-1.9 -0.28,-1.05 -1.13,-3.14 -3.5,-3.34 -2.87,-0.24 -5.3,1.39 -5.62,3.34 -0.14,1.02 0.18,1.72 0.53,2.13 -0.17,0.2 -0.36,0.38 -0.53,0.58 -1.61,1.77 -2.13,3.38 -2.21,5.65 -0.03,0.63 0.5,4.23 0.97,5.85 0.32,1.15 0.32,1.41 0.32,1.41 0,0 -1.13,-0.27 -1.2,0.7 -0.07,0.96 0.28,2.57 0.5,3.48 0.24,0.88 0.7,2.09 1.54,2.17 0.84,0.09 1.13,-0.5 1.13,-0.5 0,0 1.13,2.67 1.51,3.22 0.38,0.57 1.82,2.26 2.2,3.62 0.38,1.36 0.38,3.85 0.24,4.66 -0.14,0.81 -3.26,2.02 -4.51,3.48 -0.88,1.01 -2.38,1.93 -2.38,1.93 0,0 -3.18,0.09 -4.78,1.62 -1.58,1.52 -4.38,4.34 -5.51,6.67 -1.13,2.33 -1.64,3.79 -1.64,3.79 0,0 -3.68,2.1 -6.26,4.64 -2.59,2.57 -6.2,7.34 -7.74,9.2 -0.8,0.96 -2.97,2.53 -4.93,4.5 -2.42,2.47 -4.17,3.93 -7.47,8.11 -3.3,4.19 -9.32,10.93 -11,12.41 -1.71,1.48 -2.91,1.19 -3.71,2.53 -0.87,1.5 -1.62,2.4 -1.82,4.53 -0.11,1.32 -0.34,1.89 -0.59,2.44 -0.34,0.7 -1.09,1.09 -1.13,1.55 -0.04,0.5 0.59,0.57 0.91,0.63 0.49,0.09 1.86,-0.43 2.07,-1.59 0.24,-1.46 1.5,-1.29 1.5,-0.89 0,0.4 -1.08,3.38 -1.58,4.68 -0.61,1.63 -0.91,3.73 -0.88,4.7 0.03,0.75 0.39,1.55 0.88,0.96 0.53,-0.58 0.82,-2.13 0.82,-2.13 0,0 -0.14,1.46 -0.08,2.6 0.11,1.43 1.03,2.2 1.55,-0.16 0,0 0,1.19 0.78,1.16 0.76,-0.04 0.97,-1.66 0.97,-1.66 -0.08,1.09 0.42,1.46 1.08,0.65 0.45,-0.54 1.62,-2.87 1.76,-4.93 0.14,-2.06 0.78,-7.71 0.78,-8.93 0,-1.23 0.18,-0.98 0.84,-1.23 0.74,-0.24 1.16,-1.63 2.14,-2.44 0.99,-0.82 9.25,-7.44 13.17,-10.96 4.21,-3.79 5.57,-4.95 7,-7.11 0.5,-0.81 1.66,-1.39 2.66,-2.34 1.01,-1.01 6.74,-5.51 8.51,-6.98 1.76,-1.48 4.32,-2.6 6.83,-5.11 2.51,-2.48 3.99,-3.65 3.99,-3.65 0,0 3.57,2.17 4.88,3.41 1.33,1.25 2.59,4.68 3.46,6.63 0.84,1.97 0.18,5.44 0.04,7.25 -0.17,1.82 -0.38,1.99 -0.78,2.87 -1.43,3.22 -1.93,9.11 -1.86,10.09 0.08,0.96 -8.93,10.96 -11.78,15.81 -2.87,4.88 -9.22,18.45 -10.22,22.77 -0.97,4.16 -1.51,6.33 -0.42,8.17 1.08,1.86 4.45,3.54 6.63,2.51 2.2,-1.02 4.42,-2.84 6.38,-4.53 1.43,-1.23 10.24,-12.52 11.96,-13.43 1.72,-0.92 6.63,-4.53 8.07,-6.85 1.62,-2.64 3.37,-5.31 3.88,-6.76 0.21,-0.57 2.17,-0.74 1.92,0.34 -0.28,1.08 -1.2,15.39 -0.61,19.39 0.57,4 0.21,12.69 0.13,16.05 -0.08,3.38 -0.08,8.76 -0.14,10.46 -0.03,0.4 0.13,-0.36 -0.87,1.9 -0.99,2.24 -2.3,7.03 -1.51,10.79 0.76,3.79 -0.55,11.82 -0.59,13.03 l -0.04,1.21 c 0,0 -2.46,-0.71 -3.33,0.71 -0.84,1.41 -1.71,3.79 -1.39,7.3 0.34,3.52 -1.12,9.38 -1.86,10.43 -0.71,1.05 -3.75,3.36 -3.16,9.43 0.57,6.05 2.97,5.92 5.18,4.43 2.21,-1.5 7.26,-8.6 8.53,-16.45 0.25,-1.52 2.87,-7.01 2.49,-9.07 -0.38,-2.09 1.3,-8.17 2.46,-11.98 1.16,-3.83 5.79,-12.34 4.51,-21.45 -0.29,-2.2 1.08,-5.96 2.04,-8.8 1.72,-5.01 6.7,-22.95 8.79,-36.14 0.55,-3.49 0.76,-3.58 1.45,-12.41 0.46,-5.78 -1.66,-15.87 -2.34,-17.13 -1.18,-2.22 -1.33,-6.85 -2.45,-10.35 -0.63,-1.95 -0.5,-6.02 -0.66,-8.19 -0.14,-2.17 -0.45,-7.65 -1.29,-12.01 -0.84,-4.34 -0.84,-5.39 -0.67,-6.52 0.14,-1.12 2.46,-1.15 4.41,-1.46 1.92,-0.34 6.26,-0.71 11.63,-4.54 0.7,-0.51 4.7,-1.75 6,-2.16 1.3,-0.43 3.04,-0.71 3.82,-0.63 0.76,0.09 1.43,-0.78 1.89,-1.02 0.45,-0.24 16.41,-5.62 19.06,-7.21 1.83,-1.09 2.84,-0.51 3.29,-1.12 0.42,-0.57 0.82,-0.2 2.28,0.04 1.47,0.24 3.54,0.92 4.17,1.5 0.61,0.58 2.34,4.7 2.49,6.05 0.17,1.36 0.8,2.2 1.18,1.12 0.46,-1.35 -0.14,-3.25 -0.14,-3.25 0,0 0.18,0.34 0.57,0.65 0.39,0.34 1.12,-1.09 0.63,-2.28"
       id="svg_29"
       inkscape:label="svg_29"
       style="fill:#000000;fill-opacity:1" />
  </g>
</svg>
