<svg width="425" height="153" viewBox="0 0 425 153" fill="none" xmlns="http://www.w3.org/2000/svg">
<path d="M42.4554 91V47.1685H57.4773C62.4345 47.1685 66.2075 48.1619 68.7965 50.1488C71.3854 52.1357 72.6799 55.0959 72.6799 59.0295C72.6799 61.0364 72.138 62.8427 71.0543 64.4482C69.9705 66.0538 68.385 67.2981 66.2978 68.1811C68.666 68.8233 70.4923 70.0375 71.7768 71.8237C73.0813 73.5898 73.7335 75.7172 73.7335 78.2058C73.7335 82.32 72.4089 85.4809 69.7598 87.6886C67.1307 89.8962 63.3577 91 58.4407 91H42.4554ZM50.0717 71.2216V84.919H58.531C60.9192 84.919 62.7857 84.3269 64.1303 83.1428C65.475 81.9587 66.1473 80.3131 66.1473 78.2058C66.1473 73.65 63.8193 71.322 59.1632 71.2216H50.0717ZM50.0717 65.6223H57.5375C59.9057 65.6223 61.7521 65.0904 63.0767 64.0268C64.4213 62.943 65.0937 61.4177 65.0937 59.4509C65.0937 57.2834 64.4715 55.718 63.2272 54.7547C62.003 53.7914 60.0863 53.3097 57.4773 53.3097H50.0717V65.6223ZM88.4243 91H81.109V58.4274H88.4243V91ZM80.6575 49.9682C80.6575 48.8443 81.0087 47.9111 81.7111 47.1685C82.4336 46.4259 83.4571 46.0546 84.7817 46.0546C86.1063 46.0546 87.1298 46.4259 87.8523 47.1685C88.5748 47.9111 88.9361 48.8443 88.9361 49.9682C88.9361 51.072 88.5748 51.9952 87.8523 52.7377C87.1298 53.4602 86.1063 53.8215 84.7817 53.8215C83.4571 53.8215 82.4336 53.4602 81.7111 52.7377C81.0087 51.9952 80.6575 51.072 80.6575 49.9682ZM95.0472 74.4127C95.0472 71.2216 95.6794 68.3517 96.9438 65.8029C98.2081 63.234 99.9843 61.2672 102.272 59.9025C104.56 58.5177 107.189 57.8253 110.159 57.8253C114.555 57.8253 118.117 59.2402 120.846 62.07C123.596 64.8998 125.081 68.6528 125.302 73.3289L125.332 75.0448C125.332 78.2559 124.71 81.1259 123.465 83.6546C122.241 86.1833 120.475 88.1401 118.167 89.5249C115.879 90.9097 113.23 91.6021 110.22 91.6021C105.624 91.6021 101.941 90.0768 99.1715 87.0263C96.422 83.9556 95.0472 79.8715 95.0472 74.7739V74.4127ZM102.362 75.0448C102.362 78.3964 103.055 81.0255 104.44 82.9321C105.824 84.8186 107.751 85.7619 110.22 85.7619C112.688 85.7619 114.605 84.7986 115.97 82.8719C117.354 80.9452 118.047 78.1255 118.047 74.4127C118.047 71.1213 117.334 68.5123 115.909 66.5856C114.504 64.6589 112.588 63.6956 110.159 63.6956C107.771 63.6956 105.875 64.6489 104.47 66.5555C103.065 68.442 102.362 71.2718 102.362 75.0448ZM138.397 58.4274L138.608 61.8292C140.896 59.1599 144.027 57.8253 148 57.8253C152.355 57.8253 155.336 59.4911 156.941 62.8226C159.309 59.4911 162.641 57.8253 166.936 57.8253C170.528 57.8253 173.197 58.8188 174.943 60.8056C176.709 62.7925 177.613 65.7226 177.653 69.596V91H170.337V69.8067C170.337 67.7396 169.886 66.2244 168.983 65.261C168.08 64.2977 166.584 63.816 164.497 63.816C162.832 63.816 161.467 64.2676 160.403 65.1707C159.36 66.0538 158.627 67.2178 158.206 68.6628L158.236 91H150.92V69.5659C150.82 65.7327 148.863 63.816 145.05 63.816C142.12 63.816 140.043 65.0102 138.819 67.3984V91H131.503V58.4274H138.397ZM199.508 91.6021C194.872 91.6021 191.109 90.1471 188.219 87.237C185.349 84.3069 183.914 80.4134 183.914 75.5566V74.6535C183.914 71.4023 184.537 68.5022 185.781 65.9534C187.045 63.3845 188.811 61.3876 191.079 59.9627C193.347 58.5378 195.876 57.8253 198.665 57.8253C203.101 57.8253 206.523 59.2402 208.931 62.07C211.359 64.8998 212.573 68.9036 212.573 74.0815V77.0317H191.29C191.511 79.721 192.404 81.8484 193.969 83.4138C195.555 84.9792 197.541 85.7619 199.93 85.7619C203.281 85.7619 206.011 84.4072 208.118 81.6978L212.062 85.4609C210.757 87.4076 209.011 88.9228 206.824 90.0066C204.656 91.0702 202.218 91.6021 199.508 91.6021ZM198.635 63.6956C196.628 63.6956 195.003 64.398 193.758 65.8029C192.534 67.2078 191.751 69.1645 191.41 71.6732H205.348V71.1313C205.188 68.6829 204.536 66.8365 203.392 65.5922C202.248 64.3278 200.662 63.6956 198.635 63.6956ZM231.659 85.7619C233.486 85.7619 235.001 85.2301 236.205 84.1664C237.409 83.1027 238.052 81.7882 238.132 80.2227H245.026C244.945 82.2498 244.313 84.1463 243.129 85.9124C241.945 87.6584 240.339 89.0432 238.312 90.0668C236.285 91.0903 234.098 91.6021 231.75 91.6021C227.194 91.6021 223.582 90.127 220.912 87.1768C218.243 84.2266 216.908 80.1525 216.908 74.9545V74.2019C216.908 69.2448 218.233 65.2811 220.882 62.3108C223.531 59.3205 227.144 57.8253 231.72 57.8253C235.593 57.8253 238.744 58.9592 241.172 61.2271C243.621 63.4749 244.905 66.4351 245.026 70.1078H238.132C238.052 68.2413 237.409 66.706 236.205 65.5019C235.021 64.2977 233.506 63.6956 231.659 63.6956C229.291 63.6956 227.465 64.5586 226.181 66.2846C224.896 67.9905 224.244 70.5894 224.224 74.0815V75.2556C224.224 78.7878 224.856 81.4269 226.12 83.1729C227.405 84.8989 229.251 85.7619 231.659 85.7619ZM257.76 61.9797C260.148 59.2101 263.168 57.8253 266.821 57.8253C273.765 57.8253 277.287 61.789 277.388 69.7164V91H270.072V69.9874C270.072 67.7396 269.581 66.1541 268.597 65.2309C267.634 64.2877 266.209 63.816 264.322 63.816C261.392 63.816 259.205 65.1205 257.76 67.7296V91H250.444V44.7602H257.76V61.9797ZM320.286 91H312.669L293.132 59.9025V91H285.516V47.1685H293.132L312.73 78.3864V47.1685H320.286V91ZM342.924 91.6021C338.288 91.6021 334.525 90.1471 331.635 87.237C328.765 84.3069 327.33 80.4134 327.33 75.5566V74.6535C327.33 71.4023 327.952 68.5022 329.197 65.9534C330.461 63.3845 332.227 61.3876 334.495 59.9627C336.763 58.5378 339.291 57.8253 342.081 57.8253C346.516 57.8253 349.938 59.2402 352.347 62.07C354.775 64.8998 355.989 68.9036 355.989 74.0815V77.0317H334.706C334.926 79.721 335.819 81.8484 337.385 83.4138C338.97 84.9792 340.957 85.7619 343.346 85.7619C346.697 85.7619 349.427 84.4072 351.534 81.6978L355.477 85.4609C354.173 87.4076 352.427 88.9228 350.239 90.0066C348.072 91.0702 345.633 91.6021 342.924 91.6021ZM342.051 63.6956C340.044 63.6956 338.418 64.398 337.174 65.8029C335.95 67.2078 335.167 69.1645 334.826 71.6732H348.764V71.1313C348.604 68.6829 347.951 66.8365 346.807 65.5922C345.664 64.3278 344.078 63.6956 342.051 63.6956ZM370.861 50.51V58.4274H376.611V63.8461H370.861V82.029C370.861 83.2733 371.101 84.1764 371.583 84.7384C372.085 85.2802 372.968 85.5512 374.232 85.5512C375.075 85.5512 375.928 85.4508 376.791 85.2501V90.9097C375.125 91.3713 373.52 91.6021 371.974 91.6021C366.355 91.6021 363.545 88.5014 363.545 82.2999V63.8461H358.187V58.4274H363.545V50.51H370.861Z" fill="white"/>
<path d="M52.6602 103.781V113.449C52.6536 114.79 52.2305 115.887 51.3906 116.74C50.5573 117.593 49.4245 118.072 47.9922 118.176L47.4941 118.195C45.9382 118.195 44.6979 117.775 43.7734 116.936C42.849 116.096 42.3802 114.94 42.3672 113.469V103.781H44.2227V113.41C44.2227 114.439 44.5059 115.24 45.0723 115.812C45.6387 116.379 46.446 116.662 47.4941 116.662C48.5553 116.662 49.3659 116.379 49.9258 115.812C50.4922 115.246 50.7754 114.449 50.7754 113.42V103.781H52.6602ZM57.0449 107.434L57.1035 108.762C57.9108 107.746 58.9655 107.238 60.2676 107.238C62.5007 107.238 63.627 108.498 63.6465 111.018V118H61.8398V111.008C61.8333 110.246 61.6576 109.683 61.3125 109.318C60.974 108.954 60.4434 108.771 59.7207 108.771C59.1348 108.771 58.6204 108.928 58.1777 109.24C57.735 109.553 57.39 109.963 57.1426 110.471V118H55.3359V107.434H57.0449ZM68.334 118H66.5273V107.434H68.334V118ZM66.3809 104.631C66.3809 104.338 66.4688 104.09 66.6445 103.889C66.8268 103.687 67.0938 103.586 67.4453 103.586C67.7969 103.586 68.0638 103.687 68.2461 103.889C68.4284 104.09 68.5195 104.338 68.5195 104.631C68.5195 104.924 68.4284 105.168 68.2461 105.363C68.0638 105.559 67.7969 105.656 67.4453 105.656C67.0938 105.656 66.8268 105.559 66.6445 105.363C66.4688 105.168 66.3809 104.924 66.3809 104.631ZM73.6855 104.875V107.434H75.6582V108.83H73.6855V115.383C73.6855 115.806 73.7734 116.125 73.9492 116.34C74.125 116.548 74.4245 116.652 74.8477 116.652C75.056 116.652 75.3424 116.613 75.707 116.535V118C75.2318 118.13 74.7695 118.195 74.3203 118.195C73.513 118.195 72.9043 117.951 72.4941 117.463C72.084 116.975 71.8789 116.281 71.8789 115.383V108.83H69.9551V107.434H71.8789V104.875H73.6855ZM79.7402 118H77.9336V107.434H79.7402V118ZM77.7871 104.631C77.7871 104.338 77.875 104.09 78.0508 103.889C78.2331 103.687 78.5 103.586 78.8516 103.586C79.2031 103.586 79.4701 103.687 79.6523 103.889C79.8346 104.09 79.9258 104.338 79.9258 104.631C79.9258 104.924 79.8346 105.168 79.6523 105.363C79.4701 105.559 79.2031 105.656 78.8516 105.656C78.5 105.656 78.2331 105.559 78.0508 105.363C77.875 105.168 77.7871 104.924 77.7871 104.631ZM84.3496 107.434L84.4082 108.762C85.2155 107.746 86.2702 107.238 87.5723 107.238C89.8053 107.238 90.9316 108.498 90.9512 111.018V118H89.1445V111.008C89.138 110.246 88.9622 109.683 88.6172 109.318C88.2786 108.954 87.748 108.771 87.0254 108.771C86.4395 108.771 85.9251 108.928 85.4824 109.24C85.0397 109.553 84.6947 109.963 84.4473 110.471V118H82.6406V107.434H84.3496ZM93.2461 112.629C93.2461 110.982 93.627 109.673 94.3887 108.703C95.1504 107.727 96.1595 107.238 97.416 107.238C98.7051 107.238 99.7109 107.694 100.434 108.605L100.521 107.434H102.172V117.746C102.172 119.113 101.765 120.191 100.951 120.979C100.144 121.766 99.0566 122.16 97.6895 122.16C96.9277 122.16 96.1823 121.997 95.4531 121.672C94.724 121.346 94.1673 120.9 93.7832 120.334L94.7207 119.25C95.4954 120.207 96.4427 120.686 97.5625 120.686C98.4414 120.686 99.125 120.438 99.6133 119.943C100.108 119.449 100.355 118.752 100.355 117.854V116.945C99.6328 117.779 98.6465 118.195 97.3965 118.195C96.1595 118.195 95.1569 117.697 94.3887 116.701C93.627 115.705 93.2461 114.348 93.2461 112.629ZM95.0625 112.834C95.0625 114.025 95.3066 114.963 95.7949 115.646C96.2832 116.324 96.9668 116.662 97.8457 116.662C98.985 116.662 99.8216 116.145 100.355 115.109V110.285C99.8021 109.276 98.972 108.771 97.8652 108.771C96.9863 108.771 96.2995 109.113 95.8047 109.797C95.3099 110.48 95.0625 111.493 95.0625 112.834ZM112.318 104.875V107.434H114.291V108.83H112.318V115.383C112.318 115.806 112.406 116.125 112.582 116.34C112.758 116.548 113.057 116.652 113.48 116.652C113.689 116.652 113.975 116.613 114.34 116.535V118C113.865 118.13 113.402 118.195 112.953 118.195C112.146 118.195 111.537 117.951 111.127 117.463C110.717 116.975 110.512 116.281 110.512 115.383V108.83H108.588V107.434H110.512V104.875H112.318ZM118.217 108.713C119.018 107.73 120.059 107.238 121.342 107.238C123.575 107.238 124.701 108.498 124.721 111.018V118H122.914V111.008C122.908 110.246 122.732 109.683 122.387 109.318C122.048 108.954 121.518 108.771 120.795 108.771C120.209 108.771 119.695 108.928 119.252 109.24C118.809 109.553 118.464 109.963 118.217 110.471V118H116.41V103H118.217V108.713ZM131.811 118.195C130.378 118.195 129.213 117.727 128.314 116.789C127.416 115.845 126.967 114.585 126.967 113.01V112.678C126.967 111.63 127.165 110.695 127.562 109.875C127.966 109.048 128.526 108.404 129.242 107.941C129.965 107.473 130.746 107.238 131.586 107.238C132.96 107.238 134.027 107.691 134.789 108.596C135.551 109.501 135.932 110.796 135.932 112.482V113.234H128.773C128.799 114.276 129.102 115.119 129.682 115.764C130.268 116.402 131.01 116.721 131.908 116.721C132.546 116.721 133.087 116.59 133.529 116.33C133.972 116.07 134.359 115.725 134.691 115.295L135.795 116.154C134.91 117.515 133.581 118.195 131.811 118.195ZM131.586 108.723C130.857 108.723 130.245 108.99 129.75 109.523C129.255 110.051 128.949 110.793 128.832 111.75H134.125V111.613C134.073 110.695 133.826 109.986 133.383 109.484C132.94 108.977 132.341 108.723 131.586 108.723ZM152.348 115.51L154.379 107.434H156.186L153.109 118H151.645L149.076 109.992L146.576 118H145.111L142.045 107.434H143.842L145.922 115.344L148.383 107.434H149.838L152.348 115.51ZM157.553 112.619C157.553 111.584 157.755 110.653 158.158 109.826C158.568 108.999 159.135 108.361 159.857 107.912C160.587 107.463 161.417 107.238 162.348 107.238C163.786 107.238 164.949 107.736 165.834 108.732C166.726 109.729 167.172 111.053 167.172 112.707V112.834C167.172 113.863 166.973 114.787 166.576 115.607C166.186 116.421 165.622 117.056 164.887 117.512C164.158 117.967 163.318 118.195 162.367 118.195C160.935 118.195 159.773 117.697 158.881 116.701C157.995 115.705 157.553 114.387 157.553 112.746V112.619ZM159.369 112.834C159.369 114.006 159.639 114.947 160.18 115.656C160.727 116.366 161.456 116.721 162.367 116.721C163.285 116.721 164.014 116.363 164.555 115.646C165.095 114.924 165.365 113.915 165.365 112.619C165.365 111.46 165.089 110.523 164.535 109.807C163.988 109.084 163.259 108.723 162.348 108.723C161.456 108.723 160.736 109.077 160.189 109.787C159.643 110.497 159.369 111.512 159.369 112.834ZM174.545 109.055C174.271 109.009 173.975 108.986 173.656 108.986C172.471 108.986 171.667 109.491 171.244 110.5V118H169.438V107.434H171.195L171.225 108.654C171.817 107.71 172.657 107.238 173.744 107.238C174.096 107.238 174.363 107.284 174.545 107.375V109.055ZM178.178 118H176.371V103H178.178V118ZM180.639 112.629C180.639 111.008 181.023 109.706 181.791 108.723C182.559 107.733 183.565 107.238 184.809 107.238C186.046 107.238 187.025 107.661 187.748 108.508V103H189.555V118H187.895L187.807 116.867C187.084 117.753 186.078 118.195 184.789 118.195C183.565 118.195 182.566 117.694 181.791 116.691C181.023 115.689 180.639 114.38 180.639 112.766V112.629ZM182.445 112.834C182.445 114.032 182.693 114.969 183.188 115.646C183.682 116.324 184.366 116.662 185.238 116.662C186.384 116.662 187.221 116.148 187.748 115.119V110.266C187.208 109.27 186.378 108.771 185.258 108.771C184.372 108.771 183.682 109.113 183.188 109.797C182.693 110.48 182.445 111.493 182.445 112.834ZM192.494 107.785L191.469 107.082C192.074 106.236 192.387 105.344 192.406 104.406V103H194.193V104.27C194.187 104.921 194.024 105.572 193.705 106.223C193.393 106.867 192.989 107.388 192.494 107.785ZM201.43 115.197C201.43 114.709 201.244 114.331 200.873 114.064C200.508 113.791 199.867 113.557 198.949 113.361C198.038 113.166 197.312 112.932 196.771 112.658C196.238 112.385 195.84 112.059 195.58 111.682C195.326 111.304 195.199 110.855 195.199 110.334C195.199 109.468 195.564 108.736 196.293 108.137C197.029 107.538 197.966 107.238 199.105 107.238C200.303 107.238 201.273 107.548 202.016 108.166C202.764 108.785 203.139 109.576 203.139 110.539H201.322C201.322 110.044 201.111 109.618 200.688 109.26C200.271 108.902 199.743 108.723 199.105 108.723C198.448 108.723 197.934 108.866 197.562 109.152C197.191 109.439 197.006 109.813 197.006 110.275C197.006 110.712 197.178 111.04 197.523 111.262C197.868 111.483 198.49 111.695 199.389 111.896C200.294 112.098 201.026 112.339 201.586 112.619C202.146 112.899 202.559 113.238 202.826 113.635C203.1 114.025 203.236 114.504 203.236 115.07C203.236 116.014 202.859 116.773 202.104 117.346C201.348 117.912 200.368 118.195 199.164 118.195C198.318 118.195 197.569 118.046 196.918 117.746C196.267 117.447 195.756 117.03 195.385 116.496C195.02 115.956 194.838 115.373 194.838 114.748H196.645C196.677 115.354 196.918 115.835 197.367 116.193C197.823 116.545 198.422 116.721 199.164 116.721C199.848 116.721 200.395 116.584 200.805 116.311C201.221 116.031 201.43 115.66 201.43 115.197ZM219.496 112.834C219.496 114.449 219.125 115.747 218.383 116.73C217.641 117.707 216.645 118.195 215.395 118.195C214.06 118.195 213.028 117.723 212.299 116.779L212.211 118H210.551V103H212.357V108.596C213.087 107.691 214.092 107.238 215.375 107.238C216.658 107.238 217.663 107.723 218.393 108.693C219.128 109.663 219.496 110.992 219.496 112.678V112.834ZM217.689 112.629C217.689 111.398 217.452 110.448 216.977 109.777C216.501 109.107 215.818 108.771 214.926 108.771C213.734 108.771 212.878 109.325 212.357 110.432V115.002C212.911 116.109 213.773 116.662 214.945 116.662C215.811 116.662 216.485 116.327 216.967 115.656C217.449 114.986 217.689 113.977 217.689 112.629ZM223.744 118H221.938V107.434H223.744V118ZM221.791 104.631C221.791 104.338 221.879 104.09 222.055 103.889C222.237 103.687 222.504 103.586 222.855 103.586C223.207 103.586 223.474 103.687 223.656 103.889C223.839 104.09 223.93 104.338 223.93 104.631C223.93 104.924 223.839 105.168 223.656 105.363C223.474 105.559 223.207 105.656 222.855 105.656C222.504 105.656 222.237 105.559 222.055 105.363C221.879 105.168 221.791 104.924 221.791 104.631ZM226.166 112.619C226.166 111.584 226.368 110.653 226.771 109.826C227.182 108.999 227.748 108.361 228.471 107.912C229.2 107.463 230.03 107.238 230.961 107.238C232.4 107.238 233.562 107.736 234.447 108.732C235.339 109.729 235.785 111.053 235.785 112.707V112.834C235.785 113.863 235.587 114.787 235.189 115.607C234.799 116.421 234.236 117.056 233.5 117.512C232.771 117.967 231.931 118.195 230.98 118.195C229.548 118.195 228.386 117.697 227.494 116.701C226.609 115.705 226.166 114.387 226.166 112.746V112.619ZM227.982 112.834C227.982 114.006 228.253 114.947 228.793 115.656C229.34 116.366 230.069 116.721 230.98 116.721C231.898 116.721 232.628 116.363 233.168 115.646C233.708 114.924 233.979 113.915 233.979 112.619C233.979 111.46 233.702 110.523 233.148 109.807C232.602 109.084 231.872 108.723 230.961 108.723C230.069 108.723 229.35 109.077 228.803 109.787C228.256 110.497 227.982 111.512 227.982 112.834ZM239.75 107.434L239.799 108.605C240.574 107.694 241.618 107.238 242.934 107.238C244.411 107.238 245.417 107.805 245.951 108.938C246.303 108.43 246.758 108.02 247.318 107.707C247.885 107.395 248.552 107.238 249.32 107.238C251.638 107.238 252.816 108.465 252.855 110.92V118H251.049V111.027C251.049 110.272 250.876 109.709 250.531 109.338C250.186 108.96 249.607 108.771 248.793 108.771C248.122 108.771 247.566 108.973 247.123 109.377C246.68 109.774 246.423 110.311 246.352 110.988V118H244.535V111.076C244.535 109.54 243.783 108.771 242.279 108.771C241.094 108.771 240.284 109.276 239.848 110.285V118H238.041V107.434H239.75ZM259.975 118.195C258.542 118.195 257.377 117.727 256.479 116.789C255.58 115.845 255.131 114.585 255.131 113.01V112.678C255.131 111.63 255.329 110.695 255.727 109.875C256.13 109.048 256.69 108.404 257.406 107.941C258.129 107.473 258.91 107.238 259.75 107.238C261.124 107.238 262.191 107.691 262.953 108.596C263.715 109.501 264.096 110.796 264.096 112.482V113.234H256.938C256.964 114.276 257.266 115.119 257.846 115.764C258.432 116.402 259.174 116.721 260.072 116.721C260.71 116.721 261.251 116.59 261.693 116.33C262.136 116.07 262.523 115.725 262.855 115.295L263.959 116.154C263.074 117.515 261.745 118.195 259.975 118.195ZM259.75 108.723C259.021 108.723 258.409 108.99 257.914 109.523C257.419 110.051 257.113 110.793 256.996 111.75H262.289V111.613C262.237 110.695 261.99 109.986 261.547 109.484C261.104 108.977 260.505 108.723 259.75 108.723ZM270.434 116.721C271.078 116.721 271.641 116.525 272.123 116.135C272.605 115.744 272.872 115.256 272.924 114.67H274.633C274.6 115.275 274.392 115.852 274.008 116.398C273.624 116.945 273.109 117.382 272.465 117.707C271.827 118.033 271.15 118.195 270.434 118.195C268.995 118.195 267.849 117.717 266.996 116.76C266.15 115.796 265.727 114.481 265.727 112.814V112.512C265.727 111.483 265.915 110.568 266.293 109.768C266.671 108.967 267.211 108.345 267.914 107.902C268.624 107.46 269.46 107.238 270.424 107.238C271.609 107.238 272.592 107.593 273.373 108.303C274.161 109.012 274.581 109.934 274.633 111.066H272.924C272.872 110.383 272.611 109.823 272.143 109.387C271.68 108.944 271.107 108.723 270.424 108.723C269.506 108.723 268.793 109.055 268.285 109.719C267.784 110.376 267.533 111.33 267.533 112.58V112.922C267.533 114.139 267.784 115.077 268.285 115.734C268.786 116.392 269.503 116.721 270.434 116.721ZM278.471 108.713C279.271 107.73 280.313 107.238 281.596 107.238C283.829 107.238 284.955 108.498 284.975 111.018V118H283.168V111.008C283.161 110.246 282.986 109.683 282.641 109.318C282.302 108.954 281.771 108.771 281.049 108.771C280.463 108.771 279.949 108.928 279.506 109.24C279.063 109.553 278.718 109.963 278.471 110.471V118H276.664V103H278.471V108.713ZM294.203 118C294.099 117.792 294.014 117.421 293.949 116.887C293.109 117.759 292.107 118.195 290.941 118.195C289.9 118.195 289.044 117.902 288.373 117.316C287.709 116.724 287.377 115.975 287.377 115.07C287.377 113.97 287.794 113.117 288.627 112.512C289.467 111.9 290.645 111.594 292.162 111.594H293.92V110.764C293.92 110.132 293.731 109.631 293.354 109.26C292.976 108.882 292.419 108.693 291.684 108.693C291.039 108.693 290.499 108.856 290.062 109.182C289.626 109.507 289.408 109.901 289.408 110.363H287.592C287.592 109.836 287.777 109.328 288.148 108.84C288.526 108.345 289.034 107.954 289.672 107.668C290.316 107.382 291.023 107.238 291.791 107.238C293.008 107.238 293.962 107.544 294.652 108.156C295.342 108.762 295.701 109.598 295.727 110.666V115.529C295.727 116.499 295.85 117.271 296.098 117.844V118H294.203ZM291.205 116.623C291.771 116.623 292.309 116.477 292.816 116.184C293.324 115.891 293.692 115.51 293.92 115.041V112.873H292.504C290.29 112.873 289.184 113.521 289.184 114.816C289.184 115.383 289.372 115.826 289.75 116.145C290.128 116.464 290.613 116.623 291.205 116.623ZM300.268 107.434L300.326 108.762C301.133 107.746 302.188 107.238 303.49 107.238C305.723 107.238 306.85 108.498 306.869 111.018V118H305.062V111.008C305.056 110.246 304.88 109.683 304.535 109.318C304.197 108.954 303.666 108.771 302.943 108.771C302.357 108.771 301.843 108.928 301.4 109.24C300.958 109.553 300.613 109.963 300.365 110.471V118H298.559V107.434H300.268ZM311.557 118H309.75V107.434H311.557V118ZM309.604 104.631C309.604 104.338 309.691 104.09 309.867 103.889C310.049 103.687 310.316 103.586 310.668 103.586C311.02 103.586 311.286 103.687 311.469 103.889C311.651 104.09 311.742 104.338 311.742 104.631C311.742 104.924 311.651 105.168 311.469 105.363C311.286 105.559 311.02 105.656 310.668 105.656C310.316 105.656 310.049 105.559 309.867 105.363C309.691 105.168 309.604 104.924 309.604 104.631ZM318.695 116.721C319.34 116.721 319.903 116.525 320.385 116.135C320.867 115.744 321.133 115.256 321.186 114.67H322.895C322.862 115.275 322.654 115.852 322.27 116.398C321.885 116.945 321.371 117.382 320.727 117.707C320.089 118.033 319.411 118.195 318.695 118.195C317.257 118.195 316.111 117.717 315.258 116.76C314.411 115.796 313.988 114.481 313.988 112.814V112.512C313.988 111.483 314.177 110.568 314.555 109.768C314.932 108.967 315.473 108.345 316.176 107.902C316.885 107.46 317.722 107.238 318.686 107.238C319.87 107.238 320.854 107.593 321.635 108.303C322.423 109.012 322.842 109.934 322.895 111.066H321.186C321.133 110.383 320.873 109.823 320.404 109.387C319.942 108.944 319.369 108.723 318.686 108.723C317.768 108.723 317.055 109.055 316.547 109.719C316.046 110.376 315.795 111.33 315.795 112.58V112.922C315.795 114.139 316.046 115.077 316.547 115.734C317.048 116.392 317.764 116.721 318.695 116.721ZM331.078 115.197C331.078 114.709 330.893 114.331 330.521 114.064C330.157 113.791 329.516 113.557 328.598 113.361C327.686 113.166 326.96 112.932 326.42 112.658C325.886 112.385 325.489 112.059 325.229 111.682C324.975 111.304 324.848 110.855 324.848 110.334C324.848 109.468 325.212 108.736 325.941 108.137C326.677 107.538 327.615 107.238 328.754 107.238C329.952 107.238 330.922 107.548 331.664 108.166C332.413 108.785 332.787 109.576 332.787 110.539H330.971C330.971 110.044 330.759 109.618 330.336 109.26C329.919 108.902 329.392 108.723 328.754 108.723C328.096 108.723 327.582 108.866 327.211 109.152C326.84 109.439 326.654 109.813 326.654 110.275C326.654 110.712 326.827 111.04 327.172 111.262C327.517 111.483 328.139 111.695 329.037 111.896C329.942 112.098 330.674 112.339 331.234 112.619C331.794 112.899 332.208 113.238 332.475 113.635C332.748 114.025 332.885 114.504 332.885 115.07C332.885 116.014 332.507 116.773 331.752 117.346C330.997 117.912 330.017 118.195 328.812 118.195C327.966 118.195 327.217 118.046 326.566 117.746C325.915 117.447 325.404 117.03 325.033 116.496C324.669 115.956 324.486 115.373 324.486 114.748H326.293C326.326 115.354 326.566 115.835 327.016 116.193C327.471 116.545 328.07 116.721 328.812 116.721C329.496 116.721 330.043 116.584 330.453 116.311C330.87 116.031 331.078 115.66 331.078 115.197ZM339.76 112.629C339.76 111.008 340.144 109.706 340.912 108.723C341.68 107.733 342.686 107.238 343.93 107.238C345.167 107.238 346.146 107.661 346.869 108.508V103H348.676V118H347.016L346.928 116.867C346.205 117.753 345.199 118.195 343.91 118.195C342.686 118.195 341.687 117.694 340.912 116.691C340.144 115.689 339.76 114.38 339.76 112.766V112.629ZM341.566 112.834C341.566 114.032 341.814 114.969 342.309 115.646C342.803 116.324 343.487 116.662 344.359 116.662C345.505 116.662 346.342 116.148 346.869 115.119V110.266C346.329 109.27 345.499 108.771 344.379 108.771C343.493 108.771 342.803 109.113 342.309 109.797C341.814 110.48 341.566 111.493 341.566 112.834ZM358.012 118C357.908 117.792 357.823 117.421 357.758 116.887C356.918 117.759 355.915 118.195 354.75 118.195C353.708 118.195 352.852 117.902 352.182 117.316C351.518 116.724 351.186 115.975 351.186 115.07C351.186 113.97 351.602 113.117 352.436 112.512C353.275 111.9 354.454 111.594 355.971 111.594H357.729V110.764C357.729 110.132 357.54 109.631 357.162 109.26C356.785 108.882 356.228 108.693 355.492 108.693C354.848 108.693 354.307 108.856 353.871 109.182C353.435 109.507 353.217 109.901 353.217 110.363H351.4C351.4 109.836 351.586 109.328 351.957 108.84C352.335 108.345 352.842 107.954 353.48 107.668C354.125 107.382 354.831 107.238 355.6 107.238C356.817 107.238 357.771 107.544 358.461 108.156C359.151 108.762 359.509 109.598 359.535 110.666V115.529C359.535 116.499 359.659 117.271 359.906 117.844V118H358.012ZM355.014 116.623C355.58 116.623 356.117 116.477 356.625 116.184C357.133 115.891 357.501 115.51 357.729 115.041V112.873H356.312C354.099 112.873 352.992 113.521 352.992 114.816C352.992 115.383 353.181 115.826 353.559 116.145C353.936 116.464 354.421 116.623 355.014 116.623ZM364.818 104.875V107.434H366.791V108.83H364.818V115.383C364.818 115.806 364.906 116.125 365.082 116.34C365.258 116.548 365.557 116.652 365.98 116.652C366.189 116.652 366.475 116.613 366.84 116.535V118C366.365 118.13 365.902 118.195 365.453 118.195C364.646 118.195 364.037 117.951 363.627 117.463C363.217 116.975 363.012 116.281 363.012 115.383V108.83H361.088V107.434H363.012V104.875H364.818ZM375.434 118C375.329 117.792 375.245 117.421 375.18 116.887C374.34 117.759 373.337 118.195 372.172 118.195C371.13 118.195 370.274 117.902 369.604 117.316C368.939 116.724 368.607 115.975 368.607 115.07C368.607 113.97 369.024 113.117 369.857 112.512C370.697 111.9 371.876 111.594 373.393 111.594H375.15V110.764C375.15 110.132 374.962 109.631 374.584 109.26C374.206 108.882 373.65 108.693 372.914 108.693C372.27 108.693 371.729 108.856 371.293 109.182C370.857 109.507 370.639 109.901 370.639 110.363H368.822C368.822 109.836 369.008 109.328 369.379 108.84C369.757 108.345 370.264 107.954 370.902 107.668C371.547 107.382 372.253 107.238 373.021 107.238C374.239 107.238 375.193 107.544 375.883 108.156C376.573 108.762 376.931 109.598 376.957 110.666V115.529C376.957 116.499 377.081 117.271 377.328 117.844V118H375.434ZM372.436 116.623C373.002 116.623 373.539 116.477 374.047 116.184C374.555 115.891 374.923 115.51 375.15 115.041V112.873H373.734C371.521 112.873 370.414 113.521 370.414 114.816C370.414 115.383 370.603 115.826 370.98 116.145C371.358 116.464 371.843 116.623 372.436 116.623Z" fill="white"/>
</svg>
