<svg width="411" height="153" viewBox="0 0 411 153" fill="none" xmlns="http://www.w3.org/2000/svg">
<path d="M38.4554 97V53.1685H53.4773C58.4345 53.1685 62.2075 54.1619 64.7965 56.1488C67.3854 58.1357 68.6799 61.0959 68.6799 65.0295C68.6799 67.0364 68.138 68.8427 67.0543 70.4482C65.9705 72.0538 64.385 73.2981 62.2978 74.1811C64.666 74.8233 66.4923 76.0375 67.7768 77.8237C69.0813 79.5898 69.7335 81.7172 69.7335 84.2058C69.7335 88.32 68.4089 91.4809 65.7598 93.6886C63.1307 95.8962 59.3577 97 54.4407 97H38.4554ZM46.0717 77.2216V90.919H54.531C56.9192 90.919 58.7857 90.3269 60.1303 89.1428C61.475 87.9587 62.1473 86.3131 62.1473 84.2058C62.1473 79.65 59.8193 77.322 55.1632 77.2216H46.0717ZM46.0717 71.6223H53.5375C55.9057 71.6223 57.7521 71.0904 59.0767 70.0268C60.4213 68.943 61.0937 67.4177 61.0937 65.4509C61.0937 63.2834 60.4715 61.718 59.2272 60.7547C58.003 59.7914 56.0863 59.3097 53.4773 59.3097H46.0717V71.6223ZM84.4243 97H77.109V64.4274H84.4243V97ZM76.6575 55.9682C76.6575 54.8443 77.0087 53.9111 77.7111 53.1685C78.4336 52.4259 79.4571 52.0546 80.7817 52.0546C82.1063 52.0546 83.1298 52.4259 83.8523 53.1685C84.5748 53.9111 84.9361 54.8443 84.9361 55.9682C84.9361 57.072 84.5748 57.9952 83.8523 58.7377C83.1298 59.4602 82.1063 59.8215 80.7817 59.8215C79.4571 59.8215 78.4336 59.4602 77.7111 58.7377C77.0087 57.9952 76.6575 57.072 76.6575 55.9682ZM91.0472 80.4127C91.0472 77.2216 91.6794 74.3517 92.9438 71.8029C94.2081 69.234 95.9843 67.2672 98.2722 65.9025C100.56 64.5177 103.189 63.8253 106.159 63.8253C110.555 63.8253 114.117 65.2402 116.846 68.07C119.596 70.8998 121.081 74.6528 121.302 79.3289L121.332 81.0448C121.332 84.2559 120.71 87.1259 119.465 89.6546C118.241 92.1833 116.475 94.1401 114.167 95.5249C111.879 96.9097 109.23 97.6021 106.22 97.6021C101.624 97.6021 97.941 96.0768 95.1715 93.0263C92.422 89.9556 91.0472 85.8715 91.0472 80.7739V80.4127ZM98.3625 81.0448C98.3625 84.3964 99.0549 87.0255 100.44 88.9321C101.824 90.8186 103.751 91.7619 106.22 91.7619C108.688 91.7619 110.605 90.7986 111.97 88.8719C113.354 86.9452 114.047 84.1255 114.047 80.4127C114.047 77.1213 113.334 74.5123 111.909 72.5856C110.504 70.6589 108.588 69.6956 106.159 69.6956C103.771 69.6956 101.875 70.6489 100.47 72.5555C99.0649 74.442 98.3625 77.2718 98.3625 81.0448ZM134.397 64.4274L134.608 67.8292C136.896 65.1599 140.027 63.8253 144 63.8253C148.355 63.8253 151.336 65.4911 152.941 68.8226C155.309 65.4911 158.641 63.8253 162.936 63.8253C166.528 63.8253 169.197 64.8188 170.943 66.8056C172.709 68.7925 173.613 71.7226 173.653 75.596V97H166.337V75.8067C166.337 73.7396 165.886 72.2244 164.983 71.261C164.08 70.2977 162.584 69.816 160.497 69.816C158.832 69.816 157.467 70.2676 156.403 71.1707C155.36 72.0538 154.627 73.2178 154.206 74.6628L154.236 97H146.92V75.5659C146.82 71.7327 144.863 69.816 141.05 69.816C138.12 69.816 136.043 71.0102 134.819 73.3984V97H127.503V64.4274H134.397ZM195.508 97.6021C190.872 97.6021 187.109 96.1471 184.219 93.237C181.349 90.3069 179.914 86.4134 179.914 81.5566V80.6535C179.914 77.4023 180.537 74.5022 181.781 71.9534C183.045 69.3845 184.811 67.3876 187.079 65.9627C189.347 64.5378 191.876 63.8253 194.665 63.8253C199.101 63.8253 202.523 65.2402 204.931 68.07C207.359 70.8998 208.573 74.9036 208.573 80.0815V83.0317H187.29C187.511 85.721 188.404 87.8484 189.969 89.4138C191.555 90.9792 193.541 91.7619 195.93 91.7619C199.281 91.7619 202.011 90.4072 204.118 87.6978L208.062 91.4609C206.757 93.4076 205.011 94.9228 202.824 96.0066C200.656 97.0702 198.218 97.6021 195.508 97.6021ZM194.635 69.6956C192.628 69.6956 191.003 70.398 189.758 71.8029C188.534 73.2078 187.751 75.1645 187.41 77.6732H201.348V77.1313C201.188 74.6829 200.536 72.8365 199.392 71.5922C198.248 70.3278 196.662 69.6956 194.635 69.6956ZM227.659 91.7619C229.486 91.7619 231.001 91.2301 232.205 90.1664C233.409 89.1027 234.052 87.7882 234.132 86.2227H241.026C240.945 88.2498 240.313 90.1463 239.129 91.9124C237.945 93.6584 236.339 95.0432 234.312 96.0668C232.285 97.0903 230.098 97.6021 227.75 97.6021C223.194 97.6021 219.582 96.127 216.912 93.1768C214.243 90.2266 212.908 86.1525 212.908 80.9545V80.2019C212.908 75.2448 214.233 71.2811 216.882 68.3108C219.531 65.3205 223.144 63.8253 227.72 63.8253C231.593 63.8253 234.744 64.9592 237.172 67.2271C239.621 69.4749 240.905 72.4351 241.026 76.1078H234.132C234.052 74.2413 233.409 72.706 232.205 71.5019C231.021 70.2977 229.506 69.6956 227.659 69.6956C225.291 69.6956 223.465 70.5586 222.181 72.2846C220.896 73.9905 220.244 76.5894 220.224 80.0815V81.2556C220.224 84.7878 220.856 87.4269 222.12 89.1729C223.405 90.8989 225.251 91.7619 227.659 91.7619ZM253.76 67.9797C256.148 65.2101 259.168 63.8253 262.821 63.8253C269.765 63.8253 273.287 67.789 273.388 75.7164V97H266.072V75.9874C266.072 73.7396 265.581 72.1541 264.597 71.2309C263.634 70.2877 262.209 69.816 260.322 69.816C257.392 69.816 255.205 71.1205 253.76 73.7296V97H246.444V50.7602H253.76V67.9797ZM316.286 97H308.669L289.132 65.9025V97H281.516V53.1685H289.132L308.73 84.3864V53.1685H316.286V97ZM338.924 97.6021C334.288 97.6021 330.525 96.1471 327.635 93.237C324.765 90.3069 323.33 86.4134 323.33 81.5566V80.6535C323.33 77.4023 323.952 74.5022 325.197 71.9534C326.461 69.3845 328.227 67.3876 330.495 65.9627C332.763 64.5378 335.291 63.8253 338.081 63.8253C342.516 63.8253 345.938 65.2402 348.347 68.07C350.775 70.8998 351.989 74.9036 351.989 80.0815V83.0317H330.706C330.926 85.721 331.819 87.8484 333.385 89.4138C334.97 90.9792 336.957 91.7619 339.346 91.7619C342.697 91.7619 345.427 90.4072 347.534 87.6978L351.477 91.4609C350.173 93.4076 348.427 94.9228 346.239 96.0066C344.072 97.0702 341.633 97.6021 338.924 97.6021ZM338.051 69.6956C336.044 69.6956 334.418 70.398 333.174 71.8029C331.95 73.2078 331.167 75.1645 330.826 77.6732H344.764V77.1313C344.604 74.6829 343.951 72.8365 342.807 71.5922C341.664 70.3278 340.078 69.6956 338.051 69.6956ZM366.861 56.51V64.4274H372.611V69.8461H366.861V88.029C366.861 89.2733 367.101 90.1764 367.583 90.7384C368.085 91.2802 368.968 91.5512 370.232 91.5512C371.075 91.5512 371.928 91.4508 372.791 91.2501V96.9097C371.125 97.3713 369.52 97.6021 367.974 97.6021C362.355 97.6021 359.545 94.5014 359.545 88.2999V69.8461H354.187V64.4274H359.545V56.51H366.861Z" fill="black"/>
</svg>
