<svg width="223" height="220" viewBox="0 0 223 220" fill="none" xmlns="http://www.w3.org/2000/svg">
<g clip-path="url(#clip0_107_28)">
<path fill-rule="evenodd" clip-rule="evenodd" d="M110 192C159.706 192 200 153.944 200 107C200 60.0558 159.706 22 110 22C60.2944 22 20 60.0558 20 107C20 153.944 60.2944 192 110 192ZM110 185C147.555 185 178 150.75 178 108.5C178 66.2502 147.555 32 110 32C72.4446 32 42 66.2502 42 108.5C42 150.75 72.4446 185 110 185Z" fill="#D9D9D9"/>
<path d="M69.2664 179.98L8.85267 151.258L62.1725 113.464L69.2664 179.98Z" fill="#0D6EFD"/>
<path d="M124.5 25.5C63 19.5 30.5757 83.2241 48 133L25.2478 143.786C4.38487 68.6192 61 12 124.5 25.5Z" fill="#0D6EFD"/>
<path d="M163.81 40.748L216.029 65.9838L169.593 98.4563L163.81 40.748Z" fill="#0D6EFD"/>
<path d="M102.5 187.5C153.5 196.5 198.963 130.884 181.539 81.1085L196.525 74.205C217.388 149.371 153 206 102.5 187.5Z" fill="#0D6EFD"/>
<path d="M135.399 99.0061C136.209 105.474 131.848 123.108 130.188 128.86C129.221 132.222 127.632 137.912 126.542 142.485C126.529 142.529 126.505 142.542 126.49 142.586C125.912 144.313 125.17 143.635 125.172 141.781C126.567 136.576 129.435 126.295 130.948 119.633C132.849 111.278 135.747 93.5715 132.748 96.1624C132.748 96.1624 128.359 102.386 124.816 110.496C124.855 110.383 124.873 110.259 124.912 110.146C124.654 110.718 124.314 111.574 123.922 112.636C123.899 112.693 123.873 112.747 123.85 112.806C123.803 112.928 123.759 113.069 123.713 113.198C120.196 122.833 112.759 147.334 114.83 150.694C114.83 150.694 115.905 152.854 115.338 156.897C115.255 156.969 115.18 157.02 115.093 157.139C112.442 160.707 112.223 168.936 113.02 170.576C112.842 172.471 112.772 174.231 112.917 175.608C112.702 178.815 112.28 186.073 112.125 189.187C111.202 190.484 110.885 190.924 110.885 191.489C110.237 191.804 109.606 192.386 109.085 192.644C108.894 192.739 108.469 193.585 108.144 194.304C107.71 195.266 107.465 197.656 107.6 199.115C107.406 199.602 107.228 200.038 107.102 200.321C106.893 200.791 104.926 203.951 103.781 205.197C102.667 206.413 101.95 209.597 102.118 210.226C101.7 211.5 101.659 215.027 101.393 216.47C101.117 217.994 103.471 218.27 103.471 218.27C103.471 218.27 104.216 217.625 104.601 217.754C105.325 217.994 105.756 217.543 105.96 216.607C106.122 215.89 106.834 213.774 107.153 213.021C107.233 213.021 107.303 213.057 107.36 213.124C107.445 213.658 107.6 214.565 107.102 215.883C106.478 217.543 108.487 216.584 109.031 215.499C109.353 214.854 109.696 215.158 110.003 214.846C110.322 214.537 111.852 214.532 112.094 212.92C112.684 212.652 113.324 208.362 113.383 207.764C113.584 207.055 113.755 206.042 113.845 205.403C114.366 204.057 116.439 200.321 116.439 199.177C116.439 199.151 116.431 199.143 116.431 199.118C117.078 197.803 117.653 196.529 117.896 195.439C118.313 194.817 118.218 191.569 117.87 190.319C118.636 187.813 119.791 184.459 120.874 181.566C122.403 177.47 129.148 160.524 126.395 154.494C126.49 151.202 126.284 150.325 127.539 146.739C129.602 142.833 132.782 135.292 135.525 126.836C139.87 113.423 135.845 90.2999 135.845 90.2999C134.961 87.9874 134.589 92.5428 135.399 99.0061Z" fill="black"/>
<path d="M94.8345 130.409C93.9888 130.793 92.1425 132.252 89.8631 133.971C87.5862 135.694 83.3445 138.174 85.1495 138.096C85.1495 138.096 91.3999 137.485 93.3106 134.368C95.2162 131.252 95.6803 130.024 94.8345 130.409Z" fill="black"/>
<path d="M84.6789 58.7615C85.0038 58.6661 85.3597 58.4212 85.7284 58.1273C87.193 57.9056 89.1862 57.3436 89.9418 56.8692C90.8159 56.3175 96.5222 52.7417 95.4959 52.4968C94.7817 52.3292 95.6687 51.4088 96.0065 50.9164C97.4376 50.143 98.1132 49.4753 96.6408 49.4263C93.9101 49.3309 89.3152 51.035 86.9274 54.0668C85.7336 55.5802 84.6996 56.8872 84.1967 57.7535C84.171 57.7896 84.1271 57.8334 84.1091 57.8592C84.0884 57.8927 84.122 57.9056 84.1117 57.9339C83.7326 58.6635 83.8074 59.0193 84.6789 58.7615Z" fill="black"/>
<path d="M129.086 44.2297C131.053 43.9615 135.501 45.6837 137.897 45.1732C139.766 44.7736 141.723 44.258 141.424 43.6393C141.445 43.6444 141.463 43.6444 141.484 43.6522C141.484 43.6522 141.411 43.6109 141.388 43.5955C141.288 43.4408 141.074 43.2861 140.661 43.1211C140.109 42.7576 139.385 42.2626 138.75 41.7676C137.572 40.8447 134.184 40.9787 132.649 41.1669C131.342 41.3293 129.921 41.7212 129.14 42.1827C128.648 42.3322 128.214 42.5204 127.864 42.7679C126.293 43.8739 127.124 44.4978 129.086 44.2297Z" fill="black"/>
<path d="M118.465 47.8425C119.54 48.1339 123.459 46.1359 123.421 45.4269C123.387 44.7282 122.601 45.3109 120.958 45.0737C119.308 44.8391 119.032 42.7534 119.032 42.7534C118.717 43.9651 117.384 47.5461 118.465 47.8425Z" fill="black"/>
<path d="M110.389 122.266C110.299 122.388 110.188 122.545 110.072 122.723C108.458 123.947 105.268 128.237 105.268 128.936C105.268 129.763 104.443 130.872 104.443 130.872L104.162 131.981C104.162 131.981 104.719 133.084 105.546 132.532C106.377 131.978 106.655 130.594 106.794 129.212C106.921 127.871 107.957 126.683 108.79 126.61C108.883 126.657 108.981 126.706 109.143 126.693C110.804 126.551 112.877 124.754 112.181 123.509C111.492 122.266 110.804 121.709 110.389 122.266Z" fill="black"/>
<path d="M97.9646 18.9452C99.1791 18.6616 100.394 16.5218 101.82 15.9469C103.248 15.3771 109.101 14.3794 107.603 14.2351C106.879 14.1655 102.603 13.6653 101.608 14.3794C100.605 15.091 100.18 16.0913 99.3983 16.0913C98.6092 16.0913 96.0384 16.447 96.6083 15.4493C97.1807 14.4516 96.2499 14.3047 95.8244 14.8048C95.3938 15.305 95.0405 16.9472 95.5433 17.6613C96.0384 18.3754 96.7501 19.2314 97.9646 18.9452Z" fill="black"/>
<path d="M116.394 21.9837C116.825 22.3395 117.253 23.198 117.253 23.198C117.253 23.198 118.248 21.0556 117.467 19.269C116.683 17.485 116.75 20.8416 116.25 18.4879C115.755 16.1289 115.11 17.057 114.466 16.4177C113.826 15.7706 113.971 16.6987 114.466 17.632C114.466 17.632 115.964 21.6228 116.394 21.9837Z" fill="black"/>
<path d="M134.893 47.1879C133.676 46.9842 128.895 44.7568 126.211 45.9143C123.527 47.0719 120.515 48.4511 119.231 49.0956C117.944 49.7402 121.804 51.0215 126.474 49.7659C131.146 48.513 136.236 47.4122 134.893 47.1879Z" fill="black"/>
<path d="M131.138 55.7453C129.797 57.3514 126.345 61.497 123.464 61.7728C120.589 62.0461 119.491 62.5926 119.217 60.128C118.944 57.6634 120.45 58.4858 119.63 57.3901C118.807 56.2918 116.752 56.1552 117.026 54.7863C117.302 53.4173 117.712 53.0048 117.438 52.1824C117.162 51.3626 117.848 50.9501 118.807 51.4992C119.767 52.0458 125.109 52.1824 127.165 51.3626C129.22 50.5376 126.806 52.1128 126.345 52.7315C125.519 53.8272 126.832 54.0799 127.477 53.407C129.3 51.5044 133.459 48.7742 136.244 48.2973C139.028 47.8229 141.739 48.2998 140.761 48.5009C136.736 49.3311 136.182 49.1171 135.777 50.8727C135.37 52.6284 134.054 52.6697 132.67 53.7963C131.961 54.3763 131.824 54.9229 131.138 55.7453Z" fill="black"/>
<path d="M136.957 56.4174C136.888 56.2885 136.823 56.2086 136.767 56.1545C136.761 56.0978 137.063 52.4936 136.903 52.2229C136.259 51.1504 134.895 54.7391 134.126 55.4687C133.358 56.1983 129.882 60.6068 128.951 61.1404C128.201 61.5684 133.177 63.5123 133.159 64.4197C133.141 65.3298 131.981 66.0078 131.782 66.2914C131.638 66.0774 131.037 65.8325 130.3 65.6289C130.356 65.5696 129.358 64.1001 128.26 63.9634C127.641 63.8861 123.74 63.2777 121.411 63.4169C119.08 63.5535 116.752 65.1958 117.574 65.8815C117.788 66.0594 110.11 65.6392 113.052 63.8371C113.722 63.7391 114.349 63.7005 114.955 63.752C116.615 63.8861 114.568 60.9755 114.89 60.1685C114.908 60.1247 114.885 60.0912 114.885 60.0499C115.401 59.4415 115.184 56.8609 114.542 56.0024C113.709 54.8938 113.062 55.3475 110.298 55.8992C107.526 56.4509 108.588 55.4481 110.112 54.8938C111.636 54.3421 113.709 51.9883 112.322 51.4366C112.113 51.3541 111.791 51.3747 111.425 51.4366C111.871 51.2252 112.299 50.9983 112.709 50.738C112.92 50.7689 113.885 49.9078 114.225 49.6088C114.336 50.3951 114.689 50.5498 115.29 49.3046C116.388 47.0281 117.915 44.1433 118.165 41.2558C118.412 38.3606 118.266 37.1851 117.948 37.9533C117.948 37.9533 116.218 41.707 115.164 44.5764C114.163 44.5815 113.828 42.9548 114.349 42.0421C114.717 41.3976 114.558 40.4979 114.354 39.8379C115.112 39.379 115.751 38.8195 116.203 38.0951C117.322 36.275 118.183 34.8803 117.379 32.4156C116.809 30.678 117.858 29.8453 117.858 29.8453C117.858 29.8453 117.379 23.5858 116.04 24.7639C116.04 24.7639 114.405 22.5107 113.735 21.0876C113.163 19.8708 112.771 17.321 111.435 16.5167C110.143 15.7407 105.922 15.287 102.817 16.9988C101.763 17.5789 99.3648 19.8295 99.0141 21C98.6634 22.1704 97.1807 27.2956 95.6156 26.7233C94.0401 26.1561 94.7543 25.1532 95.1798 25.3698C95.6156 25.5838 95.9688 25.0836 95.9688 25.0836L96.0384 23.7997C96.0384 23.7997 92.6863 23.8668 93.545 26.4397C94.4011 29.0074 94.7543 28.5795 96.1854 29.0796C97.6114 29.5798 98.1812 26.1535 98.1812 27.5096C98.1812 28.8656 96.8945 29.7937 97.8254 30.6522C98.7536 31.5056 99.9656 30.1521 99.7541 31.2942C99.5401 32.4337 97.8254 36.1487 98.256 37.0742C98.6814 38.0023 99.4627 38.7164 99.3957 37.1438C99.3235 35.5763 99.8237 35.7181 100.11 36.0043C100.394 36.2879 100.68 38.0023 101.25 38.291C101.82 38.5721 102.181 37.4325 102.895 37.2908C103.555 37.1541 103.851 37.2263 104.238 38.5514C104.249 38.6855 106.077 41.8282 106.087 44.1072C106.028 44.1175 105.61 46.2598 104.715 47.3194C103.82 48.3816 103.196 48.5466 102.49 48.8792C100.102 50.0032 100.185 50.31 101.345 50.5807C99.7412 51.5371 98.5164 53.9837 96.304 54.9608C93.4883 56.2035 91.8741 57.3352 90.9793 57.7297C90.082 58.1267 91.7812 57.7606 92.8333 58.2118C92.8565 58.2221 92.8823 58.2272 92.9081 58.2375C92.511 58.3845 92.1087 58.5366 91.691 58.7145C91.6033 58.6243 91.4306 58.6062 91.1495 58.7068C89.5405 59.2842 86.044 59.2533 82.9704 61.0116C79.9019 62.7749 75.5183 66.1471 73.0661 68.1373C70.6062 70.1276 70.1369 71.7698 68.9405 73.1826C68.4454 73.7678 67.9838 74.3634 67.7363 74.8145C67.4578 74.9383 65.5884 75.2347 63.2238 76.4078C61.3879 77.3178 53.4666 81.2339 51.9813 82.3244C50.4884 83.4124 43.0905 87.7358 40.0195 89.2929C39.3877 89.6152 39.1041 89.8446 39.0654 89.9942C38.5162 90.1978 37.9901 90.4015 37.6008 90.5742C37.1598 90.4711 36.7421 90.484 36.2342 90.716C35.1769 91.1956 33.9599 90.5304 32.8795 91.6338C31.8042 92.7398 30.9584 93.1214 30.239 92.8919C29.5196 92.6599 27.9725 92.3944 28.0524 93.1214C28.1298 93.8535 29.7285 95.5731 30.4788 94.9776C30.9791 94.5754 31.5541 94.5625 32.1729 94.3537C32.5185 94.8641 32.7247 94.5445 31.9357 95.7561C31.4974 96.5708 31.0745 96.7616 30.2158 97.5634C29.3572 98.3626 26.6858 100.381 26.2397 101.193C25.8013 102.011 25.987 102.57 26.611 102.591C27.2273 102.614 28.4031 101.755 29.0477 101.157C29.6898 100.559 30.6671 99.3422 31.5128 98.9581C32.356 98.5714 32.766 98.69 32.1214 99.3964C31.4716 100.098 30.3757 101.719 29.4087 102.725C28.4392 103.733 27.8049 105.04 28.7899 105.576C29.4655 105.947 30.1771 104.514 30.6181 103.702C31.0642 102.887 32.1343 101.992 32.8924 101.082C33.6504 100.178 34.406 100.376 33.8619 101.188C33.3075 101.998 31.8352 104.473 31.5902 105.604C31.3426 106.739 31.7836 107.896 32.5494 106.883C33.3127 105.875 33.5035 104.359 34.4782 103.147C35.458 101.933 35.7726 101.807 36.1723 102.237C36.2161 102.284 36.2548 102.276 36.2935 102.255C36.394 103.044 36.5462 104.058 36.6725 104.859C36.2677 106.027 36.2986 106.886 36.523 108.133C36.7782 109.595 37.9773 108.043 38.0881 105.836C38.1835 103.965 38.3692 103.769 38.8101 103.06C39.2485 102.343 40.5042 99.2752 41.4041 97.1277C42.3118 94.9802 41.5769 95.2637 42.2293 94.5625C42.8739 93.8535 42.9848 93.6524 49.5962 91.6055C54.1499 90.1953 59.6319 87.6481 63.4327 85.645C65.1809 84.9051 66.7822 84.1574 67.3315 83.4046C67.3315 83.4046 68.6955 82.26 68.9121 82.1543C69.5516 82.3631 71.1271 81.8423 71.1451 81.2571C71.6376 80.9529 74.2755 78.2433 75.4565 77.4905C76.6374 76.7403 80.8302 75.4229 82.3335 74.6289C83.8367 73.84 85.4483 73.0872 88.2512 71.182C90.9922 69.3207 92.8281 68.1244 93.0783 66.7838C93.2613 65.8506 93.6327 63.3163 94.2154 62.1846C94.7956 61.0554 95.448 60.0474 95.5717 58.98C95.7651 59.2353 96.0771 59.6297 96.4381 60.0912C96.1596 60.4934 96.1364 61.2126 96.4845 62.3857C96.2344 61.5633 96.8636 65.3324 97.3741 66.7503C97.8099 67.9517 100.386 73.5152 101.136 74.6985C101.887 75.8793 102.237 80.8884 102.776 84.6705C102.5 86.2998 102.24 90.3912 102.425 90.9171C103.292 97.5247 102.464 96.6739 102.511 96.8802C102.204 97.401 100.455 99.3526 99.5246 99.9764C83.3597 110.755 74.0718 124.582 71.9909 130.838C71.2173 133.166 70.5804 135.497 71.207 137.317C71.3256 137.663 71.4752 137.962 71.6325 138.227C71.6428 138.274 71.6402 138.32 71.6557 138.364C71.9084 139.176 72.5788 139.47 73.4968 139.418C74.7912 140.148 76.7638 140.656 77.4651 140.447C78.9246 140.011 88.571 133.553 94.6099 127.121C97.8873 123.638 100.595 119.062 102.681 112.542C103.068 111.328 103.674 108.203 103.39 104.883C104.187 106.749 105.001 113.743 103.864 116.878C101.054 124.615 97.0853 127.936 97.6964 128.193C98.2096 128.405 101.288 128.273 104.016 125.742C106.605 123.329 113.998 116.314 114.547 112.898C115.233 111.297 115.46 110.075 116.283 108.427C116.744 107.504 117.118 107.007 117.36 106.85C116.773 108.976 114.542 117.595 115.215 124.13C115.989 131.633 114.222 137.376 115.669 134.102C116.27 132.736 117.314 129.531 117.198 124.821C117.195 124.752 117.195 124.669 117.195 124.594C117.25 124.514 117.309 124.386 117.371 124.148C118.093 121.47 121.13 111.82 123.559 107.754C125.986 103.691 131.865 96.0372 131.971 93.1007C131.999 92.3222 130.279 94.5109 128.188 97.2978C127.726 97.4474 127.749 96.7745 127.863 96.1661C127.886 96.1068 127.948 96.0346 127.963 95.9804C128.564 94.975 129.26 94.1036 129.931 93.3663C131.318 91.9767 133.028 90.5974 133.688 90.2185C134.817 89.5739 135.606 86.9701 134.332 85.0623C134.023 84.6009 134.892 84.276 134.967 80.6693C135.201 78.1325 135.323 75.16 135.116 75.0053C135.127 74.0978 135.119 73.2316 135.07 72.5278C135.093 70.9345 135.098 69.0036 135.016 67.3433C135.011 67.2144 134.995 67.1654 134.985 67.0752C135.248 66.2708 135.586 65.3788 135.89 64.5822C136.189 64.3734 136.568 63.7959 136.81 63.056C137.367 61.3983 136.957 56.4174 136.957 56.4174Z" fill="black"/>
<path d="M139.156 46.644C142.242 45.7159 145.907 45.5199 149.403 46.0562C152.9 46.5898 157.884 47.2395 159.735 47.9227C161.587 48.6085 165.088 50.9107 165.88 51.2458C166.672 51.5758 164.923 51.3103 162.051 51.501C159.181 51.6892 152.686 49.4334 150.396 49.1241C148.109 48.8147 143.818 47.9485 142.199 47.8221C140.574 47.701 137.346 47.1879 139.156 46.644Z" fill="black"/>
<path d="M146.249 50.2897C142.957 51.1173 141.167 50.6017 138.79 51.5117C136.407 52.4218 136.647 51.0786 138.331 50.3903C140.015 49.6994 142.895 49.3745 144.38 49.4828C145.87 49.5962 147.5 49.9752 146.249 50.2897Z" fill="black"/>
<path d="M146.7 52.4574C148.663 52.7564 153.639 55.1437 151.612 56.0563C149.58 56.969 147.288 56.3502 144.697 56.1749C142.103 56.0022 142.75 54.525 139.71 55.02C136.667 55.5124 137.443 54.0506 138.271 53.5221C139.096 52.9936 142.582 51.8283 146.7 52.4574Z" fill="black"/>
<path d="M148.614 51.6869C151.548 52.3211 152.662 54.9018 155.754 55.6468C158.838 56.3945 163.082 56.312 163.995 56.9023C164.908 57.4901 166.452 56.9487 166.452 56.9487C166.452 56.9487 165.663 54.7935 163.688 53.8654C161.708 52.9347 155.955 51.3363 152.83 51.112C149.702 50.8851 147.773 51.5064 148.614 51.6869Z" fill="black"/>
<path d="M199.404 59.061C199.456 57.4317 198.878 54.4489 197.104 53.2397C196.906 52.5669 195.846 52.126 195.717 51.3938C195.578 50.5508 195.297 50.1125 194.611 49.5454C193.925 48.9705 193.468 49.4551 193.847 50.0043C194.219 50.5534 193.621 51.6517 194.023 51.7857C194.43 51.9198 194.572 52.1415 194.688 53.4022C194.394 53.7657 194.51 53.9049 194.193 54.057C193.912 53.9951 193.548 53.9642 193.058 54.0028C191.751 53.5775 186.527 53.4331 184.003 52.67C183.74 52.505 179.366 51.5846 176.798 50.6952C174.225 49.8058 163.619 49.8625 163.021 49.7748C163.021 49.7748 166.902 52.1363 166.172 52.7654C166.172 52.7654 165.677 53.9513 166.455 54.4153C167.237 54.882 166.979 56.4958 170.071 57.0011C173.162 57.5039 186.921 57.1816 189.338 57.6379C189.358 57.6431 189.379 57.6431 189.399 57.6482L189.861 57.7849C191.426 58.0814 192.86 57.9628 193.357 57.6714C194.608 58.0349 194.897 58.4706 195.469 58.8677C195.766 59.0739 196.026 59.2312 196.289 59.3962C196.743 60.4093 196.676 61.3271 196.782 61.5385C196.918 61.9407 196.864 62.2243 197.308 62.098C197.38 62.1624 197.45 62.0438 197.506 61.884C197.671 61.5978 197.826 61.09 197.934 60.68C198.182 61.0023 198.365 61.3658 198.362 61.8943C198.35 63.4566 198.809 65.5681 198.76 66.2951C198.703 67.0169 199.995 66.3879 200 63.5804C200.008 60.7703 199.75 60.0226 199.404 59.061Z" fill="black"/>
<path d="M141.415 50.2896C141.523 50.9341 138.622 52.8677 141.415 52.5454C144.207 52.2232 138.944 54.693 138.944 54.693C138.944 54.693 137.116 54.9095 136.902 57.271C136.688 59.6351 134.646 56.9488 135.077 55.6597C135.505 54.3707 135.61 51.7926 137.439 50.9341C139.267 50.0756 141.306 49.6451 141.415 50.2896Z" fill="black"/>
</g>
<defs>
<clipPath id="clip0_107_28">
<rect width="223" height="220" fill="white"/>
</clipPath>
</defs>
</svg>
