<svg width="403" height="356" viewBox="0 0 403 356" fill="none" xmlns="http://www.w3.org/2000/svg">
<g clip-path="url(#clip0_124_59)">
<path fill-rule="evenodd" clip-rule="evenodd" d="M92.5344 189.51C73.4406 110.382 126.091 17.1239 221.513 26.4334C119.167 4.67481 23.2183 93.2555 57.4167 214.402L32.2545 232.238L131.122 279.242L119.513 170.387L92.5344 189.51Z" fill="white" fill-opacity="0.31"/>
<path fill-rule="evenodd" clip-rule="evenodd" d="M371.302 92.6857L285.844 51.3871L295.308 145.827L318.349 129.715C335.98 209.234 264.837 305.547 185.51 291.548C266.46 321.203 369.218 232.896 341.307 113.66L371.302 92.6857Z" fill="white" fill-opacity="0.31"/>
<path d="M238.314 146.452C239.652 157.142 232.446 186.282 229.702 195.787C228.104 201.343 225.479 210.745 223.677 218.303C223.655 218.375 223.617 218.397 223.591 218.469C222.637 221.324 221.41 220.203 221.414 217.14C223.719 208.538 228.458 191.548 230.959 180.539C234.099 166.732 238.889 137.472 233.933 141.753C233.933 141.753 226.681 152.038 220.826 165.441C220.89 165.253 220.92 165.049 220.984 164.861C220.557 165.807 219.995 167.222 219.347 168.977C219.309 169.071 219.266 169.16 219.228 169.258C219.151 169.458 219.079 169.693 219.002 169.906C213.19 185.826 200.901 226.317 204.323 231.868C204.323 231.868 206.099 235.438 205.162 242.118C205.026 242.238 204.902 242.323 204.757 242.519C200.377 248.415 200.015 262.014 201.331 264.724C201.037 267.855 200.922 270.765 201.161 273.04C200.807 278.34 200.108 290.333 199.853 295.479C198.327 297.622 197.803 298.351 197.803 299.284C196.733 299.803 195.689 300.766 194.829 301.192C194.513 301.35 193.81 302.747 193.273 303.936C192.558 305.525 192.153 309.474 192.374 311.886C192.055 312.691 191.761 313.411 191.552 313.88C191.207 314.655 187.955 319.878 186.064 321.936C184.223 323.947 183.038 329.208 183.315 330.248C182.625 332.352 182.557 338.181 182.118 340.566C181.662 343.084 185.552 343.54 185.552 343.54C185.552 343.54 186.784 342.475 187.419 342.688C188.616 343.084 189.328 342.339 189.664 340.792C189.933 339.608 191.109 336.11 191.637 334.866C191.769 334.866 191.884 334.926 191.978 335.036C192.119 335.918 192.374 337.418 191.552 339.595C190.521 342.339 193.84 340.754 194.739 338.96C195.272 337.895 195.839 338.398 196.346 337.882C196.874 337.371 199.401 337.363 199.801 334.7C200.777 334.257 201.834 327.168 201.932 326.179C202.264 325.008 202.546 323.333 202.695 322.277C203.556 320.053 206.981 313.88 206.981 311.988C206.981 311.945 206.969 311.933 206.969 311.89C208.038 309.717 208.988 307.613 209.389 305.81C210.079 304.784 209.922 299.416 209.346 297.349C210.612 293.208 212.521 287.666 214.311 282.886C216.837 276.116 227.985 248.113 223.434 238.148C223.591 232.707 223.25 231.259 225.326 225.333C228.735 218.878 233.989 206.417 238.522 192.443C245.702 170.276 239.051 132.065 239.051 132.065C237.589 128.244 236.976 135.772 238.314 146.452Z" fill="white"/>
<path d="M171.28 198.346C169.882 198.981 166.831 201.392 163.064 204.234C159.302 207.08 152.292 211.178 155.275 211.05C155.275 211.05 165.604 210.04 168.761 204.89C171.91 199.739 172.677 197.711 171.28 198.346Z" fill="white"/>
<path d="M154.497 79.947C155.034 79.7894 155.622 79.3847 156.232 78.899C158.652 78.5326 161.946 77.6038 163.194 76.8199C164.639 75.9082 174.069 69.9991 172.373 69.5944C171.192 69.3175 172.658 67.7965 173.216 66.9828C175.581 65.7047 176.698 64.6013 174.265 64.5203C169.752 64.3627 162.159 67.1788 158.213 72.189C156.24 74.6898 154.531 76.8498 153.7 78.2812C153.658 78.3409 153.585 78.4133 153.556 78.4559C153.521 78.5113 153.577 78.5326 153.56 78.5795C152.933 79.7851 153.057 80.3731 154.497 79.947Z" fill="white"/>
<path d="M227.881 55.9324C231.133 55.4893 238.483 58.3352 242.442 57.4917C245.531 56.8313 248.765 55.9792 248.271 54.9568C248.305 54.9653 248.335 54.9653 248.369 54.9781C248.369 54.9781 248.25 54.9099 248.211 54.8843C248.045 54.6287 247.691 54.3731 247.01 54.1004C246.098 53.4997 244.9 52.6817 243.852 51.8638C241.905 50.3386 236.306 50.5601 233.77 50.8711C231.61 51.1395 229.262 51.7871 227.971 52.5497C227.157 52.7968 226.441 53.1078 225.862 53.5168C223.267 55.3445 224.639 56.3755 227.881 55.9324Z" fill="white"/>
<path d="M210.329 61.903C212.106 62.3844 218.583 59.0826 218.519 57.911C218.464 56.7565 217.164 57.7193 214.45 57.3274C211.723 56.9397 211.267 53.4931 211.267 53.4931C210.747 55.4954 208.544 61.413 210.329 61.903Z" fill="white"/>
<path d="M196.984 184.891C196.835 185.091 196.651 185.351 196.46 185.645C193.792 187.669 188.521 194.758 188.521 195.912C188.521 197.28 187.158 199.112 187.158 199.112L186.693 200.944C186.693 200.944 187.614 202.767 188.981 201.856C190.353 200.94 190.814 198.652 191.044 196.368C191.253 194.153 192.966 192.189 194.342 192.07C194.495 192.146 194.657 192.227 194.926 192.206C197.67 191.972 201.096 189.002 199.945 186.944C198.808 184.891 197.67 183.971 196.984 184.891Z" fill="white"/>
<path d="M176.452 14.1491C178.459 13.6805 180.466 10.1444 182.823 9.19434C185.183 8.25281 194.856 6.60406 192.38 6.36548C191.183 6.25045 184.118 5.42394 182.473 6.60406C180.816 7.77991 180.113 9.43292 178.821 9.43292C177.518 9.43292 173.269 10.0209 174.211 8.3721C175.157 6.72335 173.619 6.48051 172.916 7.30701C172.204 8.13352 171.62 10.8474 172.451 12.0275C173.269 13.2076 174.445 14.622 176.452 14.1491Z" fill="white"/>
<path d="M206.908 19.1704C207.62 19.7583 208.327 21.177 208.327 21.177C208.327 21.177 209.972 17.6367 208.681 14.6842C207.385 11.7361 207.496 17.2831 206.67 13.3934C205.851 9.49515 204.786 11.0289 203.721 9.97231C202.664 8.90296 202.903 10.4367 203.721 11.9789C203.721 11.9789 206.197 18.5739 206.908 19.1704Z" fill="white"/>
<path d="M237.477 60.8211C235.466 60.4845 227.566 56.8036 223.13 58.7165C218.694 60.6294 213.717 62.9087 211.595 63.9737C209.469 65.0388 215.848 67.1562 223.565 65.0814C231.286 63.0109 239.697 61.1917 237.477 60.8211Z" fill="white"/>
<path d="M231.273 74.9628C229.057 77.617 223.351 84.4676 218.592 84.9235C213.84 85.3751 212.025 86.2783 211.574 82.2054C211.122 78.1325 213.61 79.4916 212.255 77.6809C210.896 75.866 207.5 75.6402 207.952 73.378C208.408 71.1157 209.085 70.4341 208.633 69.075C208.177 67.7202 209.311 67.0386 210.896 67.946C212.481 68.8492 221.31 69.075 224.706 67.7202C228.102 66.3569 224.114 68.96 223.351 69.9825C221.988 71.7931 224.157 72.2106 225.222 71.0987C228.235 67.9546 235.108 63.4429 239.71 62.6547C244.312 61.8708 248.79 62.659 247.175 62.9913C240.524 64.3631 239.608 64.0095 238.939 66.9108C238.265 69.8121 236.092 69.8802 233.804 71.742C232.632 72.7006 232.406 73.6038 231.273 74.9628Z" fill="white"/>
<path d="M240.889 76.0731C240.774 75.8601 240.668 75.728 240.574 75.6386C240.565 75.5448 241.064 69.5889 240.8 69.1415C239.734 67.3692 237.48 73.2996 236.21 74.5053C234.941 75.711 229.197 82.9962 227.658 83.878C226.418 84.5853 234.642 87.7976 234.613 89.2972C234.583 90.8011 232.665 91.9216 232.337 92.3902C232.098 92.0366 231.106 91.6319 229.887 91.2953C229.981 91.1973 228.332 88.7689 226.516 88.5431C225.494 88.4153 219.047 87.4099 215.199 87.6399C211.347 87.8657 207.499 90.5796 208.858 91.7128C209.212 92.0068 196.522 91.3123 201.384 88.3344C202.492 88.1725 203.528 88.1086 204.529 88.1938C207.273 88.4153 203.89 83.6054 204.422 82.2719C204.452 82.1995 204.414 82.1441 204.414 82.0759C205.266 81.0705 204.908 76.8059 203.847 75.3872C202.471 73.5552 201.401 74.3051 196.833 75.2168C192.253 76.1285 194.008 74.4712 196.527 73.5552C199.045 72.6435 202.471 68.7538 200.178 67.8421C199.833 67.7058 199.3 67.7399 198.695 67.8421C199.433 67.4928 200.14 67.1179 200.817 66.6876C201.167 66.7387 202.761 65.3157 203.323 64.8215C203.506 66.1209 204.09 66.3766 205.083 64.3188C206.898 60.5569 209.421 55.7896 209.834 51.018C210.243 46.2337 210 44.291 209.476 45.5605C209.476 45.5605 206.617 51.7636 204.874 56.5054C203.221 56.5139 202.667 53.8256 203.528 52.3174C204.137 51.2523 203.873 49.7655 203.536 48.6748C204.789 47.9165 205.846 46.992 206.591 45.7949C208.441 42.7871 209.864 40.4822 208.534 36.4093C207.593 33.5378 209.327 32.1618 209.327 32.1618C209.327 32.1618 208.534 21.8177 206.323 23.7646C206.323 23.7646 203.621 20.0411 202.513 17.6894C201.567 15.6785 200.92 11.465 198.712 10.1358C196.578 8.85343 189.602 8.10361 184.472 10.9325C182.729 11.8911 178.766 15.6103 178.187 17.5445C177.607 19.4787 175.157 27.9483 172.57 27.0025C169.967 26.0652 171.147 24.4079 171.85 24.7658C172.57 25.1194 173.154 24.2929 173.154 24.2929L173.269 22.1713C173.269 22.1713 167.73 22.282 169.149 26.5339C170.563 30.7772 171.147 30.0699 173.512 30.8964C175.869 31.7229 176.81 26.0609 176.81 28.3019C176.81 30.5428 174.684 32.0766 176.222 33.4952C177.756 34.9054 179.759 32.6687 179.41 34.5561C179.056 36.4391 176.222 42.5783 176.934 44.1078C177.637 45.6415 178.928 46.8216 178.817 44.2228C178.698 41.6325 179.525 41.8668 179.998 42.3397C180.466 42.8084 180.939 45.6415 181.881 46.1186C182.823 46.583 183.419 44.6999 184.6 44.4656C185.69 44.2398 186.18 44.3591 186.82 46.5489C186.837 46.7705 189.858 51.9638 189.875 55.73C189.777 55.747 189.087 59.2874 187.608 61.0384C186.129 62.7936 185.098 63.0663 183.931 63.6159C179.985 65.4734 180.121 65.9803 182.039 66.4277C179.388 68.0083 177.364 72.0513 173.708 73.666C169.055 75.7195 166.387 77.5898 164.909 78.2416C163.426 78.8977 166.234 78.2927 167.973 79.0383C168.011 79.0553 168.054 79.0639 168.096 79.0809C167.44 79.3237 166.775 79.5751 166.085 79.8691C165.94 79.7199 165.655 79.6901 165.19 79.8563C162.531 80.8106 156.753 80.7595 151.674 83.665C146.603 86.5791 139.359 92.1516 135.307 95.4406C131.242 98.7296 130.466 101.443 128.489 103.778C127.671 104.745 126.908 105.729 126.499 106.475C126.039 106.679 122.949 107.169 119.042 109.108C116.008 110.612 102.918 117.083 100.463 118.885C97.9962 120.683 85.771 127.828 80.696 130.401C79.652 130.934 79.1833 131.313 79.1194 131.56C78.2118 131.896 77.3425 132.233 76.6991 132.518C75.9704 132.348 75.2801 132.369 74.4407 132.753C72.6936 133.545 70.6823 132.446 68.8969 134.269C67.12 136.097 65.7224 136.728 64.5335 136.348C63.3447 135.965 60.788 135.526 60.9201 136.728C61.0479 137.938 63.6898 140.779 64.9298 139.795C65.7565 139.13 66.7067 139.109 67.7294 138.764C68.3004 139.608 68.6413 139.079 67.3373 141.082C66.613 142.428 65.9141 142.743 64.4952 144.068C63.0762 145.389 58.6617 148.725 57.9245 150.067C57.2001 151.417 57.5069 152.342 58.5381 152.376C59.5565 152.414 61.4996 150.995 62.5649 150.007C63.6259 149.019 65.2409 147.008 66.6385 146.373C68.0319 145.734 68.7094 145.93 67.6441 147.097C66.5703 148.256 64.7594 150.936 63.1614 152.597C61.5592 154.263 60.511 156.423 62.1388 157.309C63.2552 157.923 64.4312 155.554 65.1599 154.212C65.8971 152.866 67.6654 151.387 68.9182 149.884C70.171 148.388 71.4195 148.716 70.5204 150.058C69.6043 151.396 67.1712 155.486 66.7664 157.356C66.3573 159.231 67.0859 161.144 68.3515 159.469C69.6128 157.803 69.9281 155.298 71.5388 153.296C73.1581 151.289 73.6779 151.081 74.3384 151.792C74.4108 151.869 74.4747 151.856 74.5387 151.822C74.7048 153.126 74.9563 154.8 75.1651 156.125C74.4961 158.055 74.5472 159.474 74.9179 161.536C75.3398 163.951 77.3212 161.386 77.5044 157.74C77.6621 154.647 77.9689 154.323 78.6975 153.151C79.4219 151.967 81.4971 146.897 82.9842 143.348C84.4842 139.799 83.2697 140.268 84.3478 139.109C85.4131 137.938 85.5963 137.605 96.5219 134.222C104.047 131.892 113.106 127.683 119.387 124.373C122.276 123.15 124.922 121.914 125.83 120.67C125.83 120.67 128.084 118.779 128.442 118.604C129.499 118.949 132.102 118.089 132.132 117.121C132.946 116.619 137.305 112.141 139.257 110.897C141.208 109.657 148.137 107.48 150.621 106.168C153.106 104.864 155.769 103.62 160.401 100.472C164.93 97.3961 167.964 95.4193 168.377 93.2039C168.68 91.6617 169.294 87.4738 170.257 85.6035C171.215 83.7375 172.293 82.0717 172.498 80.3079C172.818 80.7297 173.333 81.3815 173.93 82.1441C173.469 82.8087 173.431 83.9973 174.006 85.9358C173.593 84.5767 174.633 90.8054 175.476 93.1485C176.197 95.1339 180.453 104.328 181.693 106.283C182.933 108.234 183.513 116.512 184.404 122.762C183.948 125.455 183.517 132.216 183.824 133.085C185.256 144.004 183.888 142.598 183.965 142.939C183.458 143.8 180.569 147.025 179.03 148.056C152.317 165.868 136.969 188.717 133.53 199.056C132.252 202.903 131.199 206.755 132.234 209.763C132.43 210.333 132.678 210.828 132.938 211.267C132.955 211.343 132.95 211.42 132.976 211.492C133.393 212.834 134.501 213.32 136.018 213.235C138.157 214.44 141.417 215.28 142.576 214.935C144.988 214.215 160.929 203.543 170.909 192.913C176.324 187.157 180.799 179.595 184.246 168.821C184.885 166.814 185.886 161.651 185.418 156.163C186.734 159.248 188.081 170.806 186.202 175.987C181.557 188.772 174.999 194.259 176.009 194.685C176.857 195.035 181.945 194.817 186.453 190.634C190.731 186.646 202.948 175.054 203.856 169.409C204.989 166.763 205.364 164.744 206.723 162.021C207.486 160.496 208.104 159.674 208.505 159.414C207.533 162.929 203.847 177.171 204.959 187.971C206.238 200.369 203.319 209.861 205.709 204.45C206.702 202.192 208.428 196.896 208.236 189.113C208.232 188.998 208.232 188.861 208.232 188.738C208.321 188.606 208.419 188.393 208.522 188.001C209.715 183.574 214.734 167.628 218.748 160.909C222.758 154.195 232.473 141.546 232.648 136.693C232.695 135.407 229.853 139.024 226.397 143.629C225.634 143.876 225.673 142.764 225.86 141.759C225.899 141.661 226.001 141.542 226.026 141.452C227.019 139.791 228.17 138.351 229.278 137.132C231.57 134.836 234.395 132.557 235.486 131.93C237.352 130.865 238.656 126.562 236.551 123.41C236.04 122.647 237.476 122.11 237.6 116.15C237.987 111.958 238.188 107.046 237.847 106.79C237.864 105.291 237.851 103.859 237.77 102.696C237.808 100.063 237.817 96.8721 237.681 94.1284C237.672 93.9154 237.646 93.8345 237.629 93.6853C238.064 92.3561 238.622 90.882 239.125 89.5656C239.619 89.2205 240.246 88.2662 240.646 87.0435C241.567 84.3041 240.889 76.0731 240.889 76.0731Z" fill="white"/>
<path d="M244.522 59.9223C249.623 58.3886 255.678 58.0648 261.456 58.9509C267.234 59.8328 275.471 60.9064 278.53 62.0354C281.59 63.1687 287.377 66.9731 288.685 67.527C289.993 68.0723 287.104 67.6335 282.357 67.9488C277.614 68.2598 266.88 64.532 263.097 64.0207C259.317 63.5095 252.226 62.078 249.55 61.8693C246.866 61.669 241.531 60.8212 244.522 59.9223Z" fill="white"/>
<path d="M256.245 65.9471C250.803 67.3146 247.846 66.4626 243.917 67.9665C239.98 69.4704 240.376 67.2507 243.159 66.1132C245.941 64.9714 250.701 64.4346 253.155 64.6136C255.618 64.801 258.311 65.4273 256.245 65.9471Z" fill="white"/>
<path d="M256.99 69.5292C260.232 70.0234 268.456 73.9685 265.107 75.4767C261.749 76.9848 257.961 75.9624 253.679 75.6727C249.392 75.3872 250.462 72.946 245.438 73.764C240.41 74.5777 241.692 72.1621 243.06 71.2888C244.424 70.4154 250.185 68.4897 256.99 69.5292Z" fill="white"/>
<path d="M260.152 68.2561C265.001 69.3041 266.842 73.5687 271.951 74.8C277.048 76.0354 284.061 75.8991 285.57 76.8747C287.078 77.8461 289.631 76.9514 289.631 76.9514C289.631 76.9514 288.327 73.3898 285.063 71.8561C281.79 70.3181 272.284 67.6767 267.119 67.306C261.95 66.9311 258.763 67.9578 260.152 68.2561Z" fill="white"/>
<path d="M344.085 80.4421C344.17 77.7495 343.215 72.8203 340.284 70.8222C339.955 69.7103 338.204 68.9817 337.991 67.7718C337.761 66.3787 337.297 65.6544 336.163 64.7171C335.03 63.7671 334.275 64.568 334.902 65.4755C335.515 66.3829 334.527 68.1978 335.192 68.4194C335.865 68.6409 336.099 69.0073 336.291 71.0906C335.805 71.6913 335.997 71.9214 335.473 72.1727C335.008 72.0705 334.408 72.0194 333.598 72.0833C331.437 71.3803 322.804 71.1417 318.633 69.8807C318.198 69.608 310.971 68.0871 306.727 66.6172C302.475 65.1474 284.948 65.2412 283.96 65.0963C283.96 65.0963 290.373 68.9988 289.167 70.0383C289.167 70.0383 288.349 71.9981 289.636 72.7649C290.927 73.536 290.501 76.203 295.61 77.038C300.719 77.8688 323.456 77.3363 327.449 78.0903C327.483 78.0989 327.517 78.0989 327.551 78.1074L328.314 78.3332C330.901 78.8231 333.27 78.6272 334.092 78.1457C336.159 78.7464 336.636 79.4664 337.582 80.1225C338.072 80.4634 338.502 80.7232 338.937 80.9959C339.687 82.6702 339.576 84.1869 339.751 84.5362C339.977 85.2009 339.887 85.6695 340.62 85.4607C340.74 85.5672 340.855 85.3713 340.948 85.1071C341.221 84.6342 341.477 83.7949 341.656 83.1175C342.065 83.6501 342.367 84.2508 342.363 85.1242C342.342 87.7059 343.1 91.1952 343.019 92.3966C342.926 93.5895 345.06 92.5499 345.069 87.9104C345.082 83.2667 344.656 82.0312 344.085 80.4421Z" fill="white"/>
<path d="M248.255 65.9468C248.434 67.0118 243.64 70.2071 248.255 69.6746C252.87 69.142 244.173 73.2234 244.173 73.2234C244.173 73.2234 241.152 73.5813 240.798 77.4838C240.445 81.3905 237.07 76.9512 237.781 74.821C238.489 72.6909 238.663 68.4305 241.685 67.0118C244.706 65.5931 248.076 64.8817 248.255 65.9468" fill="white"/>
</g>
<defs>
<clipPath id="clip0_124_59">
<rect width="403" height="356" fill="white"/>
</clipPath>
</defs>
</svg>
