<svg width="153" height="153" viewBox="0 0 153 153" fill="none" xmlns="http://www.w3.org/2000/svg">
<g clip-path="url(#clip0_105_74)">
<path d="M125.469 75.6306H113.459C111.954 75.6829 110.449 75.5029 108.999 75.0968C107.797 74.3434 106.733 73.3891 105.853 72.2756L96.3222 61.9628V61.8675C101.206 62.7587 106.245 62.184 110.803 60.2157C115.362 58.2475 119.235 54.9738 121.935 50.8074C124.636 46.641 126.042 41.7684 125.977 36.8039C125.912 31.8394 124.379 27.0052 121.571 22.9108C118.762 18.8164 114.805 15.645 110.197 13.7966C105.589 11.9481 100.537 11.5053 95.6773 12.5239C90.818 13.5425 86.369 15.9769 82.8912 19.5203C79.4135 23.0637 77.0626 27.5575 76.135 32.435H51.9256C51.597 32.435 51.2819 32.5655 51.0495 32.7979C50.8171 33.0302 50.6866 33.3454 50.6866 33.674C50.6866 34.0026 50.8171 34.3178 51.0495 34.5502C51.2819 34.7825 51.597 34.9131 51.9256 34.9131H75.7919C75.7919 35.6565 75.6775 36.4 75.6775 37.1625C75.6823 40.3504 76.297 43.508 77.4885 46.465H26.706C26.3773 46.465 26.0622 46.5955 25.8298 46.8279C25.5974 47.0602 25.4669 47.3754 25.4669 47.704C25.4669 48.0326 25.5974 48.3478 25.8298 48.5802C26.0622 48.8125 26.3773 48.9431 26.706 48.9431H78.6131C79.6506 50.8605 80.9321 52.6353 82.4256 54.2234C82.0282 54.1561 81.6272 54.1115 81.2247 54.09H59.5506C57.9037 54.1324 56.2824 54.5086 54.785 55.1956C53.4052 55.9336 52.1242 56.8431 50.9725 57.9025L48.5325 60.495H36.6185C36.2898 60.495 35.9747 60.6255 35.7423 60.8579C35.5099 61.0902 35.3794 61.4054 35.3794 61.734C35.3794 62.0626 35.5099 62.3778 35.7423 62.6102C35.9747 62.8425 36.2898 62.9731 36.6185 62.9731H46.1497L41.2697 68.1772L41.1172 68.3487L35.3985 74.5059H26.706C26.5432 74.5059 26.3821 74.538 26.2318 74.6002C26.0815 74.6625 25.9449 74.7538 25.8298 74.8688C25.7147 74.9839 25.6235 75.1205 25.5612 75.2708C25.4989 75.4211 25.4669 75.5822 25.4669 75.745C25.4669 75.9077 25.4989 76.0688 25.5612 76.2191C25.6235 76.3695 25.7147 76.5061 25.8298 76.6211C25.9449 76.7362 26.0815 76.8274 26.2318 76.8897C26.3821 76.952 26.5432 76.984 26.706 76.984H33.6447C32.9106 78.5451 32.7641 80.3186 33.2321 81.979C33.7002 83.6394 34.7514 85.0753 36.1928 86.0231C37.6342 86.9709 39.3691 87.367 41.079 87.1388C42.789 86.9105 44.3592 86.0733 45.5016 84.7806V84.7806L52.0019 77.7656L52.6881 77.0222H63.7063L55.1281 95.1125C53.7044 98.1251 53.3962 101.545 54.2584 104.764C55.1207 107.983 57.0974 110.791 59.8366 112.688L54.3275 118.216C53.725 118.678 53.0877 119.092 52.4213 119.455C51.4073 119.56 50.3852 119.56 49.3713 119.455L34.5025 119.665C32.6016 119.569 30.7403 120.232 29.3282 121.508C27.9162 122.784 27.0689 124.569 26.9728 126.47C26.8768 128.371 27.5398 130.232 28.816 131.645C30.0923 133.057 31.8772 133.904 33.7781 134C33.9107 134.022 34.0459 134.022 34.1785 134H34.5788L53.7556 133.847C55.2816 133.773 56.7926 133.51 58.2544 133.066C59.8004 132.491 61.214 131.609 62.41 130.473L77.66 115.223H86.2C86.9407 115.314 87.6736 115.461 88.3922 115.662C89.1593 116.304 89.8559 117.026 90.47 117.816L103.166 131.503C103.792 132.222 104.555 132.809 105.411 133.229C106.266 133.65 107.197 133.895 108.149 133.952C109.101 134.008 110.054 133.874 110.953 133.557C111.853 133.24 112.68 132.747 113.386 132.107C114.092 131.466 114.664 130.691 115.067 129.827C115.47 128.963 115.697 128.028 115.734 127.075C115.771 126.122 115.617 125.172 115.282 124.279C114.948 123.386 114.438 122.569 113.783 121.876C113.743 121.788 113.692 121.704 113.631 121.628L97.6184 104.472C96.4625 103.439 95.1817 102.556 93.8059 101.842C92.3085 101.154 90.6873 100.778 89.0403 100.736H83.5122L93.1769 79.7672L100.688 87.7734C102.467 89.3614 104.784 90.2132 107.169 90.1562C107.537 90.1803 107.906 90.1803 108.274 90.1562H115.899C115.988 90.1663 116.078 90.1663 116.166 90.1562H116.719H125.278C125.342 90.1613 125.405 90.1613 125.469 90.1562C126.418 90.1562 127.357 89.9693 128.234 89.6063C129.11 89.2432 129.907 88.711 130.577 88.0402C131.248 87.3693 131.78 86.5728 132.144 85.6963C132.507 84.8198 132.693 83.8803 132.693 82.9315C132.693 81.9828 132.507 81.0433 132.144 80.1668C131.78 79.2902 131.248 78.4938 130.577 77.8229C129.907 77.152 129.11 76.6199 128.234 76.2568C127.357 75.8937 126.418 75.7068 125.469 75.7068V75.6306ZM87.5344 46.465H80.1763C77.7162 41.0525 77.4601 34.8948 79.4622 29.2968C81.4643 23.6987 85.5672 19.1 90.9017 16.4751C96.2362 13.8502 102.383 13.4053 108.04 15.2347C113.697 17.0641 118.419 21.0241 121.206 26.2755C123.994 31.527 124.627 37.6573 122.972 43.3676C121.317 49.0779 117.504 53.9196 112.34 56.8667C107.177 59.8138 101.069 60.6347 95.3104 59.1557C89.552 57.6766 84.5957 54.0137 81.4916 48.9431H87.6297C87.9583 48.9431 88.2735 48.8125 88.5058 48.5802C88.7382 48.3478 88.8688 48.0326 88.8688 47.704C88.8688 47.3754 88.7382 47.0602 88.5058 46.8279C88.2735 46.5955 87.9583 46.465 87.6297 46.465H87.5344ZM40.2022 84.6853C39.2508 84.6873 38.3209 84.4023 37.534 83.8674C36.7472 83.3324 36.1401 82.5725 35.7921 81.687C35.4441 80.8015 35.3713 79.8316 35.5834 78.9041C35.7954 77.9766 36.2824 77.1347 36.9806 76.4884C37.0303 76.4354 37.075 76.378 37.1141 76.3168L39.0203 74.1818C39.2002 75.9174 40.0054 77.5283 41.2857 78.7139C42.566 79.8994 44.2339 80.5787 45.9781 80.625L43.7288 83.0459C43.2908 83.5536 42.7499 83.9624 42.1419 84.245C41.5338 84.5277 40.8727 84.6777 40.2022 84.6853ZM55.0519 74.4868L58.2925 70.9793C58.8941 70.2203 59.5711 69.5241 60.3131 68.9015C60.9816 68.7065 61.6633 68.56 62.3528 68.4631H67.7284L64.8881 74.4868H55.0519ZM60.6563 128.72C59.723 129.59 58.6287 130.27 57.4347 130.721C56.1933 131.081 54.9135 131.293 53.6222 131.35L34.5597 131.503C33.3084 131.503 32.1084 131.006 31.2236 130.121C30.3388 129.236 29.8417 128.036 29.8417 126.785C29.8417 125.534 30.3388 124.333 31.2236 123.449C32.1084 122.564 33.3084 122.067 34.5597 122.067V122.067L49.2188 121.876C50.4839 122.047 51.7662 122.047 53.0313 121.876C54.0408 121.422 54.9836 120.832 55.8334 120.122L61.9716 114.003C63.5701 114.725 65.2903 115.139 67.0422 115.223C67.2034 115.299 67.379 115.338 67.5569 115.338H74L60.6563 128.72ZM67.6522 100.888C67.3236 100.888 67.0084 101.019 66.776 101.251C66.5437 101.484 66.4131 101.799 66.4131 102.127C66.4131 102.456 66.5437 102.771 66.776 103.004C67.0084 103.236 67.3236 103.367 67.6522 103.367H89.25C90.5281 103.415 91.7843 103.713 92.9481 104.243C94.0502 104.842 95.0799 105.564 96.0172 106.397L111.706 123.134C111.744 123.202 111.788 123.266 111.839 123.325C112.272 123.767 112.614 124.29 112.845 124.864C113.076 125.437 113.192 126.051 113.186 126.67C113.179 127.289 113.051 127.9 112.809 128.469C112.566 129.038 112.214 129.554 111.772 129.987C111.331 130.42 110.808 130.762 110.234 130.993C109.66 131.224 109.046 131.34 108.427 131.334C107.809 131.328 107.197 131.2 106.628 130.957C106.059 130.715 105.543 130.362 105.11 129.921V129.921L92.4525 116.272C91.6606 115.264 90.7374 114.366 89.7075 113.603C88.6726 113.209 87.5887 112.959 86.4859 112.86H68.2813C68.1487 112.838 68.0135 112.838 67.881 112.86C64.8086 112.855 61.8636 111.632 59.6912 109.459C57.5187 107.287 56.296 104.342 56.2909 101.27C56.2835 99.5556 56.6613 97.8618 57.3966 96.3134L66.375 76.965H69.6156C69.7784 76.965 69.9395 76.9329 70.0898 76.8706C70.2401 76.8084 70.3767 76.7171 70.4918 76.602C70.6068 76.487 70.6981 76.3504 70.7604 76.2001C70.8227 76.0497 70.8547 75.8886 70.8547 75.7259C70.8547 75.5632 70.8227 75.4021 70.7604 75.2517C70.6981 75.1014 70.6068 74.9648 70.4918 74.8497C70.3767 74.7347 70.2401 74.6434 70.0898 74.5812C69.9395 74.5189 69.7784 74.4868 69.6156 74.4868H67.6141L70.4544 68.4631H81.0531C81.3818 68.4631 81.6969 68.3325 81.9293 68.1002C82.1617 67.8678 82.2922 67.5526 82.2922 67.224C82.2922 66.8954 82.1617 66.5802 81.9293 66.3479C81.6969 66.1155 81.3818 65.985 81.0531 65.985H62.1813C61.1373 66.0921 60.1119 66.3357 59.1313 66.7093C58.1156 67.4615 57.2053 68.3462 56.4244 69.34L49.2188 77.0793C48.3036 77.8914 47.1083 78.3153 45.886 78.2614C44.6636 78.2074 43.5103 77.6797 42.6703 76.7902C41.8303 75.9006 41.3695 74.719 41.3856 73.4956C41.4017 72.2722 41.8934 71.1031 42.7566 70.2359L52.7263 59.6562C53.6775 58.793 54.7267 58.0444 55.8525 57.4259C57.0174 56.9011 58.2737 56.6097 59.5506 56.5681H80.7672C81.8998 56.5685 83.0186 56.8157 84.046 57.2925L90.8703 60.4378C91.9741 60.956 92.9405 61.7266 93.6916 62.6872C93.746 62.8574 93.8371 63.0135 93.9585 63.1447L94.3206 63.5259C94.9823 64.6228 95.3664 65.8646 95.4395 67.1435C95.5126 68.4224 95.2725 69.6999 94.74 70.865L91.8234 77.1937L80.9006 100.888H67.6522ZM108.122 87.5447C106.093 87.8008 104.043 87.2611 102.403 86.0387L94.4159 77.4606L96.9894 71.8753C97.6506 70.4364 97.9703 68.8641 97.9234 67.2812L104.004 73.8197C105.157 75.2539 106.583 76.446 108.198 77.3272C109.762 77.7994 111.388 78.0308 113.021 78.0134H117.691C117.81 78.1934 117.974 78.3383 118.168 78.4328C119.126 78.852 119.918 79.577 120.42 80.4944C120.922 81.4118 121.106 82.4698 120.942 83.5027C120.779 84.5356 120.277 85.4852 119.517 86.2028C118.756 86.9204 117.779 87.3655 116.738 87.4684L108.122 87.5447ZM125.678 87.5447H125.469H121.656C122.842 86.2664 123.52 84.5986 123.563 82.8553C123.532 81.087 122.854 79.3913 121.656 78.0896H125.469C126.733 78.0745 127.951 78.562 128.855 79.445C129.76 80.328 130.276 81.5342 130.292 82.7981C130.307 84.062 129.819 85.2802 128.936 86.1846C128.053 87.0891 126.847 87.6057 125.583 87.6209L125.678 87.5447Z" fill="black"/>
<path d="M34.2166 34.875H45.4063C45.7349 34.875 46.05 34.7444 46.2824 34.5121C46.5148 34.2797 46.6453 33.9645 46.6453 33.6359C46.6453 33.3073 46.5148 32.9921 46.2824 32.7598C46.05 32.5274 45.7349 32.3969 45.4063 32.3969H34.2166C33.888 32.3969 33.5728 32.5274 33.3404 32.7598C33.1081 32.9921 32.9775 33.3073 32.9775 33.6359C32.9775 33.9645 33.1081 34.2797 33.3404 34.5121C33.5728 34.7444 33.888 34.875 34.2166 34.875Z" fill="black"/>
<path d="M31.5287 61.715C31.5287 61.3864 31.3982 61.0712 31.1658 60.8389C30.9335 60.6065 30.6183 60.476 30.2897 60.476H16.4503C16.1217 60.476 15.8065 60.6065 15.5742 60.8389C15.3418 61.0712 15.2112 61.3864 15.2112 61.715C15.2112 62.0436 15.3418 62.3588 15.5742 62.5912C15.8065 62.8235 16.1217 62.9541 16.4503 62.9541H30.2897C30.4524 62.9541 30.6135 62.922 30.7638 62.8598C30.9142 62.7975 31.0508 62.7062 31.1658 62.5912C31.2809 62.4761 31.3722 62.3395 31.4344 62.1892C31.4967 62.0389 31.5287 61.8777 31.5287 61.715Z" fill="black"/>
</g>
<defs>
<clipPath id="clip0_105_74">
<rect width="122" height="122" fill="white" transform="translate(13 12)"/>
</clipPath>
</defs>
</svg>
