<svg width="535" height="153" viewBox="0 0 535 153" fill="none" xmlns="http://www.w3.org/2000/svg">
<g clip-path="url(#clip0_105_67)">
<path d="M162.455 95V51.1685H177.477C182.434 51.1685 186.208 52.1619 188.796 54.1488C191.385 56.1357 192.68 59.0959 192.68 63.0295C192.68 65.0364 192.138 66.8427 191.054 68.4482C189.971 70.0538 188.385 71.2981 186.298 72.1811C188.666 72.8233 190.492 74.0375 191.777 75.8237C193.081 77.5898 193.734 79.7172 193.734 82.2058C193.734 86.32 192.409 89.4809 189.76 91.6886C187.131 93.8962 183.358 95 178.441 95H162.455ZM170.072 75.2216V88.919H178.531C180.919 88.919 182.786 88.3269 184.13 87.1428C185.475 85.9587 186.147 84.3131 186.147 82.2058C186.147 77.65 183.819 75.322 179.163 75.2216H170.072ZM170.072 69.6223H177.538C179.906 69.6223 181.752 69.0904 183.077 68.0268C184.421 66.943 185.094 65.4177 185.094 63.4509C185.094 61.2834 184.472 59.718 183.227 58.7547C182.003 57.7914 180.086 57.3097 177.477 57.3097H170.072V69.6223ZM208.424 95H201.109V62.4274H208.424V95ZM200.657 53.9682C200.657 52.8443 201.009 51.9111 201.711 51.1685C202.434 50.4259 203.457 50.0546 204.782 50.0546C206.106 50.0546 207.13 50.4259 207.852 51.1685C208.575 51.9111 208.936 52.8443 208.936 53.9682C208.936 55.072 208.575 55.9952 207.852 56.7377C207.13 57.4602 206.106 57.8215 204.782 57.8215C203.457 57.8215 202.434 57.4602 201.711 56.7377C201.009 55.9952 200.657 55.072 200.657 53.9682ZM215.047 78.4127C215.047 75.2216 215.679 72.3517 216.944 69.8029C218.208 67.234 219.984 65.2672 222.272 63.9025C224.56 62.5177 227.189 61.8253 230.159 61.8253C234.555 61.8253 238.117 63.2402 240.846 66.07C243.596 68.8998 245.081 72.6528 245.302 77.3289L245.332 79.0448C245.332 82.2559 244.71 85.1259 243.465 87.6546C242.241 90.1833 240.475 92.1401 238.167 93.5249C235.879 94.9097 233.23 95.6021 230.22 95.6021C225.624 95.6021 221.941 94.0768 219.171 91.0263C216.422 87.9556 215.047 83.8715 215.047 78.7739V78.4127ZM222.362 79.0448C222.362 82.3964 223.055 85.0255 224.44 86.9321C225.824 88.8186 227.751 89.7619 230.22 89.7619C232.688 89.7619 234.605 88.7986 235.97 86.8719C237.354 84.9452 238.047 82.1255 238.047 78.4127C238.047 75.1213 237.334 72.5123 235.909 70.5856C234.504 68.6589 232.588 67.6956 230.159 67.6956C227.771 67.6956 225.875 68.6489 224.47 70.5555C223.065 72.442 222.362 75.2718 222.362 79.0448ZM258.397 62.4274L258.608 65.8292C260.896 63.1599 264.027 61.8253 268 61.8253C272.355 61.8253 275.336 63.4911 276.941 66.8226C279.309 63.4911 282.641 61.8253 286.936 61.8253C290.528 61.8253 293.197 62.8188 294.943 64.8056C296.709 66.7925 297.613 69.7226 297.653 73.596V95H290.337V73.8067C290.337 71.7396 289.886 70.2244 288.983 69.261C288.08 68.2977 286.584 67.816 284.497 67.816C282.832 67.816 281.467 68.2676 280.403 69.1707C279.36 70.0538 278.627 71.2178 278.206 72.6628L278.236 95H270.92V73.5659C270.82 69.7327 268.863 67.816 265.05 67.816C262.12 67.816 260.043 69.0102 258.819 71.3984V95H251.503V62.4274H258.397ZM319.508 95.6021C314.872 95.6021 311.109 94.1471 308.219 91.237C305.349 88.3069 303.914 84.4134 303.914 79.5566V78.6535C303.914 75.4023 304.537 72.5022 305.781 69.9534C307.045 67.3845 308.811 65.3876 311.079 63.9627C313.347 62.5378 315.876 61.8253 318.665 61.8253C323.101 61.8253 326.523 63.2402 328.931 66.07C331.359 68.8998 332.573 72.9036 332.573 78.0815V81.0317H311.29C311.511 83.721 312.404 85.8484 313.969 87.4138C315.555 88.9792 317.541 89.7619 319.93 89.7619C323.281 89.7619 326.011 88.4072 328.118 85.6978L332.062 89.4609C330.757 91.4076 329.011 92.9228 326.824 94.0066C324.656 95.0702 322.218 95.6021 319.508 95.6021ZM318.635 67.6956C316.628 67.6956 315.003 68.398 313.758 69.8029C312.534 71.2078 311.751 73.1645 311.41 75.6732H325.348V75.1313C325.188 72.6829 324.536 70.8365 323.392 69.5922C322.248 68.3278 320.662 67.6956 318.635 67.6956ZM351.659 89.7619C353.486 89.7619 355.001 89.2301 356.205 88.1664C357.409 87.1027 358.052 85.7882 358.132 84.2227H365.026C364.945 86.2498 364.313 88.1463 363.129 89.9124C361.945 91.6584 360.339 93.0432 358.312 94.0668C356.285 95.0903 354.098 95.6021 351.75 95.6021C347.194 95.6021 343.582 94.127 340.912 91.1768C338.243 88.2266 336.908 84.1525 336.908 78.9545V78.2019C336.908 73.2448 338.233 69.2811 340.882 66.3108C343.531 63.3205 347.144 61.8253 351.72 61.8253C355.593 61.8253 358.744 62.9592 361.172 65.2271C363.621 67.4749 364.905 70.4351 365.026 74.1078H358.132C358.052 72.2413 357.409 70.706 356.205 69.5019C355.021 68.2977 353.506 67.6956 351.659 67.6956C349.291 67.6956 347.465 68.5586 346.181 70.2846C344.896 71.9905 344.244 74.5894 344.224 78.0815V79.2556C344.224 82.7878 344.856 85.4269 346.12 87.1729C347.405 88.8989 349.251 89.7619 351.659 89.7619ZM377.76 65.9797C380.148 63.2101 383.168 61.8253 386.821 61.8253C393.765 61.8253 397.287 65.789 397.388 73.7164V95H390.072V73.9874C390.072 71.7396 389.581 70.1541 388.597 69.2309C387.634 68.2877 386.209 67.816 384.322 67.816C381.392 67.816 379.205 69.1205 377.76 71.7296V95H370.444V48.7602H377.76V65.9797ZM440.286 95H432.669L413.132 63.9025V95H405.516V51.1685H413.132L432.73 82.3864V51.1685H440.286V95ZM462.924 95.6021C458.288 95.6021 454.525 94.1471 451.635 91.237C448.765 88.3069 447.33 84.4134 447.33 79.5566V78.6535C447.33 75.4023 447.952 72.5022 449.197 69.9534C450.461 67.3845 452.227 65.3876 454.495 63.9627C456.763 62.5378 459.291 61.8253 462.081 61.8253C466.516 61.8253 469.938 63.2402 472.347 66.07C474.775 68.8998 475.989 72.9036 475.989 78.0815V81.0317H454.706C454.926 83.721 455.819 85.8484 457.385 87.4138C458.97 88.9792 460.957 89.7619 463.346 89.7619C466.697 89.7619 469.427 88.4072 471.534 85.6978L475.477 89.4609C474.173 91.4076 472.427 92.9228 470.239 94.0066C468.072 95.0702 465.633 95.6021 462.924 95.6021ZM462.051 67.6956C460.044 67.6956 458.418 68.398 457.174 69.8029C455.95 71.2078 455.167 73.1645 454.826 75.6732H468.764V75.1313C468.604 72.6829 467.951 70.8365 466.807 69.5922C465.664 68.3278 464.078 67.6956 462.051 67.6956ZM490.861 54.51V62.4274H496.611V67.8461H490.861V86.029C490.861 87.2733 491.101 88.1764 491.583 88.7384C492.085 89.2802 492.968 89.5512 494.232 89.5512C495.075 89.5512 495.928 89.4508 496.791 89.2501V94.9097C495.125 95.3713 493.52 95.6021 491.974 95.6021C486.355 95.6021 483.545 92.5014 483.545 86.2999V67.8461H478.187V62.4274H483.545V54.51H490.861Z" fill="white"/>
<mask id="mask0_105_67" style="mask-type:alpha" maskUnits="userSpaceOnUse" x="0" y="-3" width="173" height="156">
<path fill-rule="evenodd" clip-rule="evenodd" d="M173 -3H0V153H173V-3ZM67 132H97.5C96.5 131.667 93.7 130.3 90.5 127.5C90.2696 127.298 90.0476 127.105 89.8337 126.919C86.3322 123.872 85 122.712 85 118V108.5L86.5 107.5C86.5 107.5 90 107.5 93.5 108.5C95.1963 108.985 97.01 110.291 98.5428 111.396C100.173 112.57 101.485 113.515 102 113C103 112 101.5 107.5 100.5 106C99.976 105.214 98.9031 104.428 97.9284 103.714C97.0427 103.065 96.238 102.476 96 102C95.75 101.5 96.25 101 96.75 100.5C97.25 100 97.75 99.5 97.5 99C97.2351 98.4703 96.4092 98.3615 95.3936 98.2277C94.4918 98.1088 93.4406 97.9703 92.5 97.5C90.5 96.5 90 94 90.5 93.5C90.6876 93.3124 91.7201 93.6176 92.9898 93.9929C95.1038 94.6179 97.8752 95.4371 98.5 94.5C99.5 93 95.5 91 93.5 90C91.5 89 89 87.5 90.5 86C91.2939 85.206 92.7883 86.093 94.2416 86.9557C95.534 87.7228 96.7939 88.4707 97.5 88C99 87 98 83.5 94 81.5C90 79.5 86.5 77 87 76C87.4 75.2 89.08 75.68 90.76 76.16C91.18 76.28 91.6 76.4 92 76.5C94 77 95 77 95.5 76C95.9318 75.1362 93.3793 73.8994 91.3869 72.934C91.0727 72.7817 90.7724 72.6362 90.5 72.5C88.5 71.5 87 69.5 88 68.5C88.5258 67.9741 90.7109 68.9692 92.8829 69.9583C94.8412 70.8501 96.7888 71.7371 97.5 71.5C99 71 98 65.5 95 64C92 62.5 86.5 58 87.5 57C88.118 56.382 89.118 56.7188 90.5 57.1844C91.3541 57.4721 92.3541 57.809 93.5 58C95.6434 58.3572 96.2554 58.4592 96.7949 58.306C97.0105 58.2448 97.2145 58.1428 97.5 58C98.5 57.5 95.5 54 93.5 52.5C92.6302 51.8477 91.1931 51.1954 89.8465 50.5842C88.0968 49.7899 86.5 49.0651 86.5 48.5C86.5 48.056 87.5843 48.2034 88.8338 48.3733C90.3984 48.586 92.222 48.834 92.5 48C92.7606 47.218 91.1187 46.3001 89.4871 45.3879C87.9892 44.5505 86.5 43.718 86.5 43C86.5 42.1742 87.4091 42.1061 88.2265 42.0449C88.8938 41.9949 89.5 41.9495 89.5 41.5C89.5 40.9142 88.1274 39.8137 86.9903 38.902C86.1863 38.2574 85.5 37.7071 85.5 37.5C85.5 37.25 86 37.125 86.5 37C87 36.875 87.5 36.75 87.5 36.5C87.5 36.2929 86.8995 35.9142 86.1959 35.4706C85.201 34.8431 84 34.0858 84 33.5C84 32.9142 84.5147 32.3284 84.9411 31.8431C85.2426 31.5 85.5 31.2071 85.5 31C85.5 30.75 84.875 30.625 84.25 30.5C83.625 30.375 83 30.25 83 30C83 29.7897 83.5309 29.3138 84.1089 28.7959C84.9047 28.0827 85.7896 27.2897 85.5 27C85.1404 26.6404 84.2635 26.7981 83.6134 26.9149C83.3596 26.9606 83.1404 27 83 27C82.7929 27 82.6715 26.3137 82.5294 25.5097C82.3284 24.3726 82.0857 23 81.5 23C80.9083 23 80.8417 24.4003 80.7825 25.6475C80.7416 26.5081 80.7041 27.2958 80.5 27.5C80.25 27.75 79.875 27.875 79.5 28C79.125 28.125 78.75 28.25 78.5 28.5C78.211 28.7889 78.9239 29.4118 79.5772 29.9826C80.0545 30.3997 80.5 30.7889 80.5 31C80.5 31.25 79.375 31.875 78.25 32.5C77.125 33.125 76 33.75 76 34C76 34.25 76.75 34.5 77.5 34.75C78.25 35 79 35.25 79 35.5C79 35.7071 78.1421 36.1716 77.137 36.7157C75.7157 37.4853 74 38.4142 74 39C74 39.5 74.875 39.5 75.75 39.5C76.625 39.5 77.5 39.5 77.5 40C77.5 40.4654 76.0919 41.3641 74.6368 42.2928C72.9657 43.3594 71.2327 44.4654 71.5 45C71.7522 45.5045 73.5319 45.3727 75.2335 45.2466C76.9044 45.1228 78.5 45.0045 78.5 45.5C78.5 46.1667 75.8333 47.5 73.6111 48.6111C72.5 49.1667 71.5 49.6667 71 50C69.5 51 65 55 65.5 55.5C66 56 70.5 56 71.5 55.5C71.6455 55.4272 71.8227 55.3333 72.0225 55.2275C73.1957 54.6058 75.1455 53.5728 76 54C77 54.5 73 59 71.5 60C71.2561 60.1626 70.9593 60.3516 70.6312 60.5606C68.9411 61.6371 66.4187 63.2439 66 64.5C65.5 66 65 70 65.5 70.5C65.783 70.783 66.3865 70.1047 67.0383 69.3721C67.538 68.8105 68.066 68.217 68.5 68C69 67.75 69.875 67.75 70.75 67.75C71.625 67.75 72.5 67.75 73 67.5C73.1925 67.4037 73.4037 67.2889 73.6226 67.1698C74.5406 66.6705 75.5963 66.0963 76 66.5C76.5 67 74 70 73 70.5C72.7453 70.6273 72.3287 70.787 71.8489 70.9709C70.4445 71.5092 68.5 72.2546 68.5 73C68.5 74 71 74 72.5 74C73.166 74 73.8321 73.507 74.4544 73.0465C75.2335 72.4699 75.944 71.9441 76.5 72.5C77.5 73.5 76 75.5 73.5 77C71 78.5 66 81.5 66.5 82.5C66.7915 83.0832 68.9535 82.9862 70.8044 82.9031C72.1274 82.8438 73.2915 82.7916 73.5 83C74 83.5 74 85.5 73.5 86C73.2773 86.2227 72.5587 86.4454 71.6977 86.7122C70.6253 87.0445 69.3319 87.4454 68.5 88C67 89 64.5 91.5 65 92.5C65.5 93.5 68.5 92.5 69.5 92C70.5 91.5 72.5 90.5 73.5 91.5C74.5 92.5 72 94.5 70.5 95C69.9061 95.1979 69.1556 95.2392 68.4345 95.2788C67.334 95.3392 66.302 95.3959 66 96C65.75 96.5 66.5 97.25 67.25 98C68 98.75 68.75 99.5 68.5 100C68.2272 100.545 67.0619 101.091 65.8967 101.636C64.9256 102.091 63.9545 102.545 63.5 103C62.5 104 60.5 109.5 61.5 110.5C62.0512 111.051 63.5141 109.779 65.051 108.443C66.3022 107.355 67.6025 106.224 68.5 106C69.4999 105.75 70.75 105.75 71.875 105.75C73 105.75 74 105.75 74.5 105.5C75.5 105 78.5 102.5 78.5 102.5V119.5C78.4999 120.697 76.9081 122.212 75.2487 123.792C74.8286 124.192 74.4041 124.596 74 125C72 127 69.5 130 69.5 130L67 132Z" fill="#C4C4C4"/>
</mask>
<g mask="url(#mask0_105_67)">
<path d="M65.5 96H42V119L59 135.5H105L122 119V76.5L107 61.5H91" stroke="white"/>
<path d="M93.5 65H105L118 78V117.5L103 132H60.5L45.5 117.5V99.5H69.5" stroke="white" stroke-width="2"/>
<path d="M95 54H118V33.5L103 19H60L45.5 33.5V75L58.5 88H70.5" stroke="white" stroke-width="2"/>
<path d="M97.5 57.5H122V32.5L104.5 15.5H59L41.5 32.5V77L57 92H64.5" stroke="white"/>
</g>
<path d="M97.5 132H67L69.5 130C69.5 130 72 127 74 125C76 123 78.4999 121 78.5 119.5V102.5C78.5 102.5 75.5 105 74.5 105.5C73.5 106 70.4999 105.5 68.5 106C66.5 106.5 62.5 111.5 61.5 110.5C60.5 109.5 62.5 104 63.5 103C64.5 102 68 101 68.5 100C69 99 65.5 97 66 96C66.5 95 69 95.5 70.5 95C72 94.5 74.5 92.5 73.5 91.5C72.5 90.5 70.5 91.5 69.5 92C68.5 92.5 65.5 93.5 65 92.5C64.5 91.5 67 89 68.5 88C70 87 73 86.5 73.5 86C74 85.5 74 83.5 73.5 83C73 82.5 67 83.5 66.5 82.5C66 81.5 71 78.5 73.5 77C76 75.5 77.5 73.5 76.5 72.5C75.5 71.5 74 74 72.5 74C71 74 68.5 74 68.5 73C68.5 72 72 71 73 70.5C74 70 76.5 67 76 66.5C75.5 66 74 67 73 67.5C72 68 69.5 67.5 68.5 68C67.5 68.5 66 71 65.5 70.5C65 70 65.5 66 66 64.5C66.5 63 70 61 71.5 60C73 59 77 54.5 76 54C75 53.5 72.5 55 71.5 55.5C70.5 56 66 56 65.5 55.5C65 55 69.5 51 71 50C72.5 49 78.5 46.5 78.5 45.5C78.5 44.5 72 46 71.5 45C71 44 77.5 41 77.5 40C77.5 39 74 40 74 39C74 38 79 36 79 35.5C79 35 76 34.5 76 34C76 33.5 80.5 31.5 80.5 31C80.5 30.5 78 29 78.5 28.5C79 28 80 28 80.5 27.5C81 27 80.5 23 81.5 23C82.5 23 82.5 27 83 27C83.5 27 85 26.5 85.5 27C86 27.5 83 29.5 83 30C83 30.5 85.5 30.5 85.5 31C85.5 31.5 84 32.5 84 33.5C84 34.5 87.5 36 87.5 36.5C87.5 37 85.5 37 85.5 37.5C85.5 38 89.5 40.5 89.5 41.5C89.5 42.5 86.5 41.5 86.5 43C86.5 44.5 93 46.5 92.5 48C92 49.5 86.5 47.5 86.5 48.5C86.5 49.5 91.5 51 93.5 52.5C95.5 54 98.5 57.5 97.5 58C96.5 58.5 96.5 58.5 93.5 58C90.5 57.5 88.5 56 87.5 57C86.5 58 92 62.5 95 64C98 65.5 99 71 97.5 71.5C96 72 89 67.5 88 68.5C87 69.5 88.5 71.5 90.5 72.5C92.5 73.5 96 75 95.5 76C95 77 94 77 92 76.5C90 76 87.5 75 87 76C86.5 77 90 79.5 94 81.5C98 83.5 99 87 97.5 88C96 89 92 84.5 90.5 86C89 87.5 91.5 89 93.5 90C95.5 91 99.5 93 98.5 94.5C97.5 96 91 93 90.5 93.5C90 94 90.5 96.5 92.5 97.5C94.5 98.5 97 98 97.5 99C98 100 95.5 101 96 102C96.5 103 99.5 104.5 100.5 106C101.5 107.5 103 112 102 113C101 114 97 109.5 93.5 108.5C90 107.5 86.5 107.5 86.5 107.5L85 108.5V118C85 123 86.5 124 90.5 127.5C93.7 130.3 96.5 131.667 97.5 132Z" stroke="white"/>
</g>
<defs>
<clipPath id="clip0_105_67">
<rect width="535" height="153" fill="white"/>
</clipPath>
</defs>
</svg>
