<?xml version="1.0" encoding="utf-8"?>
<!-- Generator: Adobe Illustrator 27.0.1, SVG Export Plug-In . SVG Version: 6.00 Build 0)  -->
<svg version="1.1" id="svg3712" xmlns="http://www.w3.org/2000/svg" xmlns:xlink="http://www.w3.org/1999/xlink" x="0px" y="0px"
	 viewBox="0 0 562 173" style="enable-background:new 0 0 562 173;" xml:space="preserve">
<style type="text/css">
	.st0{fill:#7798CE;}
	.st1{fill:#7799CF;}
</style>
<namedview  bordercolor="#000000" borderopacity="0.25" id="namedview35" pagecolor="#ffffff" showgrid="false"></namedview>
<g id="g32">
	<g id="g3705">
		<path id="path3663" class="st0" d="M52.2,135.2L7.6,114l39.3-27.8L52.2,135.2z"/>
		<path id="path3665" class="st0" d="M92.9,21.3c-45.3-4.4-69.2,42.5-56.4,79.2l-16.8,7.9C4.3,53.1,46.1,11.4,92.9,21.3z"/>
		<path id="path3667" class="st0" d="M121.8,32.6l38.5,18.6l-34.2,23.9L121.8,32.6z"/>
		<path id="path3669" class="st0" d="M76.6,140.7c37.6,6.6,71.1-41.7,58.2-78.4l11-5.1C161.3,112.6,113.9,154.3,76.6,140.7z"/>
		<path id="svg_29" d="M133.4,27.2c0.8-0.5-0.5-2-1.1-2.8c0,0,1,0.8,1.1,0.3s-0.2-1.4-1.6-2.1c-0.8-0.4-1.3-0.4-1.8-0.9
			s-1.3-1.1-1.4-1.7c-0.1-0.5-0.3-0.6,0.2-0.9c0.3-0.2,0.4-0.9,0.3-1.2c-0.2-0.7-0.7-0.7-0.9-0.2c-0.1,0.3-0.4,0.2-0.7,0.1
			c-0.3-0.1-0.8,0-1,0.4c-0.4,0.8-0.8,0.9-1,1.5c-0.1,0.5-1.6,1.2-2.6,1.6c-0.9,0.4-5.1,1.7-7.5,1.9c-2.4,0.2-5.4,0.4-7.8,2.1
			c0,0-1.4-0.1-2.8,0c-1.4,0-7.3,1.7-8.5,2c-1.2,0.4-1.7,0.6-3,0.3c-1.3-0.2-2.6-0.6-3.8,0c-2,0.9-3.2,2-3.2,2s-1.6,0.1-2.2,0.1
			h-1.5c0,0-0.4-2.9-0.4-4.1c0-1.3-0.2-2-0.2-2s0.5,0.4,0.9-0.2s0.3-1.7,0.3-2.4c0-0.6-0.5-1.9-1-1.7c-0.1,0-0.2,0.1-0.2,0.1
			s-0.3-3-0.7-3.9c-0.3-0.8-0.9-1.8-1.8-2.7c-0.5-0.5-1.4-0.9-2.2-1.2c-0.2-0.7-0.7-2-2.3-2.2c-1.9-0.2-3.5,0.9-3.7,2.2
			c-0.1,0.7,0.1,1.1,0.3,1.4c-0.1,0.1-0.2,0.2-0.3,0.4c-1,1.1-1.4,2.2-1.4,3.7c0,0.4,0.3,2.7,0.6,3.8c0.2,0.7,0.2,0.9,0.2,0.9
			S70,21.5,70,22.1s0.2,1.7,0.3,2.3c0.2,0.6,0.5,1.4,1,1.4c0.5,0.1,0.7-0.3,0.7-0.3s0.7,1.7,1,2.1c0.2,0.4,1.2,1.5,1.4,2.3
			c0.2,0.9,0.2,2.5,0.2,3c-0.1,0.5-2.1,1.3-2.9,2.3c-0.6,0.7-1.5,1.2-1.5,1.2s-2.1,0.1-3.1,1c-1,1-2.9,2.8-3.6,4.3
			c-0.7,1.5-1.1,2.5-1.1,2.5s-2.4,1.4-4.1,3c-1.7,1.7-4,4.8-5,6c-0.5,0.6-1.9,1.6-3.2,2.9c-1.6,1.6-2.7,2.5-4.9,5.3
			c-2.1,2.7-6.1,7.1-7.2,8c-1.1,1-1.9,0.8-2.4,1.6c-0.6,1-1.1,1.6-1.2,2.9c-0.1,0.9-0.2,1.2-0.4,1.6c-0.2,0.5-0.7,0.7-0.7,1
			s0.4,0.4,0.6,0.4c0.3,0.1,1.2-0.3,1.3-1c0.2-0.9,1-0.8,1-0.6s-0.7,2.2-1,3c-0.4,1.1-0.6,2.4-0.6,3c0,0.5,0.3,1,0.6,0.6
			s0.5-1.4,0.5-1.4s-0.1,0.9-0.1,1.7c0.1,0.9,0.7,1.4,1-0.1c0,0,0,0.8,0.5,0.8s0.6-1.1,0.6-1.1c-0.1,0.7,0.3,0.9,0.7,0.4
			c0.3-0.3,1.1-1.9,1.1-3.2c0.1-1.3,0.5-5,0.5-5.8s0.1-0.6,0.5-0.8c0.5-0.2,0.8-1.1,1.4-1.6c0.6-0.5,6-4.8,8.6-7.1
			c2.7-2.5,3.6-3.2,4.6-4.6c0.3-0.5,1.1-0.9,1.7-1.5c0.7-0.7,4.4-3.6,5.5-4.5c1.1-1,2.8-1.7,4.4-3.3s2.6-2.4,2.6-2.4
			s2.3,1.4,3.2,2.2s1.7,3,2.3,4.3c0.5,1.3,0.1,3.5,0,4.7s-0.2,1.3-0.5,1.9c-0.9,2.1-1.3,5.9-1.2,6.5c0.1,0.6-5.8,7.1-7.7,10.2
			c-1.9,3.2-6,11.9-6.7,14.7c-0.6,2.7-1,4.1-0.3,5.3c0.7,1.2,2.9,2.3,4.3,1.6c1.4-0.7,2.9-1.8,4.2-2.9c0.9-0.8,6.7-8.1,7.8-8.7
			s4.3-2.9,5.3-4.4c1.1-1.7,2.2-3.4,2.5-4.4c0.1-0.4,1.4-0.5,1.2,0.2c-0.2,0.7-0.8,10-0.4,12.6s0.1,8.2,0.1,10.4
			c-0.1,2.2-0.1,5.7-0.1,6.8c0,0.3,0.1-0.2-0.6,1.2c-0.6,1.5-1.5,4.6-1,7c0.5,2.5-0.4,7.7-0.4,8.4v0.8c0,0-1.6-0.5-2.2,0.5
			c-0.5,0.9-1.1,2.5-0.9,4.7c0.2,2.3-0.7,6.1-1.2,6.8s-2.4,2.2-2.1,6.1c0.4,3.9,1.9,3.8,3.4,2.9c1.4-1,4.7-5.6,5.6-10.7
			c0.2-1,1.9-4.5,1.6-5.9c-0.2-1.4,0.8-5.3,1.6-7.8c0.8-2.5,3.8-8,2.9-13.9c-0.2-1.4,0.7-3.9,1.3-5.7c1.1-3.2,4.4-14.9,5.7-23.4
			c0.4-2.3,0.5-2.3,0.9-8c0.3-3.7-1.1-10.3-1.5-11.1c-0.8-1.4-0.9-4.4-1.6-6.7c-0.4-1.3-0.3-3.9-0.4-5.3c-0.1-1.4-0.3-5-0.8-7.8
			s-0.5-3.5-0.4-4.2s1.6-0.7,2.9-0.9c1.2-0.2,4.1-0.5,7.6-2.9c0.5-0.3,3.1-1.1,3.9-1.4s2-0.5,2.5-0.4s0.9-0.5,1.2-0.7
			c0.3-0.2,10.7-3.6,12.4-4.7c1.2-0.7,1.8-0.3,2.1-0.7c0.3-0.4,0.5-0.1,1.5,0c1,0.2,2.3,0.6,2.7,1s1.5,3,1.6,3.9s0.5,1.4,0.8,0.7
			c0.3-0.9-0.1-2.1-0.1-2.1s0.1,0.2,0.4,0.4C133.2,28.9,133.7,28,133.4,27.2"/>
	</g>
</g>
<g>
	<path class="st1" d="M187.5,75.2l-4.7,12.2h9L187.5,75.2z M182.4,88.8l-3.2,8.7c-0.1,0.3-0.2,0.5-0.3,0.7s-0.1,0.4-0.1,0.6
		c0,0.6,0.2,1.1,0.5,1.5s0.7,0.8,1.2,1c0.5,0.3,1,0.5,1.5,0.6c0.5,0.2,0.9,0.3,1.3,0.3v0.6c-1-0.1-1.9-0.1-2.9-0.1c-1,0-1.9,0-2.9,0
		c-1,0-1.9,0-2.8,0c-0.9,0-1.9,0.1-2.9,0.1v-0.6c1-0.2,1.8-0.6,2.5-1c0.7-0.5,1.2-1,1.7-1.7c0.4-0.6,0.8-1.3,1.2-2.1
		c0.3-0.8,0.7-1.6,1-2.4l8.3-20.4c0.1-0.2,0.2-0.4,0.3-0.6c0.1-0.2,0.1-0.4,0.1-0.5c0-0.2-0.1-0.4-0.2-0.7s-0.2-0.6-0.4-0.9
		c0.8-0.2,1.6-0.4,2.2-0.6c0.6-0.3,1.3-0.5,2-0.8l10,27.5c0.4,1.2,1.1,2.2,1.9,3c0.8,0.7,2,1.2,3.6,1.4v0.6
		c-1.3-0.1-2.5-0.1-3.8-0.1c-1.2,0-2.5,0-3.9,0h-2.3c-0.6,0-1.2,0-1.7,0c-0.5,0-1,0-1.5,0.1s-1,0.1-1.5,0.1v-0.6
		c1.3-0.2,2.5-0.5,3.4-1c0.9-0.5,1.4-1.2,1.4-2.1c0-0.3-0.1-0.5-0.2-0.8c-0.1-0.3-0.2-0.5-0.3-0.7l-3.1-8.8H182.4z"/>
	<path class="st1" d="M222.7,89.5c-0.1-0.4-0.3-0.9-0.7-1.3c-0.4-0.5-0.8-0.9-1.4-1.2c-0.5-0.4-1.2-0.7-1.8-0.9
		c-0.7-0.2-1.4-0.4-2.1-0.4c-1.1,0-2,0.2-2.8,0.7c-0.8,0.5-1.4,1.1-1.8,1.9c-0.5,0.8-0.8,1.7-1.1,2.6c-0.2,1-0.3,1.9-0.3,2.9
		s0.1,1.9,0.3,2.9c0.2,1,0.6,1.9,1.1,2.6c0.5,0.8,1.1,1.4,1.8,1.9c0.8,0.5,1.7,0.7,2.8,0.7c0.7,0,1.4-0.1,2.1-0.3
		c0.7-0.2,1.3-0.5,1.8-0.8c0.5-0.3,1-0.7,1.4-1.1c0.4-0.4,0.6-0.7,0.7-1V89.5z M226.4,97.9c0,0.8,0,1.5,0.1,2.1
		c0.1,0.5,0.3,1,0.6,1.3c0.3,0.3,0.7,0.6,1.2,0.7c0.5,0.1,1.2,0.2,2.1,0.2v0.6c-1.3,0-2.6,0-3.8,0c-1.3,0-2.6,0.1-3.9,0.1v-1.8
		c-0.7,0.6-1.8,1.2-3.1,1.7c-1.3,0.5-2.8,0.7-4.3,0.7c-1.3,0-2.5-0.2-3.6-0.7c-1.1-0.5-2-1.2-2.7-2s-1.3-1.8-1.8-3s-0.6-2.3-0.6-3.5
		c0-1.4,0.3-2.8,0.8-4c0.5-1.2,1.2-2.3,2.1-3.2c0.9-0.9,2-1.6,3.2-2.1c1.2-0.5,2.6-0.7,4-0.7c1.1,0,2.1,0.2,3.1,0.6
		c1,0.4,1.9,0.8,2.8,1.4V73.8c0-0.8-0.1-1.4-0.2-1.9c-0.1-0.5-0.3-0.9-0.6-1.2c-0.3-0.3-0.7-0.5-1.3-0.6c-0.5-0.1-1.2-0.2-2-0.3
		v-0.6l7.8-0.8V97.9z"/>
	<path class="st1" d="M248.4,89.5c-0.1-0.4-0.3-0.9-0.7-1.3s-0.8-0.9-1.4-1.2c-0.5-0.4-1.2-0.7-1.8-0.9c-0.7-0.2-1.4-0.4-2.1-0.4
		c-1.1,0-2,0.2-2.8,0.7c-0.8,0.5-1.4,1.1-1.8,1.9c-0.5,0.8-0.8,1.7-1.1,2.6c-0.2,1-0.3,1.9-0.3,2.9s0.1,1.9,0.3,2.9
		c0.2,1,0.6,1.9,1.1,2.6c0.5,0.8,1.1,1.4,1.8,1.9c0.8,0.5,1.7,0.7,2.8,0.7c0.7,0,1.4-0.1,2.1-0.3c0.7-0.2,1.3-0.5,1.8-0.8
		c0.5-0.3,1-0.7,1.4-1.1c0.4-0.4,0.6-0.7,0.7-1V89.5z M252.2,97.9c0,0.8,0,1.5,0.1,2.1c0.1,0.5,0.3,1,0.6,1.3
		c0.3,0.3,0.7,0.6,1.2,0.7c0.5,0.1,1.2,0.2,2.1,0.2v0.6c-1.3,0-2.6,0-3.8,0c-1.3,0-2.6,0.1-3.9,0.1v-1.8c-0.7,0.6-1.8,1.2-3.1,1.7
		c-1.3,0.5-2.8,0.7-4.3,0.7c-1.3,0-2.5-0.2-3.6-0.7c-1.1-0.5-2-1.2-2.7-2c-0.8-0.8-1.3-1.8-1.8-3s-0.6-2.3-0.6-3.5
		c0-1.4,0.3-2.8,0.8-4c0.5-1.2,1.2-2.3,2.1-3.2c0.9-0.9,2-1.6,3.2-2.1c1.2-0.5,2.6-0.7,4-0.7c1.1,0,2.1,0.2,3.1,0.6
		c1,0.4,1.9,0.8,2.8,1.4V73.8c0-0.8-0.1-1.4-0.2-1.9c-0.1-0.5-0.3-0.9-0.6-1.2c-0.3-0.3-0.7-0.5-1.3-0.6c-0.5-0.1-1.2-0.2-2-0.3
		v-0.6l7.8-0.8V97.9z"/>
	<path d="M268.2,100.1c0.1,0.3,0.4,0.5,0.9,0.7c0.5,0.2,1,0.4,1.6,0.5c0.6,0.1,1.3,0.3,2,0.3c0.7,0.1,1.4,0.1,2,0.1
		c2.6,0,4.6-0.7,6.1-2c1.5-1.4,2.2-3.3,2.2-5.9c0-1.4-0.4-2.7-1.3-3.9c-0.9-1.2-1.9-2.1-3-2.9c-0.8,0.1-1.5,0.2-2.3,0.4
		c-0.8,0.1-1.6,0.2-2.4,0.2c-1,0-2-0.1-3-0.2c-1-0.1-1.9-0.3-2.9-0.7V100.1z M268.2,85.1c0.9,0.4,1.7,0.8,2.6,0.9
		c0.9,0.2,1.8,0.2,2.7,0.2c2,0,3.8-0.6,5.1-1.7c1.4-1.1,2-2.8,2-4.9c0-1.1-0.2-2.1-0.7-2.9c-0.4-0.9-1-1.6-1.8-2.2
		c-0.7-0.6-1.6-1.1-2.6-1.4c-1-0.3-2-0.5-3-0.5c-0.8,0-1.5,0-2.3,0.1c-0.7,0.1-1.5,0.2-2.2,0.5V85.1z M263.9,79.1
		c0-1.3,0-2.5-0.1-3.3c-0.1-0.9-0.3-1.6-0.6-2.1s-0.8-0.9-1.5-1.2c-0.6-0.3-1.5-0.4-2.7-0.5v-0.6c1,0.1,2,0.1,2.9,0.1
		c1,0,1.9,0,2.9,0c1.3,0,2.6-0.1,3.8-0.2c1.3-0.1,2.7-0.2,4.1-0.2c1.3,0,2.8,0.1,4.2,0.4s2.9,0.8,4.1,1.5c1.2,0.7,2.3,1.6,3.1,2.8
		s1.2,2.6,1.2,4.3c0,1.4-0.5,2.7-1.4,3.9c-0.9,1.2-2,2-3.4,2.4v0.1c2.2,0.7,3.9,1.8,5.2,3.2c1.2,1.5,1.8,3.4,1.8,5.8
		c0,1.5-0.3,2.7-1,3.7c-0.6,1-1.5,1.8-2.5,2.4c-1.1,0.6-2.3,1-3.6,1.2c-1.3,0.2-2.7,0.4-4.1,0.4c-2.2,0-4.4-0.1-6.5-0.2
		c-2.1-0.2-4.3-0.2-6.5-0.2c-0.7,0-1.5,0-2.2,0c-0.8,0-1.5,0.1-2.2,0.1v-0.6c1.1-0.1,2-0.3,2.6-0.5c0.6-0.3,1.1-0.7,1.4-1.2
		c0.3-0.5,0.5-1.3,0.6-2.1c0.1-0.9,0.1-2,0.1-3.3V79.1z"/>
	<path d="M295.4,70.4c0.7,0,1.3,0.3,1.8,0.8c0.5,0.5,0.7,1.1,0.7,1.8s-0.2,1.3-0.7,1.8c-0.5,0.5-1.1,0.8-1.8,0.8
		c-0.7,0-1.3-0.3-1.8-0.8s-0.7-1.1-0.7-1.8s0.2-1.3,0.7-1.8S294.7,70.4,295.4,70.4 M294,90.8c0-0.8,0-1.4-0.1-2
		c0-0.6-0.2-1.1-0.4-1.5c-0.2-0.4-0.6-0.7-1.1-1c-0.5-0.3-1.1-0.4-2-0.5V85l7.3-0.5v14.1c0,0.8,0.1,1.4,0.2,1.9
		c0.1,0.5,0.3,0.8,0.6,1.1c0.3,0.2,0.7,0.4,1.2,0.5c0.5,0.1,1.1,0.2,1.8,0.2v0.6c-1.1-0.1-2.2-0.1-3.4-0.1c-1.1,0-2.3,0-3.4,0
		c-0.7,0-1.5,0-2.2,0c-0.7,0-1.4,0.1-2.2,0.1v-0.6c0.6,0,1.2-0.1,1.6-0.2c0.4-0.1,0.8-0.3,1.1-0.5c0.3-0.2,0.5-0.6,0.6-1.1
		c0.1-0.5,0.2-1.1,0.2-1.9V90.8z"/>
	<path d="M313.2,85.7c-0.9,0-1.7,0.2-2.3,0.7c-0.7,0.5-1.2,1-1.6,1.8c-0.4,0.7-0.8,1.5-1,2.4c-0.2,0.9-0.3,1.8-0.3,2.7
		c0,1,0.1,2,0.4,3.1s0.7,2,1.3,2.8c0.6,0.8,1.3,1.5,2.2,2.1c0.9,0.5,1.9,0.8,3.1,0.8c0.9,0,1.7-0.2,2.3-0.7c0.7-0.4,1.2-1,1.6-1.8
		c0.4-0.7,0.8-1.5,1-2.4c0.2-0.9,0.3-1.8,0.3-2.7c0-1-0.1-2-0.4-3c-0.3-1-0.7-2-1.3-2.8c-0.6-0.8-1.3-1.5-2.2-2.1
		C315.4,86,314.3,85.7,313.2,85.7 M314,84.3c1.5,0,2.9,0.2,4.2,0.7c1.3,0.5,2.4,1.1,3.3,1.9s1.6,1.8,2.1,3c0.5,1.2,0.7,2.5,0.7,3.9
		c0,1.4-0.2,2.8-0.7,3.9c-0.5,1.2-1.2,2.2-2.1,3c-0.9,0.8-2,1.5-3.3,1.9c-1.3,0.5-2.7,0.7-4.2,0.7c-1.5,0-2.9-0.2-4.2-0.7
		c-1.3-0.5-2.4-1.1-3.3-1.9c-0.9-0.8-1.6-1.8-2.1-3c-0.5-1.2-0.7-2.5-0.7-3.9c0-1.4,0.2-2.8,0.7-3.9c0.5-1.2,1.2-2.2,2.1-3
		c0.9-0.8,2-1.5,3.3-1.9C311.1,84.5,312.5,84.3,314,84.3"/>
	<path d="M334.1,99.4c0,1.1,0.3,1.8,0.9,2.1c0.6,0.3,1.4,0.6,2.4,0.8v0.6c-0.9-0.1-1.9-0.1-3-0.1c-1,0-2.1,0-3.2,0
		c-0.7,0-1.5,0-2.2,0c-0.7,0-1.5,0.1-2.3,0.1v-0.6c1.2-0.2,2-0.5,2.6-0.8c0.6-0.3,0.9-1,0.9-2.1v-9.8c0-0.8-0.1-1.4-0.2-1.8
		c-0.1-0.4-0.3-0.8-0.6-1c-0.3-0.2-0.6-0.4-1-0.5c-0.4-0.1-0.9-0.2-1.5-0.2v-0.6l7-1V87c1-0.7,2-1.4,3-1.9s2.2-0.8,3.5-0.8
		c1.1,0,2.1,0.2,3,0.7c0.8,0.4,1.6,1.1,2.3,2c0.4-0.3,0.9-0.6,1.4-0.9c0.5-0.3,1-0.6,1.6-0.9c0.5-0.3,1.1-0.5,1.7-0.6
		c0.6-0.2,1.1-0.2,1.7-0.2c2,0,3.6,0.6,4.8,1.7c1.2,1.1,1.7,2.8,1.7,5v8.5c0,1.1,0.3,1.8,0.9,2.1c0.6,0.3,1.5,0.6,2.6,0.8v0.6
		c-1-0.1-2.1-0.1-3.1-0.1c-1.1,0-2.1,0-3.2,0c-0.7,0-1.4,0-2.1,0c-0.7,0-1.3,0.1-1.9,0.1v-0.6c0.9-0.2,1.7-0.5,2.2-0.8
		c0.6-0.3,0.8-1,0.8-2.1v-8.1c0-1.6-0.4-2.7-1.2-3.5c-0.8-0.8-1.7-1.2-2.7-1.2c-2,0-3.5,0.5-4.7,1.5v11.2c0,1.1,0.3,1.8,0.9,2.1
		c0.6,0.3,1.4,0.6,2.4,0.8v0.6c-0.9-0.1-1.9-0.1-3-0.1c-1,0-2.1,0-3.2,0c-0.7,0-1.4,0-2.1,0c-0.7,0-1.3,0.1-1.9,0.1v-0.6
		c0.9-0.2,1.7-0.5,2.2-0.8c0.6-0.3,0.8-1,0.8-2.1v-8.1c0-1.6-0.2-2.8-0.7-3.7c-0.5-0.9-1.5-1.3-3.2-1.3c-0.5,0-0.9,0-1.3,0.1
		c-0.4,0.1-0.7,0.2-1.1,0.4c-0.4,0.2-0.7,0.4-1.1,0.7c-0.4,0.3-0.8,0.7-1.3,1.1V99.4z"/>
	<path d="M378.2,91.2c-0.1-0.9-0.2-1.6-0.4-2.3c-0.2-0.7-0.4-1.3-0.8-1.7c-0.4-0.5-0.8-0.8-1.4-1.1c-0.6-0.2-1.3-0.4-2.2-0.4
		c-0.7,0-1.3,0.2-1.8,0.5c-0.6,0.3-1,0.8-1.4,1.3c-0.4,0.5-0.7,1.1-0.9,1.8c-0.2,0.7-0.3,1.3-0.3,1.9H378.2z M368.9,92.6
		c0,1.7,0.2,3,0.6,4.1c0.4,1.1,1,2,1.6,2.6c0.7,0.6,1.4,1.1,2.1,1.3c0.8,0.3,1.4,0.4,2.1,0.4c1.3,0,2.6-0.2,3.6-0.6
		c1.1-0.4,2.1-1.1,3-2l0.8,0.8c-1.3,1.4-2.7,2.5-4,3.2c-1.4,0.7-3,1.1-4.9,1.1c-1.4,0-2.6-0.3-3.7-0.8s-2-1.3-2.8-2.2
		c-0.8-0.9-1.4-1.9-1.8-3.1s-0.6-2.3-0.6-3.6c0-1.2,0.2-2.4,0.6-3.6s1-2.2,1.8-3.1c0.8-0.9,1.7-1.6,2.8-2.2s2.3-0.8,3.7-0.8
		c2.5,0,4.6,0.7,6.1,2.1c1.5,1.4,2.5,3.5,2.8,6.3H368.9z"/>
	<path d="M402.9,92.3c-0.3-0.8-0.7-1.6-1.1-2.4c-0.4-0.8-0.9-1.5-1.4-2.2s-1.2-1.2-2-1.6c-0.8-0.4-1.6-0.6-2.6-0.6
		c-1,0-1.8,0.2-2.5,0.7c-0.7,0.5-1.3,1.1-1.7,1.8s-0.8,1.6-1,2.5c-0.2,0.9-0.3,1.9-0.3,2.8c0,1.1,0.2,2.1,0.5,3
		c0.4,1,0.8,1.8,1.5,2.6c0.6,0.8,1.4,1.3,2.3,1.8c0.9,0.4,1.9,0.6,3,0.6c1.2,0,2.3-0.2,3.4-0.6s2.1-1,3-1.7l0.7,0.8
		c-1.4,1.2-2.9,2.1-4.2,2.7s-3,0.9-4.7,0.9c-1.2,0-2.4-0.3-3.6-0.8c-1.1-0.5-2.1-1.2-3-2.1s-1.5-1.9-2-3c-0.5-1.2-0.8-2.4-0.8-3.7
		c0-1.3,0.3-2.6,0.8-3.7s1.2-2.2,2-3s1.8-1.6,3-2.1c1.1-0.5,2.3-0.8,3.6-0.8c1.3,0,2.6,0.1,3.7,0.2c1.1,0.1,2.2,0.3,3.4,0.6l0.6,7.3
		H402.9z"/>
	<path d="M430.6,102.9c-0.9-0.1-1.9-0.1-3-0.1c-1.1,0-2.1,0-3.2,0c-0.7,0-1.4,0-2.1,0c-0.7,0-1.4,0.1-2,0.1v-0.6
		c1-0.2,1.8-0.5,2.4-0.8c0.6-0.3,0.8-1,0.8-2.1v-7.7c0-1.6-0.3-2.9-1-3.8c-0.7-0.9-1.8-1.3-3.3-1.3c-0.5,0-1.1,0.1-1.7,0.2
		c-0.6,0.2-1.1,0.4-1.6,0.6c-0.5,0.3-0.9,0.6-1.2,0.9c-0.3,0.3-0.5,0.6-0.5,0.9v10.2c0,1.1,0.3,1.8,0.9,2.1c0.6,0.3,1.5,0.6,2.7,0.8
		v0.6c-1.1-0.1-2.2-0.1-3.2-0.1c-1.1,0-2.2,0-3.2,0c-0.7,0-1.4,0-2.1,0c-0.7,0-1.4,0.1-2.1,0.1v-0.6c1.1-0.2,1.9-0.5,2.5-0.8
		c0.6-0.3,0.9-1,0.9-2.1V75c0-1.2-0.1-2.1-0.2-2.7c-0.1-0.7-0.3-1.2-0.6-1.5c-0.3-0.3-0.6-0.6-1.1-0.6c-0.5-0.1-1-0.2-1.8-0.2v-0.6
		l7.3-0.8v18.6c0.9-0.7,1.9-1.3,3-1.9c1.1-0.6,2.2-0.9,3.2-0.9c0.9,0,1.8,0.1,2.6,0.3c0.8,0.2,1.5,0.6,2.2,1.1
		c0.6,0.5,1.2,1.2,1.5,2.1c0.4,0.9,0.6,1.9,0.6,3.2v8.4c0,1.1,0.3,1.8,0.9,2.1c0.6,0.3,1.4,0.6,2.5,0.8V102.9z"/>
	<path d="M445.3,94.5c-1.1-0.3-2.1-0.4-3.2-0.4c-0.6,0-1.2,0.1-1.8,0.2c-0.6,0.1-1.2,0.4-1.6,0.7c-0.5,0.3-0.9,0.7-1.2,1.2
		c-0.3,0.5-0.5,1.1-0.5,1.8c0,1.1,0.4,1.9,1.1,2.3c0.8,0.5,1.6,0.7,2.5,0.7c1,0,2-0.2,2.8-0.6c0.8-0.4,1.5-0.8,1.8-1.1V94.5z
		 M434.9,88.7c0.3-1,0.6-1.8,1.1-2.4c0.5-0.6,1-1,1.6-1.3c0.6-0.3,1.3-0.5,2.1-0.6c0.8-0.1,1.6-0.1,2.4-0.1c0.8,0,1.7,0.1,2.5,0.3
		c0.8,0.2,1.6,0.5,2.2,0.9s1.2,1,1.6,1.7c0.4,0.7,0.6,1.5,0.6,2.5v8.9c0,0.6,0.2,1.1,0.5,1.6c0.3,0.5,0.8,0.7,1.5,0.7
		c0.6,0,1.2-0.2,1.7-0.6c0.5-0.4,1-0.7,1.4-1.1l0.5,0.5c-0.3,0.3-0.7,0.7-1.1,1.1s-0.9,0.8-1.4,1.2c-0.5,0.4-1,0.7-1.5,1
		c-0.5,0.3-1,0.4-1.5,0.4c-0.3,0-0.7-0.1-1-0.3c-0.4-0.2-0.7-0.5-1-0.7c-0.3-0.3-0.6-0.6-0.9-0.9s-0.5-0.6-0.8-0.8
		c-1,0.7-2.2,1.3-3.5,1.9c-1.3,0.6-2.5,0.9-3.7,0.9c-0.7,0-1.3-0.1-1.9-0.3s-1.2-0.5-1.7-1c-0.5-0.4-0.9-0.9-1.2-1.5
		c-0.3-0.6-0.4-1.2-0.4-2c0-1.3,0.4-2.4,1.1-3.1c0.7-0.8,1.7-1.4,2.9-1.8c1.2-0.4,2.5-0.7,4-0.8c1.5-0.1,3-0.2,4.5-0.3V89
		c0-1.2-0.4-2.1-1.1-2.7c-0.7-0.6-1.7-1-2.8-1c-0.8,0-1.5,0.4-2,1.2s-0.7,1.8-0.7,2.8L434.9,88.7z"/>
	<path d="M455.2,85.6l7-1.1v2.5c0.9-0.7,1.9-1.3,3-1.9s2.2-0.9,3.2-0.9c0.9,0,1.8,0.1,2.6,0.3c0.8,0.2,1.5,0.6,2.2,1.1
		c0.6,0.5,1.2,1.2,1.5,2.1c0.4,0.9,0.6,1.9,0.6,3.2v8.4c0,1.1,0.3,1.8,0.9,2.1c0.6,0.3,1.4,0.6,2.5,0.8v0.6c-0.9-0.1-1.9-0.1-3-0.1
		c-1.1,0-2.1,0-3.2,0c-0.7,0-1.4,0-2.1,0c-0.7,0-1.4,0.1-2,0.1v-0.6c1-0.2,1.8-0.5,2.4-0.8c0.6-0.3,0.8-1,0.8-2.1v-7.7
		c0-1.6-0.3-2.9-1-3.8c-0.7-0.9-1.8-1.3-3.3-1.3c-0.5,0-1.1,0.1-1.7,0.2c-0.6,0.2-1.1,0.4-1.6,0.6s-0.9,0.6-1.2,0.9
		c-0.3,0.3-0.5,0.6-0.5,0.9v10.2c0,1.1,0.3,1.8,0.9,2.1c0.6,0.3,1.5,0.6,2.7,0.8v0.6c-1.1-0.1-2.2-0.1-3.2-0.1c-1.1,0-2.2,0-3.2,0
		c-0.7,0-1.4,0-2.1,0c-0.7,0-1.4,0.1-2.1,0.1v-0.6c1.1-0.2,1.9-0.5,2.5-0.8c0.6-0.3,0.9-1,0.9-2.1V88.3c0-1-0.3-1.6-1-1.8
		c-0.7-0.2-1.4-0.3-2.3-0.3V85.6z"/>
	<path d="M485.6,70.4c0.7,0,1.3,0.3,1.8,0.8s0.7,1.1,0.7,1.8s-0.2,1.3-0.7,1.8s-1.1,0.8-1.8,0.8c-0.7,0-1.3-0.3-1.8-0.8
		s-0.7-1.1-0.7-1.8s0.2-1.3,0.7-1.8S484.9,70.4,485.6,70.4 M484.2,90.8c0-0.8,0-1.4-0.1-2c-0.1-0.6-0.2-1.1-0.4-1.5
		c-0.2-0.4-0.6-0.7-1.1-1c-0.5-0.3-1.1-0.4-2-0.5V85l7.3-0.5v14.1c0,0.8,0.1,1.4,0.2,1.9c0.1,0.5,0.3,0.8,0.7,1.1
		c0.3,0.2,0.7,0.4,1.2,0.5c0.5,0.1,1.1,0.2,1.8,0.2v0.6c-1.1-0.1-2.2-0.1-3.4-0.1c-1.1,0-2.3,0-3.4,0c-0.7,0-1.5,0-2.2,0
		c-0.7,0-1.4,0.1-2.2,0.1v-0.6c0.6,0,1.2-0.1,1.6-0.2c0.4-0.1,0.8-0.3,1.1-0.5c0.3-0.2,0.5-0.6,0.6-1.1c0.1-0.5,0.2-1.1,0.2-1.9
		V90.8z"/>
	<path d="M510.4,92.3c-0.3-0.8-0.7-1.6-1.1-2.4c-0.4-0.8-0.9-1.5-1.4-2.2s-1.2-1.2-2-1.6c-0.8-0.4-1.6-0.6-2.6-0.6
		c-1,0-1.8,0.2-2.5,0.7c-0.7,0.5-1.3,1.1-1.7,1.8s-0.8,1.6-1,2.5c-0.2,0.9-0.3,1.9-0.3,2.8c0,1.1,0.2,2.1,0.5,3
		c0.4,1,0.8,1.8,1.5,2.6c0.6,0.8,1.4,1.3,2.3,1.8c0.9,0.4,1.9,0.6,3,0.6c1.2,0,2.3-0.2,3.4-0.6s2.1-1,3-1.7l0.7,0.8
		c-1.4,1.2-2.9,2.1-4.2,2.7s-3,0.9-4.7,0.9c-1.2,0-2.4-0.3-3.6-0.8c-1.1-0.5-2.1-1.2-3-2.1s-1.5-1.9-2-3c-0.5-1.2-0.8-2.4-0.8-3.7
		c0-1.3,0.3-2.6,0.8-3.7s1.2-2.2,2-3s1.8-1.6,3-2.1c1.1-0.5,2.3-0.8,3.6-0.8c1.3,0,2.6,0.1,3.7,0.2c1.1,0.1,2.2,0.3,3.4,0.6l0.6,7.3
		H510.4z"/>
	<path d="M515.4,96.6h0.7c0.4,0.7,1,1.3,1.5,2c0.6,0.6,1.2,1.2,1.8,1.7s1.4,0.9,2.2,1.2c0.8,0.3,1.6,0.5,2.4,0.5
		c0.4,0,0.8,0,1.3-0.1c0.4-0.1,0.8-0.2,1.2-0.4c0.4-0.2,0.6-0.4,0.9-0.8c0.2-0.3,0.3-0.7,0.3-1.2c0-0.8-0.3-1.5-0.9-2
		c-0.6-0.5-1.3-1-2.2-1.3c-0.9-0.4-1.8-0.7-2.9-1.1c-1-0.3-2-0.7-2.9-1.2c-0.9-0.5-1.6-1-2.2-1.7c-0.6-0.7-0.9-1.5-0.9-2.6
		c0-1.7,0.5-3.1,1.6-4c1.1-0.9,2.4-1.4,4.1-1.4c1.2,0,2.4,0.2,3.5,0.5c1.1,0.3,2.3,0.5,3.5,0.6l0.3,5.1h-0.6
		c-0.3-0.6-0.7-1.2-1.2-1.8c-0.5-0.6-1-1.1-1.6-1.5c-0.6-0.4-1.2-0.8-1.9-1.1s-1.4-0.4-2.1-0.4c-0.8,0-1.5,0.2-2.2,0.5
		c-0.6,0.4-1,1-1,1.9c0,0.7,0.3,1.2,0.9,1.7c0.6,0.4,1.3,0.8,2.2,1.2c0.9,0.4,1.8,0.7,2.9,1.1c1,0.4,2,0.8,2.9,1.3
		c0.9,0.5,1.6,1.1,2.2,1.8s0.9,1.6,0.9,2.7c0,1.1-0.2,2-0.6,2.8c-0.4,0.7-0.9,1.3-1.5,1.7c-0.6,0.4-1.4,0.7-2.2,0.9
		c-0.8,0.2-1.8,0.3-2.7,0.3c-0.8,0-1.5-0.1-2.2-0.2s-1.4-0.2-2-0.4c-0.6-0.2-1.2-0.3-1.8-0.4c-0.5-0.1-1-0.2-1.4-0.3L515.4,96.6z"/>
</g>
</svg>
