<?xml version="1.0" encoding="utf-8"?>
<!-- Generator: Adobe Illustrator 27.0.1, SVG Export Plug-In . SVG Version: 6.00 Build 0)  -->
<svg version="1.1" id="svg3712" xmlns="http://www.w3.org/2000/svg" xmlns:xlink="http://www.w3.org/1999/xlink" x="0px" y="0px"
	 viewBox="0 0 562 173" style="enable-background:new 0 0 562 173;" xml:space="preserve">
<style type="text/css">
	.st0{fill:#7798CE;}
	.st1{fill:#00000F;}
</style>
<namedview  bordercolor="#000000" borderopacity="0.25" id="namedview35" pagecolor="#ffffff" showgrid="false"></namedview>
<g id="g32">
	<g id="g3705">
		<path id="path3663" class="st0" d="M52.2,135.2L7.6,114l39.3-27.8L52.2,135.2z"/>
		<path id="path3665" class="st0" d="M92.9,21.3c-45.3-4.4-69.2,42.5-56.4,79.2l-16.8,7.9C4.3,53.1,46.1,11.4,92.9,21.3z"/>
		<path id="path3667" class="st0" d="M121.8,32.6l38.5,18.6l-34.2,23.9L121.8,32.6z"/>
		<path id="path3669" class="st0" d="M76.6,140.7c37.6,6.6,71.1-41.7,58.2-78.4l11-5.1C161.3,112.6,113.9,154.3,76.6,140.7z"/>
		<path id="svg_29" d="M133.4,27.2c0.8-0.5-0.5-2-1.1-2.8c0,0,1,0.8,1.1,0.3c0.1-0.5-0.2-1.4-1.6-2.1c-0.8-0.4-1.3-0.4-1.8-0.9
			s-1.3-1.1-1.4-1.7c-0.1-0.5-0.3-0.6,0.2-0.9c0.3-0.2,0.4-0.9,0.3-1.2c-0.2-0.7-0.7-0.7-0.9-0.2c-0.1,0.3-0.4,0.2-0.7,0.1
			c-0.3-0.1-0.8,0-1,0.4c-0.4,0.8-0.8,0.9-1,1.5c-0.1,0.5-1.6,1.2-2.6,1.6c-0.9,0.4-5.1,1.7-7.5,1.9c-2.4,0.2-5.4,0.4-7.8,2.1
			c0,0-1.4-0.1-2.8,0c-1.4,0-7.3,1.7-8.5,2c-1.2,0.4-1.7,0.6-3,0.3c-1.3-0.2-2.6-0.6-3.8,0c-2,0.9-3.2,2-3.2,2s-1.6,0.1-2.2,0.1
			h-1.5c0,0-0.4-2.9-0.4-4.1c0-1.3-0.2-2-0.2-2s0.5,0.4,0.9-0.2s0.3-1.7,0.3-2.4c0-0.6-0.5-1.9-1-1.7c-0.1,0-0.2,0.1-0.2,0.1
			s-0.3-3-0.7-3.9c-0.3-0.8-0.9-1.8-1.8-2.7c-0.5-0.5-1.4-0.9-2.2-1.2c-0.2-0.7-0.7-2-2.3-2.2c-1.9-0.2-3.5,0.9-3.7,2.2
			c-0.1,0.7,0.1,1.1,0.3,1.4c-0.1,0.1-0.2,0.2-0.3,0.4c-1,1.1-1.4,2.2-1.4,3.7c0,0.4,0.3,2.7,0.6,3.8c0.2,0.7,0.2,0.9,0.2,0.9
			S70,21.5,70,22.1s0.2,1.7,0.3,2.3c0.2,0.6,0.5,1.4,1,1.4c0.5,0.1,0.7-0.3,0.7-0.3s0.7,1.7,1,2.1c0.2,0.4,1.2,1.5,1.4,2.3
			c0.2,0.9,0.2,2.5,0.2,3c-0.1,0.5-2.1,1.3-2.9,2.3c-0.6,0.7-1.5,1.2-1.5,1.2s-2.1,0.1-3.1,1c-1,1-2.9,2.8-3.6,4.3
			c-0.7,1.5-1.1,2.5-1.1,2.5s-2.4,1.4-4.1,3c-1.7,1.7-4,4.8-5,6c-0.5,0.6-1.9,1.6-3.2,2.9c-1.6,1.6-2.7,2.5-4.9,5.3
			c-2.1,2.7-6.1,7.1-7.2,8c-1.1,1-1.9,0.8-2.4,1.6c-0.6,1-1.1,1.6-1.2,2.9c-0.1,0.9-0.2,1.2-0.4,1.6c-0.2,0.5-0.7,0.7-0.7,1
			s0.4,0.4,0.6,0.4c0.3,0.1,1.2-0.3,1.3-1c0.2-0.9,1-0.8,1-0.6s-0.7,2.2-1,3c-0.4,1.1-0.6,2.4-0.6,3c0,0.5,0.3,1,0.6,0.6
			c0.3-0.4,0.5-1.4,0.5-1.4s-0.1,0.9-0.1,1.7c0.1,0.9,0.7,1.4,1-0.1c0,0,0,0.8,0.5,0.8s0.6-1.1,0.6-1.1c-0.1,0.7,0.3,0.9,0.7,0.4
			c0.3-0.3,1.1-1.9,1.1-3.2c0.1-1.3,0.5-5,0.5-5.8s0.1-0.6,0.5-0.8c0.5-0.2,0.8-1.1,1.4-1.6c0.6-0.5,6-4.8,8.6-7.1
			c2.7-2.5,3.6-3.2,4.6-4.6c0.3-0.5,1.1-0.9,1.7-1.5c0.7-0.7,4.4-3.6,5.5-4.5c1.1-1,2.8-1.7,4.4-3.3c1.6-1.6,2.6-2.4,2.6-2.4
			s2.3,1.4,3.2,2.2s1.7,3,2.3,4.3c0.5,1.3,0.1,3.5,0,4.7s-0.2,1.3-0.5,1.9c-0.9,2.1-1.3,5.9-1.2,6.5c0.1,0.6-5.8,7.1-7.7,10.2
			c-1.9,3.2-6,11.9-6.7,14.7c-0.6,2.7-1,4.1-0.3,5.3c0.7,1.2,2.9,2.3,4.3,1.6c1.4-0.7,2.9-1.8,4.2-2.9c0.9-0.8,6.7-8.1,7.8-8.7
			s4.3-2.9,5.3-4.4c1.1-1.7,2.2-3.4,2.5-4.4c0.1-0.4,1.4-0.5,1.2,0.2c-0.2,0.7-0.8,10-0.4,12.6s0.1,8.2,0.1,10.4
			c-0.1,2.2-0.1,5.7-0.1,6.8c0,0.3,0.1-0.2-0.6,1.2c-0.6,1.5-1.5,4.6-1,7c0.5,2.5-0.4,7.7-0.4,8.4v0.8c0,0-1.6-0.5-2.2,0.5
			c-0.5,0.9-1.1,2.5-0.9,4.7c0.2,2.3-0.7,6.1-1.2,6.8s-2.4,2.2-2.1,6.1c0.4,3.9,1.9,3.8,3.4,2.9c1.4-1,4.7-5.6,5.6-10.7
			c0.2-1,1.9-4.5,1.6-5.9c-0.2-1.4,0.8-5.3,1.6-7.8c0.8-2.5,3.8-8,2.9-13.9c-0.2-1.4,0.7-3.9,1.3-5.7c1.1-3.2,4.4-14.9,5.7-23.4
			c0.4-2.3,0.5-2.3,0.9-8c0.3-3.7-1.1-10.3-1.5-11.1c-0.8-1.4-0.9-4.4-1.6-6.7c-0.4-1.3-0.3-3.9-0.4-5.3c-0.1-1.4-0.3-5-0.8-7.8
			s-0.5-3.5-0.4-4.2s1.6-0.7,2.9-0.9c1.2-0.2,4.1-0.5,7.6-2.9c0.5-0.3,3.1-1.1,3.9-1.4s2-0.5,2.5-0.4s0.9-0.5,1.2-0.7
			c0.3-0.2,10.7-3.6,12.4-4.7c1.2-0.7,1.8-0.3,2.1-0.7c0.3-0.4,0.5-0.1,1.5,0c1,0.2,2.3,0.6,2.7,1s1.5,3,1.6,3.9
			c0.1,0.9,0.5,1.4,0.8,0.7c0.3-0.9-0.1-2.1-0.1-2.1s0.1,0.2,0.4,0.4C133.2,28.9,133.7,28,133.4,27.2"/>
		<g id="g3536" transform="matrix(1.531729,0,0,1.75336,154.96256,-305.0196)">
			<path id="path364" class="st0" d="M21.9,214.9l-3.1,8.1h6L21.9,214.9z M18.5,223.9l-2.1,5.8c-0.1,0.2-0.1,0.3-0.2,0.4
				c-0.1,0.1-0.1,0.3-0.1,0.4c0,0.4,0.1,0.7,0.3,1c0.2,0.3,0.5,0.5,0.8,0.7c0.3,0.2,0.6,0.3,1,0.4c0.3,0.1,0.6,0.2,0.9,0.2v0.4
				c-0.6,0-1.3-0.1-1.9-0.1s-1.3,0-2,0c-0.6,0-1.3,0-1.9,0c-0.6,0-1.3,0.1-1.9,0.1v-0.4c0.7-0.1,1.2-0.4,1.6-0.7
				c0.4-0.3,0.8-0.7,1.1-1.1c0.3-0.4,0.6-0.9,0.8-1.4s0.4-1,0.7-1.6l5.5-13.6c0.1-0.1,0.1-0.3,0.2-0.4c0.1-0.1,0.1-0.2,0.1-0.4
				s0-0.3-0.1-0.5s-0.2-0.4-0.3-0.6c0.6-0.1,1-0.2,1.4-0.4c0.4-0.2,0.9-0.4,1.3-0.5l6.7,18.3c0.3,0.8,0.7,1.5,1.2,2
				c0.5,0.5,1.3,0.8,2.4,0.9v0.4c-0.9,0-1.7-0.1-2.5-0.1s-1.7,0-2.6,0h-1.4c-0.4,0-0.8,0-1.2,0c-0.3,0-0.7,0-1,0s-0.6,0-1,0.1v-0.4
				c0.9-0.1,1.6-0.3,2.3-0.7s0.9-0.8,0.9-1.4c0-0.2,0-0.3-0.1-0.5s-0.1-0.3-0.2-0.5l-2.1-5.9h-6.6V223.9z"/>
			<path id="path366" class="st0" d="M45.3,224.4c-0.1-0.3-0.2-0.6-0.5-0.9c-0.2-0.3-0.5-0.6-0.9-0.8s-0.8-0.4-1.2-0.6
				c-0.5-0.2-0.9-0.2-1.4-0.2c-0.7,0-1.3,0.2-1.8,0.5s-0.9,0.7-1.2,1.3c-0.3,0.5-0.6,1.1-0.7,1.8c-0.1,0.7-0.2,1.3-0.2,1.9
				s0.1,1.3,0.2,1.9c0.1,0.7,0.4,1.2,0.7,1.8c0.3,0.5,0.7,0.9,1.2,1.3c0.5,0.3,1.1,0.5,1.8,0.5c0.5,0,1-0.1,1.4-0.2
				c0.4-0.1,0.9-0.3,1.2-0.6c0.4-0.2,0.7-0.5,0.9-0.7c0.2-0.3,0.4-0.5,0.5-0.7V224.4z M47.8,230c0,0.6,0,1,0.1,1.4s0.2,0.7,0.4,0.9
				s0.5,0.4,0.8,0.5c0.4,0.1,0.8,0.1,1.4,0.1v0.4c-0.9,0-1.7,0-2.5,0s-1.7,0.1-2.6,0.1v-1.2c-0.5,0.4-1.2,0.8-2.1,1.1
				c-0.9,0.3-1.8,0.5-2.9,0.5c-0.9,0-1.7-0.2-2.4-0.5c-0.7-0.3-1.3-0.8-1.8-1.3s-0.9-1.2-1.2-2c-0.3-0.8-0.4-1.5-0.4-2.3
				c0-1,0.2-1.8,0.5-2.7c0.3-0.8,0.8-1.5,1.4-2.1c0.6-0.6,1.3-1.1,2.1-1.4c0.8-0.3,1.7-0.5,2.7-0.5c0.7,0,1.4,0.1,2,0.4
				c0.7,0.3,1.3,0.6,1.9,0.9V214c0-0.5,0-0.9-0.1-1.2s-0.2-0.6-0.4-0.8s-0.5-0.3-0.8-0.4c-0.4-0.1-0.8-0.1-1.3-0.2V211l5.2-0.5
				L47.8,230L47.8,230z"/>
			<path id="path368" class="st0" d="M62.5,224.4c-0.1-0.3-0.2-0.6-0.5-0.9c-0.2-0.3-0.5-0.6-0.9-0.8s-0.8-0.4-1.2-0.6
				c-0.5-0.2-0.9-0.2-1.4-0.2c-0.7,0-1.3,0.2-1.8,0.5s-0.9,0.7-1.2,1.3s-0.6,1.1-0.7,1.8c-0.1,0.7-0.2,1.3-0.2,1.9s0.1,1.3,0.2,1.9
				c0.1,0.7,0.4,1.2,0.7,1.8c0.3,0.5,0.7,0.9,1.2,1.3s1.1,0.5,1.8,0.5c0.5,0,1-0.1,1.4-0.2c0.4-0.1,0.9-0.3,1.2-0.6
				c0.4-0.2,0.7-0.5,0.9-0.7c0.2-0.3,0.4-0.5,0.5-0.7V224.4z M65,230c0,0.6,0,1,0.1,1.4s0.2,0.7,0.4,0.9c0.2,0.2,0.5,0.4,0.8,0.5
				c0.4,0.1,0.8,0.1,1.4,0.1v0.4c-0.9,0-1.7,0-2.5,0c-0.8,0-1.7,0.1-2.6,0.1v-1.2c-0.5,0.4-1.2,0.8-2.1,1.1
				c-0.9,0.3-1.8,0.5-2.9,0.5c-0.9,0-1.7-0.2-2.4-0.5s-1.3-0.8-1.8-1.3c-0.5-0.6-0.9-1.2-1.2-2s-0.4-1.5-0.4-2.3
				c0-1,0.2-1.8,0.5-2.7c0.3-0.8,0.8-1.5,1.4-2.1c0.6-0.6,1.3-1.1,2.1-1.4c0.8-0.3,1.7-0.5,2.7-0.5c0.7,0,1.4,0.1,2,0.4
				c0.7,0.3,1.3,0.6,1.9,0.9V214c0-0.5,0-0.9-0.1-1.2s-0.2-0.6-0.4-0.8s-0.5-0.3-0.8-0.4c-0.4-0.1-0.8-0.1-1.3-0.2V211l5.2-0.5V230z
				"/>
			<path id="path370" class="st1" d="M75.7,231.5c0.1,0.2,0.3,0.3,0.6,0.4c0.3,0.1,0.7,0.2,1.1,0.3s0.9,0.2,1.3,0.2
				c0.5,0.1,0.9,0.1,1.3,0.1c1.7,0,3.1-0.5,4-1.4c1-0.9,1.5-2.2,1.5-4c0-0.9-0.3-1.8-0.9-2.6s-1.2-1.4-2-1.9c-0.5,0.1-1,0.2-1.5,0.2
				c-0.5,0.1-1,0.1-1.6,0.1c-0.7,0-1.3,0-2-0.1s-1.3-0.2-1.9-0.5L75.7,231.5z M75.7,221.5c0.6,0.3,1.2,0.5,1.8,0.6s1.2,0.2,1.8,0.2
				c1.4,0,2.5-0.4,3.4-1.1c0.9-0.8,1.4-1.9,1.4-3.3c0-0.7-0.2-1.4-0.4-2c-0.3-0.6-0.7-1.1-1.2-1.5s-1.1-0.7-1.7-1
				c-0.7-0.2-1.3-0.3-2-0.3c-0.5,0-1,0-1.5,0.1c-0.5,0-1,0.1-1.5,0.3v8H75.7z M72.8,217.4c0-0.9,0-1.6-0.1-2.2
				c-0.1-0.6-0.2-1.1-0.4-1.4s-0.5-0.6-1-0.8s-1-0.3-1.8-0.4v-0.4c0.7,0,1.3,0.1,2,0.1c0.6,0,1.3,0,2,0c0.9,0,1.7,0,2.6-0.1
				s1.8-0.1,2.8-0.1c0.9,0,1.8,0.1,2.8,0.3s1.9,0.5,2.7,1c0.8,0.5,1.5,1.1,2.1,1.8c0.6,0.8,0.8,1.7,0.8,2.9c0,1-0.3,1.8-0.9,2.6
				s-1.4,1.3-2.3,1.6v0.1c1.5,0.5,2.6,1.2,3.4,2.2s1.2,2.3,1.2,3.9c0,1-0.2,1.8-0.6,2.4c-0.4,0.7-1,1.2-1.7,1.6s-1.5,0.7-2.4,0.8
				s-1.8,0.2-2.8,0.2c-1.5,0-2.9-0.1-4.3-0.2c-1.4-0.1-2.9-0.2-4.3-0.2c-0.5,0-1,0-1.5,0s-1,0.1-1.5,0.1v-0.4
				c0.7-0.1,1.3-0.2,1.8-0.4c0.4-0.2,0.7-0.4,1-0.8c0.2-0.4,0.3-0.8,0.4-1.4c0.1-0.6,0.1-1.3,0.1-2.2L72.8,217.4L72.8,217.4z"/>
			<path id="path372" class="st1" d="M93.8,211.7c0.5,0,0.9,0.2,1.2,0.5s0.5,0.8,0.5,1.2s-0.2,0.9-0.5,1.2c-0.3,0.4-0.7,0.5-1.2,0.5
				s-0.9-0.2-1.2-0.5c-0.3-0.4-0.5-0.8-0.5-1.2s0.2-0.9,0.5-1.2C92.9,211.9,93.3,211.7,93.8,211.7 M92.9,225.2c0-0.5,0-1,0-1.4
				s-0.1-0.7-0.3-1c-0.2-0.3-0.4-0.5-0.7-0.7c-0.3-0.2-0.8-0.3-1.3-0.4v-0.4l4.9-0.3v9.4c0,0.5,0,1,0.1,1.3s0.2,0.5,0.4,0.7
				c0.2,0.2,0.5,0.3,0.8,0.3c0.3,0.1,0.7,0.1,1.2,0.1v0.4c-0.7,0-1.5-0.1-2.3-0.1s-1.5,0-2.3,0c-0.5,0-1,0-1.4,0
				c-0.5,0-0.9,0.1-1.4,0.1v-0.4c0.4,0,0.8-0.1,1.1-0.1c0.3-0.1,0.5-0.2,0.7-0.3s0.3-0.4,0.4-0.7s0.1-0.7,0.1-1.3L92.9,225.2
				L92.9,225.2z"/>
			<path id="path374" class="st1" d="M105.6,221.9c-0.6,0-1.1,0.1-1.6,0.4c-0.4,0.3-0.8,0.7-1.1,1.2c-0.3,0.5-0.5,1-0.6,1.6
				s-0.2,1.2-0.2,1.8c0,0.7,0.1,1.4,0.3,2c0.2,0.7,0.5,1.3,0.8,1.9s0.9,1,1.4,1.4c0.6,0.4,1.3,0.5,2.1,0.5c0.6,0,1.1-0.1,1.6-0.4
				c0.4-0.3,0.8-0.7,1.1-1.2c0.3-0.5,0.5-1,0.6-1.6s0.2-1.2,0.2-1.8c0-0.7-0.1-1.3-0.3-2c-0.2-0.7-0.5-1.3-0.9-1.9s-0.9-1-1.4-1.4
				S106.4,221.9,105.6,221.9 M106.2,220.9c1,0,2,0.2,2.8,0.5s1.6,0.7,2.2,1.3s1.1,1.2,1.4,2s0.5,1.7,0.5,2.6c0,1-0.2,1.8-0.5,2.6
				s-0.8,1.5-1.4,2c-0.6,0.6-1.3,1-2.2,1.3c-0.8,0.3-1.8,0.5-2.8,0.5s-2-0.2-2.8-0.5s-1.6-0.7-2.2-1.3s-1.1-1.2-1.4-2
				s-0.5-1.7-0.5-2.6c0-1,0.2-1.8,0.5-2.6s0.8-1.5,1.4-2s1.3-1,2.2-1.3C104.3,221.1,105.2,220.9,106.2,220.9"/>
			<path id="path376" class="st1" d="M119.6,231c0,0.7,0.2,1.2,0.6,1.4s0.9,0.4,1.6,0.5v0.4c-0.6,0-1.3-0.1-2-0.1s-1.4,0-2.1,0
				c-0.5,0-1,0-1.4,0c-0.5,0-1,0.1-1.5,0.1v-0.4c0.8-0.1,1.3-0.3,1.7-0.5c0.4-0.2,0.6-0.7,0.6-1.4v-6.5c0-0.5,0-0.9-0.1-1.2
				s-0.2-0.5-0.4-0.7s-0.4-0.3-0.7-0.3s-0.6-0.1-1-0.1v-0.4l4.7-0.6v1.6c0.7-0.5,1.4-0.9,2-1.3s1.5-0.5,2.4-0.5c0.7,0,1.4,0.1,2,0.4
				c0.6,0.3,1.1,0.7,1.6,1.3c0.3-0.2,0.6-0.4,0.9-0.6s0.7-0.4,1.1-0.6c0.4-0.2,0.7-0.3,1.1-0.4c0.4-0.1,0.8-0.2,1.1-0.2
				c1.3,0,2.4,0.4,3.2,1.1c0.8,0.7,1.2,1.8,1.2,3.3v5.7c0,0.7,0.2,1.2,0.6,1.4c0.4,0.2,1,0.4,1.7,0.5v0.4c-0.7,0-1.4-0.1-2.1-0.1
				c-0.7,0-1.4,0-2.1,0c-0.5,0-1,0-1.4,0c-0.4,0-0.9,0.1-1.2,0.1v-0.4c0.6-0.1,1.1-0.3,1.5-0.5c0.4-0.2,0.6-0.7,0.6-1.4v-5.4
				c0-1-0.3-1.8-0.8-2.4c-0.5-0.5-1.1-0.8-1.8-0.8c-1.3,0-2.3,0.3-3.1,1v7.5c0,0.7,0.2,1.2,0.6,1.4c0.4,0.2,0.9,0.4,1.6,0.5v0.4
				c-0.6,0-1.3-0.1-2-0.1c-0.7,0-1.4,0-2.1,0c-0.5,0-1,0-1.4,0s-0.9,0.1-1.2,0.1v-0.4c0.6-0.1,1.1-0.3,1.5-0.5s0.6-0.7,0.6-1.4v-5.4
				c0-1-0.2-1.9-0.5-2.4s-1-0.9-2.1-0.9c-0.3,0-0.6,0-0.8,0.1c-0.2,0.1-0.5,0.1-0.7,0.3s-0.5,0.3-0.7,0.5s-0.5,0.5-0.8,0.8
				L119.6,231z"/>
			<path id="path378" class="st1" d="M149,225.5c-0.1-0.6-0.1-1.1-0.3-1.6c-0.1-0.5-0.3-0.8-0.5-1.2c-0.2-0.3-0.5-0.5-0.9-0.7
				s-0.9-0.2-1.5-0.2c-0.4,0-0.9,0.1-1.2,0.3c-0.4,0.2-0.7,0.5-1,0.9s-0.5,0.7-0.6,1.2s-0.2,0.9-0.2,1.3H149z M142.8,226.5
				c0,1.1,0.1,2,0.4,2.8c0.3,0.7,0.6,1.3,1.1,1.7s0.9,0.7,1.4,0.9s1,0.3,1.4,0.3c0.9,0,1.7-0.1,2.4-0.4c0.7-0.3,1.4-0.7,2-1.4
				l0.5,0.5c-0.9,0.9-1.8,1.7-2.7,2.1c-0.9,0.5-2,0.7-3.3,0.7c-0.9,0-1.7-0.2-2.5-0.5c-0.7-0.4-1.3-0.8-1.9-1.4
				c-0.5-0.6-0.9-1.3-1.2-2s-0.4-1.6-0.4-2.4s0.1-1.6,0.4-2.4c0.3-0.8,0.7-1.5,1.2-2s1.1-1.1,1.9-1.4s1.5-0.5,2.5-0.5
				c1.7,0,3,0.5,4.1,1.4c1,0.9,1.7,2.3,1.9,4.2L142.8,226.5z"/>
			<path id="path380" class="st1" d="M165.5,226.3c-0.2-0.5-0.5-1.1-0.7-1.6c-0.3-0.5-0.6-1-1-1.5s-0.8-0.8-1.3-1.1
				s-1.1-0.4-1.7-0.4c-0.7,0-1.2,0.2-1.7,0.5s-0.8,0.7-1.1,1.2s-0.5,1.1-0.6,1.7c-0.1,0.6-0.2,1.3-0.2,1.9c0,0.7,0.1,1.4,0.4,2
				c0.2,0.6,0.6,1.2,1,1.7s0.9,0.9,1.6,1.2c0.6,0.3,1.3,0.4,2,0.4c0.8,0,1.5-0.1,2.2-0.4c0.7-0.3,1.4-0.7,2-1.1l0.4,0.5
				c-1,0.8-1.9,1.4-2.8,1.8s-2,0.6-3.1,0.6c-0.8,0-1.6-0.2-2.4-0.5c-0.8-0.3-1.4-0.8-2-1.4s-1-1.3-1.4-2s-0.5-1.6-0.5-2.5
				s0.2-1.7,0.5-2.5s0.8-1.5,1.4-2c0.6-0.6,1.2-1,2-1.4c0.8-0.3,1.6-0.5,2.4-0.5c0.9,0,1.7,0,2.5,0.1c0.7,0.1,1.5,0.2,2.2,0.4
				l0.4,4.9L165.5,226.3L165.5,226.3z"/>
			<path id="path382" class="st1" d="M184,233.3c-0.6,0-1.3-0.1-2-0.1s-1.4,0-2.1,0c-0.5,0-1,0-1.4,0c-0.5,0-0.9,0.1-1.3,0.1v-0.4
				c0.7-0.1,1.2-0.3,1.6-0.5s0.6-0.7,0.6-1.4v-5.2c0-1.1-0.2-1.9-0.7-2.5s-1.2-0.9-2.2-0.9c-0.4,0-0.7,0.1-1.1,0.2
				c-0.4,0.1-0.7,0.3-1.1,0.4c-0.3,0.2-0.6,0.4-0.8,0.6c-0.2,0.2-0.3,0.4-0.3,0.6v6.8c0,0.7,0.2,1.2,0.6,1.4s1,0.4,1.8,0.5v0.4
				c-0.7,0-1.4-0.1-2.2-0.1c-0.7,0-1.4,0-2.2,0c-0.5,0-1,0-1.4,0c-0.5,0-0.9,0.1-1.4,0.1v-0.4c0.7-0.1,1.3-0.3,1.7-0.5
				s0.6-0.7,0.6-1.4v-16.3c0-0.8,0-1.4-0.1-1.8s-0.2-0.8-0.4-1s-0.4-0.4-0.7-0.4c-0.3-0.1-0.7-0.1-1.2-0.1V211l4.9-0.5v12.4
				c0.6-0.4,1.2-0.9,2-1.3c0.7-0.4,1.5-0.6,2.1-0.6s1.2,0.1,1.7,0.2c0.5,0.1,1,0.4,1.5,0.7s0.8,0.8,1,1.4c0.3,0.6,0.4,1.3,0.4,2.1
				v5.6c0,0.7,0.2,1.2,0.6,1.4s0.9,0.4,1.7,0.5L184,233.3z"/>
			<path id="path384" class="st1" d="M193.7,227.7c-0.7-0.2-1.4-0.3-2.1-0.3c-0.4,0-0.8,0-1.2,0.1s-0.8,0.3-1.1,0.5
				s-0.6,0.5-0.8,0.8s-0.3,0.7-0.3,1.2c0,0.7,0.3,1.2,0.8,1.6c0.5,0.3,1.1,0.5,1.7,0.5c0.7,0,1.3-0.1,1.9-0.4s1-0.5,1.2-0.7
				L193.7,227.7z M186.8,223.8c0.2-0.7,0.4-1.2,0.7-1.6c0.3-0.4,0.7-0.7,1.1-0.9c0.4-0.2,0.9-0.3,1.4-0.4c0.5-0.1,1.1-0.1,1.6-0.1
				c0.6,0,1.1,0.1,1.6,0.2c0.5,0.1,1,0.3,1.5,0.6s0.8,0.6,1.1,1.1s0.4,1,0.4,1.7v5.9c0,0.4,0.1,0.8,0.3,1.1s0.5,0.5,1,0.5
				c0.4,0,0.8-0.1,1.1-0.4s0.6-0.5,0.9-0.7l0.3,0.4c-0.2,0.2-0.5,0.5-0.8,0.8s-0.6,0.6-0.9,0.8c-0.3,0.3-0.6,0.5-1,0.7
				c-0.3,0.2-0.7,0.3-1,0.3c-0.2,0-0.4-0.1-0.7-0.2c-0.2-0.1-0.5-0.3-0.7-0.5s-0.4-0.4-0.6-0.6c-0.2-0.2-0.4-0.4-0.5-0.5
				c-0.7,0.5-1.5,0.9-2.3,1.3s-1.7,0.6-2.5,0.6c-0.4,0-0.9-0.1-1.3-0.2c-0.4-0.1-0.8-0.4-1.1-0.6s-0.6-0.6-0.8-1s-0.3-0.8-0.3-1.3
				c0-0.9,0.2-1.6,0.7-2.1s1.1-0.9,1.9-1.2c0.8-0.3,1.7-0.5,2.7-0.6s2-0.2,3-0.2v-2.4c0-0.8-0.2-1.4-0.7-1.8
				c-0.5-0.4-1.1-0.6-1.9-0.6c-0.6,0-1,0.3-1.3,0.8c-0.3,0.6-0.5,1.2-0.5,1.9L186.8,223.8z"/>
			<path id="path386" class="st1" d="M200.3,221.8l4.7-0.7v1.7c0.6-0.4,1.2-0.9,2-1.3c0.7-0.4,1.5-0.6,2.1-0.6s1.2,0.1,1.7,0.2
				c0.5,0.1,1,0.4,1.5,0.7s0.8,0.8,1,1.4c0.3,0.6,0.4,1.3,0.4,2.1v5.6c0,0.7,0.2,1.2,0.6,1.4s0.9,0.4,1.7,0.5v0.4
				c-0.6,0-1.3-0.1-2-0.1s-1.4,0-2.1,0c-0.5,0-1,0-1.4,0c-0.5,0-0.9,0.1-1.3,0.1v-0.4c0.7-0.1,1.2-0.3,1.6-0.5s0.6-0.7,0.6-1.4v-5.2
				c0-1.1-0.2-1.9-0.7-2.5s-1.2-0.9-2.2-0.9c-0.4,0-0.7,0.1-1.1,0.2c-0.4,0.1-0.7,0.3-1.1,0.4s-0.6,0.4-0.8,0.6
				c-0.2,0.2-0.3,0.4-0.3,0.6v6.8c0,0.7,0.2,1.2,0.6,1.4s1,0.4,1.8,0.5v0.4c-0.7,0-1.4-0.1-2.2-0.1c-0.7,0-1.4,0-2.2,0
				c-0.5,0-1,0-1.4,0c-0.5,0-0.9,0.1-1.4,0.1v-0.4c0.7-0.1,1.3-0.3,1.7-0.5s0.6-0.7,0.6-1.4v-7.4c0-0.6-0.2-1-0.7-1.2
				c-0.4-0.1-0.9-0.2-1.5-0.2v-0.3H200.3z"/>
			<path id="path388" class="st1" d="M220.6,211.7c0.5,0,0.9,0.2,1.2,0.5s0.5,0.8,0.5,1.2s-0.2,0.9-0.5,1.2
				c-0.3,0.4-0.7,0.5-1.2,0.5s-0.9-0.2-1.2-0.5c-0.3-0.4-0.5-0.8-0.5-1.2s0.2-0.9,0.5-1.2C219.7,211.9,220.1,211.7,220.6,211.7
				 M219.7,225.2c0-0.5,0-1,0-1.4s-0.1-0.7-0.3-1s-0.4-0.5-0.7-0.7s-0.8-0.3-1.3-0.4v-0.4l4.9-0.3v9.4c0,0.5,0,1,0.1,1.3
				s0.2,0.5,0.4,0.7s0.5,0.3,0.8,0.3c0.3,0.1,0.7,0.1,1.2,0.1v0.4c-0.7,0-1.5-0.1-2.3-0.1s-1.5,0-2.3,0c-0.5,0-1,0-1.4,0
				c-0.5,0-0.9,0.1-1.4,0.1v-0.4c0.4,0,0.8-0.1,1.1-0.1c0.3-0.1,0.5-0.2,0.7-0.3s0.3-0.4,0.4-0.7c0.1-0.3,0.1-0.7,0.1-1.3V225.2z"/>
			<path id="path390" class="st1" d="M237.1,226.3c-0.2-0.5-0.5-1.1-0.7-1.6c-0.3-0.5-0.6-1-1-1.5s-0.8-0.8-1.3-1.1
				s-1.1-0.4-1.7-0.4c-0.7,0-1.2,0.2-1.7,0.5s-0.8,0.7-1.1,1.2s-0.5,1.1-0.6,1.7c-0.1,0.6-0.2,1.3-0.2,1.9c0,0.7,0.1,1.4,0.4,2
				c0.2,0.6,0.6,1.2,1,1.7s0.9,0.9,1.6,1.2c0.6,0.3,1.3,0.4,2,0.4c0.8,0,1.5-0.1,2.2-0.4c0.7-0.3,1.4-0.7,2-1.1l0.4,0.5
				c-1,0.8-1.9,1.4-2.8,1.8s-2,0.6-3.1,0.6c-0.8,0-1.6-0.2-2.4-0.5c-0.8-0.3-1.4-0.8-2-1.4s-1-1.3-1.4-2s-0.5-1.6-0.5-2.5
				s0.2-1.7,0.5-2.5s0.8-1.5,1.4-2c0.6-0.6,1.2-1,2-1.4c0.8-0.3,1.6-0.5,2.4-0.5c0.9,0,1.7,0,2.5,0.1c0.7,0.1,1.5,0.2,2.2,0.4
				l0.4,4.9L237.1,226.3L237.1,226.3z"/>
			<path id="path392" class="st1" d="M240.5,229.1h0.4c0.3,0.4,0.6,0.9,1,1.3c0.4,0.4,0.8,0.8,1.2,1.2s0.9,0.6,1.4,0.8
				s1.1,0.3,1.6,0.3c0.3,0,0.6,0,0.8-0.1c0.3-0.1,0.5-0.1,0.8-0.3c0.2-0.1,0.4-0.3,0.6-0.5c0.1-0.2,0.2-0.5,0.2-0.8
				c0-0.5-0.2-1-0.6-1.3c-0.4-0.3-0.9-0.6-1.5-0.9c-0.6-0.3-1.2-0.5-1.9-0.7s-1.3-0.5-1.9-0.8c-0.6-0.3-1.1-0.7-1.5-1.1
				c-0.4-0.4-0.6-1-0.6-1.7c0-1.2,0.4-2,1.1-2.7c0.7-0.6,1.6-0.9,2.7-0.9c0.8,0,1.6,0.1,2.4,0.3c0.8,0.2,1.5,0.3,2.4,0.4l0.2,3.4
				h-0.4c-0.2-0.4-0.5-0.8-0.8-1.2s-0.7-0.7-1.1-1c-0.4-0.3-0.8-0.5-1.3-0.7c-0.4-0.2-0.9-0.3-1.4-0.3s-1,0.1-1.4,0.4
				c-0.4,0.2-0.6,0.7-0.6,1.3c0,0.4,0.2,0.8,0.6,1.1c0.4,0.3,0.9,0.6,1.5,0.8s1.2,0.5,1.9,0.7s1.3,0.5,1.9,0.8
				c0.6,0.3,1.1,0.7,1.5,1.2s0.6,1.1,0.6,1.8s-0.1,1.4-0.4,1.8c-0.2,0.5-0.6,0.9-1,1.1c-0.4,0.3-0.9,0.5-1.5,0.6s-1.2,0.2-1.8,0.2
				c-0.5,0-1,0-1.5-0.1s-0.9-0.2-1.3-0.3c-0.4-0.1-0.8-0.2-1.2-0.3s-0.7-0.1-1-0.2L240.5,229.1z"/>
		</g>
	</g>
</g>
</svg>
