<svg width="535" height="153" viewBox="0 0 535 153" fill="none" xmlns="http://www.w3.org/2000/svg">
<g clip-path="url(#clip0_102_48)">
<path d="M125.469 75.6306H113.459C111.954 75.6829 110.449 75.5029 108.999 75.0968C107.797 74.3434 106.733 73.3891 105.853 72.2756L96.3222 61.9628V61.8675C101.207 62.7587 106.245 62.184 110.803 60.2157C115.362 58.2475 119.235 54.9738 121.935 50.8074C124.636 46.641 126.042 41.7684 125.977 36.8039C125.912 31.8394 124.379 27.0052 121.571 22.9108C118.762 18.8164 114.805 15.645 110.197 13.7966C105.589 11.9481 100.537 11.5053 95.6773 12.5239C90.818 13.5425 86.369 15.9769 82.8913 19.5203C79.4135 23.0637 77.0626 27.5575 76.135 32.435H51.9257C51.597 32.435 51.2819 32.5655 51.0495 32.7979C50.8172 33.0302 50.6866 33.3454 50.6866 33.674C50.6866 34.0026 50.8172 34.3178 51.0495 34.5502C51.2819 34.7825 51.597 34.9131 51.9257 34.9131H75.7919C75.7919 35.6565 75.6775 36.4 75.6775 37.1625C75.6823 40.3504 76.297 43.508 77.4885 46.465H26.706C26.3774 46.465 26.0622 46.5955 25.8298 46.8279C25.5975 47.0602 25.4669 47.3754 25.4669 47.704C25.4669 48.0326 25.5975 48.3478 25.8298 48.5802C26.0622 48.8125 26.3774 48.9431 26.706 48.9431H78.6132C79.6506 50.8605 80.9321 52.6353 82.4257 54.2234C82.0282 54.1561 81.6273 54.1115 81.2247 54.09H59.5507C57.9037 54.1324 56.2825 54.5086 54.785 55.1956C53.4052 55.9336 52.1242 56.8431 50.9725 57.9025L48.5325 60.495H36.6185C36.2899 60.495 35.9747 60.6255 35.7423 60.8579C35.51 61.0902 35.3794 61.4054 35.3794 61.734C35.3794 62.0626 35.51 62.3778 35.7423 62.6102C35.9747 62.8425 36.2899 62.9731 36.6185 62.9731H46.1497L41.2697 68.1772L41.1172 68.3487L35.3985 74.5059H26.706C26.5433 74.5059 26.3821 74.5379 26.2318 74.6002C26.0815 74.6625 25.9449 74.7538 25.8298 74.8688C25.7148 74.9839 25.6235 75.1205 25.5612 75.2708C25.499 75.4211 25.4669 75.5822 25.4669 75.745C25.4669 75.9077 25.499 76.0688 25.5612 76.2191C25.6235 76.3695 25.7148 76.5061 25.8298 76.6211C25.9449 76.7362 26.0815 76.8274 26.2318 76.8897C26.3821 76.952 26.5433 76.984 26.706 76.984H33.6447C32.9106 78.5451 32.7641 80.3186 33.2322 81.979C33.7002 83.6394 34.7514 85.0753 36.1928 86.0231C37.6342 86.9709 39.3691 87.367 41.0791 87.1388C42.789 86.9106 44.3592 86.0733 45.5016 84.7806L52.0019 77.7656L52.6882 77.0222H63.7063L55.1282 95.1125C53.7044 98.1251 53.3962 101.545 54.2585 104.764C55.1207 107.983 57.0975 110.791 59.8366 112.688L54.3275 118.216C53.725 118.678 53.0877 119.092 52.4213 119.455C51.4073 119.56 50.3852 119.56 49.3713 119.455L34.5025 119.665C32.6016 119.569 30.7404 120.232 29.3283 121.508C27.9162 122.784 27.0689 124.569 26.9729 126.47C26.8768 128.371 27.5398 130.232 28.8161 131.645C30.0923 133.057 31.8772 133.904 33.7782 134C33.9107 134.022 34.046 134.022 34.1785 134H34.5788L53.7557 133.847C55.2817 133.773 56.7926 133.51 58.2544 133.066C59.8004 132.491 61.214 131.609 62.41 130.473L77.66 115.223H86.2C86.9408 115.314 87.6736 115.461 88.3922 115.662C89.1594 116.304 89.8559 117.026 90.47 117.816L103.166 131.503C103.792 132.222 104.555 132.809 105.411 133.229C106.266 133.65 107.197 133.895 108.149 133.952C109.101 134.008 110.054 133.874 110.953 133.557C111.853 133.24 112.68 132.747 113.386 132.107C114.092 131.466 114.664 130.691 115.067 129.827C115.47 128.963 115.697 128.028 115.734 127.075C115.771 126.122 115.617 125.172 115.282 124.279C114.948 123.386 114.438 122.569 113.783 121.876C113.743 121.788 113.692 121.704 113.631 121.628L97.6185 104.472C96.4626 103.439 95.1817 102.556 93.806 101.842C92.3086 101.154 90.6873 100.778 89.0404 100.736H83.5122L93.1769 79.7672L100.688 87.7734C102.467 89.3614 104.784 90.2132 107.169 90.1562C107.537 90.1803 107.906 90.1803 108.274 90.1562H115.899C115.988 90.1663 116.078 90.1663 116.166 90.1562H116.719H125.278C125.342 90.1613 125.405 90.1613 125.469 90.1562C126.418 90.1562 127.357 89.9693 128.234 89.6063C129.11 89.2432 129.907 88.711 130.577 88.0402C131.248 87.3693 131.78 86.5728 132.144 85.6963C132.507 84.8198 132.693 83.8803 132.693 82.9315C132.693 81.9828 132.507 81.0433 132.144 80.1668C131.78 79.2902 131.248 78.4938 130.577 77.8229C129.907 77.152 129.11 76.6199 128.234 76.2568C127.357 75.8937 126.418 75.7068 125.469 75.7068V75.6306ZM87.5344 46.465H80.1763C77.7163 41.0525 77.4602 34.8948 79.4622 29.2968C81.4643 23.6987 85.5673 19.1 90.9017 16.4751C96.2362 13.8502 102.383 13.4053 108.04 15.2347C113.697 17.0641 118.419 21.0241 121.207 26.2755C123.994 31.527 124.627 37.6573 122.972 43.3676C121.317 49.0779 117.504 53.9196 112.34 56.8667C107.177 59.8138 101.069 60.6348 95.3104 59.1557C89.552 57.6766 84.5957 54.0137 81.4916 48.9431H87.6297C87.9584 48.9431 88.2735 48.8125 88.5059 48.5802C88.7382 48.3478 88.8688 48.0326 88.8688 47.704C88.8688 47.3754 88.7382 47.0602 88.5059 46.8279C88.2735 46.5955 87.9584 46.465 87.6297 46.465H87.5344ZM40.2022 84.6853C39.2508 84.6873 38.3209 84.4023 37.5341 83.8673C36.7472 83.3324 36.1401 82.5725 35.7921 81.687C35.4441 80.8015 35.3714 79.8316 35.5834 78.9041C35.7955 77.9766 36.2824 77.1347 36.9807 76.4884C37.0303 76.4354 37.075 76.378 37.1141 76.3168L39.0204 74.1818C39.2002 75.9174 40.0055 77.5283 41.2857 78.7139C42.566 79.8994 44.2339 80.5787 45.9782 80.625L43.7288 83.0459C43.2908 83.5536 42.7499 83.9624 42.1419 84.245C41.5339 84.5277 40.8727 84.6777 40.2022 84.6853ZM55.0519 74.4868L58.2925 70.9793C58.8942 70.2202 59.5712 69.5241 60.3132 68.9015C60.9816 68.7065 61.6633 68.56 62.3529 68.4631H67.7285L64.8882 74.4868H55.0519ZM60.6563 128.72C59.723 129.59 58.6287 130.27 57.4347 130.721C56.1933 131.081 54.9135 131.293 53.6222 131.35L34.5597 131.503C33.3084 131.503 32.1084 131.006 31.2236 130.121C30.3388 129.236 29.8418 128.036 29.8418 126.785C29.8418 125.534 30.3388 124.333 31.2236 123.449C32.1084 122.564 33.3084 122.067 34.5597 122.067L49.2188 121.876C50.4839 122.047 51.7662 122.047 53.0313 121.876C54.0408 121.422 54.9836 120.832 55.8335 120.122L61.9716 114.003C63.5701 114.725 65.2904 115.139 67.0422 115.223C67.2034 115.299 67.3791 115.338 67.5569 115.338H74L60.6563 128.72ZM67.6522 100.888C67.3236 100.888 67.0084 101.019 66.7761 101.251C66.5437 101.484 66.4132 101.799 66.4132 102.127C66.4132 102.456 66.5437 102.771 66.7761 103.004C67.0084 103.236 67.3236 103.367 67.6522 103.367H89.25C90.5281 103.415 91.7843 103.713 92.9482 104.243C94.0502 104.842 95.08 105.564 96.0172 106.397L111.706 123.134C111.744 123.202 111.788 123.266 111.839 123.325C112.272 123.767 112.614 124.29 112.845 124.864C113.076 125.437 113.192 126.051 113.186 126.67C113.179 127.289 113.051 127.9 112.809 128.469C112.566 129.038 112.214 129.554 111.772 129.987C111.331 130.42 110.808 130.762 110.234 130.993C109.66 131.224 109.046 131.34 108.427 131.334C107.809 131.328 107.197 131.2 106.628 130.957C106.059 130.715 105.543 130.362 105.11 129.921L92.4525 116.272C91.6606 115.264 90.7375 114.366 89.7075 113.603C88.6727 113.209 87.5887 112.959 86.486 112.86H68.2813C68.1488 112.838 68.0135 112.838 67.881 112.86C64.8087 112.855 61.8636 111.632 59.6912 109.459C57.5187 107.287 56.296 104.342 56.291 101.27C56.2835 99.5556 56.6613 97.8618 57.3966 96.3134L66.375 76.965H69.6157C69.7784 76.965 69.9395 76.9329 70.0898 76.8706C70.2402 76.8084 70.3768 76.7171 70.4918 76.6021C70.6069 76.487 70.6981 76.3504 70.7604 76.2001C70.8227 76.0497 70.8547 75.8886 70.8547 75.7259C70.8547 75.5632 70.8227 75.4021 70.7604 75.2517C70.6981 75.1014 70.6069 74.9648 70.4918 74.8498C70.3768 74.7347 70.2402 74.6434 70.0898 74.5812C69.9395 74.5189 69.7784 74.4868 69.6157 74.4868H67.6141L70.4544 68.4631H81.0532C81.3818 68.4631 81.6969 68.3325 81.9293 68.1002C82.1617 67.8678 82.2922 67.5526 82.2922 67.224C82.2922 66.8954 82.1617 66.5802 81.9293 66.3479C81.6969 66.1155 81.3818 65.985 81.0532 65.985H62.1813C61.1373 66.0921 60.1119 66.3357 59.1313 66.7093C58.1157 67.4615 57.2053 68.3462 56.4244 69.34L49.2188 77.0793C48.3036 77.8914 47.1083 78.3153 45.886 78.2614C44.6637 78.2074 43.5104 77.6797 42.6703 76.7902C41.8303 75.9006 41.3696 74.719 41.3857 73.4956C41.4018 72.2722 41.8935 71.1031 42.7566 70.2359L52.7263 59.6562C53.6775 58.793 54.7268 58.0444 55.8525 57.4259C57.0174 56.9011 58.2738 56.6097 59.5507 56.5681H80.7672C81.8998 56.5685 83.0187 56.8157 84.046 57.2925L90.8704 60.4378C91.9741 60.956 92.9405 61.7266 93.6916 62.6872C93.746 62.8574 93.8371 63.0135 93.9585 63.1447L94.3207 63.5259C94.9824 64.6228 95.3664 65.8646 95.4395 67.1435C95.5126 68.4224 95.2725 69.6999 94.74 70.865L91.8235 77.1937L80.9007 100.888H67.6522ZM108.122 87.5447C106.093 87.8008 104.043 87.2611 102.403 86.0387L94.416 77.4606L96.9894 71.8753C97.6506 70.4364 97.9703 68.8641 97.9235 67.2812L104.004 73.8197C105.157 75.2539 106.583 76.446 108.198 77.3272C109.762 77.7994 111.388 78.0308 113.021 78.0134H117.691C117.81 78.1934 117.974 78.3383 118.168 78.4328C119.126 78.852 119.918 79.577 120.42 80.4944C120.922 81.4118 121.106 82.4698 120.942 83.5027C120.779 84.5356 120.278 85.4852 119.517 86.2028C118.756 86.9204 117.779 87.3655 116.738 87.4684L108.122 87.5447ZM125.678 87.5447H125.469H121.656C122.842 86.2664 123.52 84.5986 123.563 82.8553C123.532 81.087 122.854 79.3913 121.656 78.0896H125.469C126.733 78.0745 127.951 78.562 128.855 79.445C129.76 80.328 130.276 81.5342 130.292 82.7981C130.307 84.062 129.819 85.2802 128.936 86.1846C128.053 87.0891 126.847 87.6057 125.583 87.6209L125.678 87.5447Z" fill="white"/>
<path d="M34.2166 34.875H45.4063C45.7349 34.875 46.0501 34.7444 46.2824 34.5121C46.5148 34.2797 46.6454 33.9645 46.6454 33.6359C46.6454 33.3073 46.5148 32.9921 46.2824 32.7598C46.0501 32.5274 45.7349 32.3969 45.4063 32.3969H34.2166C33.888 32.3969 33.5728 32.5274 33.3405 32.7598C33.1081 32.9921 32.9775 33.3073 32.9775 33.6359C32.9775 33.9645 33.1081 34.2797 33.3405 34.5121C33.5728 34.7444 33.888 34.875 34.2166 34.875Z" fill="white"/>
<path d="M31.5288 61.715C31.5288 61.3864 31.3983 61.0712 31.1659 60.8389C30.9335 60.6065 30.6184 60.476 30.2897 60.476H16.4504C16.1217 60.476 15.8066 60.6065 15.5742 60.8389C15.3418 61.0712 15.2113 61.3864 15.2113 61.715C15.2113 62.0436 15.3418 62.3588 15.5742 62.5912C15.8066 62.8235 16.1217 62.9541 16.4504 62.9541H30.2897C30.4525 62.9541 30.6136 62.922 30.7639 62.8598C30.9142 62.7975 31.0508 62.7062 31.1659 62.5912C31.2809 62.4761 31.3722 62.3395 31.4345 62.1892C31.4968 62.0389 31.5288 61.8777 31.5288 61.715Z" fill="white"/>
</g>
<path d="M162.455 91V47.1685H177.477C182.434 47.1685 186.208 48.1619 188.796 50.1488C191.385 52.1357 192.68 55.0959 192.68 59.0295C192.68 61.0364 192.138 62.8427 191.054 64.4482C189.971 66.0538 188.385 67.2981 186.298 68.1811C188.666 68.8233 190.492 70.0375 191.777 71.8237C193.081 73.5898 193.734 75.7172 193.734 78.2058C193.734 82.32 192.409 85.4809 189.76 87.6886C187.131 89.8962 183.358 91 178.441 91H162.455ZM170.072 71.2216V84.919H178.531C180.919 84.919 182.786 84.3269 184.13 83.1428C185.475 81.9587 186.147 80.3131 186.147 78.2058C186.147 73.65 183.819 71.322 179.163 71.2216H170.072ZM170.072 65.6223H177.538C179.906 65.6223 181.752 65.0904 183.077 64.0268C184.421 62.943 185.094 61.4177 185.094 59.4509C185.094 57.2834 184.472 55.718 183.227 54.7547C182.003 53.7914 180.086 53.3097 177.477 53.3097H170.072V65.6223ZM208.424 91H201.109V58.4274H208.424V91ZM200.657 49.9682C200.657 48.8443 201.009 47.9111 201.711 47.1685C202.434 46.4259 203.457 46.0546 204.782 46.0546C206.106 46.0546 207.13 46.4259 207.852 47.1685C208.575 47.9111 208.936 48.8443 208.936 49.9682C208.936 51.072 208.575 51.9952 207.852 52.7377C207.13 53.4602 206.106 53.8215 204.782 53.8215C203.457 53.8215 202.434 53.4602 201.711 52.7377C201.009 51.9952 200.657 51.072 200.657 49.9682ZM215.047 74.4127C215.047 71.2216 215.679 68.3517 216.944 65.8029C218.208 63.234 219.984 61.2672 222.272 59.9025C224.56 58.5177 227.189 57.8253 230.159 57.8253C234.555 57.8253 238.117 59.2402 240.846 62.07C243.596 64.8998 245.081 68.6528 245.302 73.3289L245.332 75.0448C245.332 78.2559 244.71 81.1259 243.465 83.6546C242.241 86.1833 240.475 88.1401 238.167 89.5249C235.879 90.9097 233.23 91.6021 230.22 91.6021C225.624 91.6021 221.941 90.0768 219.171 87.0263C216.422 83.9556 215.047 79.8715 215.047 74.7739V74.4127ZM222.362 75.0448C222.362 78.3964 223.055 81.0255 224.44 82.9321C225.824 84.8186 227.751 85.7619 230.22 85.7619C232.688 85.7619 234.605 84.7986 235.97 82.8719C237.354 80.9452 238.047 78.1255 238.047 74.4127C238.047 71.1213 237.334 68.5123 235.909 66.5856C234.504 64.6589 232.588 63.6956 230.159 63.6956C227.771 63.6956 225.875 64.6489 224.47 66.5555C223.065 68.442 222.362 71.2718 222.362 75.0448ZM258.397 58.4274L258.608 61.8292C260.896 59.1599 264.027 57.8253 268 57.8253C272.355 57.8253 275.336 59.4911 276.941 62.8226C279.309 59.4911 282.641 57.8253 286.936 57.8253C290.528 57.8253 293.197 58.8188 294.943 60.8056C296.709 62.7925 297.613 65.7226 297.653 69.596V91H290.337V69.8067C290.337 67.7396 289.886 66.2244 288.983 65.261C288.08 64.2977 286.584 63.816 284.497 63.816C282.832 63.816 281.467 64.2676 280.403 65.1707C279.36 66.0538 278.627 67.2178 278.206 68.6628L278.236 91H270.92V69.5659C270.82 65.7327 268.863 63.816 265.05 63.816C262.12 63.816 260.043 65.0102 258.819 67.3984V91H251.503V58.4274H258.397ZM319.508 91.6021C314.872 91.6021 311.109 90.1471 308.219 87.237C305.349 84.3069 303.914 80.4134 303.914 75.5566V74.6535C303.914 71.4023 304.537 68.5022 305.781 65.9534C307.045 63.3845 308.811 61.3876 311.079 59.9627C313.347 58.5378 315.876 57.8253 318.665 57.8253C323.101 57.8253 326.523 59.2402 328.931 62.07C331.359 64.8998 332.573 68.9036 332.573 74.0815V77.0317H311.29C311.511 79.721 312.404 81.8484 313.969 83.4138C315.555 84.9792 317.541 85.7619 319.93 85.7619C323.281 85.7619 326.011 84.4072 328.118 81.6978L332.062 85.4609C330.757 87.4076 329.011 88.9228 326.824 90.0066C324.656 91.0702 322.218 91.6021 319.508 91.6021ZM318.635 63.6956C316.628 63.6956 315.003 64.398 313.758 65.8029C312.534 67.2078 311.751 69.1645 311.41 71.6732H325.348V71.1313C325.188 68.6829 324.536 66.8365 323.392 65.5922C322.248 64.3278 320.662 63.6956 318.635 63.6956ZM351.659 85.7619C353.486 85.7619 355.001 85.2301 356.205 84.1664C357.409 83.1027 358.052 81.7882 358.132 80.2227H365.026C364.945 82.2498 364.313 84.1463 363.129 85.9124C361.945 87.6584 360.339 89.0432 358.312 90.0668C356.285 91.0903 354.098 91.6021 351.75 91.6021C347.194 91.6021 343.582 90.127 340.912 87.1768C338.243 84.2266 336.908 80.1525 336.908 74.9545V74.2019C336.908 69.2448 338.233 65.2811 340.882 62.3108C343.531 59.3205 347.144 57.8253 351.72 57.8253C355.593 57.8253 358.744 58.9592 361.172 61.2271C363.621 63.4749 364.905 66.4351 365.026 70.1078H358.132C358.052 68.2413 357.409 66.706 356.205 65.5019C355.021 64.2977 353.506 63.6956 351.659 63.6956C349.291 63.6956 347.465 64.5586 346.181 66.2846C344.896 67.9905 344.244 70.5894 344.224 74.0815V75.2556C344.224 78.7878 344.856 81.4269 346.12 83.1729C347.405 84.8989 349.251 85.7619 351.659 85.7619ZM377.76 61.9797C380.148 59.2101 383.168 57.8253 386.821 57.8253C393.765 57.8253 397.287 61.789 397.388 69.7164V91H390.072V69.9874C390.072 67.7396 389.581 66.1541 388.597 65.2309C387.634 64.2877 386.209 63.816 384.322 63.816C381.392 63.816 379.205 65.1205 377.76 67.7296V91H370.444V44.7602H377.76V61.9797ZM440.286 91H432.669L413.132 59.9025V91H405.516V47.1685H413.132L432.73 78.3864V47.1685H440.286V91ZM462.924 91.6021C458.288 91.6021 454.525 90.1471 451.635 87.237C448.765 84.3069 447.33 80.4134 447.33 75.5566V74.6535C447.33 71.4023 447.952 68.5022 449.197 65.9534C450.461 63.3845 452.227 61.3876 454.495 59.9627C456.763 58.5378 459.291 57.8253 462.081 57.8253C466.516 57.8253 469.938 59.2402 472.347 62.07C474.775 64.8998 475.989 68.9036 475.989 74.0815V77.0317H454.706C454.926 79.721 455.819 81.8484 457.385 83.4138C458.97 84.9792 460.957 85.7619 463.346 85.7619C466.697 85.7619 469.427 84.4072 471.534 81.6978L475.477 85.4609C474.173 87.4076 472.427 88.9228 470.239 90.0066C468.072 91.0702 465.633 91.6021 462.924 91.6021ZM462.051 63.6956C460.044 63.6956 458.418 64.398 457.174 65.8029C455.95 67.2078 455.167 69.1645 454.826 71.6732H468.764V71.1313C468.604 68.6829 467.951 66.8365 466.807 65.5922C465.664 64.3278 464.078 63.6956 462.051 63.6956ZM490.861 50.51V58.4274H496.611V63.8461H490.861V82.029C490.861 83.2733 491.101 84.1764 491.583 84.7384C492.085 85.2802 492.968 85.5512 494.232 85.5512C495.075 85.5512 495.928 85.4508 496.791 85.2501V90.9097C495.125 91.3713 493.52 91.6021 491.974 91.6021C486.355 91.6021 483.545 88.5014 483.545 82.2999V63.8461H478.187V58.4274H483.545V50.51H490.861Z" fill="white"/>
<path d="M172.66 103.781V113.449C172.654 114.79 172.23 115.887 171.391 116.74C170.557 117.593 169.424 118.072 167.992 118.176L167.494 118.195C165.938 118.195 164.698 117.775 163.773 116.936C162.849 116.096 162.38 114.94 162.367 113.469V103.781H164.223V113.41C164.223 114.439 164.506 115.24 165.072 115.812C165.639 116.379 166.446 116.662 167.494 116.662C168.555 116.662 169.366 116.379 169.926 115.812C170.492 115.246 170.775 114.449 170.775 113.42V103.781H172.66ZM177.045 107.434L177.104 108.762C177.911 107.746 178.965 107.238 180.268 107.238C182.501 107.238 183.627 108.498 183.646 111.018V118H181.84V111.008C181.833 110.246 181.658 109.683 181.312 109.318C180.974 108.954 180.443 108.771 179.721 108.771C179.135 108.771 178.62 108.928 178.178 109.24C177.735 109.553 177.39 109.963 177.143 110.471V118H175.336V107.434H177.045ZM188.334 118H186.527V107.434H188.334V118ZM186.381 104.631C186.381 104.338 186.469 104.09 186.645 103.889C186.827 103.687 187.094 103.586 187.445 103.586C187.797 103.586 188.064 103.687 188.246 103.889C188.428 104.09 188.52 104.338 188.52 104.631C188.52 104.924 188.428 105.168 188.246 105.363C188.064 105.559 187.797 105.656 187.445 105.656C187.094 105.656 186.827 105.559 186.645 105.363C186.469 105.168 186.381 104.924 186.381 104.631ZM193.686 104.875V107.434H195.658V108.83H193.686V115.383C193.686 115.806 193.773 116.125 193.949 116.34C194.125 116.548 194.424 116.652 194.848 116.652C195.056 116.652 195.342 116.613 195.707 116.535V118C195.232 118.13 194.77 118.195 194.32 118.195C193.513 118.195 192.904 117.951 192.494 117.463C192.084 116.975 191.879 116.281 191.879 115.383V108.83H189.955V107.434H191.879V104.875H193.686ZM199.74 118H197.934V107.434H199.74V118ZM197.787 104.631C197.787 104.338 197.875 104.09 198.051 103.889C198.233 103.687 198.5 103.586 198.852 103.586C199.203 103.586 199.47 103.687 199.652 103.889C199.835 104.09 199.926 104.338 199.926 104.631C199.926 104.924 199.835 105.168 199.652 105.363C199.47 105.559 199.203 105.656 198.852 105.656C198.5 105.656 198.233 105.559 198.051 105.363C197.875 105.168 197.787 104.924 197.787 104.631ZM204.35 107.434L204.408 108.762C205.215 107.746 206.27 107.238 207.572 107.238C209.805 107.238 210.932 108.498 210.951 111.018V118H209.145V111.008C209.138 110.246 208.962 109.683 208.617 109.318C208.279 108.954 207.748 108.771 207.025 108.771C206.439 108.771 205.925 108.928 205.482 109.24C205.04 109.553 204.695 109.963 204.447 110.471V118H202.641V107.434H204.35ZM213.246 112.629C213.246 110.982 213.627 109.673 214.389 108.703C215.15 107.727 216.16 107.238 217.416 107.238C218.705 107.238 219.711 107.694 220.434 108.605L220.521 107.434H222.172V117.746C222.172 119.113 221.765 120.191 220.951 120.979C220.144 121.766 219.057 122.16 217.689 122.16C216.928 122.16 216.182 121.997 215.453 121.672C214.724 121.346 214.167 120.9 213.783 120.334L214.721 119.25C215.495 120.207 216.443 120.686 217.562 120.686C218.441 120.686 219.125 120.438 219.613 119.943C220.108 119.449 220.355 118.752 220.355 117.854V116.945C219.633 117.779 218.646 118.195 217.396 118.195C216.16 118.195 215.157 117.697 214.389 116.701C213.627 115.705 213.246 114.348 213.246 112.629ZM215.062 112.834C215.062 114.025 215.307 114.963 215.795 115.646C216.283 116.324 216.967 116.662 217.846 116.662C218.985 116.662 219.822 116.145 220.355 115.109V110.285C219.802 109.276 218.972 108.771 217.865 108.771C216.986 108.771 216.299 109.113 215.805 109.797C215.31 110.48 215.062 111.493 215.062 112.834ZM232.318 104.875V107.434H234.291V108.83H232.318V115.383C232.318 115.806 232.406 116.125 232.582 116.34C232.758 116.548 233.057 116.652 233.48 116.652C233.689 116.652 233.975 116.613 234.34 116.535V118C233.865 118.13 233.402 118.195 232.953 118.195C232.146 118.195 231.537 117.951 231.127 117.463C230.717 116.975 230.512 116.281 230.512 115.383V108.83H228.588V107.434H230.512V104.875H232.318ZM238.217 108.713C239.018 107.73 240.059 107.238 241.342 107.238C243.575 107.238 244.701 108.498 244.721 111.018V118H242.914V111.008C242.908 110.246 242.732 109.683 242.387 109.318C242.048 108.954 241.518 108.771 240.795 108.771C240.209 108.771 239.695 108.928 239.252 109.24C238.809 109.553 238.464 109.963 238.217 110.471V118H236.41V103H238.217V108.713ZM251.811 118.195C250.378 118.195 249.213 117.727 248.314 116.789C247.416 115.845 246.967 114.585 246.967 113.01V112.678C246.967 111.63 247.165 110.695 247.562 109.875C247.966 109.048 248.526 108.404 249.242 107.941C249.965 107.473 250.746 107.238 251.586 107.238C252.96 107.238 254.027 107.691 254.789 108.596C255.551 109.501 255.932 110.796 255.932 112.482V113.234H248.773C248.799 114.276 249.102 115.119 249.682 115.764C250.268 116.402 251.01 116.721 251.908 116.721C252.546 116.721 253.087 116.59 253.529 116.33C253.972 116.07 254.359 115.725 254.691 115.295L255.795 116.154C254.91 117.515 253.581 118.195 251.811 118.195ZM251.586 108.723C250.857 108.723 250.245 108.99 249.75 109.523C249.255 110.051 248.949 110.793 248.832 111.75H254.125V111.613C254.073 110.695 253.826 109.986 253.383 109.484C252.94 108.977 252.341 108.723 251.586 108.723ZM272.348 115.51L274.379 107.434H276.186L273.109 118H271.645L269.076 109.992L266.576 118H265.111L262.045 107.434H263.842L265.922 115.344L268.383 107.434H269.838L272.348 115.51ZM277.553 112.619C277.553 111.584 277.755 110.653 278.158 109.826C278.568 108.999 279.135 108.361 279.857 107.912C280.587 107.463 281.417 107.238 282.348 107.238C283.786 107.238 284.949 107.736 285.834 108.732C286.726 109.729 287.172 111.053 287.172 112.707V112.834C287.172 113.863 286.973 114.787 286.576 115.607C286.186 116.421 285.622 117.056 284.887 117.512C284.158 117.967 283.318 118.195 282.367 118.195C280.935 118.195 279.773 117.697 278.881 116.701C277.995 115.705 277.553 114.387 277.553 112.746V112.619ZM279.369 112.834C279.369 114.006 279.639 114.947 280.18 115.656C280.727 116.366 281.456 116.721 282.367 116.721C283.285 116.721 284.014 116.363 284.555 115.646C285.095 114.924 285.365 113.915 285.365 112.619C285.365 111.46 285.089 110.523 284.535 109.807C283.988 109.084 283.259 108.723 282.348 108.723C281.456 108.723 280.736 109.077 280.189 109.787C279.643 110.497 279.369 111.512 279.369 112.834ZM294.545 109.055C294.271 109.009 293.975 108.986 293.656 108.986C292.471 108.986 291.667 109.491 291.244 110.5V118H289.438V107.434H291.195L291.225 108.654C291.817 107.71 292.657 107.238 293.744 107.238C294.096 107.238 294.363 107.284 294.545 107.375V109.055ZM298.178 118H296.371V103H298.178V118ZM300.639 112.629C300.639 111.008 301.023 109.706 301.791 108.723C302.559 107.733 303.565 107.238 304.809 107.238C306.046 107.238 307.025 107.661 307.748 108.508V103H309.555V118H307.895L307.807 116.867C307.084 117.753 306.078 118.195 304.789 118.195C303.565 118.195 302.566 117.694 301.791 116.691C301.023 115.689 300.639 114.38 300.639 112.766V112.629ZM302.445 112.834C302.445 114.032 302.693 114.969 303.188 115.646C303.682 116.324 304.366 116.662 305.238 116.662C306.384 116.662 307.221 116.148 307.748 115.119V110.266C307.208 109.27 306.378 108.771 305.258 108.771C304.372 108.771 303.682 109.113 303.188 109.797C302.693 110.48 302.445 111.493 302.445 112.834ZM312.494 107.785L311.469 107.082C312.074 106.236 312.387 105.344 312.406 104.406V103H314.193V104.27C314.187 104.921 314.024 105.572 313.705 106.223C313.393 106.867 312.989 107.388 312.494 107.785ZM321.43 115.197C321.43 114.709 321.244 114.331 320.873 114.064C320.508 113.791 319.867 113.557 318.949 113.361C318.038 113.166 317.312 112.932 316.771 112.658C316.238 112.385 315.84 112.059 315.58 111.682C315.326 111.304 315.199 110.855 315.199 110.334C315.199 109.468 315.564 108.736 316.293 108.137C317.029 107.538 317.966 107.238 319.105 107.238C320.303 107.238 321.273 107.548 322.016 108.166C322.764 108.785 323.139 109.576 323.139 110.539H321.322C321.322 110.044 321.111 109.618 320.688 109.26C320.271 108.902 319.743 108.723 319.105 108.723C318.448 108.723 317.934 108.866 317.562 109.152C317.191 109.439 317.006 109.813 317.006 110.275C317.006 110.712 317.178 111.04 317.523 111.262C317.868 111.483 318.49 111.695 319.389 111.896C320.294 112.098 321.026 112.339 321.586 112.619C322.146 112.899 322.559 113.238 322.826 113.635C323.1 114.025 323.236 114.504 323.236 115.07C323.236 116.014 322.859 116.773 322.104 117.346C321.348 117.912 320.368 118.195 319.164 118.195C318.318 118.195 317.569 118.046 316.918 117.746C316.267 117.447 315.756 117.03 315.385 116.496C315.02 115.956 314.838 115.373 314.838 114.748H316.645C316.677 115.354 316.918 115.835 317.367 116.193C317.823 116.545 318.422 116.721 319.164 116.721C319.848 116.721 320.395 116.584 320.805 116.311C321.221 116.031 321.43 115.66 321.43 115.197ZM339.496 112.834C339.496 114.449 339.125 115.747 338.383 116.73C337.641 117.707 336.645 118.195 335.395 118.195C334.06 118.195 333.028 117.723 332.299 116.779L332.211 118H330.551V103H332.357V108.596C333.087 107.691 334.092 107.238 335.375 107.238C336.658 107.238 337.663 107.723 338.393 108.693C339.128 109.663 339.496 110.992 339.496 112.678V112.834ZM337.689 112.629C337.689 111.398 337.452 110.448 336.977 109.777C336.501 109.107 335.818 108.771 334.926 108.771C333.734 108.771 332.878 109.325 332.357 110.432V115.002C332.911 116.109 333.773 116.662 334.945 116.662C335.811 116.662 336.485 116.327 336.967 115.656C337.449 114.986 337.689 113.977 337.689 112.629ZM343.744 118H341.938V107.434H343.744V118ZM341.791 104.631C341.791 104.338 341.879 104.09 342.055 103.889C342.237 103.687 342.504 103.586 342.855 103.586C343.207 103.586 343.474 103.687 343.656 103.889C343.839 104.09 343.93 104.338 343.93 104.631C343.93 104.924 343.839 105.168 343.656 105.363C343.474 105.559 343.207 105.656 342.855 105.656C342.504 105.656 342.237 105.559 342.055 105.363C341.879 105.168 341.791 104.924 341.791 104.631ZM346.166 112.619C346.166 111.584 346.368 110.653 346.771 109.826C347.182 108.999 347.748 108.361 348.471 107.912C349.2 107.463 350.03 107.238 350.961 107.238C352.4 107.238 353.562 107.736 354.447 108.732C355.339 109.729 355.785 111.053 355.785 112.707V112.834C355.785 113.863 355.587 114.787 355.189 115.607C354.799 116.421 354.236 117.056 353.5 117.512C352.771 117.967 351.931 118.195 350.98 118.195C349.548 118.195 348.386 117.697 347.494 116.701C346.609 115.705 346.166 114.387 346.166 112.746V112.619ZM347.982 112.834C347.982 114.006 348.253 114.947 348.793 115.656C349.34 116.366 350.069 116.721 350.98 116.721C351.898 116.721 352.628 116.363 353.168 115.646C353.708 114.924 353.979 113.915 353.979 112.619C353.979 111.46 353.702 110.523 353.148 109.807C352.602 109.084 351.872 108.723 350.961 108.723C350.069 108.723 349.35 109.077 348.803 109.787C348.256 110.497 347.982 111.512 347.982 112.834ZM359.75 107.434L359.799 108.605C360.574 107.694 361.618 107.238 362.934 107.238C364.411 107.238 365.417 107.805 365.951 108.938C366.303 108.43 366.758 108.02 367.318 107.707C367.885 107.395 368.552 107.238 369.32 107.238C371.638 107.238 372.816 108.465 372.855 110.92V118H371.049V111.027C371.049 110.272 370.876 109.709 370.531 109.338C370.186 108.96 369.607 108.771 368.793 108.771C368.122 108.771 367.566 108.973 367.123 109.377C366.68 109.774 366.423 110.311 366.352 110.988V118H364.535V111.076C364.535 109.54 363.783 108.771 362.279 108.771C361.094 108.771 360.284 109.276 359.848 110.285V118H358.041V107.434H359.75ZM379.975 118.195C378.542 118.195 377.377 117.727 376.479 116.789C375.58 115.845 375.131 114.585 375.131 113.01V112.678C375.131 111.63 375.329 110.695 375.727 109.875C376.13 109.048 376.69 108.404 377.406 107.941C378.129 107.473 378.91 107.238 379.75 107.238C381.124 107.238 382.191 107.691 382.953 108.596C383.715 109.501 384.096 110.796 384.096 112.482V113.234H376.938C376.964 114.276 377.266 115.119 377.846 115.764C378.432 116.402 379.174 116.721 380.072 116.721C380.71 116.721 381.251 116.59 381.693 116.33C382.136 116.07 382.523 115.725 382.855 115.295L383.959 116.154C383.074 117.515 381.745 118.195 379.975 118.195ZM379.75 108.723C379.021 108.723 378.409 108.99 377.914 109.523C377.419 110.051 377.113 110.793 376.996 111.75H382.289V111.613C382.237 110.695 381.99 109.986 381.547 109.484C381.104 108.977 380.505 108.723 379.75 108.723ZM390.434 116.721C391.078 116.721 391.641 116.525 392.123 116.135C392.605 115.744 392.872 115.256 392.924 114.67H394.633C394.6 115.275 394.392 115.852 394.008 116.398C393.624 116.945 393.109 117.382 392.465 117.707C391.827 118.033 391.15 118.195 390.434 118.195C388.995 118.195 387.849 117.717 386.996 116.76C386.15 115.796 385.727 114.481 385.727 112.814V112.512C385.727 111.483 385.915 110.568 386.293 109.768C386.671 108.967 387.211 108.345 387.914 107.902C388.624 107.46 389.46 107.238 390.424 107.238C391.609 107.238 392.592 107.593 393.373 108.303C394.161 109.012 394.581 109.934 394.633 111.066H392.924C392.872 110.383 392.611 109.823 392.143 109.387C391.68 108.944 391.107 108.723 390.424 108.723C389.506 108.723 388.793 109.055 388.285 109.719C387.784 110.376 387.533 111.33 387.533 112.58V112.922C387.533 114.139 387.784 115.077 388.285 115.734C388.786 116.392 389.503 116.721 390.434 116.721ZM398.471 108.713C399.271 107.73 400.313 107.238 401.596 107.238C403.829 107.238 404.955 108.498 404.975 111.018V118H403.168V111.008C403.161 110.246 402.986 109.683 402.641 109.318C402.302 108.954 401.771 108.771 401.049 108.771C400.463 108.771 399.949 108.928 399.506 109.24C399.063 109.553 398.718 109.963 398.471 110.471V118H396.664V103H398.471V108.713ZM414.203 118C414.099 117.792 414.014 117.421 413.949 116.887C413.109 117.759 412.107 118.195 410.941 118.195C409.9 118.195 409.044 117.902 408.373 117.316C407.709 116.724 407.377 115.975 407.377 115.07C407.377 113.97 407.794 113.117 408.627 112.512C409.467 111.9 410.645 111.594 412.162 111.594H413.92V110.764C413.92 110.132 413.731 109.631 413.354 109.26C412.976 108.882 412.419 108.693 411.684 108.693C411.039 108.693 410.499 108.856 410.062 109.182C409.626 109.507 409.408 109.901 409.408 110.363H407.592C407.592 109.836 407.777 109.328 408.148 108.84C408.526 108.345 409.034 107.954 409.672 107.668C410.316 107.382 411.023 107.238 411.791 107.238C413.008 107.238 413.962 107.544 414.652 108.156C415.342 108.762 415.701 109.598 415.727 110.666V115.529C415.727 116.499 415.85 117.271 416.098 117.844V118H414.203ZM411.205 116.623C411.771 116.623 412.309 116.477 412.816 116.184C413.324 115.891 413.692 115.51 413.92 115.041V112.873H412.504C410.29 112.873 409.184 113.521 409.184 114.816C409.184 115.383 409.372 115.826 409.75 116.145C410.128 116.464 410.613 116.623 411.205 116.623ZM420.268 107.434L420.326 108.762C421.133 107.746 422.188 107.238 423.49 107.238C425.723 107.238 426.85 108.498 426.869 111.018V118H425.062V111.008C425.056 110.246 424.88 109.683 424.535 109.318C424.197 108.954 423.666 108.771 422.943 108.771C422.357 108.771 421.843 108.928 421.4 109.24C420.958 109.553 420.613 109.963 420.365 110.471V118H418.559V107.434H420.268ZM431.557 118H429.75V107.434H431.557V118ZM429.604 104.631C429.604 104.338 429.691 104.09 429.867 103.889C430.049 103.687 430.316 103.586 430.668 103.586C431.02 103.586 431.286 103.687 431.469 103.889C431.651 104.09 431.742 104.338 431.742 104.631C431.742 104.924 431.651 105.168 431.469 105.363C431.286 105.559 431.02 105.656 430.668 105.656C430.316 105.656 430.049 105.559 429.867 105.363C429.691 105.168 429.604 104.924 429.604 104.631ZM438.695 116.721C439.34 116.721 439.903 116.525 440.385 116.135C440.867 115.744 441.133 115.256 441.186 114.67H442.895C442.862 115.275 442.654 115.852 442.27 116.398C441.885 116.945 441.371 117.382 440.727 117.707C440.089 118.033 439.411 118.195 438.695 118.195C437.257 118.195 436.111 117.717 435.258 116.76C434.411 115.796 433.988 114.481 433.988 112.814V112.512C433.988 111.483 434.177 110.568 434.555 109.768C434.932 108.967 435.473 108.345 436.176 107.902C436.885 107.46 437.722 107.238 438.686 107.238C439.87 107.238 440.854 107.593 441.635 108.303C442.423 109.012 442.842 109.934 442.895 111.066H441.186C441.133 110.383 440.873 109.823 440.404 109.387C439.942 108.944 439.369 108.723 438.686 108.723C437.768 108.723 437.055 109.055 436.547 109.719C436.046 110.376 435.795 111.33 435.795 112.58V112.922C435.795 114.139 436.046 115.077 436.547 115.734C437.048 116.392 437.764 116.721 438.695 116.721ZM451.078 115.197C451.078 114.709 450.893 114.331 450.521 114.064C450.157 113.791 449.516 113.557 448.598 113.361C447.686 113.166 446.96 112.932 446.42 112.658C445.886 112.385 445.489 112.059 445.229 111.682C444.975 111.304 444.848 110.855 444.848 110.334C444.848 109.468 445.212 108.736 445.941 108.137C446.677 107.538 447.615 107.238 448.754 107.238C449.952 107.238 450.922 107.548 451.664 108.166C452.413 108.785 452.787 109.576 452.787 110.539H450.971C450.971 110.044 450.759 109.618 450.336 109.26C449.919 108.902 449.392 108.723 448.754 108.723C448.096 108.723 447.582 108.866 447.211 109.152C446.84 109.439 446.654 109.813 446.654 110.275C446.654 110.712 446.827 111.04 447.172 111.262C447.517 111.483 448.139 111.695 449.037 111.896C449.942 112.098 450.674 112.339 451.234 112.619C451.794 112.899 452.208 113.238 452.475 113.635C452.748 114.025 452.885 114.504 452.885 115.07C452.885 116.014 452.507 116.773 451.752 117.346C450.997 117.912 450.017 118.195 448.812 118.195C447.966 118.195 447.217 118.046 446.566 117.746C445.915 117.447 445.404 117.03 445.033 116.496C444.669 115.956 444.486 115.373 444.486 114.748H446.293C446.326 115.354 446.566 115.835 447.016 116.193C447.471 116.545 448.07 116.721 448.812 116.721C449.496 116.721 450.043 116.584 450.453 116.311C450.87 116.031 451.078 115.66 451.078 115.197ZM459.76 112.629C459.76 111.008 460.144 109.706 460.912 108.723C461.68 107.733 462.686 107.238 463.93 107.238C465.167 107.238 466.146 107.661 466.869 108.508V103H468.676V118H467.016L466.928 116.867C466.205 117.753 465.199 118.195 463.91 118.195C462.686 118.195 461.687 117.694 460.912 116.691C460.144 115.689 459.76 114.38 459.76 112.766V112.629ZM461.566 112.834C461.566 114.032 461.814 114.969 462.309 115.646C462.803 116.324 463.487 116.662 464.359 116.662C465.505 116.662 466.342 116.148 466.869 115.119V110.266C466.329 109.27 465.499 108.771 464.379 108.771C463.493 108.771 462.803 109.113 462.309 109.797C461.814 110.48 461.566 111.493 461.566 112.834ZM478.012 118C477.908 117.792 477.823 117.421 477.758 116.887C476.918 117.759 475.915 118.195 474.75 118.195C473.708 118.195 472.852 117.902 472.182 117.316C471.518 116.724 471.186 115.975 471.186 115.07C471.186 113.97 471.602 113.117 472.436 112.512C473.275 111.9 474.454 111.594 475.971 111.594H477.729V110.764C477.729 110.132 477.54 109.631 477.162 109.26C476.785 108.882 476.228 108.693 475.492 108.693C474.848 108.693 474.307 108.856 473.871 109.182C473.435 109.507 473.217 109.901 473.217 110.363H471.4C471.4 109.836 471.586 109.328 471.957 108.84C472.335 108.345 472.842 107.954 473.48 107.668C474.125 107.382 474.831 107.238 475.6 107.238C476.817 107.238 477.771 107.544 478.461 108.156C479.151 108.762 479.509 109.598 479.535 110.666V115.529C479.535 116.499 479.659 117.271 479.906 117.844V118H478.012ZM475.014 116.623C475.58 116.623 476.117 116.477 476.625 116.184C477.133 115.891 477.501 115.51 477.729 115.041V112.873H476.312C474.099 112.873 472.992 113.521 472.992 114.816C472.992 115.383 473.181 115.826 473.559 116.145C473.936 116.464 474.421 116.623 475.014 116.623ZM484.818 104.875V107.434H486.791V108.83H484.818V115.383C484.818 115.806 484.906 116.125 485.082 116.34C485.258 116.548 485.557 116.652 485.98 116.652C486.189 116.652 486.475 116.613 486.84 116.535V118C486.365 118.13 485.902 118.195 485.453 118.195C484.646 118.195 484.037 117.951 483.627 117.463C483.217 116.975 483.012 116.281 483.012 115.383V108.83H481.088V107.434H483.012V104.875H484.818ZM495.434 118C495.329 117.792 495.245 117.421 495.18 116.887C494.34 117.759 493.337 118.195 492.172 118.195C491.13 118.195 490.274 117.902 489.604 117.316C488.939 116.724 488.607 115.975 488.607 115.07C488.607 113.97 489.024 113.117 489.857 112.512C490.697 111.9 491.876 111.594 493.393 111.594H495.15V110.764C495.15 110.132 494.962 109.631 494.584 109.26C494.206 108.882 493.65 108.693 492.914 108.693C492.27 108.693 491.729 108.856 491.293 109.182C490.857 109.507 490.639 109.901 490.639 110.363H488.822C488.822 109.836 489.008 109.328 489.379 108.84C489.757 108.345 490.264 107.954 490.902 107.668C491.547 107.382 492.253 107.238 493.021 107.238C494.239 107.238 495.193 107.544 495.883 108.156C496.573 108.762 496.931 109.598 496.957 110.666V115.529C496.957 116.499 497.081 117.271 497.328 117.844V118H495.434ZM492.436 116.623C493.002 116.623 493.539 116.477 494.047 116.184C494.555 115.891 494.923 115.51 495.15 115.041V112.873H493.734C491.521 112.873 490.414 113.521 490.414 114.816C490.414 115.383 490.603 115.826 490.98 116.145C491.358 116.464 491.843 116.623 492.436 116.623Z" fill="white"/>
<defs>
<clipPath id="clip0_102_48">
<rect width="122" height="122" fill="white" transform="translate(13 12)"/>
</clipPath>
</defs>
</svg>
