<?xml version="1.0" encoding="UTF-8" standalone="no"?>
<svg
   width="562"
   height="173"
   viewBox="0 0 562 173"
   fill="none"
   version="1.1"
   id="svg3712"
   xmlns="http://www.w3.org/2000/svg">
  <g
     clip-path="url(#clip0_123_2)"
     id="g3705">
    <path
       d="M42.1598 135.165L-2.3579 114L36.9324 86.15L42.1598 135.165Z"
       fill="#0D6EFD"
       id="path3663"
       style="fill:#7798ce;fill-opacity:1" />
    <path
       d="M82.8603 21.3314C37.5422 16.9102 13.6494 63.8672 26.489 100.546L9.72337 108.494C-5.65012 53.1051 36.0684 11.3836 82.8603 21.3314Z"
       fill="#0D6EFD"
       id="path3665"
       style="fill:#7798ce;fill-opacity:1" />
    <path
       d="M111.827 32.5674L150.306 51.1631L116.088 75.0914L111.827 32.5674Z"
       fill="#0D6EFD"
       id="path3667"
       style="fill:#7798ce;fill-opacity:1" />
    <path
       d="M66.6489 140.706C104.23 147.338 137.731 98.987 124.891 62.3082L135.934 57.2211C151.308 112.61 103.861 154.338 66.6489 140.706Z"
       fill="#0D6EFD"
       id="path3669"
       style="fill:#7798ce;fill-opacity:1" />
    <path
       d="m 123.36887,27.199778 c 0.79424,-0.485682 -0.45572,-1.95568 -1.1458,-2.76515 0,0 1.00909,0.783567 1.05466,0.304361 0.052,-0.459779 -0.16277,-1.379337 -1.57548,-2.104622 -0.78123,-0.395022 -1.30204,-0.407973 -1.8489,-0.945461 -0.54686,-0.531012 -1.29553,-1.133258 -1.43226,-1.651319 -0.13671,-0.485682 -0.34503,-0.576343 0.1823,-0.913082 0.34504,-0.220176 0.43618,-0.874228 0.31899,-1.204491 -0.24738,-0.699383 -0.68357,-0.725285 -0.86585,-0.200749 -0.0911,0.278457 -0.41015,0.194272 -0.73566,0.116564 -0.319,-0.05828 -0.75518,0.01943 -0.957,0.407973 -0.41015,0.770615 -0.79424,0.913081 -0.97654,1.534754 -0.11718,0.505109 -1.60151,1.178589 -2.552,1.605989 -0.94398,0.420925 -5.06496,1.651319 -7.48025,1.865019 -2.39576,0.220176 -5.403486,0.433876 -7.760185,2.143476 0,0 -1.412719,-0.05828 -2.812416,0 -1.39319,0.04533 -7.27192,1.651319 -8.469802,2.033389 -1.2109,0.375595 -1.686147,0.55044 -2.96215,0.278458 -1.295534,-0.246079 -2.604089,-0.608721 -3.834521,-0.04533 -1.979107,0.880704 -3.150947,1.975107 -3.150947,1.975107 0,0 -1.634066,0.08418 -2.219986,0.08418 h -1.549432 c 0,0 -0.358062,-2.868761 -0.358062,-4.118584 0,-1.262773 -0.221348,-2.001009 -0.221348,-2.001009 0,0 0.455715,0.369118 0.8919,-0.155418 0.436185,-0.524537 0.319001,-1.709601 0.27343,-2.389556 -0.04557,-0.569867 -0.462226,-1.865019 -0.976534,-1.709601 -0.117184,0.04533 -0.182286,0.05828 -0.221347,0.07124 0,-0.04533 -0.27343,-3.004753 -0.657533,-3.943738 -0.345042,-0.835375 -0.8919,-1.826167 -1.822862,-2.713346 -0.533838,-0.505109 -1.360637,-0.94546 -2.233006,-1.230394 -0.182286,-0.679956 -0.735655,-2.0333893 -2.278577,-2.1629043 -1.868435,-0.1554176 -3.450418,0.9001313 -3.658745,2.1629043 -0.09114,0.660527 0.117183,1.113831 0.345041,1.379336 -0.110673,0.129517 -0.234368,0.24608 -0.345041,0.375595 -1.048147,1.14621 -1.386678,2.188807 -1.43876,3.658804 -0.01953,0.407973 0.325512,2.739247 0.631492,3.788321 0.208327,0.744712 0.208327,0.913081 0.208327,0.913081 0,0 -0.735655,-0.174845 -0.781227,0.453304 -0.04557,0.621673 0.182286,1.66427 0.325511,2.253564 0.156246,0.569867 0.455716,1.353434 1.002574,1.40524 0.546859,0.05828 0.735655,-0.323788 0.735655,-0.323788 0,0 0.735655,1.729029 0.983044,2.085195 0.247389,0.369118 1.184861,1.463522 1.43225,2.344226 0.247387,0.880703 0.247387,2.493168 0.156245,3.017704 -0.09114,0.524537 -2.122333,1.308103 -2.936111,2.253564 -0.572899,0.654052 -1.549433,1.249822 -1.549433,1.249822 0,0 -2.07025,0.05828 -3.111885,1.049073 -1.028616,0.984316 -2.851478,2.810479 -3.587132,4.319332 -0.735656,1.508853 -1.067678,2.454314 -1.067678,2.454314 0,0 -2.395761,1.359909 -4.075398,3.004753 -1.686148,1.66427 -4.036338,4.753207 -5.038912,5.957699 -0.520818,0.621673 -1.933536,1.638367 -3.209539,2.914092 -1.575474,1.599512 -2.714763,2.544974 -4.863137,5.251842 -2.148372,2.713343 -6.067527,7.078006 -7.161244,8.036418 -1.113247,0.958412 -1.894474,0.770615 -2.415292,1.638368 -0.566389,0.971363 -1.054656,1.554182 -1.18486,2.933519 -0.07161,0.8548 -0.221348,1.223919 -0.384103,1.580085 -0.221348,0.453304 -0.709614,0.705858 -0.735655,1.003743 -0.02604,0.323788 0.384103,0.369118 0.59243,0.407973 0.319001,0.05828 1.210901,-0.278458 1.347616,-1.029646 0.156245,-0.945461 0.976532,-0.835373 0.976532,-0.576343 0,0.259031 -0.703103,2.188807 -1.028614,3.030657 -0.397124,1.055548 -0.59243,2.415458 -0.5729,3.043607 0.01953,0.485681 0.253898,1.003742 0.5729,0.621673 0.345042,-0.375595 0.533838,-1.379337 0.533838,-1.379337 0,0 -0.09114,0.945461 -0.05208,1.683698 0.07161,0.926033 0.670553,1.424666 1.009085,-0.103609 0,0 0,0.770615 0.507797,0.751188 0.494776,-0.0259 0.631492,-1.074976 0.631492,-1.074976 -0.05208,0.705857 0.273429,0.945461 0.703104,0.420924 0.292959,-0.349691 1.054655,-1.858543 1.145799,-3.19255 0.09114,-1.334007 0.507797,-4.992811 0.507797,-5.782854 0,-0.796518 0.117184,-0.634625 0.546858,-0.796518 0.481757,-0.155419 0.755186,-1.05555 1.393188,-1.580086 0.644512,-0.531012 6.021955,-4.817965 8.573962,-7.097433 2.740804,-2.454314 3.626195,-3.205502 4.557157,-4.604265 0.325511,-0.524537 1.080696,-0.900131 1.731719,-1.515329 0.657532,-0.654051 4.387889,-3.568143 5.540198,-4.52008 1.145799,-0.958413 2.812417,-1.683698 4.446482,-3.309113 1.634065,-1.60599 2.597578,-2.363653 2.597578,-2.363653 0,0 2.32415,1.405239 3.176989,2.208234 0.865859,0.80947 1.686147,3.030655 2.252537,4.29343 0.546858,1.275724 0.117183,3.522812 0.02604,4.694925 -0.110674,1.178588 -0.247389,1.288676 -0.507799,1.858544 -0.930961,2.085195 -1.256472,5.899417 -1.2109,6.534042 0.05208,0.621673 -5.813629,7.097433 -7.669042,10.238176 -1.868433,3.160172 -6.002424,11.947778 -6.653447,14.745307 -0.631492,2.693916 -0.983043,4.099157 -0.27343,5.290696 0.703105,1.204492 2.89705,2.292424 4.316278,1.625417 1.432249,-0.660529 2.877519,-1.839117 4.153522,-2.93352 0.930961,-0.796519 6.666467,-8.107653 7.786225,-8.696946 1.119758,-0.595771 4.316277,-2.93352 5.253749,-4.435897 1.054656,-1.7096 2.193945,-3.438628 2.525966,-4.377613 0.136715,-0.369119 1.412719,-0.479207 1.249962,0.220175 -0.182286,0.699383 -0.781225,9.966196 -0.397122,12.5565 0.371083,2.590304 0.136714,8.217741 0.08463,10.393588 -0.05208,2.18881 -0.05208,5.67277 -0.09114,6.77365 -0.01953,0.25903 0.08463,-0.23312 -0.566389,1.2304 -0.644513,1.45056 -1.497352,4.55246 -0.983044,6.98734 0.494777,2.45432 -0.358062,7.65435 -0.384103,8.43793 l -0.02604,0.78356 c 0,0 -1.601515,-0.45978 -2.167904,0.45977 -0.546859,0.91309 -1.113248,2.45432 -0.904921,4.72731 0.221348,2.27947 -0.729144,6.07426 -1.210901,6.75422 -0.462226,0.67996 -2.441333,2.17586 -2.05723,6.10664 0.371082,3.91784 1.933536,3.83366 3.372295,2.86876 1.438759,-0.97136 4.726421,-5.56915 5.553219,-10.65262 0.162755,-0.98432 1.868433,-4.53951 1.621046,-5.87352 -0.247389,-1.35343 0.846328,-5.29069 1.601514,-7.75796 0.755185,-2.48022 3.769419,-7.99109 2.93611,-13.8905 -0.188796,-1.42468 0.703104,-3.85956 1.328086,-5.69868 1.119758,-3.244356 4.361848,-14.861865 5.722485,-23.403393 0.358062,-2.260041 0.494776,-2.318323 0.943982,-8.036419 0.29947,-3.74299 -1.080697,-10.277032 -1.523392,-11.092977 -0.768206,-1.437619 -0.86586,-4.435896 -1.595005,-6.702412 -0.410144,-1.262773 -0.325511,-3.898408 -0.429674,-5.303648 -0.09114,-1.40524 -0.29296,-4.953957 -0.839819,-7.777388 -0.546858,-2.81048 -0.546858,-3.490435 -0.436185,-4.222196 0.09114,-0.725285 1.601515,-0.744712 2.871008,-0.945461 1.249963,-0.220176 4.075399,-0.459779 7.57139,-2.939995 0.455716,-0.330263 3.059805,-1.133258 3.906133,-1.398765 0.846329,-0.278457 1.979108,-0.459778 2.486904,-0.407972 0.49478,0.05828 0.93096,-0.505109 1.23043,-0.660528 0.29296,-0.155417 10.68328,-3.639377 12.4085,-4.669023 1.19137,-0.705858 1.8489,-0.330264 2.14185,-0.725285 0.27343,-0.369118 0.53383,-0.129515 1.48433,0.02591 0.957,0.155419 2.30462,0.59577 2.71476,0.971365 0.39712,0.375593 1.5234,3.043607 1.62104,3.917835 0.11064,0.880703 0.52082,1.424666 0.76821,0.725285 0.29947,-0.874228 -0.0911,-2.104623 -0.0911,-2.104623 0,0 0.11719,0.220176 0.37108,0.420925 0.25391,0.220175 0.72914,-0.705857 0.41015,-1.476474"
       id="svg_29"
       style="fill:url(#linearGradient7063);fill-opacity:1;stroke-width:0.649297" />
    <g
       id="g3536"
       transform="matrix(1.531729,0,0,1.75336,154.96256,-305.0196)">
      <path
         d="m 15.406582,214.85289 -3.137333,8.128 h 6.017333 z m -3.456,9.088 -2.1119999,5.792 c -0.065333,0.17067 -0.124,0.32 -0.1773333,0.448 -0.053333,0.128 -0.078667,0.26667 -0.078667,0.416 0,0.384 0.112,0.71467 0.336,0.992 0.2240002,0.27733 0.4960002,0.50667 0.8160002,0.688 0.318667,0.18133 0.649333,0.32533 0.992,0.432 0.34,0.10667 0.629333,0.18133 0.864,0.224 v 0.384 c -0.64,-0.0427 -1.28,-0.0747 -1.92,-0.096 -0.64,-0.0213 -1.2920001,-0.032 -1.9533335,-0.032 -0.6386666,0 -1.2626666,0.0107 -1.8706666,0.032 -0.608,0.0213 -1.2533333,0.0533 -1.9359999,0.096 v -0.384 c 0.6599999,-0.14933 1.2106666,-0.37867 1.6479999,-0.688 0.436,-0.30933 0.8053333,-0.67733 1.1026667,-1.104 0.3,-0.42667 0.5599999,-0.896 0.7839999,-1.408 0.2253334,-0.512 0.4426667,-1.04533 0.656,-1.6 l 5.5373335,-13.6 c 0.064,-0.14933 0.122667,-0.288 0.176,-0.416 0.05333,-0.128 0.08,-0.24533 0.08,-0.352 0,-0.10667 -0.03733,-0.26667 -0.112,-0.48 -0.07467,-0.21333 -0.166667,-0.40533 -0.272,-0.576 0.554667,-0.10667 1.034667,-0.24533 1.44,-0.416 0.405333,-0.17067 0.853333,-0.352 1.344,-0.544 l 6.656,18.304 c 0.298666,0.832 0.713333,1.488 1.248,1.968 0.532,0.48 1.322666,0.784 2.368,0.912 v 0.384 c -0.854667,-0.0427 -1.690667,-0.0747 -2.513334,-0.096 -0.82,-0.0213 -1.678666,-0.032 -2.574666,-0.032 h -1.504 c -0.428,0 -0.812,0.005 -1.152,0.016 -0.341333,0.0107 -0.666667,0.0267 -0.976,0.048 -0.309333,0.0213 -0.645333,0.0427 -1.008,0.064 v -0.384 c 0.896,-0.10667 1.648,-0.336 2.256,-0.688 0.608,-0.352 0.912,-0.82667 0.912,-1.424 0,-0.17067 -0.03733,-0.34133 -0.112,-0.512 -0.07467,-0.17067 -0.133333,-0.33067 -0.177333,-0.48 l -2.078667,-5.888 z"
         fill="#ffffff"
         id="path364"
         style="fill:#7798ce;fill-opacity:1;stroke-width:1.33333" />
      <path
         d="m 38.829648,224.35676 c -0.064,-0.27733 -0.218667,-0.57067 -0.464,-0.88 -0.245333,-0.30933 -0.549333,-0.58667 -0.912,-0.832 -0.364,-0.24533 -0.773333,-0.448 -1.232,-0.608 -0.46,-0.16 -0.922667,-0.24 -1.392,-0.24 -0.725333,0 -1.338667,0.16 -1.84,0.48 -0.501333,0.32 -0.912,0.74133 -1.232,1.264 -0.32,0.52267 -0.556,1.10933 -0.704,1.76 -0.149333,0.65067 -0.224,1.296 -0.224,1.936 0,0.64 0.07467,1.28533 0.224,1.936 0.148,0.65067 0.384,1.23733 0.704,1.76 0.32,0.52267 0.730667,0.944 1.232,1.264 0.501333,0.32 1.114667,0.48 1.84,0.48 0.490667,0 0.96,-0.0747 1.408,-0.224 0.448,-0.14933 0.852,-0.336 1.216,-0.56 0.362667,-0.224 0.666667,-0.464 0.912,-0.72 0.245333,-0.256 0.4,-0.48 0.464,-0.672 z m 2.496,5.6 c 0,0.55467 0.032,1.01333 0.096,1.376 0.064,0.36267 0.192,0.656 0.382667,0.88 0.193333,0.224 0.465333,0.37867 0.817333,0.464 0.350667,0.0853 0.816,0.128 1.392,0.128 v 0.384 c -0.853333,0 -1.702667,0.0107 -2.545333,0.032 -0.841334,0.0213 -1.710667,0.0533 -2.608,0.096 v -1.184 c -0.490667,0.42667 -1.177334,0.79467 -2.062667,1.104 -0.885333,0.30933 -1.84,0.464 -2.864,0.464 -0.874667,0 -1.669333,-0.16533 -2.384,-0.496 -0.714666,-0.33067 -1.322666,-0.77867 -1.824,-1.344 -0.501333,-0.56533 -0.890666,-1.22133 -1.168,-1.968 -0.277333,-0.74667 -0.416,-1.52533 -0.416,-2.336 0,-0.96 0.169334,-1.84533 0.512,-2.656 0.341334,-0.81067 0.814667,-1.51467 1.424,-2.112 0.608,-0.59733 1.322667,-1.06133 2.144,-1.392 0.82,-0.33067 1.712,-0.496 2.672,-0.496 0.704,0 1.386667,0.128 2.048,0.384 0.661333,0.256 1.290667,0.56533 1.888,0.928 v -8.288 c 0,-0.512 -0.03733,-0.928 -0.112,-1.248 -0.076,-0.32 -0.218667,-0.576 -0.432,-0.768 -0.213333,-0.192 -0.496,-0.33067 -0.848,-0.416 -0.352,-0.0853 -0.796,-0.14933 -1.328,-0.192 v -0.384 l 5.216,-0.512 z"
         fill="#ffffff"
         id="path366"
         style="fill:#7798ce;fill-opacity:1;stroke-width:1.33333" />
      <path
         d="m 56.013247,224.35676 c -0.064,-0.27733 -0.218667,-0.57067 -0.464,-0.88 -0.245333,-0.30933 -0.549333,-0.58667 -0.912,-0.832 -0.364,-0.24533 -0.773333,-0.448 -1.232,-0.608 -0.46,-0.16 -0.922667,-0.24 -1.392,-0.24 -0.725333,0 -1.338667,0.16 -1.84,0.48 -0.501333,0.32 -0.912,0.74133 -1.232,1.264 -0.32,0.52267 -0.556,1.10933 -0.704,1.76 -0.149333,0.65067 -0.224,1.296 -0.224,1.936 0,0.64 0.07467,1.28533 0.224,1.936 0.148,0.65067 0.384,1.23733 0.704,1.76 0.32,0.52267 0.730667,0.944 1.232,1.264 0.501333,0.32 1.114667,0.48 1.84,0.48 0.490667,0 0.96,-0.0747 1.408,-0.224 0.448,-0.14933 0.852,-0.336 1.216,-0.56 0.362667,-0.224 0.666667,-0.464 0.912,-0.72 0.245333,-0.256 0.4,-0.48 0.464,-0.672 z m 2.496,5.6 c 0,0.55467 0.032,1.01333 0.096,1.376 0.064,0.36267 0.192,0.656 0.382667,0.88 0.193333,0.224 0.465333,0.37867 0.817333,0.464 0.350667,0.0853 0.816,0.128 1.392,0.128 v 0.384 c -0.853333,0 -1.702667,0.0107 -2.545333,0.032 -0.841334,0.0213 -1.710667,0.0533 -2.608,0.096 v -1.184 c -0.490667,0.42667 -1.177334,0.79467 -2.062667,1.104 -0.885333,0.30933 -1.84,0.464 -2.864,0.464 -0.874667,0 -1.669333,-0.16533 -2.384,-0.496 -0.714666,-0.33067 -1.322666,-0.77867 -1.824,-1.344 -0.501333,-0.56533 -0.890666,-1.22133 -1.168,-1.968 -0.277333,-0.74667 -0.416,-1.52533 -0.416,-2.336 0,-0.96 0.169334,-1.84533 0.512,-2.656 0.341334,-0.81067 0.814667,-1.51467 1.424,-2.112 0.608,-0.59733 1.322667,-1.06133 2.144,-1.392 0.82,-0.33067 1.712,-0.496 2.672,-0.496 0.704,0 1.386667,0.128 2.048,0.384 0.661333,0.256 1.290667,0.56533 1.888,0.928 v -8.288 c 0,-0.512 -0.03733,-0.928 -0.112,-1.248 -0.076,-0.32 -0.218667,-0.576 -0.432,-0.768 -0.213333,-0.192 -0.496,-0.33067 -0.848,-0.416 -0.352,-0.0853 -0.796,-0.14933 -1.328,-0.192 v -0.384 l 5.216,-0.512 z"
         fill="#ffffff"
         id="path368"
         style="fill:#7798ce;fill-opacity:1;stroke-width:1.33333" />
      <path
         d="m 69.196847,231.46088 c 0.084,0.17067 0.282667,0.32 0.592,0.448 0.309333,0.128 0.672,0.24 1.088,0.336 0.416,0.096 0.857333,0.17067 1.328,0.224 0.468,0.0533 0.916,0.08 1.344,0.08 1.728,0 3.076,-0.45333 4.048,-1.36 0.969333,-0.90667 1.456,-2.224 1.456,-3.952 0,-0.93867 -0.288,-1.79733 -0.864,-2.576 -0.576,-0.77867 -1.238667,-1.424 -1.984,-1.936 -0.512,0.0853 -1.024,0.16533 -1.536,0.24 -0.512,0.0747 -1.034667,0.112 -1.568,0.112 -0.661333,0 -1.322667,-0.0373 -1.985333,-0.112 -0.661334,-0.0747 -1.3,-0.22933 -1.918667,-0.464 z m 0,-9.984 c 0.576,0.29867 1.162667,0.50133 1.76,0.608 0.597333,0.10667 1.205333,0.16 1.824,0.16 1.365333,0 2.5,-0.37867 3.408,-1.136 0.906666,-0.75733 1.36,-1.85067 1.36,-3.28 0,-0.72533 -0.150667,-1.376 -0.448,-1.952 -0.298667,-0.576 -0.693334,-1.072 -1.184,-1.488 -0.490667,-0.416 -1.061333,-0.736 -1.712,-0.96 -0.650667,-0.224 -1.328,-0.336 -2.033333,-0.336 -0.510667,0 -1.012,0.0213 -1.502667,0.064 -0.492,0.0427 -0.981333,0.14933 -1.472,0.32 z m -2.88,-4.032 c 0,-0.896 -0.028,-1.63733 -0.08,-2.224 -0.05333,-0.58667 -0.192,-1.06133 -0.416,-1.424 -0.224,-0.36267 -0.549333,-0.62933 -0.976,-0.8 -0.426667,-0.17067 -1.024,-0.288 -1.792,-0.352 v -0.384 c 0.661333,0.0427 1.312,0.0747 1.950667,0.096 0.641333,0.0213 1.292,0.032 1.953333,0.032 0.853333,0 1.706667,-0.0427 2.56,-0.128 0.853333,-0.0853 1.769333,-0.128 2.752,-0.128 0.896,0 1.84,0.096 2.832,0.288 0.992,0.192 1.902666,0.51733 2.734666,0.976 0.833334,0.45867 1.526667,1.072 2.081334,1.84 0.554666,0.768 0.832,1.728 0.832,2.88 0,0.96 -0.304,1.82933 -0.913334,2.608 -0.608,0.77867 -1.358666,1.31733 -2.254666,1.616 v 0.064 c 1.472,0.46933 2.618666,1.18933 3.44,2.16 0.82,0.97067 1.232,2.256 1.232,3.856 0,0.98133 -0.213334,1.79733 -0.64,2.448 -0.428,0.65067 -0.992,1.17333 -1.696,1.568 -0.704,0.39467 -1.504,0.672 -2.4,0.832 -0.896,0.16 -1.813333,0.24 -2.752,0.24 -1.472,0 -2.918667,-0.0533 -4.336,-0.16 -1.42,-0.108 -2.864,-0.16 -4.336,-0.16 -0.490667,0 -0.986667,0.0107 -1.488,0.032 -0.501333,0.02 -0.997333,0.0533 -1.489333,0.096 v -0.384 c 0.748,-0.064 1.333333,-0.18133 1.761333,-0.352 0.426667,-0.17067 0.745333,-0.43733 0.958667,-0.8 0.214666,-0.36267 0.348,-0.83733 0.401333,-1.424 0.052,-0.58667 0.08,-1.328 0.08,-2.224 z"
         id="path370"
         style="fill:#00000f;fill-opacity:1;stroke-width:1.33333" />
      <path
         d="m 87.308846,211.68488 c 0.470667,0 0.869333,0.176 1.2,0.528 0.330667,0.352 0.496,0.76267 0.496,1.232 0,0.46933 -0.165333,0.88 -0.496,1.232 -0.330667,0.352 -0.729333,0.528 -1.2,0.528 -0.469333,0 -0.868,-0.176 -1.198667,-0.528 -0.330666,-0.352 -0.496,-0.76267 -0.496,-1.232 0,-0.46933 0.165334,-0.88 0.496,-1.232 0.330667,-0.352 0.729334,-0.528 1.198667,-0.528 m -0.926667,13.536 c 0,-0.512 -0.01733,-0.96533 -0.048,-1.36 -0.03333,-0.39467 -0.129333,-0.72533 -0.288,-0.992 -0.16,-0.26667 -0.401333,-0.48533 -0.72,-0.656 -0.321333,-0.17067 -0.758666,-0.288 -1.313333,-0.352 v -0.448 l 4.865333,-0.32 v 9.408 c 0,0.53333 0.04133,0.95467 0.126667,1.264 0.08533,0.30933 0.229333,0.544 0.433333,0.704 0.201334,0.16 0.462667,0.272 0.784,0.336 0.32,0.064 0.714667,0.10667 1.182667,0.128 v 0.384 c -0.746667,-0.0427 -1.498667,-0.076 -2.256,-0.096 -0.757333,-0.0213 -1.509333,-0.032 -2.256,-0.032 -0.490667,0 -0.970667,0.0107 -1.44,0.032 -0.469333,0.02 -0.949333,0.0533 -1.44,0.096 v -0.384 c 0.428,-0.0213 0.789333,-0.064 1.089333,-0.128 0.297334,-0.064 0.542667,-0.176 0.734667,-0.336 0.192,-0.16 0.332,-0.39467 0.416,-0.704 0.08533,-0.30933 0.129333,-0.73067 0.129333,-1.264 z"
         id="path372"
         style="fill:#00000f;fill-opacity:1;stroke-width:1.33333" />
      <path
         d="m 99.148713,221.86062 c -0.597333,0 -1.114667,0.14933 -1.552,0.448 -0.437333,0.3 -0.8,0.688 -1.086667,1.168 -0.288,0.48 -0.501333,1.024 -0.641333,1.632 -0.137333,0.608 -0.206667,1.21067 -0.206667,1.808 0,0.68267 0.08933,1.36533 0.270667,2.048 0.181333,0.68267 0.465333,1.30667 0.849333,1.872 0.384,0.56533 0.862667,1.024 1.44,1.376 0.574667,0.352 1.268,0.528 2.078664,0.528 0.59734,0 1.11467,-0.14933 1.552,-0.448 0.43734,-0.29867 0.8,-0.688 1.08934,-1.168 0.288,-0.48 0.5,-1.01867 0.63866,-1.616 0.13867,-0.596 0.208,-1.204 0.208,-1.824 0,-0.66 -0.096,-1.33867 -0.28666,-2.032 -0.19334,-0.69333 -0.48134,-1.32267 -0.86534,-1.888 -0.384,-0.56533 -0.86266,-1.024 -1.44,-1.376 -0.576,-0.352 -1.258664,-0.528 -2.047997,-0.528 m 0.577333,-0.96 c 1.022664,0 1.956004,0.15467 2.798664,0.464 0.84267,0.30933 1.568,0.74133 2.176,1.296 0.608,0.55467 1.07734,1.228 1.40934,2.016 0.32933,0.78933 0.496,1.664 0.496,2.624 0,0.96 -0.16667,1.836 -0.496,2.624 -0.332,0.78933 -0.80134,1.46133 -1.40934,2.016 -0.608,0.556 -1.33333,0.98667 -2.176,1.296 -0.84266,0.30933 -1.776,0.464 -2.798664,0.464 -1.025333,0 -1.958666,-0.15467 -2.801333,-0.464 -0.842667,-0.30933 -1.568,-0.74 -2.176,-1.296 -0.608,-0.55467 -1.076,-1.22667 -1.406667,-2.016 -0.332,-0.788 -0.497333,-1.664 -0.497333,-2.624 0,-0.96 0.165333,-1.83467 0.497333,-2.624 0.330667,-0.788 0.798667,-1.46133 1.406667,-2.016 0.608,-0.55467 1.333333,-0.98667 2.176,-1.296 0.842667,-0.30933 1.776,-0.464 2.801333,-0.464"
         id="path374"
         style="fill:#00000f;fill-opacity:1;stroke-width:1.33333" />
      <path
         d="m 113.13311,231.01302 c 0,0.704 0.192,1.168 0.576,1.392 0.384,0.224 0.928,0.4 1.632,0.528 v 0.384 c -0.62,-0.0427 -1.27467,-0.076 -1.968,-0.096 -0.69333,-0.0213 -1.40267,-0.032 -2.128,-0.032 -0.49067,0 -0.972,0.0107 -1.44,0.032 -0.46933,0.02 -0.972,0.0533 -1.504,0.096 v -0.384 c 0.768,-0.128 1.34933,-0.304 1.744,-0.528 0.39333,-0.224 0.592,-0.688 0.592,-1.392 v -6.528 c 0,-0.512 -0.0373,-0.91733 -0.112,-1.216 -0.076,-0.29867 -0.19733,-0.528 -0.368,-0.688 -0.17067,-0.16 -0.39467,-0.272 -0.672,-0.336 -0.27733,-0.064 -0.61867,-0.10667 -1.024,-0.128 v -0.384 l 4.672,-0.64 v 1.6 c 0.68267,-0.49067 1.36,-0.912 2.032,-1.264 0.672,-0.352 1.456,-0.528 2.352,-0.528 0.74667,0 1.40267,0.14933 1.968,0.448 0.564,0.29867 1.08267,0.736 1.552,1.312 0.27733,-0.192 0.58667,-0.38933 0.928,-0.592 0.34133,-0.20267 0.69333,-0.39467 1.056,-0.576 0.36133,-0.18133 0.736,-0.32533 1.12,-0.432 0.384,-0.10667 0.75733,-0.16 1.12,-0.16 1.344,0 2.4,0.368 3.168,1.104 0.768,0.736 1.152,1.84 1.152,3.312 v 5.696 c 0,0.704 0.196,1.168 0.592,1.392 0.39467,0.224 0.976,0.4 1.744,0.528 v 0.384 c -0.68267,-0.0427 -1.376,-0.076 -2.08,-0.096 -0.704,-0.0213 -1.41867,-0.032 -2.144,-0.032 -0.49067,0 -0.96,0.0107 -1.408,0.032 -0.448,0.02 -0.864,0.0533 -1.248,0.096 v -0.384 c 0.61867,-0.128 1.11467,-0.304 1.488,-0.528 0.37333,-0.224 0.56,-0.688 0.56,-1.392 v -5.376 c 0,-1.04533 -0.26133,-1.82933 -0.784,-2.352 -0.524,-0.52267 -1.12533,-0.784 -1.808,-0.784 -1.30133,0 -2.34667,0.34133 -3.136,1.024 v 7.488 c 0,0.704 0.192,1.168 0.576,1.392 0.384,0.224 0.928,0.4 1.632,0.528 v 0.384 c -0.62,-0.0427 -1.27467,-0.076 -1.968,-0.096 -0.69333,-0.0213 -1.40267,-0.032 -2.128,-0.032 -0.49067,0 -0.96,0.0107 -1.408,0.032 -0.448,0.02 -0.864,0.0533 -1.248,0.096 v -0.384 c 0.61867,-0.128 1.11467,-0.304 1.488,-0.528 0.372,-0.224 0.56,-0.688 0.56,-1.392 v -5.376 c 0,-1.04533 -0.16,-1.86133 -0.48,-2.448 -0.32,-0.58667 -1.024,-0.88 -2.112,-0.88 -0.32,0 -0.604,0.0267 -0.848,0.08 -0.24533,0.0533 -0.48533,0.144 -0.72,0.272 -0.23467,0.128 -0.476,0.29333 -0.72,0.496 -0.24533,0.20267 -0.528,0.45333 -0.848,0.752 z"
         id="path376"
         style="fill:#00000f;fill-opacity:1;stroke-width:1.33333" />
      <path
         d="m 142.54058,225.50916 c -0.064,-0.576 -0.14933,-1.09333 -0.25467,-1.552 -0.108,-0.45867 -0.27866,-0.84267 -0.51333,-1.152 -0.23467,-0.30933 -0.54267,-0.544 -0.92667,-0.704 -0.38533,-0.16 -0.876,-0.24 -1.47333,-0.24 -0.448,0 -0.86,0.112 -1.232,0.336 -0.37333,0.224 -0.69333,0.512 -0.96,0.864 -0.26667,0.352 -0.46933,0.74667 -0.608,1.184 -0.13867,0.43733 -0.208,0.85867 -0.208,1.264 z m -6.24,0.96 c 0,1.10933 0.144,2.02667 0.43333,2.752 0.28667,0.72533 0.64934,1.30133 1.08667,1.728 0.43733,0.42667 0.90667,0.72533 1.40933,0.896 0.5,0.17067 0.964,0.256 1.392,0.256 0.89467,0 1.70534,-0.144 2.43067,-0.432 0.72533,-0.288 1.39733,-0.74133 2.016,-1.36 l 0.54533,0.512 c -0.876,0.93867 -1.772,1.65333 -2.68933,2.144 -0.91733,0.48933 -2.016,0.736 -3.296,0.736 -0.91733,0 -1.73867,-0.18133 -2.464,-0.544 -0.72533,-0.36267 -1.344,-0.84267 -1.856,-1.44 -0.512,-0.59733 -0.90133,-1.28 -1.168,-2.048 -0.26667,-0.768 -0.4,-1.55733 -0.4,-2.368 0,-0.81067 0.13333,-1.6 0.4,-2.368 0.26667,-0.768 0.656,-1.45067 1.168,-2.048 0.512,-0.59733 1.13067,-1.07733 1.856,-1.44 0.72533,-0.36267 1.54667,-0.544 2.464,-0.544 1.68533,0 3.04133,0.45867 4.064,1.376 1.024,0.91733 1.65333,2.31467 1.888,4.192 z"
         id="path378"
         style="fill:#00000f;fill-opacity:1;stroke-width:1.33333" />
      <path
         d="m 158.95604,226.27676 c -0.21333,-0.53333 -0.45333,-1.072 -0.72,-1.616 -0.26667,-0.544 -0.58667,-1.02933 -0.96,-1.456 -0.37333,-0.42667 -0.81067,-0.77867 -1.312,-1.056 -0.50133,-0.27733 -1.084,-0.416 -1.744,-0.416 -0.66133,0 -1.228,0.16 -1.696,0.48 -0.46933,0.32 -0.848,0.73067 -1.136,1.232 -0.288,0.50133 -0.50133,1.06667 -0.64,1.696 -0.14,0.62933 -0.208,1.25333 -0.208,1.872 0,0.704 0.116,1.376 0.352,2.016 0.23467,0.64 0.56533,1.21067 0.992,1.712 0.42667,0.50133 0.944,0.896 1.552,1.184 0.608,0.288 1.284,0.432 2.032,0.432 0.78933,0 1.536,-0.144 2.24,-0.432 0.704,-0.288 1.376,-0.656 2.016,-1.104 l 0.448,0.512 c -0.96,0.78933 -1.904,1.38133 -2.832,1.776 -0.928,0.39467 -1.968,0.592 -3.12,0.592 -0.832,0 -1.62667,-0.17067 -2.384,-0.512 -0.75733,-0.34133 -1.41867,-0.8 -1.984,-1.376 -0.56533,-0.576 -1.01867,-1.25333 -1.36,-2.032 -0.34133,-0.77867 -0.512,-1.60533 -0.512,-2.48 0,-0.87467 0.17067,-1.70133 0.512,-2.48 0.34133,-0.77867 0.79467,-1.456 1.36,-2.032 0.56533,-0.576 1.22667,-1.03467 1.984,-1.376 0.75733,-0.34133 1.552,-0.512 2.384,-0.512 0.896,0 1.716,0.048 2.464,0.144 0.74533,0.096 1.49333,0.21867 2.24,0.368 l 0.416,4.864 z"
         id="path380"
         style="fill:#00000f;fill-opacity:1;stroke-width:1.33333" />
      <path
         d="m 177.45204,233.31704 c -0.61867,-0.0427 -1.28,-0.076 -1.984,-0.096 -0.704,-0.0213 -1.41867,-0.032 -2.144,-0.032 -0.49067,0 -0.96533,0.0107 -1.424,0.032 -0.45867,0.02 -0.90133,0.0533 -1.328,0.096 v -0.384 c 0.68267,-0.128 1.21067,-0.304 1.584,-0.528 0.37333,-0.224 0.56,-0.688 0.56,-1.392 v -5.152 c 0,-1.088 -0.22933,-1.93067 -0.68667,-2.528 -0.46,-0.59733 -1.20133,-0.896 -2.22533,-0.896 -0.36267,0 -0.736,0.0533 -1.12,0.16 -0.384,0.10667 -0.736,0.25067 -1.056,0.432 -0.31867,0.18133 -0.58667,0.37867 -0.8,0.592 -0.21333,0.21333 -0.32,0.416 -0.32,0.608 v 6.784 c 0,0.704 0.20267,1.168 0.608,1.392 0.40533,0.224 1.01333,0.4 1.824,0.528 v 0.384 c -0.72533,-0.0427 -1.44533,-0.076 -2.16,-0.096 -0.71467,-0.0213 -1.43467,-0.032 -2.16,-0.032 -0.49067,0 -0.96533,0.0107 -1.42267,0.032 -0.46,0.02 -0.93466,0.0533 -1.42533,0.096 v -0.384 c 0.72533,-0.128 1.28,-0.304 1.664,-0.528 0.384,-0.224 0.576,-0.688 0.576,-1.392 v -16.32 c 0,-0.768 -0.0373,-1.37067 -0.112,-1.808 -0.0747,-0.43733 -0.20267,-0.768 -0.384,-0.992 -0.18133,-0.224 -0.42667,-0.368 -0.736,-0.432 -0.30933,-0.064 -0.69867,-0.10667 -1.168,-0.128 v -0.384 l 4.896,-0.544 v 12.384 c 0.57733,-0.448 1.23733,-0.87467 1.984,-1.28 0.74667,-0.40533 1.46133,-0.608 2.144,-0.608 0.59733,0 1.168,0.0747 1.712,0.224 0.544,0.14933 1.02933,0.39467 1.456,0.736 0.42667,0.34133 0.768,0.8 1.024,1.376 0.25733,0.576 0.384,1.29067 0.384,2.144 v 5.632 c 0,0.704 0.192,1.168 0.576,1.392 0.384,0.224 0.93867,0.4 1.664,0.528 z"
         id="path382"
         style="fill:#00000f;fill-opacity:1;stroke-width:1.33333" />
      <path
         d="m 187.24378,227.74876 c -0.704,-0.192 -1.41867,-0.288 -2.14267,-0.288 -0.40666,0 -0.812,0.048 -1.21733,0.144 -0.40533,0.096 -0.768,0.252 -1.088,0.464 -0.32,0.21333 -0.58133,0.48533 -0.784,0.816 -0.20267,0.33067 -0.304,0.73067 -0.304,1.2 0,0.72533 0.25067,1.244 0.752,1.552 0.50133,0.30933 1.06133,0.464 1.68,0.464 0.68267,0 1.30667,-0.13867 1.872,-0.416 0.56533,-0.27733 0.976,-0.512 1.232,-0.704 z m -6.944,-3.904 c 0.17067,-0.66133 0.41067,-1.18933 0.72,-1.584 0.308,-0.39467 0.66667,-0.69333 1.072,-0.896 0.404,-0.20267 0.864,-0.33067 1.376,-0.384 0.512,-0.0533 1.056,-0.08 1.63333,-0.08 0.55334,0 1.10267,0.0587 1.64667,0.176 0.544,0.11733 1.03467,0.31467 1.472,0.592 0.43733,0.27733 0.78933,0.64533 1.056,1.104 0.26667,0.45867 0.4,1.01867 0.4,1.68 v 5.92 c 0,0.40533 0.10667,0.764 0.32,1.072 0.21333,0.30933 0.544,0.464 0.992,0.464 0.42667,0 0.80533,-0.12267 1.136,-0.368 0.33067,-0.24533 0.64533,-0.48533 0.944,-0.72 l 0.32,0.352 c -0.21333,0.21333 -0.464,0.464 -0.752,0.752 -0.288,0.288 -0.592,0.56533 -0.912,0.832 -0.32,0.268 -0.64533,0.49067 -0.976,0.672 -0.33067,0.18133 -0.656,0.272 -0.976,0.272 -0.21333,0 -0.43733,-0.0693 -0.67067,-0.208 -0.236,-0.13867 -0.46533,-0.304 -0.68933,-0.496 -0.224,-0.192 -0.432,-0.39467 -0.624,-0.608 -0.192,-0.21333 -0.36267,-0.39467 -0.512,-0.544 -0.68267,0.46933 -1.45067,0.896 -2.304,1.28 -0.85333,0.384 -1.68533,0.576 -2.496,0.576 -0.448,0 -0.88,-0.0747 -1.296,-0.224 -0.416,-0.14933 -0.784,-0.36267 -1.104,-0.64 -0.32,-0.27733 -0.576,-0.608 -0.768,-0.992 -0.192,-0.384 -0.288,-0.82 -0.288,-1.312 0,-0.87467 0.24533,-1.57333 0.736,-2.096 0.49067,-0.52267 1.12533,-0.92267 1.90533,-1.2 0.77734,-0.27733 1.664,-0.464 2.65467,-0.56 0.992,-0.096 1.98933,-0.15467 2.992,-0.176 v -2.432 c 0,-0.78933 -0.24533,-1.39733 -0.736,-1.824 -0.49067,-0.42667 -1.10933,-0.64 -1.856,-0.64 -0.556,0 -0.992,0.27733 -1.312,0.832 -0.32,0.55467 -0.48,1.184 -0.48,1.888 z"
         id="path384"
         style="fill:#00000f;fill-opacity:1;stroke-width:1.33333" />
      <path
         d="m 193.83484,221.79689 4.672,-0.704 v 1.696 c 0.57733,-0.448 1.23733,-0.87467 1.984,-1.28 0.74667,-0.40533 1.46133,-0.608 2.144,-0.608 0.59733,0 1.168,0.0747 1.712,0.224 0.544,0.14933 1.02933,0.39467 1.456,0.736 0.42667,0.34133 0.768,0.8 1.024,1.376 0.25733,0.576 0.384,1.29067 0.384,2.144 v 5.632 c 0,0.704 0.192,1.168 0.576,1.392 0.384,0.224 0.93867,0.4 1.664,0.528 v 0.384 c -0.61867,-0.0427 -1.28,-0.076 -1.984,-0.096 -0.704,-0.0213 -1.41867,-0.032 -2.144,-0.032 -0.49067,0 -0.96533,0.0107 -1.424,0.032 -0.45867,0.02 -0.90133,0.0533 -1.328,0.096 v -0.384 c 0.68133,-0.128 1.21067,-0.304 1.584,-0.528 0.37333,-0.224 0.56,-0.688 0.56,-1.392 v -5.152 c 0,-1.088 -0.22933,-1.93067 -0.68667,-2.528 -0.46,-0.59733 -1.20133,-0.896 -2.22533,-0.896 -0.36267,0 -0.736,0.0533 -1.12,0.16 -0.384,0.10667 -0.736,0.25067 -1.056,0.432 -0.32,0.18133 -0.58667,0.37867 -0.8,0.592 -0.21333,0.21333 -0.32,0.416 -0.32,0.608 v 6.784 c 0,0.704 0.20267,1.168 0.608,1.392 0.40533,0.224 1.01333,0.4 1.824,0.528 v 0.384 c -0.72533,-0.0427 -1.44533,-0.076 -2.16,-0.096 -0.71467,-0.0213 -1.43467,-0.032 -2.16,-0.032 -0.49067,0 -0.96533,0.0107 -1.42267,0.032 -0.46,0.02 -0.93466,0.0533 -1.42533,0.096 v -0.384 c 0.72533,-0.128 1.28,-0.304 1.664,-0.528 0.384,-0.224 0.576,-0.688 0.576,-1.392 v -7.424 c 0,-0.64 -0.21867,-1.03467 -0.656,-1.184 -0.43733,-0.14933 -0.944,-0.224 -1.52,-0.224 z"
         id="path386"
         style="fill:#00000f;fill-opacity:1;stroke-width:1.33333" />
      <path
         d="m 214.09004,211.68488 c 0.47067,0 0.86933,0.176 1.2,0.528 0.33067,0.352 0.496,0.76267 0.496,1.232 0,0.46933 -0.16533,0.88 -0.496,1.232 -0.33067,0.352 -0.72933,0.528 -1.2,0.528 -0.46933,0 -0.868,-0.176 -1.19867,-0.528 -0.33066,-0.352 -0.496,-0.76267 -0.496,-1.232 0,-0.46933 0.16534,-0.88 0.496,-1.232 0.33067,-0.352 0.72934,-0.528 1.19867,-0.528 m -0.92667,13.536 c 0,-0.512 -0.0173,-0.96533 -0.048,-1.36 -0.0333,-0.39467 -0.12933,-0.72533 -0.288,-0.992 -0.16,-0.26667 -0.40133,-0.48533 -0.72,-0.656 -0.32133,-0.17067 -0.75866,-0.288 -1.31333,-0.352 v -0.448 l 4.86533,-0.32 v 9.408 c 0,0.53333 0.0413,0.95467 0.12667,1.264 0.0853,0.30933 0.22933,0.544 0.43333,0.704 0.20134,0.16 0.46267,0.272 0.784,0.336 0.32,0.064 0.71467,0.10667 1.18267,0.128 v 0.384 c -0.74667,-0.0427 -1.49867,-0.076 -2.256,-0.096 -0.75733,-0.0213 -1.50933,-0.032 -2.256,-0.032 -0.49067,0 -0.97067,0.0107 -1.44,0.032 -0.46933,0.02 -0.94933,0.0533 -1.44,0.096 v -0.384 c 0.428,-0.0213 0.78933,-0.064 1.08933,-0.128 0.29734,-0.064 0.54267,-0.176 0.73467,-0.336 0.192,-0.16 0.332,-0.39467 0.416,-0.704 0.0853,-0.30933 0.12933,-0.73067 0.12933,-1.264 z"
         id="path388"
         style="fill:#00000f;fill-opacity:1;stroke-width:1.33333" />
      <path
         d="m 230.63444,226.27676 c -0.21333,-0.53333 -0.45333,-1.072 -0.72,-1.616 -0.26667,-0.544 -0.58667,-1.02933 -0.96,-1.456 -0.37333,-0.42667 -0.81067,-0.77867 -1.312,-1.056 -0.50133,-0.27733 -1.084,-0.416 -1.744,-0.416 -0.66133,0 -1.228,0.16 -1.696,0.48 -0.46933,0.32 -0.848,0.73067 -1.136,1.232 -0.288,0.50133 -0.50133,1.06667 -0.64,1.696 -0.14,0.62933 -0.208,1.25333 -0.208,1.872 0,0.704 0.116,1.376 0.352,2.016 0.23467,0.64 0.56533,1.21067 0.992,1.712 0.42667,0.50133 0.944,0.896 1.552,1.184 0.608,0.288 1.284,0.432 2.032,0.432 0.78933,0 1.536,-0.144 2.24,-0.432 0.704,-0.288 1.376,-0.656 2.016,-1.104 l 0.448,0.512 c -0.96,0.78933 -1.904,1.38133 -2.832,1.776 -0.928,0.39467 -1.968,0.592 -3.12,0.592 -0.832,0 -1.62667,-0.17067 -2.384,-0.512 -0.75733,-0.34133 -1.41867,-0.8 -1.984,-1.376 -0.56533,-0.576 -1.01867,-1.25333 -1.36,-2.032 -0.34133,-0.77867 -0.512,-1.60533 -0.512,-2.48 0,-0.87467 0.17067,-1.70133 0.512,-2.48 0.34133,-0.77867 0.79467,-1.456 1.36,-2.032 0.56533,-0.576 1.22667,-1.03467 1.984,-1.376 0.75733,-0.34133 1.552,-0.512 2.384,-0.512 0.896,0 1.716,0.048 2.464,0.144 0.74533,0.096 1.49333,0.21867 2.24,0.368 l 0.416,4.864 z"
         id="path390"
         style="fill:#00000f;fill-opacity:1;stroke-width:1.33333" />
      <path
         d="m 233.99378,229.12502 h 0.448 c 0.29867,0.448 0.63467,0.88533 1.008,1.312 0.372,0.42667 0.784,0.81067 1.232,1.152 0.448,0.34133 0.928,0.61867 1.44,0.832 0.51067,0.21333 1.056,0.32 1.63067,0.32 0.27733,0 0.56,-0.0267 0.84933,-0.08 0.288,-0.0533 0.548,-0.144 0.784,-0.272 0.23467,-0.128 0.42533,-0.29867 0.576,-0.512 0.14933,-0.21333 0.224,-0.48 0.224,-0.8 0,-0.53333 -0.19867,-0.97067 -0.592,-1.312 -0.396,-0.34133 -0.88,-0.64 -1.45733,-0.896 -0.57467,-0.256 -1.21067,-0.496 -1.90267,-0.72 -0.69467,-0.224 -1.328,-0.49067 -1.904,-0.8 -0.57733,-0.30933 -1.06133,-0.688 -1.456,-1.136 -0.396,-0.448 -0.592,-1.024 -0.592,-1.728 0,-1.152 0.356,-2.03733 1.072,-2.656 0.71467,-0.61867 1.61467,-0.928 2.704,-0.928 0.80933,0 1.59333,0.10667 2.352,0.32 0.75733,0.21333 1.54133,0.34133 2.352,0.384 l 0.192,3.392 h -0.41733 c -0.212,-0.40533 -0.47867,-0.79467 -0.79867,-1.168 -0.32133,-0.37333 -0.67733,-0.704 -1.072,-0.992 -0.396,-0.288 -0.816,-0.52267 -1.264,-0.704 -0.448,-0.18133 -0.908,-0.272 -1.37733,-0.272 -0.532,0 -1.012,0.11733 -1.44,0.352 -0.42667,0.23467 -0.63867,0.66133 -0.63867,1.28 0,0.448 0.196,0.816 0.59067,1.104 0.39466,0.288 0.88,0.55467 1.45733,0.8 0.576,0.24533 1.20933,0.48533 1.904,0.72 0.692,0.23467 1.328,0.51733 1.90267,0.848 0.57733,0.33067 1.06133,0.736 1.456,1.216 0.39466,0.48 0.59333,1.072 0.59333,1.776 0,0.74667 -0.12267,1.36 -0.36933,1.84 -0.244,0.48 -0.58,0.85867 -1.008,1.136 -0.42667,0.276 -0.92267,0.47467 -1.48667,0.592 -0.56667,0.11733 -1.168,0.176 -1.808,0.176 -0.512,0 -1.00267,-0.0373 -1.472,-0.112 -0.46933,-0.0747 -0.912,-0.16533 -1.328,-0.272 -0.416,-0.108 -0.80533,-0.20267 -1.168,-0.288 -0.36267,-0.0853 -0.684,-0.14933 -0.96133,-0.192 z"
         id="path392"
         style="fill:#00000f;fill-opacity:1;stroke-width:1.33333" />
    </g>
  </g>
  <defs
     id="defs3710">
    <linearGradient
       id="linearGradient7061"
       >
      <stop
         style="stop-color:#00000f;stop-opacity:1;"
         offset="0"
         id="stop7059" />
    </linearGradient>
    <clipPath
       id="clip0_123_2">
      <rect
         width="562"
         height="173"
         fill="white"
         id="rect3707" />
    </clipPath>
    <linearGradient
       id="linearGradient7063"
       x1="-8.400841"
       y1="79.931436"
       x2="80.129288"
       y2="79.931436"
       gradientUnits="userSpaceOnUse"
       gradientTransform="matrix(1.1335993,0,0,1.1528731,32.789693,-13.745507)" />
  </defs>
</svg>
