<svg width="535" height="153" viewBox="0 0 535 153" fill="none" xmlns="http://www.w3.org/2000/svg">
<g clip-path="url(#clip0_105_60)">
<path d="M125.469 75.6306H113.459C111.954 75.6829 110.449 75.5029 108.999 75.0968C107.797 74.3434 106.733 73.3891 105.853 72.2756L96.3222 61.9628V61.8675C101.206 62.7587 106.245 62.184 110.803 60.2157C115.362 58.2475 119.235 54.9738 121.935 50.8074C124.636 46.641 126.042 41.7684 125.977 36.8039C125.912 31.8394 124.379 27.0052 121.571 22.9108C118.762 18.8164 114.805 15.645 110.197 13.7966C105.589 11.9481 100.537 11.5053 95.6773 12.5239C90.818 13.5425 86.369 15.9769 82.8912 19.5203C79.4135 23.0637 77.0626 27.5575 76.135 32.435H51.9256C51.597 32.435 51.2819 32.5655 51.0495 32.7979C50.8171 33.0302 50.6866 33.3454 50.6866 33.674C50.6866 34.0026 50.8171 34.3178 51.0495 34.5502C51.2819 34.7825 51.597 34.9131 51.9256 34.9131H75.7919C75.7919 35.6565 75.6775 36.4 75.6775 37.1625C75.6823 40.3504 76.297 43.508 77.4885 46.465H26.706C26.3773 46.465 26.0622 46.5955 25.8298 46.8279C25.5974 47.0602 25.4669 47.3754 25.4669 47.704C25.4669 48.0326 25.5974 48.3478 25.8298 48.5802C26.0622 48.8125 26.3773 48.9431 26.706 48.9431H78.6131C79.6506 50.8605 80.9321 52.6353 82.4256 54.2234C82.0282 54.1561 81.6272 54.1115 81.2247 54.09H59.5506C57.9037 54.1324 56.2824 54.5086 54.785 55.1956C53.4052 55.9336 52.1242 56.8431 50.9725 57.9025L48.5325 60.495H36.6185C36.2898 60.495 35.9747 60.6255 35.7423 60.8579C35.5099 61.0902 35.3794 61.4054 35.3794 61.734C35.3794 62.0626 35.5099 62.3778 35.7423 62.6102C35.9747 62.8425 36.2898 62.9731 36.6185 62.9731H46.1497L41.2697 68.1772L41.1172 68.3487L35.3985 74.5059H26.706C26.5432 74.5059 26.3821 74.538 26.2318 74.6002C26.0815 74.6625 25.9449 74.7538 25.8298 74.8688C25.7147 74.9839 25.6235 75.1205 25.5612 75.2708C25.4989 75.4211 25.4669 75.5822 25.4669 75.745C25.4669 75.9077 25.4989 76.0688 25.5612 76.2191C25.6235 76.3695 25.7147 76.5061 25.8298 76.6211C25.9449 76.7362 26.0815 76.8274 26.2318 76.8897C26.3821 76.952 26.5432 76.984 26.706 76.984H33.6447C32.9106 78.5451 32.7641 80.3186 33.2321 81.979C33.7002 83.6394 34.7514 85.0753 36.1928 86.0231C37.6342 86.9709 39.3691 87.367 41.079 87.1388C42.789 86.9105 44.3592 86.0733 45.5016 84.7806V84.7806L52.0019 77.7656L52.6881 77.0222H63.7063L55.1281 95.1125C53.7044 98.1251 53.3962 101.545 54.2584 104.764C55.1207 107.983 57.0974 110.791 59.8366 112.688L54.3275 118.216C53.725 118.678 53.0877 119.092 52.4213 119.455C51.4073 119.56 50.3852 119.56 49.3713 119.455L34.5025 119.665C32.6016 119.569 30.7403 120.232 29.3282 121.508C27.9162 122.784 27.0689 124.569 26.9728 126.47C26.8768 128.371 27.5398 130.232 28.816 131.645C30.0923 133.057 31.8772 133.904 33.7781 134C33.9107 134.022 34.0459 134.022 34.1785 134H34.5788L53.7556 133.847C55.2816 133.773 56.7926 133.51 58.2544 133.066C59.8004 132.491 61.214 131.609 62.41 130.473L77.66 115.223H86.2C86.9407 115.314 87.6736 115.461 88.3922 115.662C89.1593 116.304 89.8559 117.026 90.47 117.816L103.166 131.503C103.792 132.222 104.555 132.809 105.411 133.229C106.266 133.65 107.197 133.895 108.149 133.952C109.101 134.008 110.054 133.874 110.953 133.557C111.853 133.24 112.68 132.747 113.386 132.107C114.092 131.466 114.664 130.691 115.067 129.827C115.47 128.963 115.697 128.028 115.734 127.075C115.771 126.122 115.617 125.172 115.282 124.279C114.948 123.386 114.438 122.569 113.783 121.876C113.743 121.788 113.692 121.704 113.631 121.628L97.6184 104.472C96.4625 103.439 95.1817 102.556 93.8059 101.842C92.3085 101.154 90.6873 100.778 89.0403 100.736H83.5122L93.1769 79.7672L100.688 87.7734C102.467 89.3614 104.784 90.2132 107.169 90.1562C107.537 90.1803 107.906 90.1803 108.274 90.1562H115.899C115.988 90.1663 116.078 90.1663 116.166 90.1562H116.719H125.278C125.342 90.1613 125.405 90.1613 125.469 90.1562C126.418 90.1562 127.357 89.9693 128.234 89.6063C129.11 89.2432 129.907 88.711 130.577 88.0402C131.248 87.3693 131.78 86.5728 132.144 85.6963C132.507 84.8198 132.693 83.8803 132.693 82.9315C132.693 81.9828 132.507 81.0433 132.144 80.1668C131.78 79.2902 131.248 78.4938 130.577 77.8229C129.907 77.152 129.11 76.6199 128.234 76.2568C127.357 75.8937 126.418 75.7068 125.469 75.7068V75.6306ZM87.5344 46.465H80.1763C77.7162 41.0525 77.4601 34.8948 79.4622 29.2968C81.4643 23.6987 85.5672 19.1 90.9017 16.4751C96.2362 13.8502 102.383 13.4053 108.04 15.2347C113.697 17.0641 118.419 21.0241 121.206 26.2755C123.994 31.527 124.627 37.6573 122.972 43.3676C121.317 49.0779 117.504 53.9196 112.34 56.8667C107.177 59.8138 101.069 60.6347 95.3104 59.1557C89.552 57.6766 84.5957 54.0137 81.4916 48.9431H87.6297C87.9583 48.9431 88.2735 48.8125 88.5058 48.5802C88.7382 48.3478 88.8688 48.0326 88.8688 47.704C88.8688 47.3754 88.7382 47.0602 88.5058 46.8279C88.2735 46.5955 87.9583 46.465 87.6297 46.465H87.5344ZM40.2022 84.6853C39.2508 84.6873 38.3209 84.4023 37.534 83.8674C36.7472 83.3324 36.1401 82.5725 35.7921 81.687C35.4441 80.8015 35.3713 79.8316 35.5834 78.9041C35.7954 77.9766 36.2824 77.1347 36.9806 76.4884C37.0303 76.4354 37.075 76.378 37.1141 76.3168L39.0203 74.1818C39.2002 75.9174 40.0054 77.5283 41.2857 78.7139C42.566 79.8994 44.2339 80.5787 45.9781 80.625L43.7288 83.0459C43.2908 83.5536 42.7499 83.9624 42.1419 84.245C41.5338 84.5277 40.8727 84.6777 40.2022 84.6853ZM55.0519 74.4868L58.2925 70.9793C58.8941 70.2203 59.5711 69.5241 60.3131 68.9015C60.9816 68.7065 61.6633 68.56 62.3528 68.4631H67.7284L64.8881 74.4868H55.0519ZM60.6563 128.72C59.723 129.59 58.6287 130.27 57.4347 130.721C56.1933 131.081 54.9135 131.293 53.6222 131.35L34.5597 131.503C33.3084 131.503 32.1084 131.006 31.2236 130.121C30.3388 129.236 29.8417 128.036 29.8417 126.785C29.8417 125.534 30.3388 124.333 31.2236 123.449C32.1084 122.564 33.3084 122.067 34.5597 122.067V122.067L49.2188 121.876C50.4839 122.047 51.7662 122.047 53.0313 121.876C54.0408 121.422 54.9836 120.832 55.8334 120.122L61.9716 114.003C63.5701 114.725 65.2903 115.139 67.0422 115.223C67.2034 115.299 67.379 115.338 67.5569 115.338H74L60.6563 128.72ZM67.6522 100.888C67.3236 100.888 67.0084 101.019 66.776 101.251C66.5437 101.484 66.4131 101.799 66.4131 102.127C66.4131 102.456 66.5437 102.771 66.776 103.004C67.0084 103.236 67.3236 103.367 67.6522 103.367H89.25C90.5281 103.415 91.7843 103.713 92.9481 104.243C94.0502 104.842 95.0799 105.564 96.0172 106.397L111.706 123.134C111.744 123.202 111.788 123.266 111.839 123.325C112.272 123.767 112.614 124.29 112.845 124.864C113.076 125.437 113.192 126.051 113.186 126.67C113.179 127.289 113.051 127.9 112.809 128.469C112.566 129.038 112.214 129.554 111.772 129.987C111.331 130.42 110.808 130.762 110.234 130.993C109.66 131.224 109.046 131.34 108.427 131.334C107.809 131.328 107.197 131.2 106.628 130.957C106.059 130.715 105.543 130.362 105.11 129.921V129.921L92.4525 116.272C91.6606 115.264 90.7374 114.366 89.7075 113.603C88.6726 113.209 87.5887 112.959 86.4859 112.86H68.2813C68.1487 112.838 68.0135 112.838 67.881 112.86C64.8086 112.855 61.8636 111.632 59.6912 109.459C57.5187 107.287 56.296 104.342 56.2909 101.27C56.2835 99.5556 56.6613 97.8618 57.3966 96.3134L66.375 76.965H69.6156C69.7784 76.965 69.9395 76.9329 70.0898 76.8706C70.2401 76.8084 70.3767 76.7171 70.4918 76.602C70.6068 76.487 70.6981 76.3504 70.7604 76.2001C70.8227 76.0497 70.8547 75.8886 70.8547 75.7259C70.8547 75.5632 70.8227 75.4021 70.7604 75.2517C70.6981 75.1014 70.6068 74.9648 70.4918 74.8497C70.3767 74.7347 70.2401 74.6434 70.0898 74.5812C69.9395 74.5189 69.7784 74.4868 69.6156 74.4868H67.6141L70.4544 68.4631H81.0531C81.3818 68.4631 81.6969 68.3325 81.9293 68.1002C82.1617 67.8678 82.2922 67.5526 82.2922 67.224C82.2922 66.8954 82.1617 66.5802 81.9293 66.3479C81.6969 66.1155 81.3818 65.985 81.0531 65.985H62.1813C61.1373 66.0921 60.1119 66.3357 59.1313 66.7093C58.1156 67.4615 57.2053 68.3462 56.4244 69.34L49.2188 77.0793C48.3036 77.8914 47.1083 78.3153 45.886 78.2614C44.6636 78.2074 43.5103 77.6797 42.6703 76.7902C41.8303 75.9006 41.3695 74.719 41.3856 73.4956C41.4017 72.2722 41.8934 71.1031 42.7566 70.2359L52.7263 59.6562C53.6775 58.793 54.7267 58.0444 55.8525 57.4259C57.0174 56.9011 58.2737 56.6097 59.5506 56.5681H80.7672C81.8998 56.5685 83.0186 56.8157 84.046 57.2925L90.8703 60.4378C91.9741 60.956 92.9405 61.7266 93.6916 62.6872C93.746 62.8574 93.8371 63.0135 93.9585 63.1447L94.3206 63.5259C94.9823 64.6228 95.3664 65.8646 95.4395 67.1435C95.5126 68.4224 95.2725 69.6999 94.74 70.865L91.8234 77.1937L80.9006 100.888H67.6522ZM108.122 87.5447C106.093 87.8008 104.043 87.2611 102.403 86.0387L94.4159 77.4606L96.9894 71.8753C97.6506 70.4364 97.9703 68.8641 97.9234 67.2812L104.004 73.8197C105.157 75.2539 106.583 76.446 108.198 77.3272C109.762 77.7994 111.388 78.0308 113.021 78.0134H117.691C117.81 78.1934 117.974 78.3383 118.168 78.4328C119.126 78.852 119.918 79.577 120.42 80.4944C120.922 81.4118 121.106 82.4698 120.942 83.5027C120.779 84.5356 120.277 85.4852 119.517 86.2028C118.756 86.9204 117.779 87.3655 116.738 87.4684L108.122 87.5447ZM125.678 87.5447H125.469H121.656C122.842 86.2664 123.52 84.5986 123.563 82.8553C123.532 81.087 122.854 79.3913 121.656 78.0896H125.469C126.733 78.0745 127.951 78.562 128.855 79.445C129.76 80.328 130.276 81.5342 130.292 82.7981C130.307 84.062 129.819 85.2802 128.936 86.1846C128.053 87.0891 126.847 87.6057 125.583 87.6209L125.678 87.5447Z" fill="black"/>
<path d="M34.2166 34.875H45.4063C45.7349 34.875 46.05 34.7444 46.2824 34.5121C46.5148 34.2797 46.6453 33.9645 46.6453 33.6359C46.6453 33.3073 46.5148 32.9921 46.2824 32.7598C46.05 32.5274 45.7349 32.3969 45.4063 32.3969H34.2166C33.888 32.3969 33.5728 32.5274 33.3404 32.7598C33.1081 32.9921 32.9775 33.3073 32.9775 33.6359C32.9775 33.9645 33.1081 34.2797 33.3404 34.5121C33.5728 34.7444 33.888 34.875 34.2166 34.875Z" fill="black"/>
<path d="M31.5287 61.715C31.5287 61.3864 31.3982 61.0712 31.1658 60.8389C30.9335 60.6065 30.6183 60.476 30.2897 60.476H16.4503C16.1217 60.476 15.8065 60.6065 15.5742 60.8389C15.3418 61.0712 15.2112 61.3864 15.2112 61.715C15.2112 62.0436 15.3418 62.3588 15.5742 62.5912C15.8065 62.8235 16.1217 62.9541 16.4503 62.9541H30.2897C30.4524 62.9541 30.6135 62.922 30.7638 62.8598C30.9142 62.7975 31.0508 62.7062 31.1658 62.5912C31.2809 62.4761 31.3722 62.3395 31.4344 62.1892C31.4967 62.0389 31.5287 61.8777 31.5287 61.715Z" fill="black"/>
</g>
<path d="M162.455 94V50.1685H177.477C182.434 50.1685 186.208 51.1619 188.796 53.1488C191.385 55.1357 192.68 58.0959 192.68 62.0295C192.68 64.0364 192.138 65.8427 191.054 67.4482C189.971 69.0538 188.385 70.2981 186.298 71.1811C188.666 71.8233 190.492 73.0375 191.777 74.8237C193.081 76.5898 193.734 78.7172 193.734 81.2058C193.734 85.32 192.409 88.4809 189.76 90.6886C187.131 92.8962 183.358 94 178.441 94H162.455ZM170.072 74.2216V87.919H178.531C180.919 87.919 182.786 87.3269 184.13 86.1428C185.475 84.9587 186.147 83.3131 186.147 81.2058C186.147 76.65 183.819 74.322 179.163 74.2216H170.072ZM170.072 68.6223H177.538C179.906 68.6223 181.752 68.0904 183.077 67.0268C184.421 65.943 185.094 64.4177 185.094 62.4509C185.094 60.2834 184.472 58.718 183.227 57.7547C182.003 56.7914 180.086 56.3097 177.477 56.3097H170.072V68.6223ZM208.424 94H201.109V61.4274H208.424V94ZM200.657 52.9682C200.657 51.8443 201.009 50.9111 201.711 50.1685C202.434 49.4259 203.457 49.0546 204.782 49.0546C206.106 49.0546 207.13 49.4259 207.852 50.1685C208.575 50.9111 208.936 51.8443 208.936 52.9682C208.936 54.072 208.575 54.9952 207.852 55.7377C207.13 56.4602 206.106 56.8215 204.782 56.8215C203.457 56.8215 202.434 56.4602 201.711 55.7377C201.009 54.9952 200.657 54.072 200.657 52.9682ZM215.047 77.4127C215.047 74.2216 215.679 71.3517 216.944 68.8029C218.208 66.234 219.984 64.2672 222.272 62.9025C224.56 61.5177 227.189 60.8253 230.159 60.8253C234.555 60.8253 238.117 62.2402 240.846 65.07C243.596 67.8998 245.081 71.6528 245.302 76.3289L245.332 78.0448C245.332 81.2559 244.71 84.1259 243.465 86.6546C242.241 89.1833 240.475 91.1401 238.167 92.5249C235.879 93.9097 233.23 94.6021 230.22 94.6021C225.624 94.6021 221.941 93.0768 219.171 90.0263C216.422 86.9556 215.047 82.8715 215.047 77.7739V77.4127ZM222.362 78.0448C222.362 81.3964 223.055 84.0255 224.44 85.9321C225.824 87.8186 227.751 88.7619 230.22 88.7619C232.688 88.7619 234.605 87.7986 235.97 85.8719C237.354 83.9452 238.047 81.1255 238.047 77.4127C238.047 74.1213 237.334 71.5123 235.909 69.5856C234.504 67.6589 232.588 66.6956 230.159 66.6956C227.771 66.6956 225.875 67.6489 224.47 69.5555C223.065 71.442 222.362 74.2718 222.362 78.0448ZM258.397 61.4274L258.608 64.8292C260.896 62.1599 264.027 60.8253 268 60.8253C272.355 60.8253 275.336 62.4911 276.941 65.8226C279.309 62.4911 282.641 60.8253 286.936 60.8253C290.528 60.8253 293.197 61.8188 294.943 63.8056C296.709 65.7925 297.613 68.7226 297.653 72.596V94H290.337V72.8067C290.337 70.7396 289.886 69.2244 288.983 68.261C288.08 67.2977 286.584 66.816 284.497 66.816C282.832 66.816 281.467 67.2676 280.403 68.1707C279.36 69.0538 278.627 70.2178 278.206 71.6628L278.236 94H270.92V72.5659C270.82 68.7327 268.863 66.816 265.05 66.816C262.12 66.816 260.043 68.0102 258.819 70.3984V94H251.503V61.4274H258.397ZM319.508 94.6021C314.872 94.6021 311.109 93.1471 308.219 90.237C305.349 87.3069 303.914 83.4134 303.914 78.5566V77.6535C303.914 74.4023 304.537 71.5022 305.781 68.9534C307.045 66.3845 308.811 64.3876 311.079 62.9627C313.347 61.5378 315.876 60.8253 318.665 60.8253C323.101 60.8253 326.523 62.2402 328.931 65.07C331.359 67.8998 332.573 71.9036 332.573 77.0815V80.0317H311.29C311.511 82.721 312.404 84.8484 313.969 86.4138C315.555 87.9792 317.541 88.7619 319.93 88.7619C323.281 88.7619 326.011 87.4072 328.118 84.6978L332.062 88.4609C330.757 90.4076 329.011 91.9228 326.824 93.0066C324.656 94.0702 322.218 94.6021 319.508 94.6021ZM318.635 66.6956C316.628 66.6956 315.003 67.398 313.758 68.8029C312.534 70.2078 311.751 72.1645 311.41 74.6732H325.348V74.1313C325.188 71.6829 324.536 69.8365 323.392 68.5922C322.248 67.3278 320.662 66.6956 318.635 66.6956ZM351.659 88.7619C353.486 88.7619 355.001 88.2301 356.205 87.1664C357.409 86.1027 358.052 84.7882 358.132 83.2227H365.026C364.945 85.2498 364.313 87.1463 363.129 88.9124C361.945 90.6584 360.339 92.0432 358.312 93.0668C356.285 94.0903 354.098 94.6021 351.75 94.6021C347.194 94.6021 343.582 93.127 340.912 90.1768C338.243 87.2266 336.908 83.1525 336.908 77.9545V77.2019C336.908 72.2448 338.233 68.2811 340.882 65.3108C343.531 62.3205 347.144 60.8253 351.72 60.8253C355.593 60.8253 358.744 61.9592 361.172 64.2271C363.621 66.4749 364.905 69.4351 365.026 73.1078H358.132C358.052 71.2413 357.409 69.706 356.205 68.5019C355.021 67.2977 353.506 66.6956 351.659 66.6956C349.291 66.6956 347.465 67.5586 346.181 69.2846C344.896 70.9905 344.244 73.5894 344.224 77.0815V78.2556C344.224 81.7878 344.856 84.4269 346.12 86.1729C347.405 87.8989 349.251 88.7619 351.659 88.7619ZM377.76 64.9797C380.148 62.2101 383.168 60.8253 386.821 60.8253C393.765 60.8253 397.287 64.789 397.388 72.7164V94H390.072V72.9874C390.072 70.7396 389.581 69.1541 388.597 68.2309C387.634 67.2877 386.209 66.816 384.322 66.816C381.392 66.816 379.205 68.1205 377.76 70.7296V94H370.444V47.7602H377.76V64.9797ZM440.286 94H432.669L413.132 62.9025V94H405.516V50.1685H413.132L432.73 81.3864V50.1685H440.286V94ZM462.924 94.6021C458.288 94.6021 454.525 93.1471 451.635 90.237C448.765 87.3069 447.33 83.4134 447.33 78.5566V77.6535C447.33 74.4023 447.952 71.5022 449.197 68.9534C450.461 66.3845 452.227 64.3876 454.495 62.9627C456.763 61.5378 459.291 60.8253 462.081 60.8253C466.516 60.8253 469.938 62.2402 472.347 65.07C474.775 67.8998 475.989 71.9036 475.989 77.0815V80.0317H454.706C454.926 82.721 455.819 84.8484 457.385 86.4138C458.97 87.9792 460.957 88.7619 463.346 88.7619C466.697 88.7619 469.427 87.4072 471.534 84.6978L475.477 88.4609C474.173 90.4076 472.427 91.9228 470.239 93.0066C468.072 94.0702 465.633 94.6021 462.924 94.6021ZM462.051 66.6956C460.044 66.6956 458.418 67.398 457.174 68.8029C455.95 70.2078 455.167 72.1645 454.826 74.6732H468.764V74.1313C468.604 71.6829 467.951 69.8365 466.807 68.5922C465.664 67.3278 464.078 66.6956 462.051 66.6956ZM490.861 53.51V61.4274H496.611V66.8461H490.861V85.029C490.861 86.2733 491.101 87.1764 491.583 87.7384C492.085 88.2802 492.968 88.5512 494.232 88.5512C495.075 88.5512 495.928 88.4508 496.791 88.2501V93.9097C495.125 94.3713 493.52 94.6021 491.974 94.6021C486.355 94.6021 483.545 91.5014 483.545 85.2999V66.8461H478.187V61.4274H483.545V53.51H490.861Z" fill="black"/>
<defs>
<clipPath id="clip0_105_60">
<rect width="122" height="122" fill="white" transform="translate(13 12)"/>
</clipPath>
</defs>
</svg>
