<svg width="562" height="173" viewBox="0 0 562 173" fill="none" xmlns="http://www.w3.org/2000/svg">
<g clip-path="url(#clip0_123_2)">
<path d="M182.675 96.5753C181.119 96.5753 179.708 96.2823 178.44 95.6964C177.172 95.0998 176.165 94.2422 175.42 93.1236C174.674 91.9943 174.301 90.6307 174.301 89.0327C174.301 87.6264 174.578 86.4865 175.132 85.6129C175.686 84.7287 176.426 84.0362 177.353 83.5355C178.28 83.0348 179.303 82.6619 180.422 82.4169C181.551 82.1612 182.685 81.9588 183.825 81.8097C185.317 81.6179 186.526 81.4741 187.453 81.3782C188.39 81.2717 189.072 81.0959 189.498 80.8509C189.935 80.6058 190.153 80.1797 190.153 79.5724V79.4446C190.153 77.8679 189.722 76.6428 188.859 75.7692C188.007 74.8956 186.712 74.4588 184.976 74.4588C183.175 74.4588 181.764 74.853 180.741 75.6413C179.718 76.4297 178.999 77.2713 178.584 78.1662L175.004 76.8878C175.643 75.3963 176.496 74.2351 177.561 73.4041C178.637 72.5625 179.809 71.9766 181.077 71.6463C182.355 71.3054 183.612 71.1349 184.848 71.1349C185.636 71.1349 186.542 71.2308 187.565 71.4226C188.598 71.6037 189.594 71.9819 190.553 72.5572C191.522 73.1325 192.327 74.0007 192.966 75.1619C193.605 76.3232 193.925 77.8786 193.925 79.8281V96H190.153V92.6761H189.962C189.706 93.2088 189.28 93.7788 188.683 94.386C188.087 94.9933 187.293 95.5099 186.302 95.9361C185.311 96.3622 184.102 96.5753 182.675 96.5753ZM183.25 93.1875C184.741 93.1875 185.999 92.8945 187.021 92.3086C188.055 91.7227 188.832 90.9663 189.354 90.0394C189.887 89.1126 190.153 88.1378 190.153 87.1151V83.6634C189.994 83.8551 189.642 84.0309 189.099 84.1907C188.566 84.3398 187.948 84.473 187.245 84.5902C186.553 84.6967 185.876 84.7926 185.216 84.8778C184.566 84.9524 184.038 85.0163 183.634 85.0696C182.653 85.1974 181.737 85.4052 180.885 85.6928C180.043 85.9698 179.362 86.3906 178.839 86.9553C178.328 87.5092 178.072 88.2656 178.072 89.2244C178.072 90.5348 178.557 91.5256 179.527 92.1967C180.507 92.8572 181.748 93.1875 183.25 93.1875ZM210.077 96.5114C208.031 96.5114 206.225 95.9947 204.659 94.9613C203.093 93.9173 201.868 92.4471 200.984 90.5508C200.1 88.6438 199.658 86.3906 199.658 83.7912C199.658 81.2131 200.1 78.9759 200.984 77.0795C201.868 75.1832 203.099 73.7184 204.675 72.685C206.252 71.6516 208.074 71.1349 210.141 71.1349C211.739 71.1349 213.001 71.4013 213.928 71.9339C214.865 72.456 215.579 73.0526 216.069 73.7237C216.57 74.3842 216.959 74.9276 217.236 75.3537H217.555V63.2727H221.327V96H217.683V92.2287H217.236C216.959 92.6761 216.565 93.2408 216.053 93.9226C215.542 94.5937 214.812 95.1957 213.864 95.7283C212.916 96.2504 211.653 96.5114 210.077 96.5114ZM210.588 93.1236C212.101 93.1236 213.379 92.7294 214.423 91.9411C215.467 91.142 216.261 90.0394 216.804 88.6332C217.348 87.2163 217.619 85.581 217.619 83.7273C217.619 81.8949 217.353 80.2915 216.82 78.9173C216.288 77.5323 215.499 76.4563 214.455 75.6893C213.411 74.9116 212.122 74.5227 210.588 74.5227C208.99 74.5227 207.658 74.9329 206.593 75.7532C205.538 76.5629 204.745 77.6655 204.212 79.0611C203.69 80.446 203.429 82.0014 203.429 83.7273C203.429 85.4744 203.695 87.0618 204.228 88.4893C204.771 89.9062 205.57 91.0355 206.625 91.8771C207.69 92.7081 209.011 93.1236 210.588 93.1236ZM238.026 96.5114C235.98 96.5114 234.175 95.9947 232.609 94.9613C231.043 93.9173 229.817 92.4471 228.933 90.5508C228.049 88.6438 227.607 86.3906 227.607 83.7912C227.607 81.2131 228.049 78.9759 228.933 77.0795C229.817 75.1832 231.048 73.7184 232.625 72.685C234.201 71.6516 236.023 71.1349 238.09 71.1349C239.688 71.1349 240.95 71.4013 241.877 71.9339C242.815 72.456 243.528 73.0526 244.018 73.7237C244.519 74.3842 244.908 74.9276 245.185 75.3537H245.505V63.2727H249.276V96H245.632V92.2287H245.185C244.908 92.6761 244.514 93.2408 244.002 93.9226C243.491 94.5937 242.761 95.1957 241.813 95.7283C240.865 96.2504 239.603 96.5114 238.026 96.5114ZM238.537 93.1236C240.05 93.1236 241.328 92.7294 242.372 91.9411C243.416 91.142 244.21 90.0394 244.753 88.6332C245.297 87.2163 245.568 85.581 245.568 83.7273C245.568 81.8949 245.302 80.2915 244.769 78.9173C244.237 77.5323 243.448 76.4563 242.404 75.6893C241.36 74.9116 240.071 74.5227 238.537 74.5227C236.939 74.5227 235.608 74.9329 234.542 75.7532C233.487 76.5629 232.694 77.6655 232.161 79.0611C231.639 80.446 231.378 82.0014 231.378 83.7273C231.378 85.4744 231.644 87.0618 232.177 88.4893C232.72 89.9062 233.519 91.0355 234.574 91.8771C235.639 92.7081 236.96 93.1236 238.537 93.1236Z" fill="#868686"/>
<path d="M257.218 96V63.2727H260.989V75.3537H261.309C261.586 74.9276 261.969 74.3842 262.459 73.7237C262.96 73.0526 263.674 72.456 264.601 71.9339C265.538 71.4013 266.806 71.1349 268.404 71.1349C270.471 71.1349 272.293 71.6516 273.869 72.685C275.446 73.7184 276.676 75.1832 277.561 77.0795C278.445 78.9759 278.887 81.2131 278.887 83.7912C278.887 86.3906 278.445 88.6438 277.561 90.5508C276.676 92.4471 275.451 93.9173 273.885 94.9613C272.319 95.9947 270.513 96.5114 268.468 96.5114C266.891 96.5114 265.629 96.2504 264.681 95.7283C263.733 95.1957 263.003 94.5937 262.491 93.9226C261.98 93.2408 261.586 92.6761 261.309 92.2287H260.861V96H257.218ZM260.925 83.7273C260.925 85.581 261.197 87.2163 261.74 88.6332C262.284 90.0394 263.077 91.142 264.121 91.9411C265.165 92.7294 266.444 93.1236 267.957 93.1236C269.533 93.1236 270.849 92.7081 271.904 91.8771C272.969 91.0355 273.768 89.9062 274.301 88.4893C274.844 87.0618 275.116 85.4744 275.116 83.7273C275.116 82.0014 274.849 80.446 274.317 79.0611C273.795 77.6655 273.001 76.5629 271.936 75.7532C270.881 74.9329 269.555 74.5227 267.957 74.5227C266.422 74.5227 265.133 74.9116 264.089 75.6893C263.045 76.4563 262.257 77.5323 261.724 78.9173C261.192 80.2915 260.925 81.8949 260.925 83.7273ZM284.656 96V71.4545H288.427V96H284.656ZM286.573 67.3636C285.838 67.3636 285.204 67.1133 284.672 66.6126C284.15 66.1119 283.889 65.5099 283.889 64.8068C283.889 64.1037 284.15 63.5018 284.672 63.0011C285.204 62.5004 285.838 62.25 286.573 62.25C287.309 62.25 287.937 62.5004 288.459 63.0011C288.992 63.5018 289.258 64.1037 289.258 64.8068C289.258 65.5099 288.992 66.1119 288.459 66.6126C287.937 67.1133 287.309 67.3636 286.573 67.3636ZM305.306 96.5114C303.09 96.5114 301.146 95.984 299.473 94.9293C297.811 93.8746 296.512 92.3991 295.574 90.5028C294.647 88.6065 294.184 86.3906 294.184 83.8551C294.184 81.2983 294.647 79.0664 295.574 77.1594C296.512 75.2525 297.811 73.7717 299.473 72.717C301.146 71.6623 303.09 71.1349 305.306 71.1349C307.522 71.1349 309.461 71.6623 311.123 72.717C312.795 73.7717 314.095 75.2525 315.022 77.1594C315.96 79.0664 316.428 81.2983 316.428 83.8551C316.428 86.3906 315.96 88.6065 315.022 90.5028C314.095 92.3991 312.795 93.8746 311.123 94.9293C309.461 95.984 307.522 96.5114 305.306 96.5114ZM305.306 93.1236C306.989 93.1236 308.374 92.6921 309.461 91.8292C310.548 90.9663 311.352 89.8317 311.874 88.4254C312.396 87.0192 312.657 85.4957 312.657 83.8551C312.657 82.2145 312.396 80.6857 311.874 79.2688C311.352 77.8519 310.548 76.7067 309.461 75.8331C308.374 74.9595 306.989 74.5227 305.306 74.5227C303.623 74.5227 302.238 74.9595 301.151 75.8331C300.065 76.7067 299.26 77.8519 298.738 79.2688C298.216 80.6857 297.955 82.2145 297.955 83.8551C297.955 85.4957 298.216 87.0192 298.738 88.4254C299.26 89.8317 300.065 90.9663 301.151 91.8292C302.238 92.6921 303.623 93.1236 305.306 93.1236ZM322.185 96V71.4545H325.829V75.2898H326.148C326.66 73.9794 327.485 72.962 328.625 72.2376C329.765 71.5025 331.134 71.1349 332.732 71.1349C334.351 71.1349 335.699 71.5025 336.775 72.2376C337.862 72.962 338.709 73.9794 339.316 75.2898H339.571C340.2 74.022 341.143 73.0153 342.4 72.2695C343.657 71.5131 345.165 71.1349 346.922 71.1349C349.117 71.1349 350.912 71.8221 352.308 73.1964C353.703 74.56 354.401 76.6854 354.401 79.5724V96H350.63V79.5724C350.63 77.7614 350.134 76.467 349.144 75.6893C348.153 74.9116 346.986 74.5227 345.644 74.5227C343.918 74.5227 342.581 75.0447 341.633 76.0888C340.685 77.1222 340.211 78.4325 340.211 80.0199V96H336.375V79.1889C336.375 77.7933 335.923 76.6694 335.017 75.8171C334.112 74.9542 332.945 74.5227 331.517 74.5227C330.537 74.5227 329.621 74.7837 328.769 75.3058C327.927 75.8278 327.245 76.5522 326.723 77.479C326.212 78.3952 325.956 79.4553 325.956 80.6591V96H322.185ZM371.588 96.5114C369.223 96.5114 367.182 95.9893 365.467 94.9453C363.763 93.8906 362.447 92.4205 361.52 90.5348C360.604 88.6385 360.146 86.4332 360.146 83.919C360.146 81.4048 360.604 79.1889 361.52 77.2713C362.447 75.343 363.736 73.8409 365.387 72.7649C367.049 71.6783 368.988 71.1349 371.204 71.1349C372.483 71.1349 373.745 71.348 374.991 71.7741C376.238 72.2003 377.372 72.8928 378.395 73.8516C379.418 74.7997 380.233 76.0568 380.84 77.6229C381.447 79.1889 381.751 81.1172 381.751 83.4077V85.0057H362.831V81.7457H377.916C377.916 80.3608 377.639 79.125 377.085 78.0384C376.541 76.9517 375.764 76.0941 374.752 75.4656C373.75 74.837 372.568 74.5227 371.204 74.5227C369.702 74.5227 368.402 74.8956 367.305 75.6413C366.218 76.3764 365.382 77.3352 364.796 78.5178C364.21 79.7003 363.917 80.968 363.917 82.321V84.4943C363.917 86.348 364.237 87.9194 364.876 89.2085C365.526 90.4869 366.426 91.4616 367.577 92.1328C368.727 92.7933 370.064 93.1236 371.588 93.1236C372.578 93.1236 373.473 92.9851 374.272 92.7081C375.082 92.4205 375.78 91.9943 376.366 91.4297C376.952 90.8544 377.404 90.1406 377.724 89.2884L381.367 90.3111C380.984 91.5469 380.339 92.6335 379.434 93.571C378.528 94.4979 377.41 95.2223 376.078 95.7443C374.746 96.2557 373.25 96.5114 371.588 96.5114ZM397.459 96.5114C395.158 96.5114 393.177 95.968 391.515 94.8814C389.853 93.7947 388.574 92.2979 387.68 90.391C386.785 88.484 386.337 86.3054 386.337 83.8551C386.337 81.3622 386.795 79.1623 387.712 77.2553C388.638 75.3377 389.927 73.8409 391.579 72.7649C393.241 71.6783 395.18 71.1349 397.396 71.1349C399.121 71.1349 400.677 71.4545 402.062 72.0938C403.447 72.733 404.581 73.6278 405.465 74.7784C406.35 75.929 406.898 77.2713 407.111 78.8054H403.34C403.052 77.6868 402.413 76.696 401.422 75.8331C400.442 74.9595 399.121 74.5227 397.459 74.5227C395.989 74.5227 394.7 74.9062 393.592 75.6733C392.495 76.4297 391.637 77.5004 391.019 78.8853C390.412 80.2596 390.109 81.8736 390.109 83.7273C390.109 85.6236 390.407 87.2749 391.003 88.6811C391.611 90.0874 392.463 91.1793 393.56 91.957C394.668 92.7347 395.968 93.1236 397.459 93.1236C398.44 93.1236 399.329 92.9531 400.128 92.6122C400.927 92.2713 401.604 91.7812 402.158 91.142C402.712 90.5028 403.106 89.7358 403.34 88.8409H407.111C406.898 90.2898 406.371 91.5948 405.529 92.756C404.698 93.9066 403.596 94.8228 402.222 95.5046C400.858 96.1758 399.271 96.5114 397.459 96.5114ZM416.396 81.2344V96H412.625V63.2727H416.396V75.2898H416.715C417.291 74.022 418.154 73.0153 419.304 72.2695C420.465 71.5131 422.01 71.1349 423.938 71.1349C425.611 71.1349 427.076 71.4705 428.333 72.1417C429.59 72.8022 430.565 73.8196 431.257 75.1939C431.96 76.5575 432.312 78.294 432.312 80.4034V96H428.541V80.6591C428.541 78.7095 428.035 77.2021 427.023 76.1367C426.021 75.0607 424.631 74.5227 422.852 74.5227C421.616 74.5227 420.508 74.7837 419.528 75.3058C418.559 75.8278 417.791 76.5895 417.227 77.5909C416.673 78.5923 416.396 79.8068 416.396 81.2344ZM446.434 96.5753C444.879 96.5753 443.468 96.2823 442.2 95.6964C440.932 95.0998 439.925 94.2422 439.18 93.1236C438.434 91.9943 438.061 90.6307 438.061 89.0327C438.061 87.6264 438.338 86.4865 438.892 85.6129C439.446 84.7287 440.186 84.0362 441.113 83.5355C442.04 83.0348 443.063 82.6619 444.181 82.4169C445.311 82.1612 446.445 81.9588 447.585 81.8097C449.077 81.6179 450.286 81.4741 451.213 81.3782C452.15 81.2717 452.832 81.0959 453.258 80.8509C453.695 80.6058 453.913 80.1797 453.913 79.5724V79.4446C453.913 77.8679 453.482 76.6428 452.619 75.7692C451.767 74.8956 450.472 74.4588 448.736 74.4588C446.935 74.4588 445.524 74.853 444.501 75.6413C443.478 76.4297 442.759 77.2713 442.344 78.1662L438.764 76.8878C439.403 75.3963 440.256 74.2351 441.321 73.4041C442.397 72.5625 443.569 71.9766 444.836 71.6463C446.115 71.3054 447.372 71.1349 448.608 71.1349C449.396 71.1349 450.302 71.2308 451.324 71.4226C452.358 71.6037 453.354 71.9819 454.313 72.5572C455.282 73.1325 456.086 74.0007 456.726 75.1619C457.365 76.3232 457.684 77.8786 457.684 79.8281V96H453.913V92.6761H453.721C453.466 93.2088 453.04 93.7788 452.443 94.386C451.846 94.9933 451.053 95.5099 450.062 95.9361C449.071 96.3622 447.862 96.5753 446.434 96.5753ZM447.01 93.1875C448.501 93.1875 449.758 92.8945 450.781 92.3086C451.814 91.7227 452.592 90.9663 453.114 90.0394C453.647 89.1126 453.913 88.1378 453.913 87.1151V83.6634C453.753 83.8551 453.402 84.0309 452.858 84.1907C452.326 84.3398 451.708 84.473 451.005 84.5902C450.312 84.6967 449.636 84.7926 448.975 84.8778C448.325 84.9524 447.798 85.0163 447.393 85.0696C446.413 85.1974 445.497 85.4052 444.645 85.6928C443.803 85.9698 443.121 86.3906 442.599 86.9553C442.088 87.5092 441.832 88.2656 441.832 89.2244C441.832 90.5348 442.317 91.5256 443.286 92.1967C444.267 92.8572 445.508 93.1875 447.01 93.1875ZM468.339 81.2344V96H464.568V71.4545H468.211V75.2898H468.531C469.106 74.0433 469.98 73.0419 471.152 72.2855C472.324 71.5185 473.836 71.1349 475.69 71.1349C477.352 71.1349 478.806 71.4759 480.053 72.1577C481.299 72.8288 482.269 73.8516 482.961 75.2259C483.653 76.5895 484 78.3153 484 80.4034V96H480.228V80.6591C480.228 78.7308 479.728 77.2287 478.726 76.1527C477.725 75.0661 476.351 74.5227 474.603 74.5227C473.4 74.5227 472.324 74.7837 471.375 75.3058C470.438 75.8278 469.698 76.5895 469.154 77.5909C468.611 78.5923 468.339 79.8068 468.339 81.2344ZM490.891 96V71.4545H494.662V96H490.891ZM492.809 67.3636C492.074 67.3636 491.44 67.1133 490.907 66.6126C490.385 66.1119 490.124 65.5099 490.124 64.8068C490.124 64.1037 490.385 63.5018 490.907 63.0011C491.44 62.5004 492.074 62.25 492.809 62.25C493.544 62.25 494.172 62.5004 494.694 63.0011C495.227 63.5018 495.493 64.1037 495.493 64.8068C495.493 65.5099 495.227 66.1119 494.694 66.6126C494.172 67.1133 493.544 67.3636 492.809 67.3636ZM511.541 96.5114C509.24 96.5114 507.259 95.968 505.597 94.8814C503.935 93.7947 502.657 92.2979 501.762 90.391C500.867 88.484 500.419 86.3054 500.419 83.8551C500.419 81.3622 500.877 79.1623 501.794 77.2553C502.72 75.3377 504.009 73.8409 505.661 72.7649C507.323 71.6783 509.262 71.1349 511.478 71.1349C513.203 71.1349 514.759 71.4545 516.144 72.0938C517.529 72.733 518.663 73.6278 519.547 74.7784C520.432 75.929 520.98 77.2713 521.193 78.8054H517.422C517.134 77.6868 516.495 76.696 515.505 75.8331C514.524 74.9595 513.203 74.5227 511.541 74.5227C510.071 74.5227 508.782 74.9062 507.674 75.6733C506.577 76.4297 505.719 77.5004 505.101 78.8853C504.494 80.2596 504.191 81.8736 504.191 83.7273C504.191 85.6236 504.489 87.2749 505.085 88.6811C505.693 90.0874 506.545 91.1793 507.642 91.957C508.75 92.7347 510.05 93.1236 511.541 93.1236C512.522 93.1236 513.411 92.9531 514.21 92.6122C515.009 92.2713 515.686 91.7812 516.24 91.142C516.794 90.5028 517.188 89.7358 517.422 88.8409H521.193C520.98 90.2898 520.453 91.5948 519.611 92.756C518.78 93.9066 517.678 94.8228 516.304 95.5046C514.94 96.1758 513.353 96.5114 511.541 96.5114ZM544.093 76.9517L540.705 77.9105C540.492 77.3459 540.178 76.7972 539.762 76.2646C539.358 75.7212 538.804 75.2738 538.1 74.9222C537.397 74.5707 536.497 74.3949 535.4 74.3949C533.898 74.3949 532.646 74.7411 531.644 75.4336C530.654 76.1154 530.158 76.9837 530.158 78.0384C530.158 78.9759 530.499 79.7163 531.181 80.2596C531.863 80.8029 532.928 81.2557 534.377 81.6179L538.021 82.5128C540.215 83.0455 541.85 83.8604 542.926 84.9577C544.002 86.0444 544.54 87.4453 544.54 89.1605C544.54 90.5668 544.136 91.8239 543.326 92.9318C542.527 94.0398 541.408 94.9134 539.97 95.5526C538.532 96.1918 536.859 96.5114 534.952 96.5114C532.449 96.5114 530.377 95.968 528.736 94.8814C527.095 93.7947 526.057 92.2074 525.62 90.1193L529.199 89.2244C529.54 90.5455 530.185 91.5362 531.133 92.1967C532.092 92.8572 533.344 93.1875 534.888 93.1875C536.646 93.1875 538.042 92.8146 539.075 92.0689C540.119 91.3125 540.641 90.407 540.641 89.3523C540.641 88.5 540.343 87.7862 539.746 87.2109C539.15 86.625 538.234 86.1882 536.998 85.9006L532.907 84.9418C530.659 84.4091 529.008 83.5835 527.953 82.4648C526.909 81.3356 526.387 79.924 526.387 78.2301C526.387 76.8452 526.776 75.62 527.554 74.5547C528.342 73.4893 529.413 72.6531 530.766 72.0458C532.129 71.4386 533.674 71.1349 535.4 71.1349C537.829 71.1349 539.736 71.6676 541.121 72.733C542.516 73.7983 543.507 75.2045 544.093 76.9517Z" fill="#0D6EFD"/>
<path fill-rule="evenodd" clip-rule="evenodd" d="M72.1755 144.022C108.803 144.022 138.495 115.979 138.495 81.3871C138.495 46.7949 108.803 18.7523 72.1755 18.7523C35.5484 18.7523 5.85634 46.7949 5.85634 81.3871C5.85634 115.979 35.5484 144.022 72.1755 144.022ZM72.1755 138.864C99.8493 138.864 122.283 113.625 122.283 82.4924C122.283 51.3594 99.8493 26.1211 72.1755 26.1211C44.5017 26.1211 22.0677 51.3594 22.0677 82.4924C22.0677 113.625 44.5017 138.864 72.1755 138.864Z" fill="#D9D9D9"/>
<path d="M42.1598 135.165L-2.3579 114L36.9324 86.15L42.1598 135.165Z" fill="#0D6EFD"/>
<path d="M82.8603 21.3314C37.5422 16.9102 13.6494 63.8672 26.489 100.546L9.72337 108.494C-5.65012 53.1051 36.0684 11.3836 82.8603 21.3314Z" fill="#0D6EFD"/>
<path d="M111.827 32.5674L150.306 51.1631L116.088 75.0914L111.827 32.5674Z" fill="#0D6EFD"/>
<path d="M66.6489 140.706C104.23 147.338 137.731 98.987 124.891 62.3082L135.934 57.2211C151.308 112.61 103.861 154.338 66.6489 140.706Z" fill="#0D6EFD"/>
<path d="M90.4254 75.373C91.0278 80.1861 87.7833 93.3074 86.5477 97.5872C85.8282 100.089 84.6463 104.322 83.8347 107.726C83.8251 107.758 83.8078 107.768 83.7963 107.8C83.3665 109.086 82.8139 108.581 82.8159 107.202C83.8539 103.329 85.9874 95.6785 87.1137 90.7215C88.5278 84.5042 90.6844 71.3292 88.453 73.2571C88.453 73.2571 85.1874 77.8879 82.5511 83.923C82.5799 83.8386 82.5933 83.7465 82.6221 83.6621C82.4302 84.0879 82.1769 84.7248 81.8853 85.5152C81.868 85.5574 81.8488 85.5977 81.8316 85.6418C81.797 85.7319 81.7644 85.8374 81.7299 85.9334C79.1128 93.1021 73.5793 111.334 75.12 113.833C75.12 113.833 75.9201 115.441 75.498 118.449C75.4366 118.503 75.381 118.541 75.3157 118.629C73.3433 121.284 73.1802 127.408 73.7731 128.628C73.6407 130.038 73.5889 131.348 73.6964 132.372C73.5371 134.759 73.2224 140.159 73.1073 142.476C72.4204 143.441 72.1844 143.769 72.1844 144.189C71.7028 144.423 71.2328 144.857 70.8452 145.048C70.7032 145.119 70.3866 145.749 70.1449 146.284C69.8225 146.999 69.6403 148.778 69.74 149.863C69.5961 150.226 69.4637 150.55 69.3697 150.761C69.2143 151.11 67.7504 153.462 66.8985 154.389C66.0696 155.294 65.5362 157.663 65.6609 158.131C65.3501 159.079 65.3194 161.703 65.1218 162.778C64.9165 163.911 66.6682 164.117 66.6682 164.117C66.6682 164.117 67.2227 163.637 67.5086 163.733C68.0477 163.911 68.3682 163.576 68.5197 162.879C68.6406 162.346 69.1702 160.771 69.4081 160.211C69.4676 160.211 69.5194 160.238 69.5616 160.288C69.6249 160.685 69.74 161.36 69.3697 162.34C68.9054 163.576 70.4001 162.862 70.8049 162.054C71.0447 161.575 71.2999 161.801 71.5282 161.569C71.7662 161.339 72.9039 161.335 73.0843 160.136C73.5237 159.937 73.9995 156.745 74.0436 156.299C74.1933 155.772 74.3199 155.018 74.3871 154.542C74.7747 153.541 76.3173 150.761 76.3173 149.91C76.3173 149.89 76.3115 149.885 76.3115 149.865C76.7931 148.887 77.221 147.939 77.4013 147.128C77.7122 146.666 77.6412 144.249 77.3821 143.318C77.952 141.454 78.8116 138.958 79.6174 136.805C80.7552 133.757 85.7745 121.148 83.7253 116.661C83.7963 114.211 83.6428 113.559 84.5772 110.891C86.1122 107.985 88.4779 102.373 90.5194 96.0813C93.7524 86.1003 90.7573 68.8948 90.7573 68.8948C90.0992 67.1741 89.8229 70.5637 90.4254 75.373Z" fill="black"/>
<path d="M60.2417 98.7394C59.6123 99.0253 58.2386 100.111 56.5425 101.391C54.8483 102.672 51.692 104.517 53.0351 104.46C53.0351 104.46 57.686 104.005 59.1077 101.686C60.5256 99.3667 60.871 98.4536 60.2417 98.7394Z" fill="black"/>
<path d="M52.6849 45.4272C52.9267 45.3562 53.1915 45.174 53.4658 44.9553C54.5557 44.7903 56.0388 44.3721 56.601 44.0192C57.2514 43.6087 61.4974 40.9479 60.7338 40.7657C60.2023 40.641 60.8624 39.9562 61.1137 39.5898C62.1786 39.0143 62.6813 38.5174 61.5857 38.481C59.5538 38.41 56.1347 39.678 54.358 41.934C53.4697 43.06 52.7003 44.0326 52.3261 44.6772C52.307 44.704 52.2743 44.7366 52.2609 44.7558C52.2456 44.7807 52.2705 44.7903 52.2628 44.8114C51.9808 45.3543 52.0364 45.6191 52.6849 45.4272Z" fill="black"/>
<path d="M85.7279 34.6142C87.1919 34.4147 90.5016 35.6961 92.2841 35.3163C93.6751 35.0189 95.1314 34.6353 94.9088 34.1749C94.9242 34.1787 94.9376 34.1787 94.953 34.1845C94.953 34.1845 94.8992 34.1538 94.882 34.1423C94.8071 34.0272 94.6479 33.9121 94.3409 33.7893C93.9303 33.5188 93.3911 33.1505 92.9191 32.7822C92.0423 32.0954 89.5212 32.1952 88.3795 32.3352C87.4068 32.4561 86.3496 32.7476 85.7682 33.091C85.4017 33.2023 85.0794 33.3423 84.8185 33.5265C83.65 34.3494 84.2678 34.8137 85.7279 34.6142Z" fill="black"/>
<path d="M77.8247 37.3025C78.6248 37.5193 81.5412 36.0326 81.5124 35.505C81.4874 34.9851 80.9022 35.4187 79.68 35.2422C78.4521 35.0676 78.2468 33.5157 78.2468 33.5157C78.0127 34.4173 77.0207 37.0819 77.8247 37.3025Z" fill="black"/>
<path d="M71.8155 92.6809C71.7484 92.771 71.6659 92.888 71.5795 93.0204C70.3784 93.9316 68.005 97.1237 68.005 97.6436C68.005 98.2593 67.391 99.0842 67.391 99.0842L67.1819 99.9091C67.1819 99.9091 67.5963 100.73 68.2122 100.32C68.83 99.9072 69.0373 98.877 69.1409 97.8488C69.2349 96.8513 70.0062 95.9669 70.6259 95.9132C70.695 95.9478 70.7679 95.9842 70.8888 95.9746C72.1244 95.8691 73.667 94.532 73.149 93.6055C72.6367 92.6809 72.1244 92.2665 71.8155 92.6809Z" fill="black"/>
<path d="M62.5707 15.8002C63.4744 15.5891 64.3781 13.9969 65.4392 13.5691C66.5021 13.1452 70.8575 12.4028 69.7428 12.2954C69.2036 12.2436 66.0225 11.8714 65.2818 12.4028C64.5355 12.9323 64.2189 13.6766 63.6375 13.6766C63.0504 13.6766 61.1375 13.9413 61.5615 13.1989C61.9875 12.4565 61.2948 12.3472 60.9782 12.7193C60.6578 13.0915 60.395 14.3135 60.7691 14.8448C61.1375 15.3762 61.667 16.0131 62.5707 15.8002Z" fill="black"/>
<path d="M76.2843 18.0611C76.6047 18.3258 76.9232 18.9646 76.9232 18.9646C76.9232 18.9646 77.6638 17.3705 77.0824 16.0411C76.4992 14.7136 76.5491 17.2113 76.1768 15.4598C75.8084 13.7046 75.3288 14.3951 74.8491 13.9194C74.3733 13.4379 74.4807 14.1285 74.8491 14.8229C74.8491 14.8229 75.9639 17.7925 76.2843 18.0611Z" fill="black"/>
<path d="M90.0488 36.8153C89.1432 36.6638 85.5859 35.0063 83.5886 35.8677C81.5912 36.729 79.3502 37.7553 78.3947 38.2349C77.4373 38.7144 80.3096 39.6679 83.7843 38.7336C87.261 37.8013 91.0484 36.9822 90.0488 36.8153Z" fill="black"/>
<path d="M87.255 43.1829C86.2573 44.378 83.6882 47.4627 81.545 47.6679C79.4057 47.8713 78.5883 48.278 78.3849 46.444C78.1815 44.6101 79.302 45.2221 78.6919 44.4068C78.0798 43.5896 76.5507 43.4879 76.754 42.4693C76.9593 41.4506 77.2644 41.1437 77.061 40.5318C76.8557 39.9217 77.3661 39.6148 78.0798 40.0234C78.7936 40.4301 82.7691 40.5318 84.2983 39.9217C85.8275 39.3079 84.0316 40.48 83.6882 40.9404C83.0742 41.7557 84.0508 41.9437 84.5305 41.443C85.887 40.0273 88.9818 37.9957 91.054 37.6409C93.1262 37.2879 95.1427 37.6428 94.4155 37.7924C91.4204 38.4101 91.0079 38.2509 90.7067 39.5573C90.4035 40.8636 89.425 40.8943 88.3947 41.7326C87.867 42.1643 87.7654 42.5709 87.255 43.1829Z" fill="black"/>
<path d="M91.5851 43.6831C91.5333 43.5871 91.4853 43.5277 91.4431 43.4874C91.4392 43.4452 91.6637 40.7634 91.5448 40.5619C91.0651 39.7639 90.0501 42.4342 89.4784 42.9771C88.9066 43.52 86.3202 46.8003 85.6276 47.1974C85.0692 47.5159 88.7723 48.9623 88.7588 49.6375C88.7454 50.3147 87.882 50.8192 87.7343 51.0302C87.6268 50.871 87.1798 50.6888 86.631 50.5372C86.6732 50.4931 85.9307 49.3997 85.1133 49.298C84.6529 49.2404 81.7499 48.7877 80.0173 48.8913C78.2828 48.993 76.5503 50.215 77.1623 50.7252C77.3216 50.8576 71.6077 50.5449 73.797 49.204C74.2958 49.1311 74.762 49.1023 75.2129 49.1407C76.4486 49.2404 74.9251 47.0747 75.165 46.4742C75.1784 46.4416 75.1611 46.4167 75.1611 46.386C75.5449 45.9332 75.3837 44.013 74.9059 43.3742C74.2862 42.5493 73.8046 42.8869 71.7478 43.2975C69.6852 43.708 70.4757 42.9618 71.6097 42.5493C72.7436 42.1388 74.2862 40.3874 73.254 39.9768C73.0985 39.9155 72.8587 39.9308 72.5863 39.9768C72.9182 39.8195 73.2367 39.6507 73.5418 39.457C73.6991 39.48 74.4167 38.8393 74.6699 38.6168C74.7525 39.2018 75.0153 39.3169 75.4624 38.3904C76.2797 36.6965 77.4156 34.5499 77.6017 32.4014C77.7859 30.2471 77.6765 29.3723 77.4405 29.944C77.4405 29.944 76.1531 32.7371 75.3684 34.8722C74.6239 34.876 74.3745 33.6656 74.762 32.9865C75.0364 32.5069 74.9175 31.8374 74.7659 31.3463C75.33 31.0048 75.8058 30.5886 76.1416 30.0495C76.9743 28.6952 77.6151 27.6574 77.0165 25.8234C76.5925 24.5305 77.3734 23.9109 77.3734 23.9109C77.3734 23.9109 77.0165 19.2532 76.0207 20.1299C76.0207 20.1299 74.8043 18.4532 74.3054 17.3943C73.8795 16.4889 73.5878 14.5916 72.5939 13.9931C71.6327 13.4157 68.4918 13.0781 66.1817 14.3519C65.397 14.7835 63.6126 16.4582 63.3516 17.3291C63.0907 18.2 61.9874 22.0137 60.8228 21.5878C59.6505 21.1658 60.182 20.4195 60.4986 20.5807C60.8228 20.7399 61.0857 20.3677 61.0857 20.3677L61.1375 19.4124C61.1375 19.4124 58.6432 19.4623 59.2821 21.3768C59.9191 23.2874 60.182 22.969 61.2468 23.3411C62.3079 23.7133 62.7319 21.1638 62.7319 22.1729C62.7319 23.1819 61.7745 23.8725 62.4671 24.5113C63.1578 25.1463 64.0596 24.1392 63.9023 24.989C63.743 25.8369 62.4671 28.6012 62.7875 29.2899C63.1041 29.9805 63.6855 30.5118 63.6356 29.3417C63.5819 28.1753 63.9541 28.2808 64.1671 28.4938C64.3781 28.7048 64.5911 29.9805 65.0151 30.1953C65.4392 30.4044 65.7078 29.5565 66.2393 29.451C66.7304 29.3493 66.9511 29.403 67.2389 30.3891C67.2466 30.4888 68.6069 32.8273 68.6146 34.5231C68.5705 34.5307 68.2596 36.1249 67.5938 36.9133C66.9281 37.7036 66.4637 37.8264 65.938 38.0739C64.1613 38.9103 64.2227 39.1385 65.0861 39.34C63.8927 40.0517 62.9813 41.8722 61.3351 42.5992C59.2399 43.5238 58.0388 44.366 57.373 44.6595C56.7053 44.9549 57.9697 44.6825 58.7526 45.0182C58.7698 45.0259 58.789 45.0297 58.8082 45.0374C58.5127 45.1467 58.2134 45.2599 57.9026 45.3923C57.8373 45.3251 57.7088 45.3117 57.4996 45.3865C56.3024 45.8162 53.7007 45.7932 51.4136 47.1015C49.1303 48.4136 45.8686 50.9228 44.0439 52.4038C42.2135 53.8847 41.8643 55.1067 40.974 56.1579C40.6056 56.5934 40.2622 57.0365 40.078 57.3722C39.8708 57.4643 38.4797 57.6849 36.7203 58.5577C35.3542 59.2349 29.46 62.1488 28.3548 62.9603C27.2439 63.7698 21.7392 66.9869 19.4541 68.1455C18.984 68.3853 18.7729 68.5561 18.7441 68.6673C18.3355 68.8189 17.9441 68.9704 17.6543 69.0989C17.3262 69.0222 17.0154 69.0318 16.6374 69.2045C15.8508 69.5613 14.9452 69.0663 14.1412 69.8874C13.3411 70.7103 12.7118 70.9942 12.1765 70.8235C11.6412 70.6509 10.49 70.4533 10.5494 70.9943C10.607 71.5391 11.7966 72.8186 12.3549 72.3754C12.7272 72.0762 13.155 72.0666 13.6155 71.9112C13.8726 72.291 14.0261 72.0532 13.439 72.9548C13.1128 73.561 12.7981 73.7029 12.1592 74.2995C11.5203 74.8942 9.53255 76.3963 9.20061 77.0005C8.87444 77.6086 9.01259 78.0249 9.47691 78.0403C9.93547 78.0575 10.8104 77.4187 11.2901 76.9737C11.7678 76.5286 12.495 75.6232 13.1243 75.3373C13.7517 75.0496 14.0568 75.1378 13.5771 75.6635C13.0936 76.1852 12.2782 77.3919 11.5587 78.14C10.8373 78.8901 10.3653 79.8627 11.0982 80.2617C11.6009 80.5379 12.1304 79.4713 12.4585 78.8671C12.7905 78.2609 13.5867 77.5952 14.1508 76.918C14.7149 76.2447 15.2771 76.3924 14.8722 76.9967C14.4597 77.599 13.3642 79.4406 13.1819 80.2828C12.9977 81.1268 13.3258 81.9882 13.8956 81.2343C14.4636 80.4842 14.6055 79.3562 15.3308 78.4546C16.0599 77.5511 16.294 77.4571 16.5914 77.7774C16.624 77.812 16.6528 77.8062 16.6816 77.7909C16.7564 78.3779 16.8696 79.1318 16.9636 79.7284C16.6624 80.5974 16.6854 81.2362 16.8523 82.1647C17.0423 83.2523 17.9345 82.0975 18.017 80.4554C18.088 79.0627 18.2261 78.9169 18.5542 78.3894C18.8804 77.8561 19.8148 75.5733 20.4844 73.9753C21.1598 72.3774 20.6129 72.5884 21.0984 72.0666C21.578 71.5391 21.6605 71.3894 26.5801 69.8663C29.9684 68.8169 34.0476 66.9216 36.8757 65.4311C38.1766 64.8805 39.3681 64.3242 39.7768 63.7641C39.7768 63.7641 40.7917 62.9123 40.9529 62.8337C41.4288 62.9891 42.6011 62.6016 42.6145 62.1661C42.981 61.9398 44.9438 59.9236 45.8225 59.3634C46.7013 58.8052 49.8211 57.8249 50.9397 57.2341C52.0583 56.6471 53.2574 56.0869 55.343 54.6693C57.3826 53.2843 58.7487 52.3942 58.9348 51.3966C59.0711 50.7022 59.3473 48.8165 59.781 47.9743C60.2127 47.1341 60.6981 46.3841 60.7902 45.5899C60.9341 45.7798 61.1663 46.0733 61.4349 46.4167C61.2277 46.7159 61.2104 47.2511 61.4694 48.124C61.2833 47.512 61.7515 50.3166 62.1314 51.3717C62.4556 52.2656 64.3724 56.4054 64.9307 57.2859C65.489 58.1645 65.75 61.8918 66.151 64.706C65.9457 65.9184 65.7519 68.9627 65.8901 69.3541C66.5347 74.2707 65.9188 73.6377 65.9534 73.7912C65.725 74.1787 64.4242 75.6308 63.7315 76.0951C51.7033 84.1156 44.7922 94.4036 43.2438 99.0594C42.6682 100.792 42.1943 102.526 42.6605 103.88C42.7488 104.137 42.8601 104.36 42.9771 104.557C42.9848 104.592 42.9829 104.626 42.9944 104.659C43.1824 105.263 43.6813 105.482 44.3643 105.444C45.3275 105.986 46.7953 106.364 47.3172 106.209C48.4032 105.885 55.581 101.079 60.0745 96.2931C62.5132 93.7015 64.5278 90.2964 66.08 85.445C66.3678 84.5415 66.8187 82.2165 66.6076 79.7456C67.2005 81.1345 67.8068 86.3389 66.9607 88.6716C64.8693 94.4285 61.9165 96.8993 62.3712 97.0911C62.753 97.2484 65.0439 97.1506 67.0739 95.2668C69.0002 93.4713 74.5011 88.2515 74.9098 85.7097C75.4202 84.5184 75.589 83.6092 76.2011 82.3833C76.5445 81.6966 76.8227 81.3264 77.0031 81.2093C76.5656 82.792 74.906 89.2049 75.4067 94.0679C75.9823 99.6502 74.668 103.924 75.7444 101.488C76.1915 100.471 76.9685 98.0868 76.8822 94.582C76.8803 94.5302 76.8803 94.4688 76.8803 94.4132C76.9206 94.3537 76.9647 94.2578 77.0107 94.0813C77.548 92.0882 79.8082 84.9079 81.6156 81.8827C83.4211 78.8594 87.7957 73.1639 87.8743 70.9789C87.8954 70.3996 86.6157 72.0282 85.0596 74.1019C84.7162 74.2132 84.7334 73.7125 84.8179 73.2598C84.8351 73.2157 84.8812 73.162 84.8927 73.1217C85.3398 72.3735 85.8578 71.7251 86.3567 71.1765C87.3889 70.1425 88.661 69.1162 89.1522 68.8342C89.9926 68.3546 90.5797 66.4171 89.6318 64.9976C89.4016 64.6542 90.0482 64.4125 90.1038 61.7287C90.2784 59.8411 90.3686 57.6293 90.2151 57.5142C90.2228 56.8389 90.217 56.1944 90.1806 55.6707C90.1979 54.4851 90.2017 53.0483 90.1403 51.8129C90.1365 51.717 90.125 51.6806 90.1173 51.6134C90.313 51.0149 90.5643 50.3512 90.7907 49.7584C91.0133 49.603 91.2954 49.1733 91.4757 48.6227C91.8901 47.3893 91.5851 43.6831 91.5851 43.6831Z" fill="black"/>
<path d="M93.2209 36.4107C95.5176 35.7201 98.2441 35.5743 100.846 35.9733C103.448 36.3704 107.156 36.8538 108.534 37.3622C109.912 37.8724 112.517 39.5855 113.106 39.8349C113.695 40.0804 112.394 39.8828 110.257 40.0248C108.121 40.1648 103.288 38.4863 101.584 38.2561C99.8826 38.0259 96.6899 37.3813 95.485 37.2873C94.2762 37.1972 91.874 36.8154 93.2209 36.4107Z" fill="black"/>
<path d="M98.4992 39.1235C96.0491 39.7392 94.7175 39.3556 92.9485 40.0327C91.1756 40.7099 91.3541 39.7105 92.607 39.1983C93.8599 38.6842 96.003 38.4424 97.1082 38.523C98.2172 38.6074 99.4298 38.8894 98.4992 39.1235Z" fill="black"/>
<path d="M98.8346 40.7363C100.295 40.9588 103.998 42.7352 102.49 43.4143C100.978 44.0934 99.2721 43.633 97.3438 43.5025C95.4136 43.374 95.8952 42.2748 93.6331 42.6431C91.369 43.0095 91.9466 41.9218 92.5625 41.5286C93.1764 41.1353 95.7705 40.2682 98.8346 40.7363Z" fill="black"/>
<path d="M100.259 40.1631C102.442 40.635 103.271 42.5552 105.571 43.1096C107.866 43.6659 111.024 43.6046 111.704 44.0439C112.383 44.4812 113.532 44.0784 113.532 44.0784C113.532 44.0784 112.945 42.4747 111.475 41.7841C110.002 41.0916 105.721 39.9022 103.396 39.7353C101.068 39.5665 99.6332 40.0288 100.259 40.1631Z" fill="black"/>
<path d="M138.051 45.6501C138.09 44.4377 137.66 42.2182 136.34 41.3185C136.192 40.8178 135.404 40.4898 135.308 39.945C135.204 39.3177 134.995 38.9916 134.485 38.5695C133.974 38.1418 133.635 38.5024 133.917 38.911C134.193 39.3196 133.748 40.1368 134.047 40.2366C134.35 40.3363 134.456 40.5013 134.542 41.4394C134.323 41.7098 134.41 41.8134 134.174 41.9266C133.965 41.8806 133.694 41.8576 133.329 41.8863C132.357 41.5698 128.469 41.4624 126.591 40.8946C126.395 40.7718 123.141 40.0869 121.23 39.4251C119.315 38.7633 111.424 38.8055 110.979 38.7403C110.979 38.7403 113.866 40.4975 113.323 40.9655C113.323 40.9655 112.955 41.848 113.534 42.1933C114.116 42.5405 113.924 43.7414 116.224 44.1173C118.525 44.4914 128.763 44.2516 130.561 44.5912C130.576 44.595 130.592 44.595 130.607 44.5988L130.95 44.7005C132.115 44.9211 133.182 44.8329 133.552 44.6161C134.483 44.8866 134.698 45.2108 135.123 45.5062C135.344 45.6597 135.538 45.7767 135.734 45.8995C136.071 46.6534 136.021 47.3363 136.1 47.4936C136.202 47.7929 136.161 48.0039 136.491 47.9099C136.545 47.9578 136.597 47.8696 136.639 47.7507C136.762 47.5377 136.877 47.1598 136.958 46.8548C137.142 47.0946 137.278 47.3651 137.276 47.7583C137.267 48.9208 137.608 50.4919 137.572 51.0329C137.529 51.57 138.491 51.102 138.495 49.0129C138.5 46.9219 138.308 46.3656 138.051 45.6501Z" fill="black"/>
<path d="M94.9017 39.1234C94.9823 39.603 92.8238 41.0417 94.9017 40.8019C96.9797 40.5621 93.0636 42.3999 93.0636 42.3999C93.0636 42.3999 91.7033 42.561 91.544 44.3182C91.3848 46.0773 89.8652 44.0784 90.1856 43.1192C90.5041 42.1601 90.5828 40.2418 91.9431 39.603C93.3035 38.9642 94.8212 38.6438 94.9017 39.1234" fill="black"/>
</g>
<defs>
<clipPath id="clip0_123_2">
<rect width="562" height="173" fill="white"/>
</clipPath>
</defs>
</svg>
