<?xml version="1.0" encoding="UTF-8" standalone="no"?>
<svg
   width="562"
   height="173"
   viewBox="0 0 562 173"
   fill="none"
   version="1.1"
   id="svg3712"
   sodipodi:docname="logo-with-text.svg"
   inkscape:version="1.2.1 (9c6d41e410, 2022-07-14)"
   xmlns:inkscape="http://www.inkscape.org/namespaces/inkscape"
   xmlns:sodipodi="http://sodipodi.sourceforge.net/DTD/sodipodi-0.dtd"
   xmlns:xlink="http://www.w3.org/1999/xlink"
   xmlns="http://www.w3.org/2000/svg"
   xmlns:svg="http://www.w3.org/2000/svg">
  <sodipodi:namedview
     id="namedview3714"
     pagecolor="#ffffff"
     bordercolor="#000000"
     borderopacity="0.25"
     inkscape:showpageshadow="2"
     inkscape:pageopacity="0.0"
     inkscape:pagecheckerboard="0"
     inkscape:deskcolor="#d1d1d1"
     showgrid="false"
     inkscape:zoom="2.6209964"
     inkscape:cx="272.98778"
     inkscape:cy="86.417517"
     inkscape:window-width="1920"
     inkscape:window-height="1112"
     inkscape:window-x="-8"
     inkscape:window-y="-8"
     inkscape:window-maximized="1"
     inkscape:current-layer="g3705" />
  <g
     clip-path="url(#clip0_123_2)"
     id="g3705">
    <path
       d="M182.675 96.5753C181.119 96.5753 179.708 96.2823 178.44 95.6964C177.172 95.0998 176.165 94.2422 175.42 93.1236C174.674 91.9943 174.301 90.6307 174.301 89.0327C174.301 87.6264 174.578 86.4865 175.132 85.6129C175.686 84.7287 176.426 84.0362 177.353 83.5355C178.28 83.0348 179.303 82.6619 180.422 82.4169C181.551 82.1612 182.685 81.9588 183.825 81.8097C185.317 81.6179 186.526 81.4741 187.453 81.3782C188.39 81.2717 189.072 81.0959 189.498 80.8509C189.935 80.6058 190.153 80.1797 190.153 79.5724V79.4446C190.153 77.8679 189.722 76.6428 188.859 75.7692C188.007 74.8956 186.712 74.4588 184.976 74.4588C183.175 74.4588 181.764 74.853 180.741 75.6413C179.718 76.4297 178.999 77.2713 178.584 78.1662L175.004 76.8878C175.643 75.3963 176.496 74.2351 177.561 73.4041C178.637 72.5625 179.809 71.9766 181.077 71.6463C182.355 71.3054 183.612 71.1349 184.848 71.1349C185.636 71.1349 186.542 71.2308 187.565 71.4226C188.598 71.6037 189.594 71.9819 190.553 72.5572C191.522 73.1325 192.327 74.0007 192.966 75.1619C193.605 76.3232 193.925 77.8786 193.925 79.8281V96H190.153V92.6761H189.962C189.706 93.2088 189.28 93.7788 188.683 94.386C188.087 94.9933 187.293 95.5099 186.302 95.9361C185.311 96.3622 184.102 96.5753 182.675 96.5753ZM183.25 93.1875C184.741 93.1875 185.999 92.8945 187.021 92.3086C188.055 91.7227 188.832 90.9663 189.354 90.0394C189.887 89.1126 190.153 88.1378 190.153 87.1151V83.6634C189.994 83.8551 189.642 84.0309 189.099 84.1907C188.566 84.3398 187.948 84.473 187.245 84.5902C186.553 84.6967 185.876 84.7926 185.216 84.8778C184.566 84.9524 184.038 85.0163 183.634 85.0696C182.653 85.1974 181.737 85.4052 180.885 85.6928C180.043 85.9698 179.362 86.3906 178.839 86.9553C178.328 87.5092 178.072 88.2656 178.072 89.2244C178.072 90.5348 178.557 91.5256 179.527 92.1967C180.507 92.8572 181.748 93.1875 183.25 93.1875ZM210.077 96.5114C208.031 96.5114 206.225 95.9947 204.659 94.9613C203.093 93.9173 201.868 92.4471 200.984 90.5508C200.1 88.6438 199.658 86.3906 199.658 83.7912C199.658 81.2131 200.1 78.9759 200.984 77.0795C201.868 75.1832 203.099 73.7184 204.675 72.685C206.252 71.6516 208.074 71.1349 210.141 71.1349C211.739 71.1349 213.001 71.4013 213.928 71.9339C214.865 72.456 215.579 73.0526 216.069 73.7237C216.57 74.3842 216.959 74.9276 217.236 75.3537H217.555V63.2727H221.327V96H217.683V92.2287H217.236C216.959 92.6761 216.565 93.2408 216.053 93.9226C215.542 94.5937 214.812 95.1957 213.864 95.7283C212.916 96.2504 211.653 96.5114 210.077 96.5114ZM210.588 93.1236C212.101 93.1236 213.379 92.7294 214.423 91.9411C215.467 91.142 216.261 90.0394 216.804 88.6332C217.348 87.2163 217.619 85.581 217.619 83.7273C217.619 81.8949 217.353 80.2915 216.82 78.9173C216.288 77.5323 215.499 76.4563 214.455 75.6893C213.411 74.9116 212.122 74.5227 210.588 74.5227C208.99 74.5227 207.658 74.9329 206.593 75.7532C205.538 76.5629 204.745 77.6655 204.212 79.0611C203.69 80.446 203.429 82.0014 203.429 83.7273C203.429 85.4744 203.695 87.0618 204.228 88.4893C204.771 89.9062 205.57 91.0355 206.625 91.8771C207.69 92.7081 209.011 93.1236 210.588 93.1236ZM238.026 96.5114C235.98 96.5114 234.175 95.9947 232.609 94.9613C231.043 93.9173 229.817 92.4471 228.933 90.5508C228.049 88.6438 227.607 86.3906 227.607 83.7912C227.607 81.2131 228.049 78.9759 228.933 77.0795C229.817 75.1832 231.048 73.7184 232.625 72.685C234.201 71.6516 236.023 71.1349 238.09 71.1349C239.688 71.1349 240.95 71.4013 241.877 71.9339C242.815 72.456 243.528 73.0526 244.018 73.7237C244.519 74.3842 244.908 74.9276 245.185 75.3537H245.505V63.2727H249.276V96H245.632V92.2287H245.185C244.908 92.6761 244.514 93.2408 244.002 93.9226C243.491 94.5937 242.761 95.1957 241.813 95.7283C240.865 96.2504 239.603 96.5114 238.026 96.5114ZM238.537 93.1236C240.05 93.1236 241.328 92.7294 242.372 91.9411C243.416 91.142 244.21 90.0394 244.753 88.6332C245.297 87.2163 245.568 85.581 245.568 83.7273C245.568 81.8949 245.302 80.2915 244.769 78.9173C244.237 77.5323 243.448 76.4563 242.404 75.6893C241.36 74.9116 240.071 74.5227 238.537 74.5227C236.939 74.5227 235.608 74.9329 234.542 75.7532C233.487 76.5629 232.694 77.6655 232.161 79.0611C231.639 80.446 231.378 82.0014 231.378 83.7273C231.378 85.4744 231.644 87.0618 232.177 88.4893C232.72 89.9062 233.519 91.0355 234.574 91.8771C235.639 92.7081 236.96 93.1236 238.537 93.1236Z"
       fill="#868686"
       id="path3657" />
    <path
       d="M257.218 96V63.2727H260.989V75.3537H261.309C261.586 74.9276 261.969 74.3842 262.459 73.7237C262.96 73.0526 263.674 72.456 264.601 71.9339C265.538 71.4013 266.806 71.1349 268.404 71.1349C270.471 71.1349 272.293 71.6516 273.869 72.685C275.446 73.7184 276.676 75.1832 277.561 77.0795C278.445 78.9759 278.887 81.2131 278.887 83.7912C278.887 86.3906 278.445 88.6438 277.561 90.5508C276.676 92.4471 275.451 93.9173 273.885 94.9613C272.319 95.9947 270.513 96.5114 268.468 96.5114C266.891 96.5114 265.629 96.2504 264.681 95.7283C263.733 95.1957 263.003 94.5937 262.491 93.9226C261.98 93.2408 261.586 92.6761 261.309 92.2287H260.861V96H257.218ZM260.925 83.7273C260.925 85.581 261.197 87.2163 261.74 88.6332C262.284 90.0394 263.077 91.142 264.121 91.9411C265.165 92.7294 266.444 93.1236 267.957 93.1236C269.533 93.1236 270.849 92.7081 271.904 91.8771C272.969 91.0355 273.768 89.9062 274.301 88.4893C274.844 87.0618 275.116 85.4744 275.116 83.7273C275.116 82.0014 274.849 80.446 274.317 79.0611C273.795 77.6655 273.001 76.5629 271.936 75.7532C270.881 74.9329 269.555 74.5227 267.957 74.5227C266.422 74.5227 265.133 74.9116 264.089 75.6893C263.045 76.4563 262.257 77.5323 261.724 78.9173C261.192 80.2915 260.925 81.8949 260.925 83.7273ZM284.656 96V71.4545H288.427V96H284.656ZM286.573 67.3636C285.838 67.3636 285.204 67.1133 284.672 66.6126C284.15 66.1119 283.889 65.5099 283.889 64.8068C283.889 64.1037 284.15 63.5018 284.672 63.0011C285.204 62.5004 285.838 62.25 286.573 62.25C287.309 62.25 287.937 62.5004 288.459 63.0011C288.992 63.5018 289.258 64.1037 289.258 64.8068C289.258 65.5099 288.992 66.1119 288.459 66.6126C287.937 67.1133 287.309 67.3636 286.573 67.3636ZM305.306 96.5114C303.09 96.5114 301.146 95.984 299.473 94.9293C297.811 93.8746 296.512 92.3991 295.574 90.5028C294.647 88.6065 294.184 86.3906 294.184 83.8551C294.184 81.2983 294.647 79.0664 295.574 77.1594C296.512 75.2525 297.811 73.7717 299.473 72.717C301.146 71.6623 303.09 71.1349 305.306 71.1349C307.522 71.1349 309.461 71.6623 311.123 72.717C312.795 73.7717 314.095 75.2525 315.022 77.1594C315.96 79.0664 316.428 81.2983 316.428 83.8551C316.428 86.3906 315.96 88.6065 315.022 90.5028C314.095 92.3991 312.795 93.8746 311.123 94.9293C309.461 95.984 307.522 96.5114 305.306 96.5114ZM305.306 93.1236C306.989 93.1236 308.374 92.6921 309.461 91.8292C310.548 90.9663 311.352 89.8317 311.874 88.4254C312.396 87.0192 312.657 85.4957 312.657 83.8551C312.657 82.2145 312.396 80.6857 311.874 79.2688C311.352 77.8519 310.548 76.7067 309.461 75.8331C308.374 74.9595 306.989 74.5227 305.306 74.5227C303.623 74.5227 302.238 74.9595 301.151 75.8331C300.065 76.7067 299.26 77.8519 298.738 79.2688C298.216 80.6857 297.955 82.2145 297.955 83.8551C297.955 85.4957 298.216 87.0192 298.738 88.4254C299.26 89.8317 300.065 90.9663 301.151 91.8292C302.238 92.6921 303.623 93.1236 305.306 93.1236ZM322.185 96V71.4545H325.829V75.2898H326.148C326.66 73.9794 327.485 72.962 328.625 72.2376C329.765 71.5025 331.134 71.1349 332.732 71.1349C334.351 71.1349 335.699 71.5025 336.775 72.2376C337.862 72.962 338.709 73.9794 339.316 75.2898H339.571C340.2 74.022 341.143 73.0153 342.4 72.2695C343.657 71.5131 345.165 71.1349 346.922 71.1349C349.117 71.1349 350.912 71.8221 352.308 73.1964C353.703 74.56 354.401 76.6854 354.401 79.5724V96H350.63V79.5724C350.63 77.7614 350.134 76.467 349.144 75.6893C348.153 74.9116 346.986 74.5227 345.644 74.5227C343.918 74.5227 342.581 75.0447 341.633 76.0888C340.685 77.1222 340.211 78.4325 340.211 80.0199V96H336.375V79.1889C336.375 77.7933 335.923 76.6694 335.017 75.8171C334.112 74.9542 332.945 74.5227 331.517 74.5227C330.537 74.5227 329.621 74.7837 328.769 75.3058C327.927 75.8278 327.245 76.5522 326.723 77.479C326.212 78.3952 325.956 79.4553 325.956 80.6591V96H322.185ZM371.588 96.5114C369.223 96.5114 367.182 95.9893 365.467 94.9453C363.763 93.8906 362.447 92.4205 361.52 90.5348C360.604 88.6385 360.146 86.4332 360.146 83.919C360.146 81.4048 360.604 79.1889 361.52 77.2713C362.447 75.343 363.736 73.8409 365.387 72.7649C367.049 71.6783 368.988 71.1349 371.204 71.1349C372.483 71.1349 373.745 71.348 374.991 71.7741C376.238 72.2003 377.372 72.8928 378.395 73.8516C379.418 74.7997 380.233 76.0568 380.84 77.6229C381.447 79.1889 381.751 81.1172 381.751 83.4077V85.0057H362.831V81.7457H377.916C377.916 80.3608 377.639 79.125 377.085 78.0384C376.541 76.9517 375.764 76.0941 374.752 75.4656C373.75 74.837 372.568 74.5227 371.204 74.5227C369.702 74.5227 368.402 74.8956 367.305 75.6413C366.218 76.3764 365.382 77.3352 364.796 78.5178C364.21 79.7003 363.917 80.968 363.917 82.321V84.4943C363.917 86.348 364.237 87.9194 364.876 89.2085C365.526 90.4869 366.426 91.4616 367.577 92.1328C368.727 92.7933 370.064 93.1236 371.588 93.1236C372.578 93.1236 373.473 92.9851 374.272 92.7081C375.082 92.4205 375.78 91.9943 376.366 91.4297C376.952 90.8544 377.404 90.1406 377.724 89.2884L381.367 90.3111C380.984 91.5469 380.339 92.6335 379.434 93.571C378.528 94.4979 377.41 95.2223 376.078 95.7443C374.746 96.2557 373.25 96.5114 371.588 96.5114ZM397.459 96.5114C395.158 96.5114 393.177 95.968 391.515 94.8814C389.853 93.7947 388.574 92.2979 387.68 90.391C386.785 88.484 386.337 86.3054 386.337 83.8551C386.337 81.3622 386.795 79.1623 387.712 77.2553C388.638 75.3377 389.927 73.8409 391.579 72.7649C393.241 71.6783 395.18 71.1349 397.396 71.1349C399.121 71.1349 400.677 71.4545 402.062 72.0938C403.447 72.733 404.581 73.6278 405.465 74.7784C406.35 75.929 406.898 77.2713 407.111 78.8054H403.34C403.052 77.6868 402.413 76.696 401.422 75.8331C400.442 74.9595 399.121 74.5227 397.459 74.5227C395.989 74.5227 394.7 74.9062 393.592 75.6733C392.495 76.4297 391.637 77.5004 391.019 78.8853C390.412 80.2596 390.109 81.8736 390.109 83.7273C390.109 85.6236 390.407 87.2749 391.003 88.6811C391.611 90.0874 392.463 91.1793 393.56 91.957C394.668 92.7347 395.968 93.1236 397.459 93.1236C398.44 93.1236 399.329 92.9531 400.128 92.6122C400.927 92.2713 401.604 91.7812 402.158 91.142C402.712 90.5028 403.106 89.7358 403.34 88.8409H407.111C406.898 90.2898 406.371 91.5948 405.529 92.756C404.698 93.9066 403.596 94.8228 402.222 95.5046C400.858 96.1758 399.271 96.5114 397.459 96.5114ZM416.396 81.2344V96H412.625V63.2727H416.396V75.2898H416.715C417.291 74.022 418.154 73.0153 419.304 72.2695C420.465 71.5131 422.01 71.1349 423.938 71.1349C425.611 71.1349 427.076 71.4705 428.333 72.1417C429.59 72.8022 430.565 73.8196 431.257 75.1939C431.96 76.5575 432.312 78.294 432.312 80.4034V96H428.541V80.6591C428.541 78.7095 428.035 77.2021 427.023 76.1367C426.021 75.0607 424.631 74.5227 422.852 74.5227C421.616 74.5227 420.508 74.7837 419.528 75.3058C418.559 75.8278 417.791 76.5895 417.227 77.5909C416.673 78.5923 416.396 79.8068 416.396 81.2344ZM446.434 96.5753C444.879 96.5753 443.468 96.2823 442.2 95.6964C440.932 95.0998 439.925 94.2422 439.18 93.1236C438.434 91.9943 438.061 90.6307 438.061 89.0327C438.061 87.6264 438.338 86.4865 438.892 85.6129C439.446 84.7287 440.186 84.0362 441.113 83.5355C442.04 83.0348 443.063 82.6619 444.181 82.4169C445.311 82.1612 446.445 81.9588 447.585 81.8097C449.077 81.6179 450.286 81.4741 451.213 81.3782C452.15 81.2717 452.832 81.0959 453.258 80.8509C453.695 80.6058 453.913 80.1797 453.913 79.5724V79.4446C453.913 77.8679 453.482 76.6428 452.619 75.7692C451.767 74.8956 450.472 74.4588 448.736 74.4588C446.935 74.4588 445.524 74.853 444.501 75.6413C443.478 76.4297 442.759 77.2713 442.344 78.1662L438.764 76.8878C439.403 75.3963 440.256 74.2351 441.321 73.4041C442.397 72.5625 443.569 71.9766 444.836 71.6463C446.115 71.3054 447.372 71.1349 448.608 71.1349C449.396 71.1349 450.302 71.2308 451.324 71.4226C452.358 71.6037 453.354 71.9819 454.313 72.5572C455.282 73.1325 456.086 74.0007 456.726 75.1619C457.365 76.3232 457.684 77.8786 457.684 79.8281V96H453.913V92.6761H453.721C453.466 93.2088 453.04 93.7788 452.443 94.386C451.846 94.9933 451.053 95.5099 450.062 95.9361C449.071 96.3622 447.862 96.5753 446.434 96.5753ZM447.01 93.1875C448.501 93.1875 449.758 92.8945 450.781 92.3086C451.814 91.7227 452.592 90.9663 453.114 90.0394C453.647 89.1126 453.913 88.1378 453.913 87.1151V83.6634C453.753 83.8551 453.402 84.0309 452.858 84.1907C452.326 84.3398 451.708 84.473 451.005 84.5902C450.312 84.6967 449.636 84.7926 448.975 84.8778C448.325 84.9524 447.798 85.0163 447.393 85.0696C446.413 85.1974 445.497 85.4052 444.645 85.6928C443.803 85.9698 443.121 86.3906 442.599 86.9553C442.088 87.5092 441.832 88.2656 441.832 89.2244C441.832 90.5348 442.317 91.5256 443.286 92.1967C444.267 92.8572 445.508 93.1875 447.01 93.1875ZM468.339 81.2344V96H464.568V71.4545H468.211V75.2898H468.531C469.106 74.0433 469.98 73.0419 471.152 72.2855C472.324 71.5185 473.836 71.1349 475.69 71.1349C477.352 71.1349 478.806 71.4759 480.053 72.1577C481.299 72.8288 482.269 73.8516 482.961 75.2259C483.653 76.5895 484 78.3153 484 80.4034V96H480.228V80.6591C480.228 78.7308 479.728 77.2287 478.726 76.1527C477.725 75.0661 476.351 74.5227 474.603 74.5227C473.4 74.5227 472.324 74.7837 471.375 75.3058C470.438 75.8278 469.698 76.5895 469.154 77.5909C468.611 78.5923 468.339 79.8068 468.339 81.2344ZM490.891 96V71.4545H494.662V96H490.891ZM492.809 67.3636C492.074 67.3636 491.44 67.1133 490.907 66.6126C490.385 66.1119 490.124 65.5099 490.124 64.8068C490.124 64.1037 490.385 63.5018 490.907 63.0011C491.44 62.5004 492.074 62.25 492.809 62.25C493.544 62.25 494.172 62.5004 494.694 63.0011C495.227 63.5018 495.493 64.1037 495.493 64.8068C495.493 65.5099 495.227 66.1119 494.694 66.6126C494.172 67.1133 493.544 67.3636 492.809 67.3636ZM511.541 96.5114C509.24 96.5114 507.259 95.968 505.597 94.8814C503.935 93.7947 502.657 92.2979 501.762 90.391C500.867 88.484 500.419 86.3054 500.419 83.8551C500.419 81.3622 500.877 79.1623 501.794 77.2553C502.72 75.3377 504.009 73.8409 505.661 72.7649C507.323 71.6783 509.262 71.1349 511.478 71.1349C513.203 71.1349 514.759 71.4545 516.144 72.0938C517.529 72.733 518.663 73.6278 519.547 74.7784C520.432 75.929 520.98 77.2713 521.193 78.8054H517.422C517.134 77.6868 516.495 76.696 515.505 75.8331C514.524 74.9595 513.203 74.5227 511.541 74.5227C510.071 74.5227 508.782 74.9062 507.674 75.6733C506.577 76.4297 505.719 77.5004 505.101 78.8853C504.494 80.2596 504.191 81.8736 504.191 83.7273C504.191 85.6236 504.489 87.2749 505.085 88.6811C505.693 90.0874 506.545 91.1793 507.642 91.957C508.75 92.7347 510.05 93.1236 511.541 93.1236C512.522 93.1236 513.411 92.9531 514.21 92.6122C515.009 92.2713 515.686 91.7812 516.24 91.142C516.794 90.5028 517.188 89.7358 517.422 88.8409H521.193C520.98 90.2898 520.453 91.5948 519.611 92.756C518.78 93.9066 517.678 94.8228 516.304 95.5046C514.94 96.1758 513.353 96.5114 511.541 96.5114ZM544.093 76.9517L540.705 77.9105C540.492 77.3459 540.178 76.7972 539.762 76.2646C539.358 75.7212 538.804 75.2738 538.1 74.9222C537.397 74.5707 536.497 74.3949 535.4 74.3949C533.898 74.3949 532.646 74.7411 531.644 75.4336C530.654 76.1154 530.158 76.9837 530.158 78.0384C530.158 78.9759 530.499 79.7163 531.181 80.2596C531.863 80.8029 532.928 81.2557 534.377 81.6179L538.021 82.5128C540.215 83.0455 541.85 83.8604 542.926 84.9577C544.002 86.0444 544.54 87.4453 544.54 89.1605C544.54 90.5668 544.136 91.8239 543.326 92.9318C542.527 94.0398 541.408 94.9134 539.97 95.5526C538.532 96.1918 536.859 96.5114 534.952 96.5114C532.449 96.5114 530.377 95.968 528.736 94.8814C527.095 93.7947 526.057 92.2074 525.62 90.1193L529.199 89.2244C529.54 90.5455 530.185 91.5362 531.133 92.1967C532.092 92.8572 533.344 93.1875 534.888 93.1875C536.646 93.1875 538.042 92.8146 539.075 92.0689C540.119 91.3125 540.641 90.407 540.641 89.3523C540.641 88.5 540.343 87.7862 539.746 87.2109C539.15 86.625 538.234 86.1882 536.998 85.9006L532.907 84.9418C530.659 84.4091 529.008 83.5835 527.953 82.4648C526.909 81.3356 526.387 79.924 526.387 78.2301C526.387 76.8452 526.776 75.62 527.554 74.5547C528.342 73.4893 529.413 72.6531 530.766 72.0458C532.129 71.4386 533.674 71.1349 535.4 71.1349C537.829 71.1349 539.736 71.6676 541.121 72.733C542.516 73.7983 543.507 75.2045 544.093 76.9517Z"
       fill="#0D6EFD"
       id="path3659"
       style="fill:#7798ce;fill-opacity:1" />
    <path
       fill-rule="evenodd"
       clip-rule="evenodd"
       d="M72.1755 144.022C108.803 144.022 138.495 115.979 138.495 81.3871C138.495 46.7949 108.803 18.7523 72.1755 18.7523C35.5484 18.7523 5.85634 46.7949 5.85634 81.3871C5.85634 115.979 35.5484 144.022 72.1755 144.022ZM72.1755 138.864C99.8493 138.864 122.283 113.625 122.283 82.4924C122.283 51.3594 99.8493 26.1211 72.1755 26.1211C44.5017 26.1211 22.0677 51.3594 22.0677 82.4924C22.0677 113.625 44.5017 138.864 72.1755 138.864Z"
       fill="#D9D9D9"
       id="path3661" />
    <path
       d="M42.1598 135.165L-2.3579 114L36.9324 86.15L42.1598 135.165Z"
       fill="#0D6EFD"
       id="path3663"
       style="fill:#7798ce;fill-opacity:1" />
    <path
       d="M82.8603 21.3314C37.5422 16.9102 13.6494 63.8672 26.489 100.546L9.72337 108.494C-5.65012 53.1051 36.0684 11.3836 82.8603 21.3314Z"
       fill="#0D6EFD"
       id="path3665"
       style="fill:#7798ce;fill-opacity:1" />
    <path
       d="M111.827 32.5674L150.306 51.1631L116.088 75.0914L111.827 32.5674Z"
       fill="#0D6EFD"
       id="path3667"
       style="fill:#7798ce;fill-opacity:1" />
    <path
       d="M66.6489 140.706C104.23 147.338 137.731 98.987 124.891 62.3082L135.934 57.2211C151.308 112.61 103.861 154.338 66.6489 140.706Z"
       fill="#0D6EFD"
       id="path3669"
       style="fill:#7798ce;fill-opacity:1" />
    <path
       d="m 123.36887,27.199778 c 0.79424,-0.485682 -0.45572,-1.95568 -1.1458,-2.76515 0,0 1.00909,0.783567 1.05466,0.304361 0.052,-0.459779 -0.16277,-1.379337 -1.57548,-2.104622 -0.78123,-0.395022 -1.30204,-0.407973 -1.8489,-0.945461 -0.54686,-0.531012 -1.29553,-1.133258 -1.43226,-1.651319 -0.13671,-0.485682 -0.34503,-0.576343 0.1823,-0.913082 0.34504,-0.220176 0.43618,-0.874228 0.31899,-1.204491 -0.24738,-0.699383 -0.68357,-0.725285 -0.86585,-0.200749 -0.0911,0.278457 -0.41015,0.194272 -0.73566,0.116564 -0.319,-0.05828 -0.75518,0.01943 -0.957,0.407973 -0.41015,0.770615 -0.79424,0.913081 -0.97654,1.534754 -0.11718,0.505109 -1.60151,1.178589 -2.552,1.605989 -0.94398,0.420925 -5.06496,1.651319 -7.48025,1.865019 -2.39576,0.220176 -5.403486,0.433876 -7.760185,2.143476 0,0 -1.412719,-0.05828 -2.812416,0 -1.39319,0.04533 -7.27192,1.651319 -8.469802,2.033389 -1.2109,0.375595 -1.686147,0.55044 -2.96215,0.278458 -1.295534,-0.246079 -2.604089,-0.608721 -3.834521,-0.04533 -1.979107,0.880704 -3.150947,1.975107 -3.150947,1.975107 0,0 -1.634066,0.08418 -2.219986,0.08418 h -1.549432 c 0,0 -0.358062,-2.868761 -0.358062,-4.118584 0,-1.262773 -0.221348,-2.001009 -0.221348,-2.001009 0,0 0.455715,0.369118 0.8919,-0.155418 0.436185,-0.524537 0.319001,-1.709601 0.27343,-2.389556 -0.04557,-0.569867 -0.462226,-1.865019 -0.976534,-1.709601 -0.117184,0.04533 -0.182286,0.05828 -0.221347,0.07124 0,-0.04533 -0.27343,-3.004753 -0.657533,-3.943738 -0.345042,-0.835375 -0.8919,-1.826167 -1.822862,-2.713346 -0.533838,-0.505109 -1.360637,-0.94546 -2.233006,-1.230394 -0.182286,-0.679956 -0.735655,-2.0333893 -2.278577,-2.1629043 -1.868435,-0.1554176 -3.450418,0.9001313 -3.658745,2.1629043 -0.09114,0.660527 0.117183,1.113831 0.345041,1.379336 -0.110673,0.129517 -0.234368,0.24608 -0.345041,0.375595 -1.048147,1.14621 -1.386678,2.188807 -1.43876,3.658804 -0.01953,0.407973 0.325512,2.739247 0.631492,3.788321 0.208327,0.744712 0.208327,0.913081 0.208327,0.913081 0,0 -0.735655,-0.174845 -0.781227,0.453304 -0.04557,0.621673 0.182286,1.66427 0.325511,2.253564 0.156246,0.569867 0.455716,1.353434 1.002574,1.40524 0.546859,0.05828 0.735655,-0.323788 0.735655,-0.323788 0,0 0.735655,1.729029 0.983044,2.085195 0.247389,0.369118 1.184861,1.463522 1.43225,2.344226 0.247387,0.880703 0.247387,2.493168 0.156245,3.017704 -0.09114,0.524537 -2.122333,1.308103 -2.936111,2.253564 -0.572899,0.654052 -1.549433,1.249822 -1.549433,1.249822 0,0 -2.07025,0.05828 -3.111885,1.049073 -1.028616,0.984316 -2.851478,2.810479 -3.587132,4.319332 -0.735656,1.508853 -1.067678,2.454314 -1.067678,2.454314 0,0 -2.395761,1.359909 -4.075398,3.004753 -1.686148,1.66427 -4.036338,4.753207 -5.038912,5.957699 -0.520818,0.621673 -1.933536,1.638367 -3.209539,2.914092 -1.575474,1.599512 -2.714763,2.544974 -4.863137,5.251842 -2.148372,2.713343 -6.067527,7.078006 -7.161244,8.036418 -1.113247,0.958412 -1.894474,0.770615 -2.415292,1.638368 -0.566389,0.971363 -1.054656,1.554182 -1.18486,2.933519 -0.07161,0.8548 -0.221348,1.223919 -0.384103,1.580085 -0.221348,0.453304 -0.709614,0.705858 -0.735655,1.003743 -0.02604,0.323788 0.384103,0.369118 0.59243,0.407973 0.319001,0.05828 1.210901,-0.278458 1.347616,-1.029646 0.156245,-0.945461 0.976532,-0.835373 0.976532,-0.576343 0,0.259031 -0.703103,2.188807 -1.028614,3.030657 -0.397124,1.055548 -0.59243,2.415458 -0.5729,3.043607 0.01953,0.485681 0.253898,1.003742 0.5729,0.621673 0.345042,-0.375595 0.533838,-1.379337 0.533838,-1.379337 0,0 -0.09114,0.945461 -0.05208,1.683698 0.07161,0.926033 0.670553,1.424666 1.009085,-0.103609 0,0 0,0.770615 0.507797,0.751188 0.494776,-0.0259 0.631492,-1.074976 0.631492,-1.074976 -0.05208,0.705857 0.273429,0.945461 0.703104,0.420924 0.292959,-0.349691 1.054655,-1.858543 1.145799,-3.19255 0.09114,-1.334007 0.507797,-4.992811 0.507797,-5.782854 0,-0.796518 0.117184,-0.634625 0.546858,-0.796518 0.481757,-0.155419 0.755186,-1.05555 1.393188,-1.580086 0.644512,-0.531012 6.021955,-4.817965 8.573962,-7.097433 2.740804,-2.454314 3.626195,-3.205502 4.557157,-4.604265 0.325511,-0.524537 1.080696,-0.900131 1.731719,-1.515329 0.657532,-0.654051 4.387889,-3.568143 5.540198,-4.52008 1.145799,-0.958413 2.812417,-1.683698 4.446482,-3.309113 1.634065,-1.60599 2.597578,-2.363653 2.597578,-2.363653 0,0 2.32415,1.405239 3.176989,2.208234 0.865859,0.80947 1.686147,3.030655 2.252537,4.29343 0.546858,1.275724 0.117183,3.522812 0.02604,4.694925 -0.110674,1.178588 -0.247389,1.288676 -0.507799,1.858544 -0.930961,2.085195 -1.256472,5.899417 -1.2109,6.534042 0.05208,0.621673 -5.813629,7.097433 -7.669042,10.238176 -1.868433,3.160172 -6.002424,11.947778 -6.653447,14.745307 -0.631492,2.693916 -0.983043,4.099157 -0.27343,5.290696 0.703105,1.204492 2.89705,2.292424 4.316278,1.625417 1.432249,-0.660529 2.877519,-1.839117 4.153522,-2.93352 0.930961,-0.796519 6.666467,-8.107653 7.786225,-8.696946 1.119758,-0.595771 4.316277,-2.93352 5.253749,-4.435897 1.054656,-1.7096 2.193945,-3.438628 2.525966,-4.377613 0.136715,-0.369119 1.412719,-0.479207 1.249962,0.220175 -0.182286,0.699383 -0.781225,9.966196 -0.397122,12.5565 0.371083,2.590304 0.136714,8.217741 0.08463,10.393588 -0.05208,2.18881 -0.05208,5.67277 -0.09114,6.77365 -0.01953,0.25903 0.08463,-0.23312 -0.566389,1.2304 -0.644513,1.45056 -1.497352,4.55246 -0.983044,6.98734 0.494777,2.45432 -0.358062,7.65435 -0.384103,8.43793 l -0.02604,0.78356 c 0,0 -1.601515,-0.45978 -2.167904,0.45977 -0.546859,0.91309 -1.113248,2.45432 -0.904921,4.72731 0.221348,2.27947 -0.729144,6.07426 -1.210901,6.75422 -0.462226,0.67996 -2.441333,2.17586 -2.05723,6.10664 0.371082,3.91784 1.933536,3.83366 3.372295,2.86876 1.438759,-0.97136 4.726421,-5.56915 5.553219,-10.65262 0.162755,-0.98432 1.868433,-4.53951 1.621046,-5.87352 -0.247389,-1.35343 0.846328,-5.29069 1.601514,-7.75796 0.755185,-2.48022 3.769419,-7.99109 2.93611,-13.8905 -0.188796,-1.42468 0.703104,-3.85956 1.328086,-5.69868 1.119758,-3.244356 4.361848,-14.861865 5.722485,-23.403393 0.358062,-2.260041 0.494776,-2.318323 0.943982,-8.036419 0.29947,-3.74299 -1.080697,-10.277032 -1.523392,-11.092977 -0.768206,-1.437619 -0.86586,-4.435896 -1.595005,-6.702412 -0.410144,-1.262773 -0.325511,-3.898408 -0.429674,-5.303648 -0.09114,-1.40524 -0.29296,-4.953957 -0.839819,-7.777388 -0.546858,-2.81048 -0.546858,-3.490435 -0.436185,-4.222196 0.09114,-0.725285 1.601515,-0.744712 2.871008,-0.945461 1.249963,-0.220176 4.075399,-0.459779 7.57139,-2.939995 0.455716,-0.330263 3.059805,-1.133258 3.906133,-1.398765 0.846329,-0.278457 1.979108,-0.459778 2.486904,-0.407972 0.49478,0.05828 0.93096,-0.505109 1.23043,-0.660528 0.29296,-0.155417 10.68328,-3.639377 12.4085,-4.669023 1.19137,-0.705858 1.8489,-0.330264 2.14185,-0.725285 0.27343,-0.369118 0.53383,-0.129515 1.48433,0.02591 0.957,0.155419 2.30462,0.59577 2.71476,0.971365 0.39712,0.375593 1.5234,3.043607 1.62104,3.917835 0.11064,0.880703 0.52082,1.424666 0.76821,0.725285 0.29947,-0.874228 -0.0911,-2.104623 -0.0911,-2.104623 0,0 0.11719,0.220176 0.37108,0.420925 0.25391,0.220175 0.72914,-0.705857 0.41015,-1.476474"
       id="svg_29"
       style="fill:url(#linearGradient7063);fill-opacity:1;stroke-width:0.649297" />
  </g>
  <defs
     id="defs3710">
    <linearGradient
       id="linearGradient7061"
       inkscape:swatch="solid">
      <stop
         style="stop-color:#00000f;stop-opacity:1;"
         offset="0"
         id="stop7059" />
    </linearGradient>
    <clipPath
       id="clip0_123_2">
      <rect
         width="562"
         height="173"
         fill="white"
         id="rect3707" />
    </clipPath>
    <linearGradient
       inkscape:collect="always"
       xlink:href="#linearGradient7061"
       id="linearGradient7063"
       x1="-8.400841"
       y1="79.931436"
       x2="80.129288"
       y2="79.931436"
       gradientUnits="userSpaceOnUse"
       gradientTransform="matrix(1.1335993,0,0,1.1528731,32.789693,-13.745507)" />
  </defs>
</svg>
