<?xml version="1.0" encoding="utf-8"?>
<!-- Generator: Adobe Illustrator 27.0.1, SVG Export Plug-In . SVG Version: 6.00 Build 0)  -->
<svg version="1.1" id="svg3712" xmlns="http://www.w3.org/2000/svg" xmlns:xlink="http://www.w3.org/1999/xlink" x="0px" y="0px"
	 viewBox="0 0 562 173" style="enable-background:new 0 0 562 173;" xml:space="preserve">
<style type="text/css">
	.st0{clip-path:url(#SVGID_00000080890836368323747530000005480507577860312467_);}
	.st1{fill:#7798CE;}
	.st2{fill:#00000F;}
</style>
<g>
	<defs>
		<rect id="SVGID_1_" width="562" height="173"/>
	</defs>
	<clipPath id="SVGID_00000023265325532574046790000007412479344079575979_">
		<use xlink:href="#SVGID_1_"  style="overflow:visible;"/>
	</clipPath>
	<g id="g3705" style="clip-path:url(#SVGID_00000023265325532574046790000007412479344079575979_);">
		<path id="path3663" class="st1" d="M42.2,135.2L-2.4,114l39.3-27.8L42.2,135.2z"/>
		<path id="path3665" class="st1" d="M82.9,21.3c-45.3-4.4-69.2,42.5-56.4,79.2l-16.8,7.9C-5.7,53.1,36.1,11.4,82.9,21.3z"/>
		<path id="path3667" class="st1" d="M111.8,32.6l38.5,18.6l-34.2,23.9L111.8,32.6z"/>
		<path id="path3669" class="st1" d="M66.6,140.7c37.6,6.6,71.1-41.7,58.2-78.4l11-5.1C151.3,112.6,103.9,154.3,66.6,140.7z"/>
		<path id="svg_29" d="M123.4,27.2c0.8-0.5-0.5-2-1.1-2.8c0,0,1,0.8,1.1,0.3c0.1-0.5-0.2-1.4-1.6-2.1c-0.8-0.4-1.3-0.4-1.8-0.9
			c-0.5-0.5-1.3-1.1-1.4-1.7c-0.1-0.5-0.3-0.6,0.2-0.9c0.3-0.2,0.4-0.9,0.3-1.2c-0.2-0.7-0.7-0.7-0.9-0.2c-0.1,0.3-0.4,0.2-0.7,0.1
			c-0.3-0.1-0.8,0-1,0.4c-0.4,0.8-0.8,0.9-1,1.5c-0.1,0.5-1.6,1.2-2.6,1.6c-0.9,0.4-5.1,1.7-7.5,1.9c-2.4,0.2-5.4,0.4-7.8,2.1
			c0,0-1.4-0.1-2.8,0c-1.4,0-7.3,1.7-8.5,2c-1.2,0.4-1.7,0.6-3,0.3c-1.3-0.2-2.6-0.6-3.8,0c-2,0.9-3.2,2-3.2,2s-1.6,0.1-2.2,0.1
			h-1.5c0,0-0.4-2.9-0.4-4.1c0-1.3-0.2-2-0.2-2s0.5,0.4,0.9-0.2s0.3-1.7,0.3-2.4c0-0.6-0.5-1.9-1-1.7c-0.1,0-0.2,0.1-0.2,0.1
			c0,0-0.3-3-0.7-3.9c-0.3-0.8-0.9-1.8-1.8-2.7c-0.5-0.5-1.4-0.9-2.2-1.2c-0.2-0.7-0.7-2-2.3-2.2c-1.9-0.2-3.5,0.9-3.7,2.2
			c-0.1,0.7,0.1,1.1,0.3,1.4c-0.1,0.1-0.2,0.2-0.3,0.4c-1,1.1-1.4,2.2-1.4,3.7c0,0.4,0.3,2.7,0.6,3.8c0.2,0.7,0.2,0.9,0.2,0.9
			S60,21.5,60,22.1c0,0.6,0.2,1.7,0.3,2.3c0.2,0.6,0.5,1.4,1,1.4c0.5,0.1,0.7-0.3,0.7-0.3s0.7,1.7,1,2.1c0.2,0.4,1.2,1.5,1.4,2.3
			c0.2,0.9,0.2,2.5,0.2,3c-0.1,0.5-2.1,1.3-2.9,2.3c-0.6,0.7-1.5,1.2-1.5,1.2s-2.1,0.1-3.1,1c-1,1-2.9,2.8-3.6,4.3
			c-0.7,1.5-1.1,2.5-1.1,2.5s-2.4,1.4-4.1,3c-1.7,1.7-4,4.8-5,6c-0.5,0.6-1.9,1.6-3.2,2.9c-1.6,1.6-2.7,2.5-4.9,5.3
			c-2.1,2.7-6.1,7.1-7.2,8c-1.1,1-1.9,0.8-2.4,1.6c-0.6,1-1.1,1.6-1.2,2.9c-0.1,0.9-0.2,1.2-0.4,1.6c-0.2,0.5-0.7,0.7-0.7,1
			c0,0.3,0.4,0.4,0.6,0.4c0.3,0.1,1.2-0.3,1.3-1c0.2-0.9,1-0.8,1-0.6s-0.7,2.2-1,3c-0.4,1.1-0.6,2.4-0.6,3c0,0.5,0.3,1,0.6,0.6
			c0.3-0.4,0.5-1.4,0.5-1.4s-0.1,0.9-0.1,1.7c0.1,0.9,0.7,1.4,1-0.1c0,0,0,0.8,0.5,0.8c0.5,0,0.6-1.1,0.6-1.1
			c-0.1,0.7,0.3,0.9,0.7,0.4c0.3-0.3,1.1-1.9,1.1-3.2c0.1-1.3,0.5-5,0.5-5.8c0-0.8,0.1-0.6,0.5-0.8c0.5-0.2,0.8-1.1,1.4-1.6
			c0.6-0.5,6-4.8,8.6-7.1c2.7-2.5,3.6-3.2,4.6-4.6c0.3-0.5,1.1-0.9,1.7-1.5c0.7-0.7,4.4-3.6,5.5-4.5c1.1-1,2.8-1.7,4.4-3.3
			c1.6-1.6,2.6-2.4,2.6-2.4s2.3,1.4,3.2,2.2c0.9,0.8,1.7,3,2.3,4.3c0.5,1.3,0.1,3.5,0,4.7c-0.1,1.2-0.2,1.3-0.5,1.9
			c-0.9,2.1-1.3,5.9-1.2,6.5c0.1,0.6-5.8,7.1-7.7,10.2c-1.9,3.2-6,11.9-6.7,14.7c-0.6,2.7-1,4.1-0.3,5.3c0.7,1.2,2.9,2.3,4.3,1.6
			c1.4-0.7,2.9-1.8,4.2-2.9c0.9-0.8,6.7-8.1,7.8-8.7c1.1-0.6,4.3-2.9,5.3-4.4c1.1-1.7,2.2-3.4,2.5-4.4c0.1-0.4,1.4-0.5,1.2,0.2
			c-0.2,0.7-0.8,10-0.4,12.6c0.4,2.6,0.1,8.2,0.1,10.4c-0.1,2.2-0.1,5.7-0.1,6.8c0,0.3,0.1-0.2-0.6,1.2c-0.6,1.5-1.5,4.6-1,7
			c0.5,2.5-0.4,7.7-0.4,8.4l0,0.8c0,0-1.6-0.5-2.2,0.5c-0.5,0.9-1.1,2.5-0.9,4.7c0.2,2.3-0.7,6.1-1.2,6.8c-0.5,0.7-2.4,2.2-2.1,6.1
			c0.4,3.9,1.9,3.8,3.4,2.9c1.4-1,4.7-5.6,5.6-10.7c0.2-1,1.9-4.5,1.6-5.9c-0.2-1.4,0.8-5.3,1.6-7.8c0.8-2.5,3.8-8,2.9-13.9
			c-0.2-1.4,0.7-3.9,1.3-5.7c1.1-3.2,4.4-14.9,5.7-23.4c0.4-2.3,0.5-2.3,0.9-8c0.3-3.7-1.1-10.3-1.5-11.1c-0.8-1.4-0.9-4.4-1.6-6.7
			c-0.4-1.3-0.3-3.9-0.4-5.3c-0.1-1.4-0.3-5-0.8-7.8c-0.5-2.8-0.5-3.5-0.4-4.2c0.1-0.7,1.6-0.7,2.9-0.9c1.2-0.2,4.1-0.5,7.6-2.9
			c0.5-0.3,3.1-1.1,3.9-1.4c0.8-0.3,2-0.5,2.5-0.4c0.5,0.1,0.9-0.5,1.2-0.7c0.3-0.2,10.7-3.6,12.4-4.7c1.2-0.7,1.8-0.3,2.1-0.7
			c0.3-0.4,0.5-0.1,1.5,0c1,0.2,2.3,0.6,2.7,1c0.4,0.4,1.5,3,1.6,3.9c0.1,0.9,0.5,1.4,0.8,0.7c0.3-0.9-0.1-2.1-0.1-2.1
			s0.1,0.2,0.4,0.4C123.2,28.9,123.7,28,123.4,27.2"/>
		<g id="g3536" transform="matrix(1.531729,0,0,1.75336,154.96256,-305.0196)">
			<path id="path364" class="st1" d="M9.8,210.3l-3.4,10.1H13L9.8,210.3z M6.1,221.6l-2.3,7.2c-0.1,0.2-0.1,0.4-0.2,0.6
				c-0.1,0.2-0.1,0.3-0.1,0.5c0,0.5,0.1,0.9,0.4,1.2s0.5,0.6,0.9,0.9c0.3,0.2,0.7,0.4,1.1,0.5c0.4,0.1,0.7,0.2,0.9,0.3v0.5
				c-0.7-0.1-1.4-0.1-2.1-0.1c-0.7,0-1.4,0-2.1,0c-0.7,0-1.4,0-2,0s-1.4,0.1-2.1,0.1v-0.5c0.7-0.2,1.3-0.5,1.8-0.9
				c0.5-0.4,0.9-0.8,1.2-1.4c0.3-0.5,0.6-1.1,0.9-1.7c0.2-0.6,0.5-1.3,0.7-2l6-16.9c0.1-0.2,0.1-0.4,0.2-0.5
				c0.1-0.2,0.1-0.3,0.1-0.4c0-0.1,0-0.3-0.1-0.6s-0.2-0.5-0.3-0.7c0.6-0.1,1.1-0.3,1.6-0.5c0.4-0.2,0.9-0.4,1.5-0.7l7.3,22.7
				c0.3,1,0.8,1.8,1.4,2.4c0.6,0.6,1.4,1,2.6,1.1v0.5c-0.9-0.1-1.8-0.1-2.7-0.1c-0.9,0-1.8,0-2.8,0h-1.6c-0.5,0-0.9,0-1.3,0
				c-0.4,0-0.7,0-1.1,0.1c-0.3,0-0.7,0.1-1.1,0.1v-0.5c1-0.1,1.8-0.4,2.5-0.9s1-1,1-1.8c0-0.2,0-0.4-0.1-0.6
				c-0.1-0.2-0.1-0.4-0.2-0.6l-2.3-7.3H6.1z"/>
			<path id="path366" class="st1" d="M35.4,222.1c-0.1-0.3-0.2-0.7-0.5-1.1c-0.3-0.4-0.6-0.7-1-1c-0.4-0.3-0.8-0.6-1.3-0.8
				c-0.5-0.2-1-0.3-1.5-0.3c-0.8,0-1.5,0.2-2,0.6c-0.5,0.4-1,0.9-1.3,1.6c-0.3,0.6-0.6,1.4-0.8,2.2c-0.2,0.8-0.2,1.6-0.2,2.4
				s0.1,1.6,0.2,2.4c0.2,0.8,0.4,1.5,0.8,2.2c0.3,0.6,0.8,1.2,1.3,1.6c0.5,0.4,1.2,0.6,2,0.6c0.5,0,1-0.1,1.5-0.3
				c0.5-0.2,0.9-0.4,1.3-0.7c0.4-0.3,0.7-0.6,1-0.9c0.3-0.3,0.4-0.6,0.5-0.8L35.4,222.1z M38.1,229c0,0.7,0,1.3,0.1,1.7
				c0.1,0.5,0.2,0.8,0.4,1.1c0.2,0.3,0.5,0.5,0.9,0.6c0.4,0.1,0.9,0.2,1.5,0.2v0.5c-0.9,0-1.9,0-2.8,0c-0.9,0-1.9,0.1-2.8,0.1v-1.5
				c-0.5,0.5-1.3,1-2.3,1.4c-1,0.4-2,0.6-3.1,0.6c-1,0-1.8-0.2-2.6-0.6c-0.8-0.4-1.4-1-2-1.7c-0.5-0.7-1-1.5-1.3-2.4
				s-0.5-1.9-0.5-2.9c0-1.2,0.2-2.3,0.6-3.3c0.4-1,0.9-1.9,1.6-2.6c0.7-0.7,1.4-1.3,2.3-1.7c0.9-0.4,1.9-0.6,2.9-0.6
				c0.8,0,1.5,0.2,2.2,0.5c0.7,0.3,1.4,0.7,2.1,1.2v-10.3c0-0.6,0-1.2-0.1-1.6c-0.1-0.4-0.2-0.7-0.5-1c-0.2-0.2-0.5-0.4-0.9-0.5
				c-0.4-0.1-0.9-0.2-1.4-0.2v-0.5l5.7-0.6V229z"/>
			<path id="path368" class="st1" d="M54.2,222.1c-0.1-0.3-0.2-0.7-0.5-1.1c-0.3-0.4-0.6-0.7-1-1c-0.4-0.3-0.8-0.6-1.3-0.8
				c-0.5-0.2-1-0.3-1.5-0.3c-0.8,0-1.5,0.2-2,0.6c-0.5,0.4-1,0.9-1.3,1.6c-0.3,0.6-0.6,1.4-0.8,2.2c-0.2,0.8-0.2,1.6-0.2,2.4
				s0.1,1.6,0.2,2.4c0.2,0.8,0.4,1.5,0.8,2.2s0.8,1.2,1.3,1.6c0.5,0.4,1.2,0.6,2,0.6c0.5,0,1-0.1,1.5-0.3c0.5-0.2,0.9-0.4,1.3-0.7
				c0.4-0.3,0.7-0.6,1-0.9c0.3-0.3,0.4-0.6,0.5-0.8L54.2,222.1z M56.9,229c0,0.7,0,1.3,0.1,1.7c0.1,0.5,0.2,0.8,0.4,1.1
				c0.2,0.3,0.5,0.5,0.9,0.6c0.4,0.1,0.9,0.2,1.5,0.2v0.5c-0.9,0-1.9,0-2.8,0c-0.9,0-1.9,0.1-2.8,0.1v-1.5c-0.5,0.5-1.3,1-2.3,1.4
				c-1,0.4-2,0.6-3.1,0.6c-1,0-1.8-0.2-2.6-0.6s-1.4-1-2-1.7c-0.5-0.7-1-1.5-1.3-2.4c-0.3-0.9-0.5-1.9-0.5-2.9
				c0-1.2,0.2-2.3,0.6-3.3c0.4-1,0.9-1.9,1.6-2.6c0.7-0.7,1.4-1.3,2.3-1.7c0.9-0.4,1.9-0.6,2.9-0.6c0.8,0,1.5,0.2,2.2,0.5
				c0.7,0.3,1.4,0.7,2.1,1.2v-10.3c0-0.6,0-1.2-0.1-1.6c-0.1-0.4-0.2-0.7-0.5-1c-0.2-0.2-0.5-0.4-0.9-0.5c-0.4-0.1-0.9-0.2-1.4-0.2
				v-0.5l5.7-0.6L56.9,229z"/>
			<path id="path370" class="st2" d="M68.6,230.9c0.1,0.2,0.3,0.4,0.6,0.6s0.7,0.3,1.2,0.4s0.9,0.2,1.4,0.3c0.5,0.1,1,0.1,1.5,0.1
				c1.9,0,3.4-0.6,4.4-1.7c1.1-1.1,1.6-2.8,1.6-4.9c0-1.2-0.3-2.2-0.9-3.2s-1.4-1.8-2.2-2.4c-0.6,0.1-1.1,0.2-1.7,0.3
				c-0.6,0.1-1.1,0.1-1.7,0.1c-0.7,0-1.4,0-2.2-0.1c-0.7-0.1-1.4-0.3-2.1-0.6L68.6,230.9z M68.6,218.5c0.6,0.4,1.3,0.6,1.9,0.8
				c0.7,0.1,1.3,0.2,2,0.2c1.5,0,2.7-0.5,3.7-1.4c1-0.9,1.5-2.3,1.5-4.1c0-0.9-0.2-1.7-0.5-2.4c-0.3-0.7-0.8-1.3-1.3-1.8
				c-0.5-0.5-1.2-0.9-1.9-1.2c-0.7-0.3-1.4-0.4-2.2-0.4c-0.6,0-1.1,0-1.6,0.1c-0.5,0.1-1.1,0.2-1.6,0.4V218.5z M65.4,213.5
				c0-1.1,0-2-0.1-2.8c-0.1-0.7-0.2-1.3-0.5-1.8c-0.2-0.5-0.6-0.8-1.1-1c-0.5-0.2-1.1-0.4-2-0.4v-0.5c0.7,0.1,1.4,0.1,2.1,0.1
				c0.7,0,1.4,0,2.1,0c0.9,0,1.9-0.1,2.8-0.2c0.9-0.1,1.9-0.2,3-0.2c1,0,2,0.1,3.1,0.4c1.1,0.2,2.1,0.6,3,1.2
				c0.9,0.6,1.7,1.3,2.3,2.3c0.6,1,0.9,2.1,0.9,3.6c0,1.2-0.3,2.3-1,3.2c-0.7,1-1.5,1.6-2.5,2v0.1c1.6,0.6,2.9,1.5,3.8,2.7
				c0.9,1.2,1.3,2.8,1.3,4.8c0,1.2-0.2,2.2-0.7,3c-0.5,0.8-1.1,1.5-1.9,1.9s-1.6,0.8-2.6,1s-2,0.3-3,0.3c-1.6,0-3.2-0.1-4.7-0.2
				c-1.6-0.1-3.1-0.2-4.7-0.2c-0.5,0-1.1,0-1.6,0c-0.5,0-1.1,0.1-1.6,0.1v-0.5c0.8-0.1,1.5-0.2,1.9-0.4c0.5-0.2,0.8-0.5,1-1
				c0.2-0.5,0.4-1,0.4-1.8c0.1-0.7,0.1-1.6,0.1-2.8V213.5z"/>
			<path id="path372" class="st2" d="M88.3,206.4c0.5,0,0.9,0.2,1.3,0.7s0.5,0.9,0.5,1.5c0,0.6-0.2,1.1-0.5,1.5
				c-0.4,0.4-0.8,0.7-1.3,0.7c-0.5,0-0.9-0.2-1.3-0.7s-0.5-0.9-0.5-1.5c0-0.6,0.2-1.1,0.5-1.5C87.4,206.6,87.8,206.4,88.3,206.4
				 M87.3,223.2c0-0.6,0-1.2-0.1-1.7c0-0.5-0.1-0.9-0.3-1.2c-0.2-0.3-0.4-0.6-0.8-0.8c-0.4-0.2-0.8-0.4-1.4-0.4v-0.6L90,218v11.7
				c0,0.7,0,1.2,0.1,1.6c0.1,0.4,0.3,0.7,0.5,0.9c0.2,0.2,0.5,0.3,0.9,0.4c0.3,0.1,0.8,0.1,1.3,0.2v0.5c-0.8-0.1-1.6-0.1-2.5-0.1
				c-0.8,0-1.6,0-2.5,0c-0.5,0-1.1,0-1.6,0c-0.5,0-1,0.1-1.6,0.1v-0.5c0.5,0,0.9-0.1,1.2-0.2c0.3-0.1,0.6-0.2,0.8-0.4
				c0.2-0.2,0.4-0.5,0.5-0.9c0.1-0.4,0.1-0.9,0.1-1.6V223.2z"/>
			<path id="path374" class="st2" d="M101.3,219c-0.7,0-1.2,0.2-1.7,0.6c-0.5,0.4-0.9,0.9-1.2,1.5c-0.3,0.6-0.5,1.3-0.7,2
				c-0.1,0.8-0.2,1.5-0.2,2.2c0,0.8,0.1,1.7,0.3,2.5c0.2,0.8,0.5,1.6,0.9,2.3c0.4,0.7,0.9,1.3,1.6,1.7c0.6,0.4,1.4,0.7,2.3,0.7
				c0.7,0,1.2-0.2,1.7-0.6c0.5-0.4,0.9-0.9,1.2-1.5c0.3-0.6,0.5-1.3,0.7-2c0.2-0.7,0.2-1.5,0.2-2.3c0-0.8-0.1-1.7-0.3-2.5
				c-0.2-0.9-0.5-1.6-0.9-2.3c-0.4-0.7-0.9-1.3-1.6-1.7C102.9,219.2,102.1,219,101.3,219 M101.9,217.8c1.1,0,2.1,0.2,3.1,0.6
				c0.9,0.4,1.7,0.9,2.4,1.6c0.7,0.7,1.2,1.5,1.5,2.5c0.4,1,0.5,2.1,0.5,3.3c0,1.2-0.2,2.3-0.5,3.3c-0.4,1-0.9,1.8-1.5,2.5
				c-0.7,0.7-1.5,1.2-2.4,1.6c-0.9,0.4-1.9,0.6-3.1,0.6c-1.1,0-2.1-0.2-3.1-0.6c-0.9-0.4-1.7-0.9-2.4-1.6c-0.7-0.7-1.2-1.5-1.5-2.5
				c-0.4-1-0.5-2.1-0.5-3.3c0-1.2,0.2-2.3,0.5-3.3c0.4-1,0.9-1.8,1.5-2.5c0.7-0.7,1.5-1.2,2.4-1.6C99.7,218,100.8,217.8,101.9,217.8
				"/>
			<path id="path376" class="st2" d="M116.5,230.4c0,0.9,0.2,1.5,0.6,1.7c0.4,0.3,1,0.5,1.8,0.7v0.5c-0.7-0.1-1.4-0.1-2.1-0.1
				c-0.8,0-1.5,0-2.3,0c-0.5,0-1.1,0-1.6,0c-0.5,0-1.1,0.1-1.6,0.1v-0.5c0.8-0.2,1.5-0.4,1.9-0.7c0.4-0.3,0.6-0.9,0.6-1.7v-8.1
				c0-0.6,0-1.1-0.1-1.5c-0.1-0.4-0.2-0.7-0.4-0.9c-0.2-0.2-0.4-0.3-0.7-0.4s-0.7-0.1-1.1-0.2v-0.5l5.1-0.8v2
				c0.7-0.6,1.5-1.1,2.2-1.6c0.7-0.4,1.6-0.7,2.6-0.7c0.8,0,1.5,0.2,2.1,0.6c0.6,0.4,1.2,0.9,1.7,1.6c0.3-0.2,0.6-0.5,1-0.7
				c0.4-0.3,0.8-0.5,1.2-0.7c0.4-0.2,0.8-0.4,1.2-0.5c0.4-0.1,0.8-0.2,1.2-0.2c1.5,0,2.6,0.5,3.5,1.4s1.3,2.3,1.3,4.1v7.1
				c0,0.9,0.2,1.5,0.6,1.7c0.4,0.3,1.1,0.5,1.9,0.7v0.5c-0.7-0.1-1.5-0.1-2.3-0.1c-0.8,0-1.5,0-2.3,0c-0.5,0-1,0-1.5,0
				c-0.5,0-0.9,0.1-1.4,0.1v-0.5c0.7-0.2,1.2-0.4,1.6-0.7c0.4-0.3,0.6-0.9,0.6-1.7v-6.7c0-1.3-0.3-2.3-0.9-2.9c-0.6-0.6-1.2-1-2-1
				c-1.4,0-2.6,0.4-3.4,1.3v9.3c0,0.9,0.2,1.5,0.6,1.7c0.4,0.3,1,0.5,1.8,0.7v0.5c-0.7-0.1-1.4-0.1-2.1-0.1c-0.8,0-1.5,0-2.3,0
				c-0.5,0-1,0-1.5,0c-0.5,0-0.9,0.1-1.4,0.1v-0.5c0.7-0.2,1.2-0.4,1.6-0.7c0.4-0.3,0.6-0.9,0.6-1.7v-6.7c0-1.3-0.2-2.3-0.5-3
				c-0.3-0.7-1.1-1.1-2.3-1.1c-0.3,0-0.7,0-0.9,0.1c-0.3,0.1-0.5,0.2-0.8,0.3c-0.3,0.2-0.5,0.4-0.8,0.6c-0.3,0.3-0.6,0.6-0.9,0.9
				L116.5,230.4z"/>
			<path id="path378" class="st2" d="M148.6,223.5c-0.1-0.7-0.2-1.4-0.3-1.9c-0.1-0.6-0.3-1-0.6-1.4c-0.3-0.4-0.6-0.7-1-0.9
				c-0.4-0.2-1-0.3-1.6-0.3c-0.5,0-0.9,0.1-1.3,0.4c-0.4,0.3-0.8,0.6-1,1.1c-0.3,0.4-0.5,0.9-0.7,1.5c-0.2,0.5-0.2,1.1-0.2,1.6
				L148.6,223.5z M141.8,224.7c0,1.4,0.2,2.5,0.5,3.4c0.3,0.9,0.7,1.6,1.2,2.1c0.5,0.5,1,0.9,1.5,1.1c0.5,0.2,1.1,0.3,1.5,0.3
				c1,0,1.9-0.2,2.7-0.5c0.8-0.4,1.5-0.9,2.2-1.7l0.6,0.6c-1,1.2-1.9,2.1-2.9,2.7c-1,0.6-2.2,0.9-3.6,0.9c-1,0-1.9-0.2-2.7-0.7
				c-0.8-0.5-1.5-1-2-1.8c-0.6-0.7-1-1.6-1.3-2.5c-0.3-1-0.4-1.9-0.4-2.9s0.1-2,0.4-2.9s0.7-1.8,1.3-2.5c0.6-0.7,1.2-1.3,2-1.8
				s1.7-0.7,2.7-0.7c1.8,0,3.3,0.6,4.4,1.7c1.1,1.1,1.8,2.9,2.1,5.2L141.8,224.7z"/>
			<path id="path380" class="st2" d="M166.5,224.5c-0.2-0.7-0.5-1.3-0.8-2c-0.3-0.7-0.6-1.3-1-1.8c-0.4-0.5-0.9-1-1.4-1.3
				c-0.5-0.3-1.2-0.5-1.9-0.5c-0.7,0-1.3,0.2-1.9,0.6c-0.5,0.4-0.9,0.9-1.2,1.5c-0.3,0.6-0.5,1.3-0.7,2.1c-0.2,0.8-0.2,1.6-0.2,2.3
				c0,0.9,0.1,1.7,0.4,2.5c0.3,0.8,0.6,1.5,1.1,2.1c0.5,0.6,1,1.1,1.7,1.5c0.7,0.4,1.4,0.5,2.2,0.5c0.9,0,1.7-0.2,2.4-0.5
				c0.8-0.4,1.5-0.8,2.2-1.4l0.5,0.6c-1,1-2.1,1.7-3.1,2.2s-2.1,0.7-3.4,0.7c-0.9,0-1.8-0.2-2.6-0.6c-0.8-0.4-1.5-1-2.2-1.7
				c-0.6-0.7-1.1-1.6-1.5-2.5s-0.6-2-0.6-3.1c0-1.1,0.2-2.1,0.6-3.1s0.9-1.8,1.5-2.5c0.6-0.7,1.3-1.3,2.2-1.7
				c0.8-0.4,1.7-0.6,2.6-0.6c1,0,1.9,0.1,2.7,0.2c0.8,0.1,1.6,0.3,2.4,0.5l0.5,6H166.5z"/>
			<path id="path382" class="st2" d="M186.7,233.2c-0.7-0.1-1.4-0.1-2.2-0.1c-0.8,0-1.5,0-2.3,0c-0.5,0-1.1,0-1.6,0
				c-0.5,0-1,0.1-1.4,0.1v-0.5c0.7-0.2,1.3-0.4,1.7-0.7c0.4-0.3,0.6-0.9,0.6-1.7V224c0-1.4-0.3-2.4-0.7-3.1
				c-0.5-0.7-1.3-1.1-2.4-1.1c-0.4,0-0.8,0.1-1.2,0.2c-0.4,0.1-0.8,0.3-1.2,0.5c-0.3,0.2-0.6,0.5-0.9,0.7c-0.2,0.3-0.3,0.5-0.3,0.8
				v8.4c0,0.9,0.2,1.5,0.7,1.7c0.4,0.3,1.1,0.5,2,0.7v0.5c-0.8-0.1-1.6-0.1-2.4-0.1c-0.8,0-1.6,0-2.4,0c-0.5,0-1.1,0-1.6,0
				c-0.5,0-1,0.1-1.6,0.1v-0.5c0.8-0.2,1.4-0.4,1.8-0.7c0.4-0.3,0.6-0.9,0.6-1.7v-20.3c0-1,0-1.7-0.1-2.2c-0.1-0.5-0.2-1-0.4-1.2
				c-0.2-0.3-0.5-0.5-0.8-0.5c-0.3-0.1-0.8-0.1-1.3-0.2v-0.5l5.3-0.7v15.4c0.6-0.6,1.4-1.1,2.2-1.6c0.8-0.5,1.6-0.8,2.3-0.8
				c0.7,0,1.3,0.1,1.9,0.3c0.6,0.2,1.1,0.5,1.6,0.9c0.5,0.4,0.8,1,1.1,1.7c0.3,0.7,0.4,1.6,0.4,2.7v7c0,0.9,0.2,1.5,0.6,1.7
				c0.4,0.3,1,0.5,1.8,0.7L186.7,233.2z"/>
			<path id="path384" class="st2" d="M197.4,226.3c-0.8-0.2-1.5-0.4-2.3-0.4c-0.4,0-0.9,0.1-1.3,0.2c-0.4,0.1-0.8,0.3-1.2,0.6
				c-0.3,0.3-0.6,0.6-0.9,1c-0.2,0.4-0.3,0.9-0.3,1.5c0,0.9,0.3,1.5,0.8,1.9c0.5,0.4,1.2,0.6,1.8,0.6c0.7,0,1.4-0.2,2-0.5
				c0.6-0.3,1.1-0.6,1.3-0.9L197.4,226.3z M189.8,221.5c0.2-0.8,0.4-1.5,0.8-2c0.3-0.5,0.7-0.9,1.2-1.1c0.4-0.3,0.9-0.4,1.5-0.5
				c0.6-0.1,1.2-0.1,1.8-0.1c0.6,0,1.2,0.1,1.8,0.2c0.6,0.1,1.1,0.4,1.6,0.7c0.5,0.3,0.9,0.8,1.2,1.4c0.3,0.6,0.4,1.3,0.4,2.1v7.4
				c0,0.5,0.1,0.9,0.3,1.3c0.2,0.4,0.6,0.6,1.1,0.6c0.5,0,0.9-0.2,1.2-0.5c0.4-0.3,0.7-0.6,1-0.9l0.3,0.4c-0.2,0.3-0.5,0.6-0.8,0.9
				c-0.3,0.4-0.6,0.7-1,1c-0.3,0.3-0.7,0.6-1.1,0.8c-0.4,0.2-0.7,0.3-1.1,0.3c-0.2,0-0.5-0.1-0.7-0.3c-0.3-0.2-0.5-0.4-0.8-0.6
				c-0.2-0.2-0.5-0.5-0.7-0.8s-0.4-0.5-0.6-0.7c-0.7,0.6-1.6,1.1-2.5,1.6s-1.8,0.7-2.7,0.7c-0.5,0-1-0.1-1.4-0.3
				c-0.5-0.2-0.9-0.5-1.2-0.8s-0.6-0.8-0.8-1.2c-0.2-0.5-0.3-1-0.3-1.6c0-1.1,0.3-2,0.8-2.6c0.5-0.6,1.2-1.1,2.1-1.5
				c0.8-0.3,1.8-0.6,2.9-0.7c1.1-0.1,2.2-0.2,3.3-0.2v-3c0-1-0.3-1.7-0.8-2.3c-0.5-0.5-1.2-0.8-2-0.8c-0.6,0-1.1,0.3-1.4,1
				c-0.3,0.7-0.5,1.5-0.5,2.3L189.8,221.5z"/>
			<path id="path386" class="st2" d="M204.6,218.9l5.1-0.9v2.1c0.6-0.6,1.4-1.1,2.2-1.6c0.8-0.5,1.6-0.8,2.3-0.8
				c0.7,0,1.3,0.1,1.9,0.3c0.6,0.2,1.1,0.5,1.6,0.9c0.5,0.4,0.8,1,1.1,1.7c0.3,0.7,0.4,1.6,0.4,2.7v7c0,0.9,0.2,1.5,0.6,1.7
				c0.4,0.3,1,0.5,1.8,0.7v0.5c-0.7-0.1-1.4-0.1-2.2-0.1c-0.8,0-1.5,0-2.3,0c-0.5,0-1.1,0-1.6,0c-0.5,0-1,0.1-1.4,0.1v-0.5
				c0.7-0.2,1.3-0.4,1.7-0.7c0.4-0.3,0.6-0.9,0.6-1.7V224c0-1.4-0.3-2.4-0.7-3.1c-0.5-0.7-1.3-1.1-2.4-1.1c-0.4,0-0.8,0.1-1.2,0.2
				c-0.4,0.1-0.8,0.3-1.2,0.5s-0.6,0.5-0.9,0.7c-0.2,0.3-0.3,0.5-0.3,0.8v8.4c0,0.9,0.2,1.5,0.7,1.7c0.4,0.3,1.1,0.5,2,0.7v0.5
				c-0.8-0.1-1.6-0.1-2.4-0.1c-0.8,0-1.6,0-2.4,0c-0.5,0-1.1,0-1.6,0c-0.5,0-1,0.1-1.6,0.1v-0.5c0.8-0.2,1.4-0.4,1.8-0.7
				c0.4-0.3,0.6-0.9,0.6-1.7v-9.2c0-0.8-0.2-1.3-0.7-1.5c-0.5-0.2-1-0.3-1.7-0.3V218.9z"/>
			<path id="path388" class="st2" d="M226.7,206.4c0.5,0,0.9,0.2,1.3,0.7s0.5,0.9,0.5,1.5c0,0.6-0.2,1.1-0.5,1.5
				c-0.4,0.4-0.8,0.7-1.3,0.7c-0.5,0-0.9-0.2-1.3-0.7c-0.4-0.4-0.5-0.9-0.5-1.5c0-0.6,0.2-1.1,0.5-1.5
				C225.8,206.6,226.2,206.4,226.7,206.4 M225.7,223.2c0-0.6,0-1.2-0.1-1.7c0-0.5-0.1-0.9-0.3-1.2c-0.2-0.3-0.4-0.6-0.8-0.8
				c-0.4-0.2-0.8-0.4-1.4-0.4v-0.6l5.3-0.4v11.7c0,0.7,0,1.2,0.1,1.6c0.1,0.4,0.3,0.7,0.5,0.9c0.2,0.2,0.5,0.3,0.9,0.4
				c0.3,0.1,0.8,0.1,1.3,0.2v0.5c-0.8-0.1-1.6-0.1-2.5-0.1c-0.8,0-1.6,0-2.5,0c-0.5,0-1.1,0-1.6,0c-0.5,0-1,0.1-1.6,0.1v-0.5
				c0.5,0,0.9-0.1,1.2-0.2c0.3-0.1,0.6-0.2,0.8-0.4c0.2-0.2,0.4-0.5,0.5-0.9c0.1-0.4,0.1-0.9,0.1-1.6L225.7,223.2z"/>
			<path id="path390" class="st2" d="M244.8,224.5c-0.2-0.7-0.5-1.3-0.8-2c-0.3-0.7-0.6-1.3-1-1.8s-0.9-1-1.4-1.3
				c-0.5-0.3-1.2-0.5-1.9-0.5c-0.7,0-1.3,0.2-1.9,0.6c-0.5,0.4-0.9,0.9-1.2,1.5c-0.3,0.6-0.5,1.3-0.7,2.1c-0.2,0.8-0.2,1.6-0.2,2.3
				c0,0.9,0.1,1.7,0.4,2.5c0.3,0.8,0.6,1.5,1.1,2.1c0.5,0.6,1,1.1,1.7,1.5c0.7,0.4,1.4,0.5,2.2,0.5c0.9,0,1.7-0.2,2.4-0.5
				c0.8-0.4,1.5-0.8,2.2-1.4l0.5,0.6c-1,1-2.1,1.7-3.1,2.2s-2.1,0.7-3.4,0.7c-0.9,0-1.8-0.2-2.6-0.6c-0.8-0.4-1.5-1-2.2-1.7
				c-0.6-0.7-1.1-1.6-1.5-2.5s-0.6-2-0.6-3.1c0-1.1,0.2-2.1,0.6-3.1s0.9-1.8,1.5-2.5c0.6-0.7,1.3-1.3,2.2-1.7
				c0.8-0.4,1.7-0.6,2.6-0.6c1,0,1.9,0.1,2.7,0.2c0.8,0.1,1.6,0.3,2.4,0.5l0.5,6H244.8z"/>
			<path id="path392" class="st2" d="M248.4,228h0.5c0.3,0.6,0.7,1.1,1.1,1.6c0.4,0.5,0.9,1,1.3,1.4c0.5,0.4,1,0.8,1.6,1
				c0.6,0.3,1.2,0.4,1.8,0.4c0.3,0,0.6,0,0.9-0.1c0.3-0.1,0.6-0.2,0.9-0.3c0.3-0.2,0.5-0.4,0.6-0.6c0.2-0.3,0.2-0.6,0.2-1
				c0-0.7-0.2-1.2-0.6-1.6c-0.4-0.4-1-0.8-1.6-1.1c-0.6-0.3-1.3-0.6-2.1-0.9c-0.8-0.3-1.4-0.6-2.1-1c-0.6-0.4-1.2-0.9-1.6-1.4
				c-0.4-0.6-0.6-1.3-0.6-2.1c0-1.4,0.4-2.5,1.2-3.3c0.8-0.8,1.8-1.2,3-1.2c0.9,0,1.7,0.1,2.6,0.4c0.8,0.3,1.7,0.4,2.6,0.5l0.2,4.2
				h-0.5c-0.2-0.5-0.5-1-0.9-1.5c-0.4-0.5-0.7-0.9-1.2-1.2c-0.4-0.4-0.9-0.6-1.4-0.9c-0.5-0.2-1-0.3-1.5-0.3c-0.6,0-1.1,0.1-1.6,0.4
				c-0.5,0.3-0.7,0.8-0.7,1.6c0,0.6,0.2,1,0.6,1.4c0.4,0.4,1,0.7,1.6,1c0.6,0.3,1.3,0.6,2.1,0.9c0.8,0.3,1.4,0.6,2.1,1.1
				c0.6,0.4,1.2,0.9,1.6,1.5c0.4,0.6,0.6,1.3,0.6,2.2c0,0.9-0.1,1.7-0.4,2.3c-0.3,0.6-0.6,1.1-1.1,1.4c-0.5,0.3-1,0.6-1.6,0.7
				c-0.6,0.1-1.3,0.2-2,0.2c-0.6,0-1.1,0-1.6-0.1c-0.5-0.1-1-0.2-1.4-0.3c-0.5-0.1-0.9-0.3-1.3-0.4c-0.4-0.1-0.7-0.2-1-0.2
				L248.4,228z"/>
		</g>
	</g>
</g>
</svg>
