<?xml version="1.0" encoding="UTF-8" standalone="no"?>
<svg
   width="403"
   height="356"
   viewBox="0 0 403 356"
   fill="none"
   version="1.1"
   id="svg874"
   sodipodi:docname="logo-login.svg"
   inkscape:version="1.2.1 (9c6d41e410, 2022-07-14)"
   xmlns:inkscape="http://www.inkscape.org/namespaces/inkscape"
   xmlns:sodipodi="http://sodipodi.sourceforge.net/DTD/sodipodi-0.dtd"
   xmlns="http://www.w3.org/2000/svg"
   xmlns:svg="http://www.w3.org/2000/svg">
  <sodipodi:namedview
     id="namedview876"
     pagecolor="#ffffff"
     bordercolor="#000000"
     borderopacity="0.25"
     inkscape:showpageshadow="2"
     inkscape:pageopacity="0.0"
     inkscape:pagecheckerboard="0"
     inkscape:deskcolor="#d1d1d1"
     showgrid="false"
     inkscape:zoom="0.66292135"
     inkscape:cx="115.39831"
     inkscape:cy="178.75424"
     inkscape:window-width="1920"
     inkscape:window-height="1112"
     inkscape:window-x="-8"
     inkscape:window-y="-8"
     inkscape:window-maximized="1"
     inkscape:current-layer="svg874" />
  <g
     class="layer"
     id="g592"
     transform="matrix(1.7353795,0,0,1.594132,3.2383287,3.9325854)">
    <title
       id="title584">Layer 1</title>
    <path
       clip-rule="evenodd"
       d="m 110,192 c 49.71,0 90,-38.06 90,-85 0,-46.94 -40.29,-85 -90,-85 -49.71,0 -90,38.06 -90,85 0,46.94 40.29,85 90,85 z m 0,-7 c 37.56,0 68,-34.25 68,-76.5 C 178,66.25 147.56,32 110,32 72.44,32 42,66.25 42,108.5 42,150.75 72.44,185 110,185 Z"
       fill="#d9d9d9"
       fill-rule="evenodd"
       id="svg_3" />
    <path
       d="M 69.27,179.98 8.85,151.26 62.17,113.46 Z"
       fill="#2c579e"
       id="svg_4" />
    <path
       d="M 124.5,25.5 C 63,19.5 30.58,83.22 48,133 L 25.25,143.79 C 4.38,68.62 61,12 124.5,25.5 Z"
       fill="#2c579e"
       id="svg_5" />
    <path
       d="m 163.81,40.75 52.22,25.23 -46.44,32.48 z"
       fill="#2c579e"
       id="svg_6" />
    <path
       d="m 102.5,187.5 c 51,9 96.46,-56.62 79.04,-106.39 L 196.53,74.2 C 217.39,149.37 153,206 102.5,187.5 Z"
       fill="#2c579e"
       id="svg_7" />
    <path
       d="m 187.01,30.12 c 1.22,-0.75 -0.7,-3.02 -1.76,-4.27 0,0 1.55,1.21 1.62,0.47 0.08,-0.71 -0.25,-2.13 -2.42,-3.25 -1.2,-0.61 -2,-0.63 -2.84,-1.46 -0.84,-0.82 -1.99,-1.75 -2.2,-2.55 -0.21,-0.75 -0.53,-0.89 0.28,-1.41 0.53,-0.34 0.67,-1.35 0.49,-1.86 -0.38,-1.08 -1.05,-1.12 -1.33,-0.31 -0.14,0.43 -0.63,0.3 -1.13,0.18 -0.49,-0.09 -1.16,0.03 -1.47,0.63 -0.63,1.19 -1.22,1.41 -1.5,2.37 -0.18,0.78 -2.46,1.82 -3.92,2.48 -1.45,0.65 -7.78,2.55 -11.49,2.88 -3.68,0.34 -8.3,0.67 -11.92,3.31 0,0 -2.17,-0.09 -4.32,0 -2.14,0.07 -11.17,2.55 -13.01,3.14 -1.86,0.58 -2.59,0.85 -4.55,0.43 -1.99,-0.38 -4,-0.94 -5.89,-0.07 -3.04,1.36 -4.84,3.05 -4.84,3.05 0,0 -2.51,0.13 -3.41,0.13 h -2.38 c 0,0 -0.55,-4.43 -0.55,-6.36 0,-1.95 -0.34,-3.09 -0.34,-3.09 0,0 0.7,0.57 1.37,-0.24 0.67,-0.81 0.49,-2.64 0.42,-3.69 -0.07,-0.88 -0.71,-2.88 -1.5,-2.64 -0.18,0.07 -0.28,0.09 -0.34,0.11 0,-0.07 -0.42,-4.64 -1.01,-6.09 -0.53,-1.29 -1.37,-2.82 -2.8,-4.19 -0.82,-0.78 -2.09,-1.46 -3.43,-1.9 -0.28,-1.05 -1.13,-3.14 -3.5,-3.34 -2.87,-0.24 -5.3,1.39 -5.62,3.34 -0.14,1.02 0.18,1.72 0.53,2.13 -0.17,0.2 -0.36,0.38 -0.53,0.58 -1.61,1.77 -2.13,3.38 -2.21,5.65 -0.03,0.63 0.5,4.23 0.97,5.85 0.32,1.15 0.32,1.41 0.32,1.41 0,0 -1.13,-0.27 -1.2,0.7 -0.07,0.96 0.28,2.57 0.5,3.48 0.24,0.88 0.7,2.09 1.54,2.17 0.84,0.09 1.13,-0.5 1.13,-0.5 0,0 1.13,2.67 1.51,3.22 0.38,0.57 1.82,2.26 2.2,3.62 0.38,1.36 0.38,3.85 0.24,4.66 -0.14,0.81 -3.26,2.02 -4.51,3.48 -0.88,1.01 -2.38,1.93 -2.38,1.93 0,0 -3.18,0.09 -4.78,1.62 -1.58,1.52 -4.38,4.34 -5.51,6.67 -1.13,2.33 -1.64,3.79 -1.64,3.79 0,0 -3.68,2.1 -6.26,4.64 -2.59,2.57 -6.2,7.34 -7.74,9.2 -0.8,0.96 -2.97,2.53 -4.93,4.5 -2.42,2.47 -4.17,3.93 -7.47,8.11 -3.3,4.19 -9.32,10.93 -11,12.41 -1.71,1.48 -2.91,1.19 -3.71,2.53 -0.87,1.5 -1.62,2.4 -1.82,4.53 -0.11,1.32 -0.34,1.89 -0.59,2.44 -0.34,0.7 -1.09,1.09 -1.13,1.55 -0.04,0.5 0.59,0.57 0.91,0.63 0.49,0.09 1.86,-0.43 2.07,-1.59 0.24,-1.46 1.5,-1.29 1.5,-0.89 0,0.4 -1.08,3.38 -1.58,4.68 -0.61,1.63 -0.91,3.73 -0.88,4.7 0.03,0.75 0.39,1.55 0.88,0.96 0.53,-0.58 0.82,-2.13 0.82,-2.13 0,0 -0.14,1.46 -0.08,2.6 0.11,1.43 1.03,2.2 1.55,-0.16 0,0 0,1.19 0.78,1.16 0.76,-0.04 0.97,-1.66 0.97,-1.66 -0.08,1.09 0.42,1.46 1.08,0.65 0.45,-0.54 1.62,-2.87 1.76,-4.93 0.14,-2.06 0.78,-7.71 0.78,-8.93 0,-1.23 0.18,-0.98 0.84,-1.23 0.74,-0.24 1.16,-1.63 2.14,-2.44 0.99,-0.82 9.25,-7.44 13.17,-10.96 4.21,-3.79 5.57,-4.95 7,-7.11 0.5,-0.81 1.66,-1.39 2.66,-2.34 1.01,-1.01 6.74,-5.51 8.51,-6.98 1.76,-1.48 4.32,-2.6 6.83,-5.11 2.51,-2.48 3.99,-3.65 3.99,-3.65 0,0 3.57,2.17 4.88,3.41 1.33,1.25 2.59,4.68 3.46,6.63 0.84,1.97 0.18,5.44 0.04,7.25 -0.17,1.82 -0.38,1.99 -0.78,2.87 -1.43,3.22 -1.93,9.11 -1.86,10.09 0.08,0.96 -8.93,10.96 -11.78,15.81 -2.87,4.88 -9.22,18.45 -10.22,22.77 -0.97,4.16 -1.51,6.33 -0.42,8.17 1.08,1.86 4.45,3.54 6.63,2.51 2.2,-1.02 4.42,-2.84 6.38,-4.53 1.43,-1.23 10.24,-12.52 11.96,-13.43 1.72,-0.92 6.63,-4.53 8.07,-6.85 1.62,-2.64 3.37,-5.31 3.88,-6.76 0.21,-0.57 2.17,-0.74 1.92,0.34 -0.28,1.08 -1.2,15.39 -0.61,19.39 0.57,4 0.21,12.69 0.13,16.05 -0.08,3.38 -0.08,8.76 -0.14,10.46 -0.03,0.4 0.13,-0.36 -0.87,1.9 -0.99,2.24 -2.3,7.03 -1.51,10.79 0.76,3.79 -0.55,11.82 -0.59,13.03 l -0.04,1.21 c 0,0 -2.46,-0.71 -3.33,0.71 -0.84,1.41 -1.71,3.79 -1.39,7.3 0.34,3.52 -1.12,9.38 -1.86,10.43 -0.71,1.05 -3.75,3.36 -3.16,9.43 0.57,6.05 2.97,5.92 5.18,4.43 2.21,-1.5 7.26,-8.6 8.53,-16.45 0.25,-1.52 2.87,-7.01 2.49,-9.07 -0.38,-2.09 1.3,-8.17 2.46,-11.98 1.16,-3.83 5.79,-12.34 4.51,-21.45 -0.29,-2.2 1.08,-5.96 2.04,-8.8 1.72,-5.01 6.7,-22.95 8.79,-36.14 0.55,-3.49 0.76,-3.58 1.45,-12.41 0.46,-5.78 -1.66,-15.87 -2.34,-17.13 -1.18,-2.22 -1.33,-6.85 -2.45,-10.35 -0.63,-1.95 -0.5,-6.02 -0.66,-8.19 -0.14,-2.17 -0.45,-7.65 -1.29,-12.01 -0.84,-4.34 -0.84,-5.39 -0.67,-6.52 0.14,-1.12 2.46,-1.15 4.41,-1.46 1.92,-0.34 6.26,-0.71 11.63,-4.54 0.7,-0.51 4.7,-1.75 6,-2.16 1.3,-0.43 3.04,-0.71 3.82,-0.63 0.76,0.09 1.43,-0.78 1.89,-1.02 0.45,-0.24 16.41,-5.62 19.06,-7.21 1.83,-1.09 2.84,-0.51 3.29,-1.12 0.42,-0.57 0.82,-0.2 2.28,0.04 1.47,0.24 3.54,0.92 4.17,1.5 0.61,0.58 2.34,4.7 2.49,6.05 0.17,1.36 0.8,2.2 1.18,1.12 0.46,-1.35 -0.14,-3.25 -0.14,-3.25 0,0 0.18,0.34 0.57,0.65 0.39,0.34 1.12,-1.09 0.63,-2.28"
       id="svg_29"
       style="fill:#000000" />
  </g>
  <defs
     id="defs872">
    <clipPath
       id="clip0_124_59">
      <rect
         width="403"
         height="356"
         fill="white"
         id="rect869" />
    </clipPath>
  </defs>
</svg>
