<?xml version="1.0" encoding="UTF-8" standalone="no"?>
<svg
   width="223"
   height="220"
   version="1.1"
   id="svg6763"
   xmlns="http://www.w3.org/2000/svg">
  <defs
     id="defs6753">
    <clipPath
       id="clip0_118_131">
      <rect
         fill="white"
         height="220"
         id="svg_1"
         width="223" />
    </clipPath>
  </defs>
  <g
     class="layer"
     id="g6761">
    <title
       id="title6755">Layer 1</title>
    <path
       d="m69.27,179.98l-60.42,-28.72l53.32,-37.8l7.1,66.52z"
       fill="#2c579e"
       id="svg_4"
       transform="matrix(1 0 0 1 0 0)"
       style="fill:#7798ce;fill-opacity:1" />
    <path
       d="m124.5,25.5c-61.5,-6 -93.92,57.72 -76.5,107.5l-22.75,10.79c-20.87,-75.17 35.75,-131.79 99.25,-118.29z"
       fill="#2c579e"
       id="svg_5"
       style="fill:#7798ce;fill-opacity:1" />
    <path
       d="m170.6,50.85c0.93,-0.56 -0.53,-2.24 -1.34,-3.17c0,0 1.18,0.9 1.23,0.35c0.06,-0.53 -0.19,-1.58 -1.84,-2.41c-0.91,-0.45 -1.52,-0.47 -2.16,-1.08c-0.64,-0.61 -1.51,-1.3 -1.67,-1.89c-0.16,-0.56 -0.4,-0.66 0.21,-1.05c0.4,-0.25 0.51,-1 0.37,-1.38c-0.29,-0.8 -0.8,-0.83 -1.01,-0.23c-0.11,0.32 -0.48,0.22 -0.86,0.13c-0.37,-0.07 -0.88,0.02 -1.12,0.47c-0.48,0.88 -0.93,1.05 -1.14,1.76c-0.14,0.58 -1.87,1.35 -2.98,1.84c-1.1,0.48 -5.91,1.89 -8.73,2.14c-2.8,0.25 -6.31,0.5 -9.06,2.46c0,0 -1.65,-0.07 -3.28,0c-1.63,0.05 -8.49,1.89 -9.89,2.33c-1.41,0.43 -1.97,0.63 -3.46,0.32c-1.51,-0.28 -3.04,-0.7 -4.48,-0.05c-2.31,1.01 -3.68,2.26 -3.68,2.26c0,0 -1.91,0.1 -2.59,0.1l-1.81,0c0,0 -0.42,-3.29 -0.42,-4.72c0,-1.45 -0.26,-2.29 -0.26,-2.29c0,0 0.53,0.42 1.04,-0.18c0.51,-0.6 0.37,-1.96 0.32,-2.74c-0.05,-0.65 -0.54,-2.14 -1.14,-1.96c-0.14,0.05 -0.21,0.07 -0.26,0.08c0,-0.05 -0.32,-3.44 -0.77,-4.52c-0.4,-0.96 -1.04,-2.09 -2.13,-3.11c-0.62,-0.58 -1.59,-1.08 -2.61,-1.41c-0.21,-0.78 -0.86,-2.33 -2.66,-2.48c-2.18,-0.18 -4.03,1.03 -4.27,2.48c-0.11,0.76 0.14,1.28 0.4,1.58c-0.13,0.15 -0.27,0.28 -0.4,0.43c-1.22,1.31 -1.62,2.51 -1.68,4.19c-0.02,0.47 0.38,3.14 0.74,4.34c0.24,0.85 0.24,1.05 0.24,1.05c0,0 -0.86,-0.2 -0.91,0.52c-0.05,0.71 0.21,1.91 0.38,2.58c0.18,0.65 0.53,1.55 1.17,1.61c0.64,0.07 0.86,-0.37 0.86,-0.37c0,0 0.86,1.98 1.15,2.39c0.29,0.42 1.38,1.68 1.67,2.69c0.29,1.01 0.29,2.86 0.18,3.46c-0.11,0.6 -2.48,1.5 -3.43,2.58c-0.67,0.75 -1.81,1.43 -1.81,1.43c0,0 -2.42,0.07 -3.63,1.2c-1.2,1.13 -3.33,3.22 -4.19,4.95c-0.86,1.73 -1.25,2.81 -1.25,2.81c0,0 -2.8,1.56 -4.76,3.44c-1.97,1.91 -4.71,5.45 -5.88,6.83c-0.61,0.71 -2.26,1.88 -3.75,3.34c-1.84,1.83 -3.17,2.92 -5.68,6.02c-2.51,3.11 -7.08,8.11 -8.36,9.21c-1.3,1.1 -2.21,0.88 -2.82,1.88c-0.66,1.11 -1.23,1.78 -1.38,3.36c-0.08,0.98 -0.26,1.4 -0.45,1.81c-0.26,0.52 -0.83,0.81 -0.86,1.15c-0.03,0.37 0.45,0.42 0.69,0.47c0.37,0.07 1.41,-0.32 1.57,-1.18c0.18,-1.08 1.14,-0.96 1.14,-0.66c0,0.3 -0.82,2.51 -1.2,3.47c-0.46,1.21 -0.69,2.77 -0.67,3.49c0.02,0.56 0.3,1.15 0.67,0.71c0.4,-0.43 0.62,-1.58 0.62,-1.58c0,0 -0.11,1.08 -0.06,1.93c0.08,1.06 0.78,1.63 1.18,-0.12c0,0 0,0.88 0.59,0.86c0.58,-0.03 0.74,-1.23 0.74,-1.23c-0.06,0.81 0.32,1.08 0.82,0.48c0.34,-0.4 1.23,-2.13 1.34,-3.66c0.11,-1.53 0.59,-5.72 0.59,-6.63c0,-0.91 0.14,-0.73 0.64,-0.91c0.56,-0.18 0.88,-1.21 1.63,-1.81c0.75,-0.61 7.03,-5.52 10.01,-8.13c3.2,-2.81 4.23,-3.67 5.32,-5.28c0.38,-0.6 1.26,-1.03 2.02,-1.74c0.77,-0.75 5.12,-4.09 6.47,-5.18c1.34,-1.1 3.28,-1.93 5.19,-3.79c1.91,-1.84 3.03,-2.71 3.03,-2.71c0,0 2.71,1.61 3.71,2.53c1.01,0.93 1.97,3.47 2.63,4.92c0.64,1.46 0.14,4.04 0.03,5.38c-0.13,1.35 -0.29,1.48 -0.59,2.13c-1.09,2.39 -1.47,6.76 -1.41,7.49c0.06,0.71 -6.79,8.13 -8.95,11.73c-2.18,3.62 -7.01,13.69 -7.77,16.9c-0.74,3.09 -1.15,4.7 -0.32,6.06c0.82,1.38 3.38,2.63 5.04,1.86c1.67,-0.76 3.36,-2.11 4.85,-3.36c1.09,-0.91 7.78,-9.29 9.09,-9.97c1.31,-0.68 5.04,-3.36 6.13,-5.08c1.23,-1.96 2.56,-3.94 2.95,-5.02c0.16,-0.42 1.65,-0.55 1.46,0.25c-0.21,0.8 -0.91,11.42 -0.46,14.39c0.43,2.97 0.16,9.42 0.1,11.91c-0.06,2.51 -0.06,6.5 -0.11,7.76c-0.02,0.3 0.1,-0.27 -0.66,1.41c-0.75,1.66 -1.75,5.22 -1.15,8.01c0.58,2.81 -0.42,8.77 -0.45,9.67l-0.03,0.9c0,0 -1.87,-0.53 -2.53,0.53c-0.64,1.05 -1.3,2.81 -1.06,5.42c0.26,2.61 -0.85,6.96 -1.41,7.74c-0.54,0.78 -2.85,2.49 -2.4,7c0.43,4.49 2.26,4.39 3.94,3.29c1.68,-1.11 5.52,-6.38 6.48,-12.21c0.19,-1.13 2.18,-5.2 1.89,-6.73c-0.29,-1.55 0.99,-6.06 1.87,-8.89c0.88,-2.84 4.4,-9.16 3.43,-15.92c-0.22,-1.63 0.82,-4.42 1.55,-6.53c1.31,-3.72 5.09,-17.03 6.68,-26.82c0.42,-2.59 0.58,-2.66 1.1,-9.21c0.35,-4.29 -1.26,-11.78 -1.78,-12.71c-0.9,-1.65 -1.01,-5.08 -1.86,-7.68c-0.48,-1.45 -0.38,-4.47 -0.5,-6.08c-0.11,-1.61 -0.34,-5.68 -0.98,-8.91c-0.64,-3.22 -0.64,-4 -0.51,-4.84c0.11,-0.83 1.87,-0.85 3.35,-1.08c1.46,-0.25 4.76,-0.53 8.84,-3.37c0.53,-0.38 3.57,-1.3 4.56,-1.6c0.99,-0.32 2.31,-0.53 2.9,-0.47c0.58,0.07 1.09,-0.58 1.44,-0.76c0.34,-0.18 12.47,-4.17 14.49,-5.35c1.39,-0.81 2.16,-0.38 2.5,-0.83c0.32,-0.42 0.62,-0.15 1.73,0.03c1.12,0.18 2.69,0.68 3.17,1.11c0.46,0.43 1.78,3.49 1.89,4.49c0.13,1.01 0.61,1.63 0.9,0.83c0.35,-1 -0.11,-2.41 -0.11,-2.41c0,0 0.14,0.25 0.43,0.48c0.3,0.25 0.85,-0.81 0.48,-1.69"
       id="svg_2" />
  </g>
</svg>
