<svg width="380" height="570" viewBox="0 0 380 570" fill="none" xmlns="http://www.w3.org/2000/svg">
<rect width="380" height="570" fill="white"/>
<path d="M146.799 319.955C151.446 306.016 162.526 296.008 162.526 296.008V285.642L182.542 280.638L175.751 302.799L162.526 327.461C154.663 343.903 150.373 356.413 150.373 356.413C148.586 363.204 157.522 369.638 157.522 369.638H146.799L133.932 366.421L141.08 354.626C142.867 343.188 146.799 319.955 146.799 319.955Z" fill="#F1A083"/>
<path d="M130 369.996V378.217C143.821 378.574 171.605 379.074 172.177 378.217C172.892 377.144 174.679 376.787 173.606 373.57C172.534 370.353 165.743 367.851 161.096 367.494C157.379 367.208 151.922 368.328 149.659 368.923C145.012 368.923 139.293 364.992 139.293 364.992H133.574C130 366.421 130 369.996 130 369.996Z" fill="#174752"/>
<path d="M163.241 273.49C165.528 266.627 166.577 251.806 166.815 245.253H205.06L191.478 295.65H157.522C158.475 291.123 160.953 280.352 163.241 273.49Z" fill="#5677A9"/>
<path d="M230.795 362.49C231.653 365.349 231.153 367.017 230.795 367.494L248.667 371.425L252.956 364.277C248.905 361.775 240.446 356.056 239.016 353.197C237.229 349.622 230.795 327.819 228.651 319.598C226.506 311.377 225.434 299.225 225.076 296.365C224.79 294.078 223.289 291.123 222.574 289.932C217.57 292.672 207.562 298.367 207.562 299.225C207.562 300.297 209.349 321.743 212.924 331.036C216.498 340.329 229.723 358.915 230.795 362.49Z" fill="#F1A083"/>
<path d="M228.65 366.779C227.507 367.637 228.174 373.57 228.65 376.43C234.965 376.906 248.738 377.573 253.313 376.43C257.888 375.286 267.372 371.187 271.542 369.281C272.376 368.447 273.544 366.207 271.542 363.919C269.04 361.06 262.964 363.205 257.96 362.847C252.956 362.49 250.096 360.702 248.666 360.345C247.237 359.988 248.309 362.49 247.594 365.349C246.879 368.209 244.735 367.851 241.518 368.209C238.301 368.566 230.08 365.707 228.65 366.779Z" fill="#174752"/>
<path d="M166.927 260.697C164.639 255.264 164.187 247.234 165.14 244.255C168.118 244.255 176.792 243.898 187.658 242.468C198.524 241.038 204.576 241.872 206.244 242.468C208.984 248.187 215.18 261.34 218.039 268.203C220.899 275.066 225.188 285.836 226.975 290.364L200.525 303.231C197.428 297.274 190.517 284.287 187.658 279.998C184.798 275.709 172.646 265.344 166.927 260.697Z" fill="#254F8E"/>
<path d="M186.831 136.952L182.542 149.462L198.627 160.9C198.865 159.112 199.556 154.68 200.414 151.249C201.272 147.818 204.345 145.768 205.775 145.173L191.478 132.663L186.831 136.952Z" fill="#F18F6A"/>
<path d="M190.998 133.764C189.925 135.313 187.423 138.411 185.994 138.411C185.517 137.458 184.421 134.979 183.849 132.692C183.134 129.833 181.705 127.331 181.347 124.114C180.99 120.897 180.99 120.182 181.705 116.965C182.419 113.748 183.134 111.246 186.709 109.459C190.283 107.672 194.572 108.029 201.363 108.029C208.154 108.029 207.082 109.459 209.584 110.889C212.086 112.318 211.729 114.463 211.729 115.893C211.729 117.036 209.107 117.322 207.797 117.322L206.01 125.901L190.998 133.764Z" fill="#1A4555"/>
<path d="M206.49 145.275C201.915 144.704 193.503 138.008 190.406 134.553C191.24 132.646 192.55 129.119 193.98 127.404C195.767 125.259 194.695 127.761 198.269 127.761C201.843 127.761 202.341 127.481 203.273 125.617C203.988 124.187 202.916 120.97 204.345 118.468C205.489 116.467 209.468 116.443 210.779 116.681C211.494 118.111 211.494 118.609 211.494 119.898V125.617C211.494 128.119 212.566 128.119 213.638 129.548C214.496 130.692 214.353 132.051 214.353 132.765L212.566 133.123L211.851 143.488C211.613 144.322 211.065 145.847 206.49 145.275Z" fill="#F4AE94"/>
<path d="M166.815 224.165C167.101 229.311 163.837 240.368 162.169 245.253C165.505 244.776 174.75 243.609 185.044 242.751C195.338 241.893 204.107 243.108 207.205 243.823C206.133 238.819 203.916 227.882 203.631 224.165C203.273 219.518 203.988 217.731 205.06 210.225C206.133 202.719 202.558 169.121 200.771 162.687C198.984 156.253 195.052 147.317 187.546 145.887C180.04 144.458 170.39 157.325 167.888 162.687C165.386 168.048 163.956 190.209 163.598 199.859C163.241 209.51 166.458 217.731 166.815 224.165Z" fill="#5383C9"/>
<path d="M182.9 207.008C181.232 202.838 177.824 192.711 177.538 185.562H193.622V203.433C194.456 205.221 196.553 209.939 198.269 214.514C199.985 219.089 202.796 232.385 203.988 238.462L210.779 253.116V265.626H198.269C198.507 260.265 198.841 248.255 198.269 243.108C197.554 236.674 188.261 228.096 185.402 220.948C183.114 215.229 181.946 208.437 182.9 207.008Z" fill="#F1A083"/>
<path d="M380 257L348.5 285.579L348.5 228.421L380 257Z" fill="#AFD0FF"/>
<path d="M150.36 428.818V447H148.158V431.126H148.051L143.612 434.074V431.837L148.158 428.818H150.36ZM159.444 447.142C159.006 447.142 158.63 446.985 158.316 446.672C158.003 446.358 157.846 445.982 157.846 445.544C157.846 445.106 158.003 444.73 158.316 444.417C158.63 444.103 159.006 443.946 159.444 443.946C159.882 443.946 160.258 444.103 160.571 444.417C160.885 444.73 161.042 445.106 161.042 445.544C161.042 445.834 160.968 446.1 160.82 446.343C160.678 446.586 160.486 446.781 160.243 446.929C160.006 447.071 159.74 447.142 159.444 447.142ZM173.419 447V428.818H179.562C180.989 428.818 182.155 429.076 183.06 429.591C183.972 430.1 184.646 430.789 185.084 431.659C185.522 432.529 185.741 433.5 185.741 434.571C185.741 435.642 185.522 436.616 185.084 437.492C184.652 438.368 183.984 439.066 183.078 439.587C182.173 440.102 181.013 440.359 179.598 440.359H175.195V438.406H179.527C180.504 438.406 181.288 438.238 181.88 437.9C182.471 437.563 182.901 437.107 183.167 436.533C183.439 435.953 183.575 435.299 183.575 434.571C183.575 433.843 183.439 433.192 183.167 432.618C182.901 432.044 182.468 431.594 181.871 431.268C181.273 430.937 180.48 430.771 179.491 430.771H175.621V447H173.419ZM189.004 447V433.364H191.028V435.423H191.17C191.419 434.749 191.869 434.201 192.52 433.781C193.171 433.361 193.905 433.151 194.721 433.151C194.875 433.151 195.068 433.154 195.298 433.159C195.529 433.165 195.704 433.174 195.822 433.186V435.317C195.751 435.299 195.588 435.272 195.334 435.237C195.085 435.195 194.822 435.175 194.544 435.175C193.881 435.175 193.289 435.314 192.768 435.592C192.253 435.864 191.845 436.243 191.543 436.728C191.247 437.208 191.099 437.755 191.099 438.371V447H189.004ZM203.608 447.284C202.294 447.284 201.161 446.994 200.208 446.414C199.261 445.828 198.53 445.011 198.015 443.964C197.506 442.91 197.252 441.685 197.252 440.288C197.252 438.892 197.506 437.661 198.015 436.595C198.53 435.524 199.246 434.689 200.163 434.092C201.087 433.488 202.164 433.186 203.395 433.186C204.105 433.186 204.807 433.304 205.499 433.541C206.192 433.778 206.822 434.163 207.39 434.695C207.958 435.222 208.411 435.92 208.748 436.79C209.086 437.661 209.254 438.732 209.254 440.004V440.892H198.743V439.081H207.124C207.124 438.312 206.97 437.625 206.662 437.021C206.36 436.418 205.928 435.941 205.366 435.592C204.81 435.243 204.153 435.068 203.395 435.068C202.561 435.068 201.838 435.275 201.229 435.69C200.625 436.098 200.161 436.631 199.835 437.288C199.509 437.945 199.347 438.649 199.347 439.401V440.608C199.347 441.638 199.524 442.511 199.879 443.227C200.24 443.937 200.741 444.479 201.38 444.852C202.019 445.219 202.762 445.402 203.608 445.402C204.159 445.402 204.656 445.325 205.1 445.171C205.549 445.011 205.937 444.775 206.263 444.461C206.588 444.141 206.84 443.745 207.017 443.271L209.041 443.839C208.828 444.526 208.47 445.13 207.967 445.651C207.464 446.165 206.843 446.568 206.103 446.858C205.363 447.142 204.531 447.284 203.608 447.284ZM212.442 452.114V433.364H214.466V435.53H214.714C214.868 435.293 215.081 434.991 215.353 434.624C215.632 434.251 216.028 433.92 216.543 433.63C217.064 433.334 217.768 433.186 218.656 433.186C219.804 433.186 220.816 433.473 221.692 434.047C222.568 434.621 223.252 435.435 223.743 436.489C224.234 437.542 224.48 438.785 224.48 440.217C224.48 441.661 224.234 442.913 223.743 443.973C223.252 445.026 222.571 445.843 221.701 446.423C220.831 446.997 219.828 447.284 218.692 447.284C217.816 447.284 217.114 447.139 216.587 446.849C216.061 446.553 215.655 446.219 215.371 445.846C215.087 445.467 214.868 445.153 214.714 444.905H214.537V452.114H212.442ZM214.501 440.182C214.501 441.212 214.652 442.12 214.954 442.907C215.256 443.689 215.697 444.301 216.277 444.745C216.857 445.183 217.567 445.402 218.407 445.402C219.283 445.402 220.014 445.171 220.6 444.71C221.192 444.242 221.636 443.615 221.932 442.827C222.234 442.034 222.385 441.152 222.385 440.182C222.385 439.223 222.237 438.359 221.941 437.589C221.651 436.814 221.21 436.202 220.618 435.752C220.032 435.296 219.295 435.068 218.407 435.068C217.555 435.068 216.839 435.284 216.259 435.716C215.679 436.142 215.241 436.74 214.945 437.51C214.649 438.273 214.501 439.164 214.501 440.182ZM231.689 447.32C230.825 447.32 230.04 447.157 229.336 446.831C228.632 446.5 228.072 446.023 227.658 445.402C227.244 444.775 227.037 444.017 227.037 443.129C227.037 442.348 227.191 441.715 227.498 441.229C227.806 440.738 228.217 440.353 228.732 440.075C229.247 439.797 229.815 439.59 230.437 439.454C231.064 439.312 231.695 439.199 232.328 439.116C233.157 439.01 233.828 438.93 234.343 438.877C234.864 438.818 235.243 438.72 235.48 438.584C235.722 438.448 235.844 438.211 235.844 437.874V437.803C235.844 436.927 235.604 436.246 235.124 435.761C234.651 435.275 233.932 435.033 232.967 435.033C231.967 435.033 231.183 435.252 230.614 435.69C230.046 436.128 229.647 436.595 229.416 437.092L227.427 436.382C227.782 435.554 228.256 434.908 228.848 434.447C229.446 433.979 230.097 433.654 230.801 433.47C231.511 433.281 232.21 433.186 232.896 433.186C233.334 433.186 233.837 433.239 234.405 433.346C234.979 433.446 235.533 433.657 236.065 433.976C236.604 434.296 237.051 434.778 237.406 435.423C237.761 436.068 237.939 436.933 237.939 438.016V447H235.844V445.153H235.737C235.595 445.449 235.358 445.766 235.027 446.103C234.695 446.441 234.254 446.728 233.704 446.964C233.154 447.201 232.482 447.32 231.689 447.32ZM232.008 445.438C232.837 445.438 233.535 445.275 234.103 444.949C234.678 444.624 235.11 444.203 235.4 443.689C235.696 443.174 235.844 442.632 235.844 442.064V440.146C235.755 440.253 235.559 440.35 235.258 440.439C234.962 440.522 234.618 440.596 234.228 440.661C233.843 440.72 233.467 440.774 233.1 440.821C232.739 440.862 232.446 440.898 232.221 440.928C231.677 440.999 231.168 441.114 230.694 441.274C230.227 441.428 229.848 441.661 229.558 441.975C229.274 442.283 229.132 442.703 229.132 443.236C229.132 443.964 229.401 444.514 229.94 444.887C230.484 445.254 231.174 445.438 232.008 445.438ZM241.763 447V433.364H243.787V435.423H243.929C244.178 434.749 244.627 434.201 245.278 433.781C245.929 433.361 246.663 433.151 247.48 433.151C247.634 433.151 247.826 433.154 248.057 433.159C248.288 433.165 248.463 433.174 248.581 433.186V435.317C248.51 435.299 248.347 435.272 248.093 435.237C247.844 435.195 247.581 435.175 247.303 435.175C246.64 435.175 246.048 435.314 245.527 435.592C245.012 435.864 244.604 436.243 244.302 436.728C244.006 437.208 243.858 437.755 243.858 438.371V447H241.763ZM256.367 447.284C255.053 447.284 253.92 446.994 252.967 446.414C252.02 445.828 251.289 445.011 250.774 443.964C250.265 442.91 250.01 441.685 250.01 440.288C250.01 438.892 250.265 437.661 250.774 436.595C251.289 435.524 252.005 434.689 252.922 434.092C253.846 433.488 254.923 433.186 256.154 433.186C256.864 433.186 257.565 433.304 258.258 433.541C258.95 433.778 259.581 434.163 260.149 434.695C260.717 435.222 261.17 435.92 261.507 436.79C261.845 437.661 262.013 438.732 262.013 440.004V440.892H251.502V439.081H259.883C259.883 438.312 259.729 437.625 259.421 437.021C259.119 436.418 258.687 435.941 258.125 435.592C257.568 435.243 256.911 435.068 256.154 435.068C255.319 435.068 254.597 435.275 253.988 435.69C253.384 436.098 252.919 436.631 252.594 437.288C252.268 437.945 252.106 438.649 252.106 439.401V440.608C252.106 441.638 252.283 442.511 252.638 443.227C252.999 443.937 253.499 444.479 254.139 444.852C254.778 445.219 255.521 445.402 256.367 445.402C256.917 445.402 257.414 445.325 257.858 445.171C258.308 445.011 258.696 444.775 259.021 444.461C259.347 444.141 259.598 443.745 259.776 443.271L261.8 443.839C261.587 444.526 261.229 445.13 260.726 445.651C260.223 446.165 259.601 446.568 258.862 446.858C258.122 447.142 257.29 447.284 256.367 447.284ZM158.911 463.364V465.139H151.845V463.364H158.911ZM153.904 460.097H156V473.094C156 473.686 156.085 474.129 156.257 474.425C156.435 474.715 156.659 474.911 156.932 475.011C157.21 475.106 157.503 475.153 157.811 475.153C158.041 475.153 158.231 475.142 158.379 475.118C158.527 475.088 158.645 475.065 158.734 475.047L159.16 476.929C159.018 476.982 158.82 477.036 158.565 477.089C158.311 477.148 157.988 477.178 157.598 477.178C157.006 477.178 156.426 477.05 155.858 476.796C155.295 476.541 154.828 476.154 154.455 475.633C154.088 475.112 153.904 474.455 153.904 473.662V460.097ZM164.451 468.797V477H162.356V458.818H164.451V465.494H164.629C164.948 464.79 165.428 464.231 166.067 463.816C166.712 463.396 167.57 463.186 168.642 463.186C169.571 463.186 170.385 463.373 171.083 463.745C171.781 464.112 172.323 464.678 172.708 465.441C173.098 466.199 173.294 467.163 173.294 468.335V477H171.198V468.477C171.198 467.394 170.917 466.557 170.355 465.965C169.799 465.367 169.026 465.068 168.038 465.068C167.351 465.068 166.736 465.213 166.191 465.503C165.653 465.793 165.227 466.216 164.913 466.773C164.605 467.329 164.451 468.004 164.451 468.797ZM182.844 477.284C181.53 477.284 180.397 476.994 179.444 476.414C178.497 475.828 177.766 475.011 177.251 473.964C176.742 472.91 176.487 471.685 176.487 470.288C176.487 468.892 176.742 467.661 177.251 466.595C177.766 465.524 178.482 464.689 179.399 464.092C180.323 463.488 181.4 463.186 182.631 463.186C183.341 463.186 184.042 463.304 184.735 463.541C185.427 463.778 186.058 464.163 186.626 464.695C187.194 465.222 187.647 465.92 187.984 466.79C188.322 467.661 188.49 468.732 188.49 470.004V470.892H177.979V469.081H186.36C186.36 468.312 186.206 467.625 185.898 467.021C185.596 466.418 185.164 465.941 184.602 465.592C184.045 465.243 183.388 465.068 182.631 465.068C181.796 465.068 181.074 465.275 180.465 465.69C179.861 466.098 179.396 466.631 179.071 467.288C178.745 467.945 178.583 468.649 178.583 469.401V470.608C178.583 471.638 178.76 472.511 179.115 473.227C179.476 473.937 179.976 474.479 180.616 474.852C181.255 475.219 181.998 475.402 182.844 475.402C183.394 475.402 183.892 475.325 184.335 475.171C184.785 475.011 185.173 474.775 185.498 474.461C185.824 474.141 186.075 473.745 186.253 473.271L188.277 473.839C188.064 474.526 187.706 475.13 187.203 475.651C186.7 476.165 186.078 476.568 185.339 476.858C184.599 477.142 183.767 477.284 182.844 477.284ZM208.368 466.418L206.486 466.95C206.367 466.637 206.193 466.332 205.962 466.036C205.737 465.734 205.429 465.485 205.039 465.29C204.648 465.095 204.148 464.997 203.538 464.997C202.704 464.997 202.008 465.19 201.452 465.574C200.901 465.953 200.626 466.435 200.626 467.021C200.626 467.542 200.816 467.953 201.194 468.255C201.573 468.557 202.165 468.809 202.97 469.01L204.994 469.507C206.213 469.803 207.122 470.256 207.72 470.865C208.317 471.469 208.616 472.247 208.616 473.2C208.616 473.982 208.391 474.68 207.942 475.295C207.498 475.911 206.876 476.396 206.077 476.751C205.278 477.107 204.349 477.284 203.29 477.284C201.899 477.284 200.748 476.982 199.836 476.379C198.925 475.775 198.348 474.893 198.105 473.733L200.094 473.236C200.283 473.97 200.641 474.52 201.168 474.887C201.7 475.254 202.396 475.438 203.254 475.438C204.231 475.438 205.006 475.23 205.58 474.816C206.16 474.396 206.45 473.893 206.45 473.307C206.45 472.833 206.284 472.437 205.953 472.117C205.622 471.792 205.113 471.549 204.426 471.389L202.153 470.857C200.904 470.561 199.987 470.102 199.401 469.48C198.821 468.853 198.531 468.069 198.531 467.128C198.531 466.358 198.747 465.678 199.179 465.086C199.617 464.494 200.212 464.029 200.964 463.692C201.721 463.355 202.579 463.186 203.538 463.186C204.888 463.186 205.947 463.482 206.716 464.074C207.492 464.666 208.042 465.447 208.368 466.418ZM220.364 471.425V463.364H222.459V477H220.364V474.692H220.222C219.902 475.384 219.405 475.973 218.73 476.458C218.056 476.938 217.203 477.178 216.174 477.178C215.321 477.178 214.564 476.991 213.901 476.618C213.238 476.239 212.717 475.671 212.338 474.914C211.96 474.15 211.77 473.188 211.77 472.028V463.364H213.865V471.886C213.865 472.881 214.143 473.674 214.7 474.266C215.262 474.857 215.978 475.153 216.848 475.153C217.369 475.153 217.899 475.02 218.437 474.754C218.982 474.488 219.438 474.079 219.805 473.529C220.177 472.978 220.364 472.277 220.364 471.425ZM226.581 477V458.818H228.676V465.53H228.853C229.007 465.293 229.22 464.991 229.493 464.624C229.771 464.251 230.167 463.92 230.682 463.63C231.203 463.334 231.907 463.186 232.795 463.186C233.943 463.186 234.955 463.473 235.831 464.047C236.707 464.621 237.391 465.435 237.882 466.489C238.373 467.542 238.619 468.785 238.619 470.217C238.619 471.661 238.373 472.913 237.882 473.973C237.391 475.026 236.71 475.843 235.84 476.423C234.97 476.997 233.967 477.284 232.831 477.284C231.955 477.284 231.253 477.139 230.727 476.849C230.2 476.553 229.794 476.219 229.51 475.846C229.226 475.467 229.007 475.153 228.853 474.905H228.605V477H226.581ZM228.64 470.182C228.64 471.212 228.791 472.12 229.093 472.907C229.395 473.689 229.836 474.301 230.416 474.745C230.996 475.183 231.706 475.402 232.547 475.402C233.422 475.402 234.153 475.171 234.739 474.71C235.331 474.242 235.775 473.615 236.071 472.827C236.373 472.034 236.524 471.152 236.524 470.182C236.524 469.223 236.376 468.359 236.08 467.589C235.79 466.814 235.349 466.202 234.757 465.752C234.171 465.296 233.434 465.068 232.547 465.068C231.694 465.068 230.978 465.284 230.398 465.716C229.818 466.142 229.38 466.74 229.084 467.51C228.788 468.273 228.64 469.164 228.64 470.182ZM241.824 463.364H243.919V477.994C243.919 478.835 243.774 479.563 243.484 480.178C243.2 480.794 242.768 481.27 242.188 481.608C241.614 481.945 240.889 482.114 240.013 482.114C239.942 482.114 239.871 482.114 239.8 482.114C239.729 482.114 239.658 482.114 239.587 482.114V480.161C239.658 480.161 239.723 480.161 239.782 480.161C239.841 480.161 239.906 480.161 239.977 480.161C240.616 480.161 241.084 479.971 241.38 479.592C241.676 479.219 241.824 478.687 241.824 477.994V463.364ZM242.854 461.091C242.445 461.091 242.093 460.952 241.797 460.674C241.507 460.395 241.362 460.061 241.362 459.67C241.362 459.28 241.507 458.945 241.797 458.667C242.093 458.389 242.445 458.25 242.854 458.25C243.262 458.25 243.611 458.389 243.901 458.667C244.197 458.945 244.345 459.28 244.345 459.67C244.345 460.061 244.197 460.395 243.901 460.674C243.611 460.952 243.262 461.091 242.854 461.091ZM253.474 477.284C252.16 477.284 251.026 476.994 250.074 476.414C249.127 475.828 248.396 475.011 247.881 473.964C247.372 472.91 247.117 471.685 247.117 470.288C247.117 468.892 247.372 467.661 247.881 466.595C248.396 465.524 249.112 464.689 250.029 464.092C250.953 463.488 252.03 463.186 253.261 463.186C253.971 463.186 254.672 463.304 255.365 463.541C256.057 463.778 256.688 464.163 257.256 464.695C257.824 465.222 258.277 465.92 258.614 466.79C258.951 467.661 259.12 468.732 259.12 470.004V470.892H248.609V469.081H256.989C256.989 468.312 256.836 467.625 256.528 467.021C256.226 466.418 255.794 465.941 255.232 465.592C254.675 465.243 254.018 465.068 253.261 465.068C252.426 465.068 251.704 465.275 251.095 465.69C250.491 466.098 250.026 466.631 249.701 467.288C249.375 467.945 249.212 468.649 249.212 469.401V470.608C249.212 471.638 249.39 472.511 249.745 473.227C250.106 473.937 250.606 474.479 251.245 474.852C251.885 475.219 252.627 475.402 253.474 475.402C254.024 475.402 254.521 475.325 254.965 475.171C255.415 475.011 255.803 474.775 256.128 474.461C256.454 474.141 256.705 473.745 256.883 473.271L258.907 473.839C258.694 474.526 258.336 475.13 257.833 475.651C257.33 476.165 256.708 476.568 255.968 476.858C255.229 477.142 254.397 477.284 253.474 477.284ZM267.847 477.284C266.569 477.284 265.468 476.982 264.544 476.379C263.621 475.775 262.911 474.943 262.414 473.884C261.917 472.824 261.668 471.614 261.668 470.253C261.668 468.868 261.923 467.646 262.432 466.586C262.946 465.521 263.663 464.689 264.58 464.092C265.503 463.488 266.58 463.186 267.812 463.186C268.77 463.186 269.634 463.364 270.404 463.719C271.173 464.074 271.804 464.571 272.295 465.21C272.786 465.849 273.091 466.595 273.209 467.447H271.114C270.954 466.826 270.599 466.276 270.049 465.796C269.504 465.311 268.77 465.068 267.847 465.068C267.03 465.068 266.314 465.281 265.699 465.707C265.089 466.128 264.613 466.722 264.269 467.492C263.932 468.255 263.763 469.152 263.763 470.182C263.763 471.235 263.929 472.153 264.26 472.934C264.598 473.715 265.071 474.322 265.681 474.754C266.296 475.186 267.018 475.402 267.847 475.402C268.392 475.402 268.886 475.307 269.33 475.118C269.774 474.929 270.149 474.656 270.457 474.301C270.765 473.946 270.984 473.52 271.114 473.023H273.209C273.091 473.828 272.798 474.553 272.33 475.198C271.869 475.837 271.256 476.346 270.493 476.725C269.735 477.098 268.853 477.284 267.847 477.284ZM282.203 463.364V465.139H275.136V463.364H282.203ZM277.195 460.097H279.291V473.094C279.291 473.686 279.376 474.129 279.548 474.425C279.726 474.715 279.95 474.911 280.223 475.011C280.501 475.106 280.794 475.153 281.102 475.153C281.332 475.153 281.522 475.142 281.67 475.118C281.818 475.088 281.936 475.065 282.025 475.047L282.451 476.929C282.309 476.982 282.111 477.036 281.856 477.089C281.602 477.148 281.279 477.178 280.889 477.178C280.297 477.178 279.717 477.05 279.149 476.796C278.586 476.541 278.119 476.154 277.746 475.633C277.379 475.112 277.195 474.455 277.195 473.662V460.097Z" fill="black"/>
</svg>
