<svg width="380" height="570" viewBox="0 0 380 570" fill="none" xmlns="http://www.w3.org/2000/svg">
<g clip-path="url(#clip0_117_537)">
<rect width="380" height="570" fill="white"/>
<path d="M33.2309 446.271V444.46L41.2209 431.818H42.5348V434.624H41.6471L35.6101 444.176V444.318H46.3701V446.271H33.2309ZM41.7891 450V445.721V444.877V431.818H43.8843V450H41.7891ZM50.4051 450.142C49.9671 450.142 49.5912 449.985 49.2776 449.672C48.9639 449.358 48.807 448.982 48.807 448.544C48.807 448.106 48.9639 447.73 49.2776 447.417C49.5912 447.103 49.9671 446.946 50.4051 446.946C50.843 446.946 51.2189 447.103 51.5325 447.417C51.8462 447.73 52.0031 448.106 52.0031 448.544C52.0031 448.834 51.9291 449.1 51.7811 449.343C51.6391 449.586 51.4467 449.781 51.2041 449.929C50.9673 450.071 50.701 450.142 50.4051 450.142ZM65.5906 450H61.4713L67.7479 431.818H72.7017L78.9695 450H74.8502L70.2959 435.973H70.1538L65.5906 450ZM65.3331 442.853H75.0633V445.854H65.3331V442.853ZM89.8315 444.194V436.364H93.6135V450H89.9825V447.523H89.8404C89.5327 448.322 89.0207 448.964 88.3046 449.45C87.5943 449.935 86.7273 450.178 85.7033 450.178C84.7919 450.178 83.9899 449.97 83.2975 449.556C82.605 449.142 82.0634 448.553 81.6728 447.789C81.2881 447.026 81.0928 446.112 81.0869 445.046V436.364H84.8688V444.371C84.8747 445.176 85.0908 445.813 85.5169 446.28C85.943 446.748 86.5142 446.982 87.2303 446.982C87.6861 446.982 88.1122 446.878 88.5087 446.671C88.9053 446.458 89.2249 446.144 89.4676 445.73C89.7161 445.315 89.8375 444.804 89.8315 444.194ZM103.892 436.364V439.205H95.6798V436.364H103.892ZM97.5442 433.097H101.326V445.81C101.326 446.159 101.379 446.431 101.486 446.626C101.592 446.816 101.74 446.949 101.93 447.026C102.125 447.103 102.35 447.141 102.605 447.141C102.782 447.141 102.96 447.127 103.137 447.097C103.315 447.061 103.451 447.035 103.546 447.017L104.14 449.831C103.951 449.891 103.685 449.959 103.341 450.036C102.998 450.118 102.581 450.169 102.09 450.186C101.178 450.222 100.379 450.101 99.6926 449.822C99.012 449.544 98.4823 449.112 98.1035 448.526C97.7247 447.94 97.5382 447.201 97.5442 446.307V433.097ZM112.37 450.266C110.991 450.266 109.799 449.973 108.792 449.387C107.792 448.796 107.02 447.973 106.475 446.919C105.931 445.86 105.659 444.632 105.659 443.235C105.659 441.826 105.931 440.595 106.475 439.542C107.02 438.482 107.792 437.66 108.792 437.074C109.799 436.482 110.991 436.186 112.37 436.186C113.749 436.186 114.939 436.482 115.939 437.074C116.945 437.66 117.721 438.482 118.265 439.542C118.81 440.595 119.082 441.826 119.082 443.235C119.082 444.632 118.81 445.86 118.265 446.919C117.721 447.973 116.945 448.796 115.939 449.387C114.939 449.973 113.749 450.266 112.37 450.266ZM112.388 447.337C113.015 447.337 113.539 447.159 113.959 446.804C114.38 446.443 114.696 445.952 114.909 445.33C115.128 444.709 115.238 444.002 115.238 443.208C115.238 442.415 115.128 441.708 114.909 441.087C114.696 440.465 114.38 439.974 113.959 439.613C113.539 439.252 113.015 439.071 112.388 439.071C111.755 439.071 111.222 439.252 110.79 439.613C110.364 439.974 110.041 440.465 109.822 441.087C109.609 441.708 109.503 442.415 109.503 443.208C109.503 444.002 109.609 444.709 109.822 445.33C110.041 445.952 110.364 446.443 110.79 446.804C111.222 447.159 111.755 447.337 112.388 447.337ZM121.541 450V436.364H125.145V438.77H125.305C125.589 437.971 126.063 437.34 126.726 436.879C127.389 436.417 128.182 436.186 129.105 436.186C130.04 436.186 130.836 436.42 131.493 436.887C132.15 437.349 132.588 437.976 132.807 438.77H132.949C133.227 437.988 133.73 437.364 134.458 436.896C135.192 436.423 136.059 436.186 137.059 436.186C138.332 436.186 139.365 436.592 140.158 437.402C140.957 438.207 141.356 439.35 141.356 440.829V450H137.583V441.575C137.583 440.817 137.382 440.249 136.98 439.87C136.577 439.492 136.074 439.302 135.47 439.302C134.784 439.302 134.248 439.521 133.863 439.959C133.479 440.391 133.286 440.962 133.286 441.673V450H129.62V441.495C129.62 440.826 129.427 440.294 129.043 439.897C128.664 439.5 128.164 439.302 127.542 439.302C127.122 439.302 126.743 439.409 126.406 439.622C126.075 439.829 125.811 440.122 125.616 440.501C125.421 440.874 125.323 441.312 125.323 441.815V450H121.541ZM148.232 450.257C147.362 450.257 146.587 450.107 145.906 449.805C145.226 449.497 144.687 449.044 144.29 448.446C143.9 447.843 143.705 447.091 143.705 446.191C143.705 445.434 143.844 444.798 144.122 444.283C144.4 443.768 144.779 443.353 145.258 443.04C145.738 442.726 146.282 442.489 146.892 442.33C147.507 442.17 148.152 442.057 148.827 441.992C149.62 441.909 150.259 441.832 150.745 441.761C151.23 441.684 151.582 441.572 151.801 441.424C152.02 441.276 152.13 441.057 152.13 440.767V440.714C152.13 440.152 151.952 439.717 151.597 439.409C151.248 439.101 150.751 438.947 150.105 438.947C149.425 438.947 148.883 439.098 148.481 439.4C148.078 439.696 147.812 440.069 147.682 440.518L144.184 440.234C144.361 439.406 144.711 438.69 145.231 438.086C145.752 437.476 146.424 437.009 147.247 436.683C148.075 436.352 149.034 436.186 150.123 436.186C150.881 436.186 151.606 436.275 152.298 436.452C152.997 436.63 153.615 436.905 154.154 437.278C154.698 437.651 155.127 438.13 155.441 438.716C155.755 439.296 155.912 439.992 155.912 440.803V450H152.325V448.109H152.218C151.999 448.535 151.706 448.911 151.339 449.237C150.972 449.556 150.532 449.808 150.017 449.991C149.502 450.169 148.907 450.257 148.232 450.257ZM149.315 447.647C149.872 447.647 150.363 447.538 150.789 447.319C151.215 447.094 151.55 446.792 151.792 446.413C152.035 446.035 152.156 445.605 152.156 445.126V443.679C152.038 443.756 151.875 443.827 151.668 443.892C151.467 443.951 151.239 444.007 150.984 444.061C150.73 444.108 150.475 444.152 150.221 444.194C149.966 444.229 149.736 444.262 149.528 444.292C149.084 444.357 148.697 444.46 148.365 444.602C148.034 444.744 147.776 444.937 147.593 445.179C147.41 445.416 147.318 445.712 147.318 446.067C147.318 446.582 147.504 446.976 147.877 447.248C148.256 447.514 148.735 447.647 149.315 447.647ZM166.099 436.364V439.205H157.887V436.364H166.099ZM159.751 433.097H163.533V445.81C163.533 446.159 163.586 446.431 163.693 446.626C163.799 446.816 163.947 446.949 164.137 447.026C164.332 447.103 164.557 447.141 164.812 447.141C164.989 447.141 165.167 447.127 165.344 447.097C165.522 447.061 165.658 447.035 165.753 447.017L166.347 449.831C166.158 449.891 165.892 449.959 165.548 450.036C165.205 450.118 164.788 450.169 164.297 450.186C163.385 450.222 162.586 450.101 161.9 449.822C161.219 449.544 160.689 449.112 160.311 448.526C159.932 447.94 159.745 447.201 159.751 446.307V433.097ZM168.562 450V436.364H172.344V450H168.562ZM170.462 434.606C169.9 434.606 169.418 434.419 169.015 434.047C168.619 433.668 168.42 433.215 168.42 432.688C168.42 432.167 168.619 431.721 169.015 431.348C169.418 430.969 169.9 430.779 170.462 430.779C171.025 430.779 171.504 430.969 171.901 431.348C172.303 431.721 172.504 432.167 172.504 432.688C172.504 433.215 172.303 433.668 171.901 434.047C171.504 434.419 171.025 434.606 170.462 434.606ZM181.535 450.266C180.138 450.266 178.937 449.97 177.931 449.379C176.931 448.781 176.161 447.952 175.623 446.893C175.09 445.833 174.824 444.614 174.824 443.235C174.824 441.838 175.093 440.613 175.631 439.56C176.176 438.5 176.948 437.675 177.949 437.083C178.949 436.485 180.138 436.186 181.517 436.186C182.707 436.186 183.749 436.402 184.642 436.834C185.536 437.266 186.243 437.873 186.764 438.654C187.285 439.435 187.572 440.353 187.625 441.406H184.057C183.956 440.726 183.69 440.178 183.258 439.764C182.831 439.344 182.272 439.134 181.58 439.134C180.994 439.134 180.482 439.293 180.044 439.613C179.612 439.927 179.274 440.385 179.032 440.989C178.789 441.593 178.668 442.324 178.668 443.182C178.668 444.052 178.786 444.792 179.023 445.401C179.265 446.011 179.606 446.475 180.044 446.795C180.482 447.115 180.994 447.275 181.58 447.275C182.012 447.275 182.399 447.186 182.743 447.008C183.092 446.831 183.379 446.573 183.604 446.236C183.835 445.893 183.985 445.481 184.057 445.002H187.625C187.566 446.043 187.282 446.961 186.773 447.754C186.27 448.541 185.575 449.157 184.687 449.6C183.799 450.044 182.749 450.266 181.535 450.266ZM193.935 450.257C193.065 450.257 192.29 450.107 191.609 449.805C190.929 449.497 190.39 449.044 189.994 448.446C189.603 447.843 189.408 447.091 189.408 446.191C189.408 445.434 189.547 444.798 189.825 444.283C190.103 443.768 190.482 443.353 190.961 443.04C191.441 442.726 191.985 442.489 192.595 442.33C193.21 442.17 193.855 442.057 194.53 441.992C195.323 441.909 195.962 441.832 196.448 441.761C196.933 441.684 197.285 441.572 197.504 441.424C197.723 441.276 197.833 441.057 197.833 440.767V440.714C197.833 440.152 197.655 439.717 197.3 439.409C196.951 439.101 196.454 438.947 195.809 438.947C195.128 438.947 194.586 439.098 194.184 439.4C193.781 439.696 193.515 440.069 193.385 440.518L189.887 440.234C190.065 439.406 190.414 438.69 190.935 438.086C191.455 437.476 192.127 437.009 192.95 436.683C193.778 436.352 194.737 436.186 195.826 436.186C196.584 436.186 197.309 436.275 198.001 436.452C198.7 436.63 199.318 436.905 199.857 437.278C200.401 437.651 200.83 438.13 201.144 438.716C201.458 439.296 201.615 439.992 201.615 440.803V450H198.028V448.109H197.921C197.702 448.535 197.41 448.911 197.043 449.237C196.676 449.556 196.235 449.808 195.72 449.991C195.205 450.169 194.61 450.257 193.935 450.257ZM195.018 447.647C195.575 447.647 196.066 447.538 196.492 447.319C196.918 447.094 197.253 446.792 197.495 446.413C197.738 446.035 197.859 445.605 197.859 445.126V443.679C197.741 443.756 197.578 443.827 197.371 443.892C197.17 443.951 196.942 444.007 196.687 444.061C196.433 444.108 196.178 444.152 195.924 444.194C195.669 444.229 195.439 444.262 195.231 444.292C194.788 444.357 194.4 444.46 194.068 444.602C193.737 444.744 193.48 444.937 193.296 445.179C193.113 445.416 193.021 445.712 193.021 446.067C193.021 446.582 193.207 446.976 193.58 447.248C193.959 447.514 194.438 447.647 195.018 447.647ZM208.331 431.818V450H204.549V431.818H208.331ZM215.142 431.818V450H211.36V431.818H215.142ZM220.507 455.114C220.027 455.114 219.577 455.075 219.157 454.998C218.743 454.927 218.4 454.835 218.127 454.723L218.98 451.9C219.424 452.036 219.823 452.11 220.178 452.122C220.539 452.134 220.85 452.051 221.11 451.873C221.377 451.696 221.593 451.394 221.758 450.968L221.98 450.391L217.089 436.364H221.066L223.889 446.378H224.031L226.881 436.364H230.885L225.585 451.474C225.33 452.208 224.984 452.847 224.546 453.391C224.114 453.942 223.567 454.365 222.904 454.661C222.241 454.963 221.442 455.114 220.507 455.114ZM244.768 450.266C243.389 450.266 242.196 449.973 241.19 449.387C240.19 448.796 239.417 447.973 238.873 446.919C238.328 445.86 238.056 444.632 238.056 443.235C238.056 441.826 238.328 440.595 238.873 439.542C239.417 438.482 240.19 437.66 241.19 437.074C242.196 436.482 243.389 436.186 244.768 436.186C246.147 436.186 247.336 436.482 248.337 437.074C249.343 437.66 250.118 438.482 250.663 439.542C251.207 440.595 251.479 441.826 251.479 443.235C251.479 444.632 251.207 445.86 250.663 446.919C250.118 447.973 249.343 448.796 248.337 449.387C247.336 449.973 246.147 450.266 244.768 450.266ZM244.785 447.337C245.413 447.337 245.937 447.159 246.357 446.804C246.777 446.443 247.094 445.952 247.307 445.33C247.526 444.709 247.635 444.002 247.635 443.208C247.635 442.415 247.526 441.708 247.307 441.087C247.094 440.465 246.777 439.974 246.357 439.613C245.937 439.252 245.413 439.071 244.785 439.071C244.152 439.071 243.619 439.252 243.187 439.613C242.761 439.974 242.439 440.465 242.22 441.087C242.007 441.708 241.9 442.415 241.9 443.208C241.9 444.002 242.007 444.709 242.22 445.33C242.439 445.952 242.761 446.443 243.187 446.804C243.619 447.159 244.152 447.337 244.785 447.337ZM253.938 455.114V436.364H257.667V438.654H257.836C258.002 438.287 258.241 437.914 258.555 437.536C258.875 437.151 259.289 436.831 259.798 436.577C260.313 436.316 260.952 436.186 261.715 436.186C262.71 436.186 263.627 436.446 264.468 436.967C265.308 437.482 265.98 438.261 266.483 439.302C266.986 440.338 267.237 441.637 267.237 443.2C267.237 444.721 266.992 446.005 266.501 447.053C266.015 448.094 265.352 448.884 264.512 449.423C263.677 449.956 262.742 450.222 261.707 450.222C260.973 450.222 260.348 450.101 259.833 449.858C259.324 449.615 258.907 449.31 258.582 448.944C258.256 448.571 258.007 448.195 257.836 447.816H257.72V455.114H253.938ZM257.64 443.182C257.64 443.993 257.753 444.7 257.978 445.304C258.203 445.907 258.528 446.378 258.954 446.715C259.381 447.047 259.898 447.212 260.508 447.212C261.124 447.212 261.644 447.044 262.071 446.706C262.497 446.363 262.819 445.89 263.038 445.286C263.263 444.676 263.376 443.975 263.376 443.182C263.376 442.395 263.266 441.702 263.047 441.104C262.828 440.507 262.506 440.039 262.079 439.702C261.653 439.364 261.129 439.196 260.508 439.196C259.893 439.196 259.372 439.358 258.946 439.684C258.525 440.009 258.203 440.471 257.978 441.069C257.753 441.667 257.64 442.371 257.64 443.182ZM277.012 436.364V439.205H268.8V436.364H277.012ZM270.664 433.097H274.446V445.81C274.446 446.159 274.5 446.431 274.606 446.626C274.713 446.816 274.861 446.949 275.05 447.026C275.245 447.103 275.47 447.141 275.725 447.141C275.902 447.141 276.08 447.127 276.257 447.097C276.435 447.061 276.571 447.035 276.666 447.017L277.261 449.831C277.071 449.891 276.805 449.959 276.462 450.036C276.118 450.118 275.701 450.169 275.21 450.186C274.298 450.222 273.499 450.101 272.813 449.822C272.132 449.544 271.602 449.112 271.224 448.526C270.845 447.94 270.658 447.201 270.664 446.307V433.097ZM279.476 450V436.364H283.258V450H279.476ZM281.375 434.606C280.813 434.606 280.331 434.419 279.928 434.047C279.532 433.668 279.333 433.215 279.333 432.688C279.333 432.167 279.532 431.721 279.928 431.348C280.331 430.969 280.813 430.779 281.375 430.779C281.938 430.779 282.417 430.969 282.814 431.348C283.216 431.721 283.417 432.167 283.417 432.688C283.417 433.215 283.216 433.668 282.814 434.047C282.417 434.419 281.938 434.606 281.375 434.606ZM286.287 450V436.364H289.891V438.77H290.051C290.335 437.971 290.809 437.34 291.472 436.879C292.135 436.417 292.928 436.186 293.851 436.186C294.786 436.186 295.582 436.42 296.239 436.887C296.896 437.349 297.334 437.976 297.553 438.77H297.695C297.973 437.988 298.476 437.364 299.204 436.896C299.938 436.423 300.805 436.186 301.806 436.186C303.078 436.186 304.111 436.592 304.904 437.402C305.703 438.207 306.102 439.35 306.102 440.829V450H302.329V441.575C302.329 440.817 302.128 440.249 301.726 439.87C301.323 439.492 300.82 439.302 300.216 439.302C299.53 439.302 298.994 439.521 298.61 439.959C298.225 440.391 298.032 440.962 298.032 441.673V450H294.366V441.495C294.366 440.826 294.174 440.294 293.789 439.897C293.41 439.5 292.91 439.302 292.288 439.302C291.868 439.302 291.489 439.409 291.152 439.622C290.821 439.829 290.557 440.122 290.362 440.501C290.167 440.874 290.069 441.312 290.069 441.815V450H286.287ZM309.09 450V436.364H312.872V450H309.09ZM310.99 434.606C310.427 434.606 309.945 434.419 309.543 434.047C309.146 433.668 308.948 433.215 308.948 432.688C308.948 432.167 309.146 431.721 309.543 431.348C309.945 430.969 310.427 430.779 310.99 430.779C311.552 430.779 312.031 430.969 312.428 431.348C312.83 431.721 313.032 432.167 313.032 432.688C313.032 433.215 312.83 433.668 312.428 434.047C312.031 434.419 311.552 434.606 310.99 434.606ZM315.83 450V447.745L322.506 439.48V439.382H316.061V436.364H327.061V438.823L320.793 446.884V446.982H327.292V450H315.83ZM336.007 450.266C334.605 450.266 333.397 449.982 332.385 449.414C331.379 448.84 330.604 448.029 330.059 446.982C329.515 445.928 329.242 444.682 329.242 443.244C329.242 441.841 329.515 440.61 330.059 439.551C330.604 438.491 331.37 437.666 332.359 437.074C333.353 436.482 334.519 436.186 335.856 436.186C336.756 436.186 337.594 436.331 338.369 436.621C339.15 436.905 339.831 437.334 340.411 437.908C340.997 438.482 341.452 439.205 341.778 440.075C342.104 440.939 342.266 441.951 342.266 443.111V444.15H330.752V441.806H338.706C338.706 441.261 338.588 440.779 338.351 440.359C338.114 439.938 337.786 439.61 337.366 439.373C336.951 439.131 336.469 439.009 335.919 439.009C335.345 439.009 334.836 439.142 334.392 439.409C333.954 439.669 333.61 440.021 333.362 440.465C333.113 440.903 332.986 441.391 332.98 441.93V444.158C332.98 444.833 333.104 445.416 333.353 445.907C333.607 446.399 333.966 446.777 334.427 447.044C334.889 447.31 335.436 447.443 336.07 447.443C336.49 447.443 336.874 447.384 337.224 447.266C337.573 447.147 337.872 446.97 338.12 446.733C338.369 446.496 338.558 446.206 338.689 445.863L342.186 446.094C342.009 446.934 341.645 447.668 341.094 448.295C340.55 448.917 339.846 449.402 338.981 449.751C338.123 450.095 337.132 450.266 336.007 450.266ZM50.2541 480.32C49.39 480.32 48.6058 480.157 47.9015 479.831C47.1972 479.5 46.6379 479.023 46.2236 478.402C45.8093 477.775 45.6021 477.017 45.6021 476.129C45.6021 475.348 45.756 474.715 46.0638 474.229C46.3716 473.738 46.7829 473.353 47.2978 473.075C47.8127 472.797 48.3809 472.59 49.0024 472.454C49.6297 472.312 50.26 472.199 50.8933 472.116C51.7219 472.01 52.3937 471.93 52.9086 471.877C53.4294 471.818 53.8082 471.72 54.045 471.584C54.2876 471.448 54.409 471.211 54.409 470.874V470.803C54.409 469.927 54.1693 469.246 53.6899 468.761C53.2164 468.275 52.4973 468.033 51.5325 468.033C50.5323 468.033 49.7481 468.252 49.1799 468.69C48.6117 469.128 48.2122 469.595 47.9814 470.092L45.9928 469.382C46.3479 468.554 46.8214 467.908 47.4132 467.447C48.011 466.979 48.662 466.654 49.3663 466.47C50.0766 466.281 50.775 466.186 51.4615 466.186C51.8995 466.186 52.4026 466.239 52.9707 466.346C53.5448 466.446 54.0982 466.657 54.6309 466.976C55.1695 467.296 55.6163 467.778 55.9715 468.423C56.3266 469.068 56.5041 469.933 56.5041 471.016V480H54.409V478.153H54.3024C54.1604 478.449 53.9236 478.766 53.5922 479.103C53.2608 479.441 52.8198 479.728 52.2694 479.964C51.719 480.201 51.0472 480.32 50.2541 480.32ZM50.5737 478.438C51.4023 478.438 52.1007 478.275 52.6689 477.949C53.243 477.624 53.6751 477.203 53.9651 476.689C54.261 476.174 54.409 475.632 54.409 475.064V473.146C54.3202 473.253 54.1249 473.35 53.823 473.439C53.5271 473.522 53.1838 473.596 52.7932 473.661C52.4085 473.72 52.0327 473.774 51.6657 473.821C51.3047 473.862 51.0117 473.898 50.7868 473.928C50.2423 473.999 49.7333 474.114 49.2598 474.274C48.7922 474.428 48.4135 474.661 48.1234 474.975C47.8394 475.283 47.6973 475.703 47.6973 476.236C47.6973 476.964 47.9666 477.514 48.5052 477.887C49.0497 478.254 49.7392 478.438 50.5737 478.438ZM67.3595 480V466.364H69.3837V468.494H69.5612C69.8453 467.766 70.304 467.201 70.9373 466.799C71.5706 466.39 72.3311 466.186 73.2189 466.186C74.1185 466.186 74.8672 466.39 75.465 466.799C76.0687 467.201 76.5392 467.766 76.8766 468.494H77.0186C77.3678 467.79 77.8916 467.231 78.59 466.816C79.2884 466.396 80.1258 466.186 81.1024 466.186C82.3216 466.186 83.3189 466.568 84.0942 467.331C84.8696 468.089 85.2572 469.27 85.2572 470.874V480H83.1621V470.874C83.1621 469.867 82.8869 469.148 82.3364 468.716C81.786 468.284 81.1379 468.068 80.3922 468.068C79.4334 468.068 78.6906 468.358 78.1638 468.938C77.6371 469.512 77.3737 470.24 77.3737 471.122V480H75.243V470.661C75.243 469.885 74.9915 469.261 74.4884 468.787C73.9853 468.308 73.3373 468.068 72.5442 468.068C71.9997 468.068 71.4907 468.213 71.0172 468.503C70.5496 468.793 70.1708 469.196 69.8808 469.711C69.5967 470.22 69.4547 470.808 69.4547 471.477V480H67.3595ZM94.6278 480.284C93.3967 480.284 92.3166 479.991 91.3874 479.405C90.4641 478.819 89.742 478 89.2212 476.946C88.7063 475.893 88.4488 474.661 88.4488 473.253C88.4488 471.832 88.7063 470.592 89.2212 469.533C89.742 468.474 90.4641 467.651 91.3874 467.065C92.3166 466.479 93.3967 466.186 94.6278 466.186C95.8589 466.186 96.936 466.479 97.8593 467.065C98.7885 467.651 99.5106 468.474 100.026 469.533C100.546 470.592 100.807 471.832 100.807 473.253C100.807 474.661 100.546 475.893 100.026 476.946C99.5106 478 98.7885 478.819 97.8593 479.405C96.936 479.991 95.8589 480.284 94.6278 480.284ZM94.6278 478.402C95.5629 478.402 96.3323 478.162 96.936 477.683C97.5397 477.203 97.9866 476.573 98.2766 475.792C98.5666 475.011 98.7116 474.164 98.7116 473.253C98.7116 472.341 98.5666 471.492 98.2766 470.705C97.9866 469.918 97.5397 469.281 96.936 468.796C96.3323 468.311 95.5629 468.068 94.6278 468.068C93.6927 468.068 92.9233 468.311 92.3196 468.796C91.7159 469.281 91.269 469.918 90.979 470.705C90.689 471.492 90.544 472.341 90.544 473.253C90.544 474.164 90.689 475.011 90.979 475.792C91.269 476.573 91.7159 477.203 92.3196 477.683C92.9233 478.162 93.6927 478.402 94.6278 478.402ZM109.154 480.284C108.018 480.284 107.015 479.997 106.145 479.423C105.275 478.843 104.594 478.026 104.103 476.973C103.611 475.913 103.366 474.661 103.366 473.217C103.366 471.785 103.611 470.542 104.103 469.489C104.594 468.435 105.278 467.621 106.153 467.047C107.029 466.473 108.041 466.186 109.19 466.186C110.077 466.186 110.779 466.334 111.294 466.63C111.815 466.92 112.211 467.251 112.483 467.624C112.762 467.991 112.978 468.293 113.131 468.53H113.309V461.818H115.404V480H113.38V477.905H113.131C112.978 478.153 112.759 478.467 112.474 478.846C112.19 479.219 111.785 479.553 111.258 479.849C110.731 480.139 110.03 480.284 109.154 480.284ZM109.438 478.402C110.279 478.402 110.989 478.183 111.569 477.745C112.149 477.301 112.59 476.689 112.892 475.907C113.194 475.12 113.345 474.212 113.345 473.182C113.345 472.164 113.197 471.273 112.901 470.51C112.605 469.74 112.167 469.142 111.587 468.716C111.007 468.284 110.291 468.068 109.438 468.068C108.55 468.068 107.811 468.296 107.219 468.752C106.633 469.202 106.192 469.814 105.896 470.589C105.606 471.359 105.461 472.223 105.461 473.182C105.461 474.152 105.609 475.034 105.905 475.827C106.207 476.615 106.651 477.242 107.237 477.71C107.828 478.171 108.562 478.402 109.438 478.402ZM125.25 480.284C123.936 480.284 122.802 479.994 121.849 479.414C120.903 478.828 120.172 478.011 119.657 476.964C119.148 475.91 118.893 474.685 118.893 473.288C118.893 471.892 119.148 470.661 119.657 469.595C120.172 468.524 120.888 467.689 121.805 467.092C122.728 466.488 123.806 466.186 125.037 466.186C125.747 466.186 126.448 466.304 127.141 466.541C127.833 466.778 128.463 467.163 129.032 467.695C129.6 468.222 130.053 468.92 130.39 469.79C130.727 470.661 130.896 471.732 130.896 473.004V473.892H120.385V472.081H128.765C128.765 471.312 128.611 470.625 128.304 470.021C128.002 469.418 127.57 468.941 127.008 468.592C126.451 468.243 125.794 468.068 125.037 468.068C124.202 468.068 123.48 468.275 122.87 468.69C122.267 469.098 121.802 469.631 121.477 470.288C121.151 470.945 120.988 471.649 120.988 472.401V473.608C120.988 474.638 121.166 475.511 121.521 476.227C121.882 476.937 122.382 477.479 123.021 477.852C123.661 478.219 124.403 478.402 125.25 478.402C125.8 478.402 126.297 478.325 126.741 478.171C127.191 478.011 127.579 477.775 127.904 477.461C128.23 477.141 128.481 476.745 128.659 476.271L130.683 476.839C130.47 477.526 130.112 478.13 129.609 478.651C129.106 479.165 128.484 479.568 127.744 479.858C127.005 480.142 126.173 480.284 125.25 480.284ZM136.178 461.818V480H134.083V461.818H136.178ZM153.119 466.364V468.139H145.769V466.364H153.119ZM147.97 480V464.482C147.97 463.7 148.154 463.049 148.521 462.528C148.888 462.008 149.364 461.617 149.95 461.357C150.536 461.096 151.154 460.966 151.806 460.966C152.32 460.966 152.741 461.007 153.066 461.09C153.392 461.173 153.634 461.25 153.794 461.321L153.19 463.132C153.084 463.097 152.936 463.052 152.747 462.999C152.563 462.946 152.32 462.919 152.019 462.919C151.326 462.919 150.826 463.094 150.518 463.443C150.216 463.792 150.065 464.304 150.065 464.979V480H147.97ZM161.034 480.284C159.803 480.284 158.723 479.991 157.794 479.405C156.87 478.819 156.148 478 155.627 476.946C155.113 475.893 154.855 474.661 154.855 473.253C154.855 471.832 155.113 470.592 155.627 469.533C156.148 468.474 156.87 467.651 157.794 467.065C158.723 466.479 159.803 466.186 161.034 466.186C162.265 466.186 163.342 466.479 164.266 467.065C165.195 467.651 165.917 468.474 166.432 469.533C166.953 470.592 167.213 471.832 167.213 473.253C167.213 474.661 166.953 475.893 166.432 476.946C165.917 478 165.195 478.819 164.266 479.405C163.342 479.991 162.265 480.284 161.034 480.284ZM161.034 478.402C161.969 478.402 162.739 478.162 163.342 477.683C163.946 477.203 164.393 476.573 164.683 475.792C164.973 475.011 165.118 474.164 165.118 473.253C165.118 472.341 164.973 471.492 164.683 470.705C164.393 469.918 163.946 469.281 163.342 468.796C162.739 468.311 161.969 468.068 161.034 468.068C160.099 468.068 159.33 468.311 158.726 468.796C158.122 469.281 157.675 469.918 157.385 470.705C157.095 471.492 156.95 472.341 156.95 473.253C156.95 474.164 157.095 475.011 157.385 475.792C157.675 476.573 158.122 477.203 158.726 477.683C159.33 478.162 160.099 478.402 161.034 478.402ZM170.411 480V466.364H172.435V468.423H172.577C172.826 467.749 173.276 467.201 173.927 466.781C174.578 466.361 175.312 466.151 176.129 466.151C176.282 466.151 176.475 466.154 176.706 466.159C176.936 466.165 177.111 466.174 177.229 466.186V468.317C177.158 468.299 176.996 468.272 176.741 468.237C176.493 468.195 176.229 468.175 175.951 468.175C175.288 468.175 174.696 468.314 174.175 468.592C173.661 468.864 173.252 469.243 172.95 469.728C172.654 470.208 172.506 470.755 172.506 471.371V480H170.411ZM188.094 485.114C187.739 485.114 187.422 485.084 187.144 485.025C186.866 484.972 186.673 484.918 186.567 484.865L187.099 483.018C187.608 483.149 188.058 483.196 188.449 483.161C188.839 483.125 189.186 482.95 189.488 482.637C189.795 482.329 190.076 481.829 190.331 481.136L190.722 480.071L185.679 466.364H187.952L191.716 477.23H191.858L195.622 466.364H197.895L192.106 481.989C191.846 482.693 191.524 483.276 191.139 483.738C190.754 484.205 190.307 484.551 189.798 484.776C189.295 485.001 188.727 485.114 188.094 485.114ZM205.712 480.284C204.481 480.284 203.401 479.991 202.471 479.405C201.548 478.819 200.826 478 200.305 476.946C199.79 475.893 199.533 474.661 199.533 473.253C199.533 471.832 199.79 470.592 200.305 469.533C200.826 468.474 201.548 467.651 202.471 467.065C203.401 466.479 204.481 466.186 205.712 466.186C206.943 466.186 208.02 466.479 208.943 467.065C209.873 467.651 210.595 468.474 211.11 469.533C211.63 470.592 211.891 471.832 211.891 473.253C211.891 474.661 211.63 475.893 211.11 476.946C210.595 478 209.873 478.819 208.943 479.405C208.02 479.991 206.943 480.284 205.712 480.284ZM205.712 478.402C206.647 478.402 207.416 478.162 208.02 477.683C208.624 477.203 209.071 476.573 209.361 475.792C209.651 475.011 209.796 474.164 209.796 473.253C209.796 472.341 209.651 471.492 209.361 470.705C209.071 469.918 208.624 469.281 208.02 468.796C207.416 468.311 206.647 468.068 205.712 468.068C204.777 468.068 204.007 468.311 203.404 468.796C202.8 469.281 202.353 469.918 202.063 470.705C201.773 471.492 201.628 472.341 201.628 473.253C201.628 474.164 201.773 475.011 202.063 475.792C202.353 476.573 202.8 477.203 203.404 477.683C204.007 478.162 204.777 478.402 205.712 478.402ZM223.683 474.425V466.364H225.778V480H223.683V477.692H223.541C223.221 478.384 222.724 478.973 222.049 479.458C221.375 479.938 220.522 480.178 219.492 480.178C218.64 480.178 217.883 479.991 217.22 479.618C216.557 479.239 216.036 478.671 215.657 477.914C215.278 477.15 215.089 476.188 215.089 475.028V466.364H217.184V474.886C217.184 475.881 217.462 476.674 218.019 477.266C218.581 477.857 219.297 478.153 220.167 478.153C220.688 478.153 221.218 478.02 221.756 477.754C222.301 477.488 222.756 477.079 223.123 476.529C223.496 475.978 223.683 475.277 223.683 474.425ZM229.615 480V466.364H231.64V468.423H231.782C232.03 467.749 232.48 467.201 233.131 466.781C233.782 466.361 234.516 466.151 235.333 466.151C235.487 466.151 235.679 466.154 235.91 466.159C236.141 466.165 236.315 466.174 236.434 466.186V468.317C236.363 468.299 236.2 468.272 235.945 468.237C235.697 468.195 235.433 468.175 235.155 468.175C234.492 468.175 233.9 468.314 233.38 468.592C232.865 468.864 232.456 469.243 232.154 469.728C231.859 470.208 231.711 470.755 231.711 471.371V480H229.615ZM255.607 469.418L253.725 469.95C253.607 469.637 253.432 469.332 253.202 469.036C252.977 468.734 252.669 468.485 252.278 468.29C251.888 468.095 251.388 467.997 250.778 467.997C249.943 467.997 249.248 468.19 248.692 468.574C248.141 468.953 247.866 469.435 247.866 470.021C247.866 470.542 248.055 470.953 248.434 471.255C248.813 471.557 249.405 471.809 250.21 472.01L252.234 472.507C253.453 472.803 254.362 473.256 254.959 473.865C255.557 474.469 255.856 475.247 255.856 476.2C255.856 476.982 255.631 477.68 255.181 478.295C254.737 478.911 254.116 479.396 253.317 479.751C252.518 480.107 251.589 480.284 250.529 480.284C249.138 480.284 247.987 479.982 247.076 479.379C246.164 478.775 245.587 477.893 245.345 476.733L247.333 476.236C247.523 476.97 247.881 477.52 248.408 477.887C248.94 478.254 249.636 478.438 250.494 478.438C251.47 478.438 252.246 478.23 252.82 477.816C253.4 477.396 253.69 476.893 253.69 476.307C253.69 475.833 253.524 475.437 253.193 475.117C252.861 474.792 252.352 474.549 251.666 474.389L249.393 473.857C248.144 473.561 247.227 473.102 246.641 472.48C246.061 471.853 245.771 471.069 245.771 470.128C245.771 469.358 245.987 468.678 246.419 468.086C246.857 467.494 247.452 467.029 248.203 466.692C248.961 466.355 249.819 466.186 250.778 466.186C252.127 466.186 253.187 466.482 253.956 467.074C254.732 467.666 255.282 468.447 255.607 469.418ZM267.604 474.425V466.364H269.699V480H267.604V477.692H267.462C267.142 478.384 266.645 478.973 265.97 479.458C265.295 479.938 264.443 480.178 263.413 480.178C262.561 480.178 261.803 479.991 261.141 479.618C260.478 479.239 259.957 478.671 259.578 477.914C259.199 477.15 259.01 476.188 259.01 475.028V466.364H261.105V474.886C261.105 475.881 261.383 476.674 261.94 477.266C262.502 477.857 263.218 478.153 264.088 478.153C264.609 478.153 265.139 478.02 265.677 477.754C266.222 477.488 266.677 477.079 267.044 476.529C267.417 475.978 267.604 475.277 267.604 474.425ZM273.82 480V461.818H275.916V468.53H276.093C276.247 468.293 276.46 467.991 276.732 467.624C277.01 467.251 277.407 466.92 277.922 466.63C278.443 466.334 279.147 466.186 280.035 466.186C281.183 466.186 282.195 466.473 283.071 467.047C283.947 467.621 284.631 468.435 285.122 469.489C285.613 470.542 285.859 471.785 285.859 473.217C285.859 474.661 285.613 475.913 285.122 476.973C284.631 478.026 283.95 478.843 283.08 479.423C282.21 479.997 281.207 480.284 280.07 480.284C279.194 480.284 278.493 480.139 277.966 479.849C277.44 479.553 277.034 479.219 276.75 478.846C276.466 478.467 276.247 478.153 276.093 477.905H275.845V480H273.82ZM275.88 473.182C275.88 474.212 276.031 475.12 276.333 475.907C276.635 476.689 277.076 477.301 277.656 477.745C278.236 478.183 278.946 478.402 279.786 478.402C280.662 478.402 281.393 478.171 281.979 477.71C282.571 477.242 283.015 476.615 283.311 475.827C283.613 475.034 283.764 474.152 283.764 473.182C283.764 472.223 283.616 471.359 283.32 470.589C283.03 469.814 282.589 469.202 281.997 468.752C281.411 468.296 280.674 468.068 279.786 468.068C278.934 468.068 278.218 468.284 277.638 468.716C277.058 469.142 276.62 469.74 276.324 470.51C276.028 471.273 275.88 472.164 275.88 473.182ZM289.064 466.364H291.159V480.994C291.159 481.835 291.014 482.563 290.724 483.178C290.44 483.794 290.008 484.27 289.428 484.608C288.854 484.945 288.128 485.114 287.253 485.114C287.182 485.114 287.11 485.114 287.039 485.114C286.968 485.114 286.897 485.114 286.826 485.114V483.161C286.897 483.161 286.963 483.161 287.022 483.161C287.081 483.161 287.146 483.161 287.217 483.161C287.856 483.161 288.324 482.971 288.62 482.592C288.916 482.219 289.064 481.687 289.064 480.994V466.364ZM290.093 464.091C289.685 464.091 289.333 463.952 289.037 463.674C288.747 463.395 288.602 463.061 288.602 462.67C288.602 462.28 288.747 461.945 289.037 461.667C289.333 461.389 289.685 461.25 290.093 461.25C290.502 461.25 290.851 461.389 291.141 461.667C291.437 461.945 291.585 462.28 291.585 462.67C291.585 463.061 291.437 463.395 291.141 463.674C290.851 463.952 290.502 464.091 290.093 464.091ZM300.714 480.284C299.4 480.284 298.266 479.994 297.313 479.414C296.366 478.828 295.635 478.011 295.121 476.964C294.612 475.91 294.357 474.685 294.357 473.288C294.357 471.892 294.612 470.661 295.121 469.595C295.635 468.524 296.352 467.689 297.269 467.092C298.192 466.488 299.269 466.186 300.5 466.186C301.211 466.186 301.912 466.304 302.605 466.541C303.297 466.778 303.927 467.163 304.496 467.695C305.064 468.222 305.516 468.92 305.854 469.79C306.191 470.661 306.36 471.732 306.36 473.004V473.892H295.848V472.081H304.229C304.229 471.312 304.075 470.625 303.768 470.021C303.466 469.418 303.034 468.941 302.471 468.592C301.915 468.243 301.258 468.068 300.5 468.068C299.666 468.068 298.944 468.275 298.334 468.69C297.731 469.098 297.266 469.631 296.94 470.288C296.615 470.945 296.452 471.649 296.452 472.401V473.608C296.452 474.638 296.63 475.511 296.985 476.227C297.346 476.937 297.846 477.479 298.485 477.852C299.124 478.219 299.867 478.402 300.714 478.402C301.264 478.402 301.761 478.325 302.205 478.171C302.655 478.011 303.043 477.775 303.368 477.461C303.694 477.141 303.945 476.745 304.123 476.271L306.147 476.839C305.934 477.526 305.576 478.13 305.073 478.651C304.569 479.165 303.948 479.568 303.208 479.858C302.468 480.142 301.637 480.284 300.714 480.284ZM315.087 480.284C313.808 480.284 312.708 479.982 311.784 479.379C310.861 478.775 310.151 477.943 309.654 476.884C309.156 475.824 308.908 474.614 308.908 473.253C308.908 471.868 309.162 470.646 309.671 469.586C310.186 468.521 310.902 467.689 311.82 467.092C312.743 466.488 313.82 466.186 315.051 466.186C316.01 466.186 316.874 466.364 317.644 466.719C318.413 467.074 319.043 467.571 319.535 468.21C320.026 468.849 320.331 469.595 320.449 470.447H318.354C318.194 469.826 317.839 469.276 317.288 468.796C316.744 468.311 316.01 468.068 315.087 468.068C314.27 468.068 313.554 468.281 312.938 468.707C312.329 469.128 311.852 469.722 311.509 470.492C311.172 471.255 311.003 472.152 311.003 473.182C311.003 474.235 311.169 475.153 311.5 475.934C311.837 476.715 312.311 477.322 312.921 477.754C313.536 478.186 314.258 478.402 315.087 478.402C315.631 478.402 316.125 478.307 316.569 478.118C317.013 477.929 317.389 477.656 317.697 477.301C318.005 476.946 318.224 476.52 318.354 476.023H320.449C320.331 476.828 320.038 477.553 319.57 478.198C319.108 478.837 318.496 479.346 317.732 479.725C316.975 480.098 316.093 480.284 315.087 480.284ZM329.442 466.364V468.139H322.375V466.364H329.442ZM324.435 463.097H326.53V476.094C326.53 476.686 326.616 477.129 326.788 477.425C326.965 477.715 327.19 477.911 327.462 478.011C327.741 478.106 328.034 478.153 328.341 478.153C328.572 478.153 328.762 478.142 328.91 478.118C329.058 478.088 329.176 478.065 329.265 478.047L329.691 479.929C329.549 479.982 329.351 480.036 329.096 480.089C328.842 480.148 328.519 480.178 328.128 480.178C327.536 480.178 326.956 480.05 326.388 479.796C325.826 479.541 325.358 479.154 324.986 478.633C324.619 478.112 324.435 477.455 324.435 476.662V463.097ZM44.3093 510.32C43.4452 510.32 42.661 510.157 41.9567 509.831C41.2524 509.5 40.6931 509.023 40.2788 508.402C39.8645 507.775 39.6573 507.017 39.6573 506.129C39.6573 505.348 39.8112 504.715 40.119 504.229C40.4267 503.738 40.8381 503.353 41.353 503.075C41.8679 502.797 42.4361 502.59 43.0575 502.454C43.6849 502.312 44.3152 502.199 44.9485 502.116C45.7771 502.01 46.4489 501.93 46.9638 501.877C47.4846 501.818 47.8634 501.72 48.1001 501.584C48.3428 501.448 48.4641 501.211 48.4641 500.874V500.803C48.4641 499.927 48.2244 499.246 47.745 498.761C47.2715 498.275 46.5524 498.033 45.5877 498.033C44.5875 498.033 43.8033 498.252 43.2351 498.69C42.6669 499.128 42.2674 499.595 42.0366 500.092L40.0479 499.382C40.4031 498.554 40.8765 497.908 41.4684 497.447C42.0662 496.979 42.7172 496.654 43.4215 496.47C44.1317 496.281 44.8301 496.186 45.5167 496.186C45.9547 496.186 46.4577 496.239 47.0259 496.346C47.6 496.446 48.1534 496.657 48.6861 496.976C49.2247 497.296 49.6715 497.778 50.0266 498.423C50.3817 499.068 50.5593 499.933 50.5593 501.016V510H48.4641V508.153H48.3576C48.2156 508.449 47.9788 508.766 47.6474 509.103C47.3159 509.441 46.875 509.728 46.3246 509.964C45.7741 510.201 45.1024 510.32 44.3093 510.32ZM44.6289 508.438C45.4575 508.438 46.1559 508.275 46.7241 507.949C47.2982 507.624 47.7302 507.203 48.0202 506.689C48.3162 506.174 48.4641 505.632 48.4641 505.064V503.146C48.3754 503.253 48.18 503.35 47.8782 503.439C47.5823 503.522 47.239 503.596 46.8484 503.661C46.4637 503.72 46.0878 503.774 45.7209 503.821C45.3598 503.862 45.0669 503.898 44.842 503.928C44.2975 503.999 43.7885 504.114 43.315 504.274C42.8474 504.428 42.4686 504.661 42.1786 504.975C41.8945 505.283 41.7525 505.703 41.7525 506.236C41.7525 506.964 42.0218 507.514 42.5604 507.887C43.1049 508.254 43.7944 508.438 44.6289 508.438ZM56.4786 501.797V510H54.3834V496.364H56.4076V498.494H56.5851C56.9047 497.802 57.3901 497.246 58.0411 496.825C58.6921 496.399 59.5326 496.186 60.5624 496.186C61.4857 496.186 62.2936 496.375 62.9861 496.754C63.6785 497.127 64.2171 497.695 64.6018 498.459C64.9865 499.216 65.1789 500.175 65.1789 501.335V510H63.0837V501.477C63.0837 500.406 62.8055 499.571 62.2492 498.974C61.6929 498.37 60.9294 498.068 59.9587 498.068C59.2899 498.068 58.6921 498.213 58.1654 498.503C57.6446 498.793 57.2332 499.216 56.9314 499.773C56.6295 500.329 56.4786 501.004 56.4786 501.797ZM74.1566 510.284C73.0202 510.284 72.017 509.997 71.147 509.423C70.277 508.843 69.5964 508.026 69.1051 506.973C68.6139 505.913 68.3683 504.661 68.3683 503.217C68.3683 501.785 68.6139 500.542 69.1051 499.489C69.5964 498.435 70.2799 497.621 71.1559 497.047C72.0318 496.473 73.0439 496.186 74.1921 496.186C75.0799 496.186 75.7813 496.334 76.2962 496.63C76.817 496.92 77.2135 497.251 77.4858 497.624C77.764 497.991 77.98 498.293 78.1339 498.53H78.3114V491.818H80.4066V510H78.3825V507.905H78.1339C77.98 508.153 77.761 508.467 77.4769 508.846C77.1928 509.219 76.7874 509.553 76.2607 509.849C75.7339 510.139 75.0326 510.284 74.1566 510.284ZM74.4407 508.402C75.2811 508.402 75.9914 508.183 76.5714 507.745C77.1514 507.301 77.5923 506.689 77.8942 505.907C78.196 505.12 78.3469 504.212 78.3469 503.182C78.3469 502.164 78.199 501.273 77.9031 500.51C77.6071 499.74 77.1692 499.142 76.5891 498.716C76.0091 498.284 75.293 498.068 74.4407 498.068C73.5529 498.068 72.8131 498.296 72.2212 498.752C71.6353 499.202 71.1944 499.814 70.8984 500.589C70.6084 501.359 70.4634 502.223 70.4634 503.182C70.4634 504.152 70.6114 505.034 70.9073 505.827C71.2092 506.615 71.6531 507.242 72.239 507.71C72.8308 508.171 73.5647 508.402 74.4407 508.402ZM92.9155 515.114C92.5604 515.114 92.2437 515.084 91.9656 515.025C91.6874 514.972 91.495 514.918 91.3885 514.865L91.9212 513.018C92.4302 513.149 92.88 513.196 93.2706 513.161C93.6612 513.125 94.0075 512.95 94.3093 512.637C94.6171 512.329 94.8982 511.829 95.1527 511.136L95.5433 510.071L90.5007 496.364H92.7734L96.5376 507.23H96.6797L100.444 496.364H102.717L96.9283 511.989C96.6679 512.693 96.3453 513.276 95.9606 513.738C95.5759 514.205 95.129 514.551 94.62 514.776C94.117 515.001 93.5488 515.114 92.9155 515.114ZM110.534 510.284C109.302 510.284 108.222 509.991 107.293 509.405C106.37 508.819 105.648 508 105.127 506.946C104.612 505.893 104.355 504.661 104.355 503.253C104.355 501.832 104.612 500.592 105.127 499.533C105.648 498.474 106.37 497.651 107.293 497.065C108.222 496.479 109.302 496.186 110.534 496.186C111.765 496.186 112.842 496.479 113.765 497.065C114.694 497.651 115.416 498.474 115.931 499.533C116.452 500.592 116.713 501.832 116.713 503.253C116.713 504.661 116.452 505.893 115.931 506.946C115.416 508 114.694 508.819 113.765 509.405C112.842 509.991 111.765 510.284 110.534 510.284ZM110.534 508.402C111.469 508.402 112.238 508.162 112.842 507.683C113.445 507.203 113.892 506.573 114.182 505.792C114.472 505.011 114.617 504.164 114.617 503.253C114.617 502.341 114.472 501.492 114.182 500.705C113.892 499.918 113.445 499.281 112.842 498.796C112.238 498.311 111.469 498.068 110.534 498.068C109.598 498.068 108.829 498.311 108.225 498.796C107.622 499.281 107.175 499.918 106.885 500.705C106.595 501.492 106.45 502.341 106.45 503.253C106.45 504.164 106.595 505.011 106.885 505.792C107.175 506.573 107.622 507.203 108.225 507.683C108.829 508.162 109.598 508.402 110.534 508.402ZM128.505 504.425V496.364H130.6V510H128.505V507.692H128.362C128.043 508.384 127.546 508.973 126.871 509.458C126.196 509.938 125.344 510.178 124.314 510.178C123.462 510.178 122.704 509.991 122.041 509.618C121.379 509.239 120.858 508.671 120.479 507.914C120.1 507.15 119.911 506.188 119.911 505.028V496.364H122.006V504.886C122.006 505.881 122.284 506.674 122.84 507.266C123.403 507.857 124.119 508.153 124.989 508.153C125.51 508.153 126.039 508.02 126.578 507.754C127.123 507.488 127.578 507.079 127.945 506.529C128.318 505.978 128.505 505.277 128.505 504.425ZM134.437 510V496.364H136.461V498.423H136.603C136.852 497.749 137.302 497.201 137.953 496.781C138.604 496.361 139.338 496.151 140.154 496.151C140.308 496.151 140.501 496.154 140.732 496.159C140.962 496.165 141.137 496.174 141.255 496.186V498.317C141.184 498.299 141.022 498.272 140.767 498.237C140.518 498.195 140.255 498.175 139.977 498.175C139.314 498.175 138.722 498.314 138.201 498.592C137.686 498.864 137.278 499.243 136.976 499.728C136.68 500.208 136.532 500.755 136.532 501.371V510H134.437ZM155.919 510.284C154.783 510.284 153.78 509.997 152.91 509.423C152.04 508.843 151.359 508.026 150.868 506.973C150.377 505.913 150.131 504.661 150.131 503.217C150.131 501.785 150.377 500.542 150.868 499.489C151.359 498.435 152.043 497.621 152.919 497.047C153.795 496.473 154.807 496.186 155.955 496.186C156.843 496.186 157.544 496.334 158.059 496.63C158.58 496.92 158.976 497.251 159.248 497.624C159.527 497.991 159.743 498.293 159.897 498.53H160.074V491.818H162.169V510H160.145V507.905H159.897C159.743 508.153 159.524 508.467 159.24 508.846C158.956 509.219 158.55 509.553 158.023 509.849C157.497 510.139 156.795 510.284 155.919 510.284ZM156.203 508.402C157.044 508.402 157.754 508.183 158.334 507.745C158.914 507.301 159.355 506.689 159.657 505.907C159.959 505.12 160.11 504.212 160.11 503.182C160.11 502.164 159.962 501.273 159.666 500.51C159.37 499.74 158.932 499.142 158.352 498.716C157.772 498.284 157.056 498.068 156.203 498.068C155.316 498.068 154.576 498.296 153.984 498.752C153.398 499.202 152.957 499.814 152.661 500.589C152.371 501.359 152.226 502.223 152.226 503.182C152.226 504.152 152.374 505.034 152.67 505.827C152.972 506.615 153.416 507.242 154.002 507.71C154.594 508.171 155.327 508.402 156.203 508.402ZM170.31 510.32C169.446 510.32 168.662 510.157 167.958 509.831C167.253 509.5 166.694 509.023 166.28 508.402C165.865 507.775 165.658 507.017 165.658 506.129C165.658 505.348 165.812 504.715 166.12 504.229C166.428 503.738 166.839 503.353 167.354 503.075C167.869 502.797 168.437 502.59 169.059 502.454C169.686 502.312 170.316 502.199 170.949 502.116C171.778 502.01 172.45 501.93 172.965 501.877C173.486 501.818 173.864 501.72 174.101 501.584C174.344 501.448 174.465 501.211 174.465 500.874V500.803C174.465 499.927 174.225 499.246 173.746 498.761C173.273 498.275 172.553 498.033 171.589 498.033C170.588 498.033 169.804 498.252 169.236 498.69C168.668 499.128 168.268 499.595 168.038 500.092L166.049 499.382C166.404 498.554 166.878 497.908 167.469 497.447C168.067 496.979 168.718 496.654 169.422 496.47C170.133 496.281 170.831 496.186 171.518 496.186C171.956 496.186 172.459 496.239 173.027 496.346C173.601 496.446 174.154 496.657 174.687 496.976C175.226 497.296 175.672 497.778 176.028 498.423C176.383 499.068 176.56 499.933 176.56 501.016V510H174.465V508.153H174.359C174.217 508.449 173.98 508.766 173.648 509.103C173.317 509.441 172.876 509.728 172.326 509.964C171.775 510.201 171.103 510.32 170.31 510.32ZM170.63 508.438C171.458 508.438 172.157 508.275 172.725 507.949C173.299 507.624 173.731 507.203 174.021 506.689C174.317 506.174 174.465 505.632 174.465 505.064V503.146C174.376 503.253 174.181 503.35 173.879 503.439C173.583 503.522 173.24 503.596 172.849 503.661C172.465 503.72 172.089 503.774 171.722 503.821C171.361 503.862 171.068 503.898 170.843 503.928C170.298 503.999 169.789 504.114 169.316 504.274C168.848 504.428 168.47 504.661 168.18 504.975C167.896 505.283 167.753 505.703 167.753 506.236C167.753 506.964 168.023 507.514 168.561 507.887C169.106 508.254 169.795 508.438 170.63 508.438ZM186.315 496.364V498.139H179.248V496.364H186.315ZM181.308 493.097H183.403V506.094C183.403 506.686 183.489 507.129 183.66 507.425C183.838 507.715 184.063 507.911 184.335 508.011C184.613 508.106 184.906 508.153 185.214 508.153C185.445 508.153 185.634 508.142 185.782 508.118C185.93 508.088 186.048 508.065 186.137 508.047L186.563 509.929C186.421 509.982 186.223 510.036 185.969 510.089C185.714 510.148 185.392 510.178 185.001 510.178C184.409 510.178 183.829 510.05 183.261 509.796C182.699 509.541 182.231 509.154 181.858 508.633C181.491 508.112 181.308 507.455 181.308 506.662V493.097ZM193.479 510.32C192.615 510.32 191.831 510.157 191.127 509.831C190.422 509.5 189.863 509.023 189.449 508.402C189.034 507.775 188.827 507.017 188.827 506.129C188.827 505.348 188.981 504.715 189.289 504.229C189.597 503.738 190.008 503.353 190.523 503.075C191.038 502.797 191.606 502.59 192.227 502.454C192.855 502.312 193.485 502.199 194.118 502.116C194.947 502.01 195.619 501.93 196.134 501.877C196.655 501.818 197.033 501.72 197.27 501.584C197.513 501.448 197.634 501.211 197.634 500.874V500.803C197.634 499.927 197.394 499.246 196.915 498.761C196.441 498.275 195.722 498.033 194.758 498.033C193.757 498.033 192.973 498.252 192.405 498.69C191.837 499.128 191.437 499.595 191.206 500.092L189.218 499.382C189.573 498.554 190.046 497.908 190.638 497.447C191.236 496.979 191.887 496.654 192.591 496.47C193.302 496.281 194 496.186 194.687 496.186C195.125 496.186 195.628 496.239 196.196 496.346C196.77 496.446 197.323 496.657 197.856 496.976C198.395 497.296 198.841 497.778 199.197 498.423C199.552 499.068 199.729 499.933 199.729 501.016V510H197.634V508.153H197.528C197.385 508.449 197.149 508.766 196.817 509.103C196.486 509.441 196.045 509.728 195.494 509.964C194.944 510.201 194.272 510.32 193.479 510.32ZM193.799 508.438C194.627 508.438 195.326 508.275 195.894 507.949C196.468 507.624 196.9 507.203 197.19 506.689C197.486 506.174 197.634 505.632 197.634 505.064V503.146C197.545 503.253 197.35 503.35 197.048 503.439C196.752 503.522 196.409 503.596 196.018 503.661C195.634 503.72 195.258 503.774 194.891 503.821C194.53 503.862 194.237 503.898 194.012 503.928C193.467 503.999 192.958 504.114 192.485 504.274C192.017 504.428 191.639 504.661 191.349 504.975C191.064 505.283 190.922 505.703 190.922 506.236C190.922 506.964 191.192 507.514 191.73 507.887C192.275 508.254 192.964 508.438 193.799 508.438ZM206.678 507.514L206.536 508.473C206.436 509.148 206.282 509.87 206.075 510.639C205.873 511.409 205.663 512.134 205.444 512.814C205.225 513.495 205.045 514.036 204.903 514.439H203.305C203.382 514.06 203.482 513.56 203.607 512.939C203.731 512.317 203.855 511.622 203.979 510.852C204.11 510.089 204.216 509.308 204.299 508.509L204.406 507.514H206.678ZM217.591 510V496.364H219.687V510H217.591ZM218.657 494.091C218.248 494.091 217.896 493.952 217.6 493.674C217.31 493.395 217.165 493.061 217.165 492.67C217.165 492.28 217.31 491.945 217.6 491.667C217.896 491.389 218.248 491.25 218.657 491.25C219.065 491.25 219.414 491.389 219.704 491.667C220 491.945 220.148 492.28 220.148 492.67C220.148 493.061 220 493.395 219.704 493.674C219.414 493.952 219.065 494.091 218.657 494.091ZM225.619 501.797V510H223.524V496.364H225.548V498.494H225.726C226.045 497.802 226.531 497.246 227.182 496.825C227.833 496.399 228.673 496.186 229.703 496.186C230.626 496.186 231.434 496.375 232.127 496.754C232.819 497.127 233.358 497.695 233.742 498.459C234.127 499.216 234.32 500.175 234.32 501.335V510H232.224V501.477C232.224 500.406 231.946 499.571 231.39 498.974C230.833 498.37 230.07 498.068 229.099 498.068C228.431 498.068 227.833 498.213 227.306 498.503C226.785 498.793 226.374 499.216 226.072 499.773C225.77 500.329 225.619 501.004 225.619 501.797ZM245.179 510V496.364H247.203V498.494H247.381C247.665 497.766 248.124 497.201 248.757 496.799C249.39 496.39 250.151 496.186 251.039 496.186C251.938 496.186 252.687 496.39 253.285 496.799C253.888 497.201 254.359 497.766 254.696 498.494H254.838C255.188 497.79 255.711 497.231 256.41 496.816C257.108 496.396 257.946 496.186 258.922 496.186C260.141 496.186 261.139 496.568 261.914 497.331C262.689 498.089 263.077 499.27 263.077 500.874V510H260.982V500.874C260.982 499.867 260.707 499.148 260.156 498.716C259.606 498.284 258.958 498.068 258.212 498.068C257.253 498.068 256.51 498.358 255.984 498.938C255.457 499.512 255.194 500.24 255.194 501.122V510H253.063V500.661C253.063 499.885 252.811 499.261 252.308 498.787C251.805 498.308 251.157 498.068 250.364 498.068C249.819 498.068 249.31 498.213 248.837 498.503C248.369 498.793 247.991 499.196 247.701 499.711C247.417 500.22 247.275 500.808 247.275 501.477V510H245.179ZM266.908 510V496.364H269.003V510H266.908ZM267.973 494.091C267.565 494.091 267.213 493.952 266.917 493.674C266.627 493.395 266.482 493.061 266.482 492.67C266.482 492.28 266.627 491.945 266.917 491.667C267.213 491.389 267.565 491.25 267.973 491.25C268.382 491.25 268.731 491.389 269.021 491.667C269.317 491.945 269.465 492.28 269.465 492.67C269.465 493.061 269.317 493.395 269.021 493.674C268.731 493.952 268.382 494.091 267.973 494.091ZM274.936 501.797V510H272.84V496.364H274.865V498.494H275.042C275.362 497.802 275.847 497.246 276.498 496.825C277.149 496.399 277.99 496.186 279.019 496.186C279.943 496.186 280.751 496.375 281.443 496.754C282.136 497.127 282.674 497.695 283.059 498.459C283.444 499.216 283.636 500.175 283.636 501.335V510H281.541V501.477C281.541 500.406 281.263 499.571 280.706 498.974C280.15 498.37 279.386 498.068 278.416 498.068C277.747 498.068 277.149 498.213 276.622 498.503C276.102 498.793 275.69 499.216 275.388 499.773C275.087 500.329 274.936 501.004 274.936 501.797ZM296.058 504.425V496.364H298.153V510H296.058V507.692H295.916C295.597 508.384 295.099 508.973 294.425 509.458C293.75 509.938 292.898 510.178 291.868 510.178C291.016 510.178 290.258 509.991 289.595 509.618C288.932 509.239 288.411 508.671 288.033 507.914C287.654 507.15 287.464 506.188 287.464 505.028V496.364H289.56V504.886C289.56 505.881 289.838 506.674 290.394 507.266C290.956 507.857 291.673 508.153 292.543 508.153C293.063 508.153 293.593 508.02 294.132 507.754C294.676 507.488 295.132 507.079 295.499 506.529C295.872 505.978 296.058 505.277 296.058 504.425ZM307.921 496.364V498.139H300.854V496.364H307.921ZM302.914 493.097H305.009V506.094C305.009 506.686 305.095 507.129 305.267 507.425C305.444 507.715 305.669 507.911 305.941 508.011C306.22 508.106 306.513 508.153 306.82 508.153C307.051 508.153 307.241 508.142 307.389 508.118C307.537 508.088 307.655 508.065 307.744 508.047L308.17 509.929C308.028 509.982 307.83 510.036 307.575 510.089C307.321 510.148 306.998 510.178 306.607 510.178C306.015 510.178 305.435 510.05 304.867 509.796C304.305 509.541 303.837 509.154 303.465 508.633C303.098 508.112 302.914 507.455 302.914 506.662V493.097ZM316.644 510.284C315.33 510.284 314.196 509.994 313.244 509.414C312.297 508.828 311.566 508.011 311.051 506.964C310.542 505.91 310.287 504.685 310.287 503.288C310.287 501.892 310.542 500.661 311.051 499.595C311.566 498.524 312.282 497.689 313.199 497.092C314.122 496.488 315.2 496.186 316.431 496.186C317.141 496.186 317.842 496.304 318.535 496.541C319.227 496.778 319.858 497.163 320.426 497.695C320.994 498.222 321.447 498.92 321.784 499.79C322.121 500.661 322.29 501.732 322.29 503.004V503.892H311.779V502.081H320.159C320.159 501.312 320.005 500.625 319.698 500.021C319.396 499.418 318.964 498.941 318.402 498.592C317.845 498.243 317.188 498.068 316.431 498.068C315.596 498.068 314.874 498.275 314.264 498.69C313.661 499.098 313.196 499.631 312.871 500.288C312.545 500.945 312.382 501.649 312.382 502.401V503.608C312.382 504.638 312.56 505.511 312.915 506.227C313.276 506.937 313.776 507.479 314.415 507.852C315.055 508.219 315.797 508.402 316.644 508.402C317.194 508.402 317.691 508.325 318.135 508.171C318.585 508.011 318.973 507.775 319.298 507.461C319.624 507.141 319.875 506.745 320.053 506.271L322.077 506.839C321.864 507.526 321.506 508.13 321.003 508.651C320.5 509.165 319.878 509.568 319.138 509.858C318.399 510.142 317.567 510.284 316.644 510.284ZM335.136 499.418L333.254 499.95C333.136 499.637 332.961 499.332 332.73 499.036C332.505 498.734 332.198 498.485 331.807 498.29C331.416 498.095 330.916 497.997 330.307 497.997C329.472 497.997 328.777 498.19 328.22 498.574C327.67 498.953 327.395 499.435 327.395 500.021C327.395 500.542 327.584 500.953 327.963 501.255C328.342 501.557 328.934 501.809 329.739 502.01L331.763 502.507C332.982 502.803 333.89 503.256 334.488 503.865C335.086 504.469 335.385 505.247 335.385 506.2C335.385 506.982 335.16 507.68 334.71 508.295C334.266 508.911 333.645 509.396 332.846 509.751C332.047 510.107 331.118 510.284 330.058 510.284C328.667 510.284 327.516 509.982 326.605 509.379C325.693 508.775 325.116 507.893 324.873 506.733L326.862 506.236C327.052 506.97 327.41 507.52 327.936 507.887C328.469 508.254 329.164 508.438 330.023 508.438C330.999 508.438 331.775 508.23 332.349 507.816C332.929 507.396 333.219 506.893 333.219 506.307C333.219 505.833 333.053 505.437 332.722 505.117C332.39 504.792 331.881 504.549 331.195 504.389L328.922 503.857C327.673 503.561 326.756 503.102 326.17 502.48C325.59 501.853 325.3 501.069 325.3 500.128C325.3 499.358 325.516 498.678 325.948 498.086C326.386 497.494 326.98 497.029 327.732 496.692C328.49 496.355 329.348 496.186 330.307 496.186C331.656 496.186 332.716 496.482 333.485 497.074C334.26 497.666 334.811 498.447 335.136 499.418Z" fill="#0D6EFD"/>
<path fill-rule="evenodd" clip-rule="evenodd" d="M191.925 367.324C260.707 367.324 316.466 314.663 316.466 249.702C316.466 184.741 260.707 132.08 191.925 132.08C123.142 132.08 67.3835 184.741 67.3835 249.702C67.3835 314.663 123.142 367.324 191.925 367.324ZM191.925 357.638C243.893 357.638 286.022 310.243 286.022 251.778C286.022 193.313 243.893 145.918 191.925 145.918C139.956 145.918 97.8269 193.313 97.8269 251.778C97.8269 310.243 139.956 357.638 191.925 357.638Z" fill="#D9D9D9"/>
<path d="M135.558 350.691L51.958 310.946L125.741 258.646L135.558 350.691Z" fill="#0D6EFD"/>
<path d="M211.99 136.923C126.887 128.621 82.0182 216.801 106.13 285.681L74.6456 300.606C45.7756 196.591 124.119 118.242 211.99 136.923Z" fill="#0D6EFD"/>
<path d="M266.387 158.023L338.647 192.944L274.389 237.879L266.387 158.023Z" fill="#0D6EFD"/>
<path d="M181.546 361.097C252.119 373.551 315.031 282.753 290.919 213.874L311.657 204.321C340.527 308.335 251.428 386.697 181.546 361.097Z" fill="#0D6EFD"/>
<path d="M227.312 239.682C228.462 248.865 222.272 273.9 219.914 282.066C218.541 286.838 216.286 294.916 214.738 301.409C214.719 301.471 214.687 301.49 214.665 301.552C213.845 304.004 212.79 303.041 212.794 300.41C214.774 293.02 218.845 278.424 220.994 268.966C223.692 257.104 227.807 231.967 223.549 235.645C223.549 235.645 217.319 244.481 212.289 255.995C212.344 255.834 212.369 255.658 212.424 255.497C212.058 256.31 211.575 257.525 211.018 259.033C210.986 259.113 210.949 259.19 210.916 259.274C210.85 259.447 210.788 259.648 210.722 259.831C205.729 273.508 195.171 308.294 198.111 313.063C198.111 313.063 199.637 316.13 198.832 321.869C198.715 321.971 198.609 322.044 198.484 322.213C194.721 327.278 194.41 338.961 195.541 341.289C195.288 343.979 195.189 346.479 195.394 348.433C195.091 352.987 194.49 363.29 194.271 367.711C192.96 369.552 192.51 370.178 192.51 370.979C191.591 371.426 190.694 372.253 189.955 372.619C189.684 372.754 189.08 373.955 188.618 374.976C188.003 376.341 187.656 379.734 187.846 381.806C187.571 382.498 187.319 383.116 187.139 383.519C186.843 384.185 184.05 388.672 182.424 390.44C180.843 392.167 179.825 396.688 180.063 397.581C179.47 399.389 179.412 404.396 179.035 406.445C178.643 408.608 181.985 409 181.985 409C181.985 409 183.043 408.085 183.589 408.268C184.617 408.608 185.229 407.968 185.518 406.639C185.748 405.622 186.759 402.617 187.213 401.548C187.326 401.548 187.425 401.599 187.506 401.695C187.626 402.452 187.846 403.74 187.139 405.611C186.254 407.968 189.105 406.606 189.878 405.065C190.335 404.15 190.822 404.582 191.258 404.139C191.712 403.7 193.883 403.693 194.227 401.405C195.065 401.025 195.973 394.934 196.057 394.085C196.343 393.079 196.584 391.64 196.712 390.733C197.452 388.822 200.395 383.519 200.395 381.894C200.395 381.857 200.384 381.846 200.384 381.809C201.303 379.943 202.119 378.135 202.463 376.587C203.056 375.704 202.921 371.093 202.427 369.318C203.514 365.76 205.154 360.998 206.691 356.892C208.862 351.076 218.439 327.018 214.529 318.458C214.665 313.784 214.372 312.539 216.154 307.448C219.083 301.903 223.597 291.197 227.492 279.192C233.66 260.149 227.946 227.322 227.946 227.322C226.69 224.039 226.163 230.506 227.312 239.682Z" fill="black"/>
<path d="M169.724 284.264C168.523 284.809 165.902 286.881 162.666 289.322C159.433 291.767 153.412 295.288 155.974 295.178C155.974 295.178 164.848 294.311 167.56 289.886C170.266 285.461 170.925 283.719 169.724 284.264Z" fill="black"/>
<path d="M155.306 182.547C155.767 182.412 156.272 182.064 156.796 181.647C158.875 181.332 161.705 180.534 162.777 179.861C164.018 179.078 172.12 174.001 170.663 173.653C169.649 173.416 170.908 172.109 171.387 171.41C173.419 170.312 174.378 169.364 172.288 169.294C168.411 169.159 161.888 171.578 158.498 175.882C156.803 178.031 155.335 179.887 154.621 181.116C154.585 181.168 154.522 181.23 154.497 181.266C154.468 181.314 154.515 181.332 154.5 181.373C153.962 182.408 154.068 182.913 155.306 182.547Z" fill="black"/>
<path d="M218.35 161.917C221.143 161.536 227.458 163.981 230.859 163.256C233.513 162.689 236.291 161.957 235.867 161.079C235.896 161.086 235.922 161.086 235.951 161.097C235.951 161.097 235.848 161.038 235.816 161.016C235.673 160.797 235.369 160.577 234.783 160.343C234 159.827 232.971 159.124 232.071 158.421C230.398 157.111 225.587 157.301 223.409 157.569C221.553 157.799 219.536 158.356 218.427 159.011C217.728 159.223 217.113 159.49 216.615 159.841C214.386 161.412 215.564 162.297 218.35 161.917Z" fill="black"/>
<path d="M203.271 167.046C204.798 167.459 210.362 164.623 210.307 163.616C210.259 162.625 209.143 163.452 206.811 163.115C204.468 162.782 204.076 159.821 204.076 159.821C203.63 161.541 201.737 166.625 203.271 167.046Z" fill="black"/>
<path d="M191.806 272.705C191.678 272.877 191.52 273.1 191.356 273.352C189.064 275.091 184.536 281.181 184.536 282.173C184.536 283.348 183.364 284.922 183.364 284.922L182.965 286.496C182.965 286.496 183.756 288.062 184.931 287.279C186.11 286.492 186.505 284.527 186.703 282.565C186.882 280.662 188.354 278.974 189.536 278.872C189.668 278.938 189.807 279.007 190.038 278.989C192.395 278.788 195.339 276.237 194.35 274.469C193.373 272.705 192.395 271.914 191.806 272.705Z" fill="black"/>
<path d="M174.167 126.021C175.892 125.618 177.616 122.58 179.64 121.764C181.668 120.955 189.978 119.539 187.851 119.334C186.823 119.235 180.753 118.525 179.34 119.539C177.916 120.549 177.312 121.969 176.203 121.969C175.083 121.969 171.433 122.474 172.242 121.058C173.054 119.641 171.733 119.432 171.129 120.143C170.518 120.853 170.016 123.184 170.73 124.198C171.433 125.212 172.443 126.427 174.167 126.021Z" fill="black"/>
<path d="M200.332 130.334C200.943 130.839 201.551 132.058 201.551 132.058C201.551 132.058 202.964 129.017 201.855 126.48C200.742 123.948 200.837 128.713 200.127 125.371C199.424 122.022 198.509 123.34 197.594 122.432C196.686 121.514 196.891 122.831 197.594 124.156C197.594 124.156 199.721 129.822 200.332 130.334Z" fill="black"/>
<path d="M226.594 166.116C224.866 165.827 218.079 162.665 214.268 164.308C210.458 165.952 206.182 167.91 204.359 168.825C202.532 169.74 208.012 171.559 214.642 169.777C221.275 167.998 228.501 166.435 226.594 166.116Z" fill="black"/>
<path d="M221.264 178.265C219.36 180.546 214.458 186.431 210.369 186.823C206.288 187.211 204.728 187.986 204.34 184.487C203.952 180.988 206.09 182.156 204.926 180.6C203.758 179.041 200.84 178.847 201.228 176.904C201.62 174.96 202.202 174.375 201.814 173.207C201.422 172.043 202.396 171.458 203.758 172.237C205.12 173.013 212.705 173.207 215.622 172.043C218.54 170.872 215.114 173.108 214.458 173.987C213.287 175.542 215.15 175.901 216.065 174.946C218.653 172.245 224.558 168.369 228.512 167.691C232.465 167.018 236.313 167.695 234.925 167.981C229.211 169.159 228.424 168.855 227.849 171.348C227.271 173.84 225.404 173.899 223.438 175.498C222.431 176.322 222.237 177.098 221.264 178.265Z" fill="black"/>
<path d="M229.525 179.22C229.426 179.037 229.335 178.923 229.254 178.846C229.247 178.766 229.675 173.649 229.448 173.265C228.533 171.742 226.597 176.837 225.506 177.873C224.415 178.909 219.48 185.167 218.159 185.925C217.093 186.532 224.158 189.292 224.133 190.58C224.107 191.872 222.46 192.835 222.178 193.238C221.973 192.934 221.12 192.586 220.073 192.297C220.154 192.213 218.737 190.127 217.177 189.933C216.299 189.823 210.76 188.959 207.455 189.157C204.145 189.351 200.84 191.682 202.007 192.656C202.311 192.908 191.409 192.312 195.586 189.753C196.538 189.614 197.428 189.559 198.288 189.632C200.646 189.823 197.739 185.691 198.197 184.545C198.222 184.483 198.189 184.435 198.189 184.377C198.921 183.513 198.614 179.849 197.702 178.63C196.52 177.057 195.601 177.701 191.677 178.484C187.741 179.267 189.25 177.843 191.413 177.057C193.577 176.273 196.52 172.932 194.55 172.148C194.254 172.031 193.796 172.061 193.276 172.148C193.91 171.848 194.517 171.526 195.1 171.157C195.4 171.2 196.769 169.978 197.252 169.553C197.409 170.67 197.911 170.889 198.764 169.122C200.323 165.89 202.491 161.794 202.846 157.695C203.197 153.585 202.988 151.916 202.538 153.006C202.538 153.006 200.082 158.335 198.585 162.409C197.164 162.416 196.688 160.107 197.428 158.811C197.951 157.896 197.724 156.619 197.435 155.682C198.511 155.03 199.419 154.236 200.06 153.208C201.649 150.624 202.871 148.644 201.729 145.145C200.92 142.678 202.41 141.495 202.41 141.495C202.41 141.495 201.729 132.609 199.829 134.281C199.829 134.281 197.508 131.083 196.556 129.062C195.744 127.335 195.187 123.715 193.291 122.573C191.457 121.471 185.464 120.827 181.057 123.257C179.56 124.081 176.155 127.276 175.657 128.938C175.159 130.599 173.055 137.876 170.832 137.063C168.596 136.258 169.61 134.834 170.214 135.142C170.832 135.445 171.334 134.735 171.334 134.735L171.433 132.913C171.433 132.913 166.674 133.008 167.893 136.661C169.108 140.306 169.61 139.698 171.642 140.408C173.666 141.118 174.475 136.254 174.475 138.179C174.475 140.105 172.648 141.422 173.97 142.641C175.288 143.853 177.008 141.931 176.708 143.552C176.404 145.17 173.97 150.444 174.581 151.758C175.185 153.076 176.294 154.09 176.199 151.857C176.097 149.632 176.807 149.833 177.213 150.239C177.616 150.642 178.022 153.076 178.831 153.486C179.64 153.885 180.153 152.267 181.167 152.066C182.104 151.872 182.525 151.974 183.074 153.855C183.089 154.046 185.684 158.507 185.699 161.743C185.615 161.758 185.022 164.799 183.751 166.303C182.481 167.811 181.595 168.045 180.592 168.518C177.202 170.113 177.319 170.549 178.967 170.933C176.69 172.291 174.951 175.765 171.81 177.152C167.812 178.916 165.521 180.523 164.25 181.083C162.977 181.646 165.389 181.127 166.883 181.767C166.915 181.782 166.952 181.789 166.989 181.804C166.425 182.012 165.854 182.228 165.261 182.481C165.136 182.353 164.891 182.327 164.492 182.47C162.208 183.29 157.244 183.246 152.88 185.742C148.524 188.245 142.301 193.033 138.819 195.858C135.327 198.684 134.661 201.015 132.962 203.021C132.259 203.852 131.604 204.697 131.253 205.338C130.857 205.513 128.203 205.934 124.846 207.6C122.24 208.892 110.994 214.451 108.885 216C106.766 217.544 96.2632 223.682 91.9033 225.893C91.0064 226.35 90.6037 226.676 90.5488 226.888C89.7691 227.177 89.0223 227.466 88.4695 227.712C87.8435 227.565 87.2505 227.584 86.5293 227.913C85.0284 228.594 83.3006 227.649 81.7667 229.216C80.2402 230.786 79.0394 231.328 78.0181 231.002C76.9968 230.673 74.8003 230.296 74.9138 231.328C75.0236 232.367 77.2933 234.809 78.3586 233.963C79.0687 233.392 79.8851 233.374 80.7637 233.077C81.2542 233.802 81.5471 233.348 80.4269 235.068C79.8045 236.225 79.2042 236.496 77.9852 237.634C76.7661 238.769 72.9736 241.635 72.3403 242.787C71.718 243.948 71.9816 244.742 72.8675 244.771C73.7424 244.804 75.4117 243.585 76.3268 242.736C77.2384 241.887 78.6258 240.16 79.8265 239.614C81.0236 239.065 81.6056 239.234 80.6904 240.236C79.7679 241.232 78.2121 243.534 76.8393 244.962C75.4629 246.393 74.5624 248.248 75.9608 249.01C76.9199 249.537 77.9302 247.502 78.5562 246.349C79.1895 245.192 80.7087 243.922 81.785 242.63C82.8613 241.345 83.9339 241.627 83.1614 242.78C82.3744 243.929 80.2841 247.443 79.9363 249.05C79.5849 250.66 80.2109 252.304 81.2981 250.865C82.3817 249.434 82.6526 247.282 84.0364 245.562C85.4274 243.838 85.8741 243.659 86.4415 244.27C86.5037 244.336 86.5586 244.325 86.6135 244.295C86.7563 245.415 86.9723 246.854 87.1517 247.992C86.5769 249.65 86.6208 250.869 86.9393 252.64C87.3017 254.716 89.004 252.512 89.1614 249.379C89.2968 246.722 89.5604 246.444 90.1864 245.437C90.8087 244.42 92.5915 240.064 93.8691 237.016C95.1577 233.967 94.1144 234.369 95.0405 233.374C95.9557 232.367 96.1131 232.082 105.499 229.176C111.964 227.174 119.747 223.558 125.143 220.714C127.625 219.663 129.898 218.602 130.678 217.533C130.678 217.533 132.614 215.908 132.922 215.758C133.83 216.054 136.066 215.315 136.092 214.484C136.791 214.052 140.536 210.206 142.213 209.137C143.889 208.072 149.842 206.202 151.976 205.074C154.11 203.954 156.398 202.886 160.377 200.181C164.269 197.538 166.875 195.84 167.23 193.937C167.49 192.612 168.017 189.014 168.845 187.407C169.668 185.804 170.595 184.373 170.77 182.858C171.045 183.22 171.488 183.78 172 184.435C171.605 185.006 171.572 186.027 172.066 187.693C171.711 186.525 172.604 191.876 173.329 193.889C173.948 195.595 177.605 203.493 178.67 205.173C179.735 206.849 180.233 213.961 180.998 219.33C180.607 221.643 180.237 227.452 180.5 228.198C181.731 237.579 180.555 236.371 180.621 236.664C180.186 237.404 177.704 240.174 176.382 241.06C153.433 256.363 140.247 275.991 137.293 284.874C136.195 288.179 135.29 291.488 136.18 294.072C136.348 294.563 136.561 294.987 136.784 295.364C136.799 295.43 136.795 295.496 136.817 295.558C137.176 296.711 138.127 297.128 139.431 297.055C141.268 298.091 144.069 298.812 145.065 298.515C147.137 297.897 160.831 288.728 169.405 279.597C174.058 274.652 177.901 268.155 180.863 258.899C181.412 257.175 182.272 252.739 181.87 248.025C183.001 250.675 184.158 260.605 182.543 265.055C178.553 276.039 172.919 280.753 173.787 281.119C174.515 281.419 178.886 281.233 182.759 277.638C186.435 274.213 196.93 264.254 197.71 259.404C198.683 257.131 199.006 255.396 200.173 253.058C200.829 251.747 201.359 251.041 201.703 250.818C200.869 253.837 197.702 266.073 198.658 275.351C199.756 286.002 197.248 294.156 199.302 289.508C200.155 287.568 201.638 283.019 201.473 276.332C201.469 276.233 201.469 276.116 201.469 276.01C201.546 275.896 201.63 275.713 201.718 275.377C202.743 271.574 207.055 257.874 210.504 252.102C213.949 246.334 222.295 235.467 222.445 231.299C222.486 230.193 220.044 233.301 217.075 237.257C216.42 237.469 216.453 236.514 216.614 235.65C216.647 235.566 216.734 235.464 216.756 235.387C217.609 233.959 218.598 232.722 219.55 231.676C221.519 229.703 223.946 227.745 224.883 227.207C226.487 226.292 227.607 222.595 225.798 219.886C225.359 219.231 226.593 218.77 226.699 213.65C227.032 210.048 227.204 205.828 226.911 205.609C226.926 204.32 226.915 203.09 226.845 202.091C226.878 199.829 226.886 197.088 226.769 194.731C226.761 194.548 226.739 194.478 226.725 194.35C227.098 193.208 227.578 191.942 228.01 190.811C228.434 190.515 228.972 189.695 229.316 188.644C230.107 186.291 229.525 179.22 229.525 179.22Z" fill="black"/>
<path d="M232.646 165.344C237.028 164.027 242.23 163.748 247.194 164.51C252.158 165.267 259.234 166.19 261.863 167.16C264.491 168.133 269.462 171.402 270.586 171.877C271.71 172.346 269.228 171.969 265.15 172.24C261.076 172.507 251.854 169.304 248.603 168.865C245.356 168.426 239.265 167.196 236.966 167.017C234.66 166.845 230.076 166.117 232.646 165.344Z" fill="black"/>
<path d="M242.717 170.52C238.042 171.695 235.502 170.963 232.127 172.255C228.744 173.547 229.084 171.64 231.475 170.663C233.865 169.682 237.954 169.221 240.063 169.375C242.179 169.536 244.493 170.074 242.717 170.52Z" fill="black"/>
<path d="M243.357 173.598C246.142 174.022 253.208 177.411 250.33 178.707C247.446 180.003 244.191 179.124 240.512 178.875C236.83 178.63 237.748 176.533 233.432 177.236C229.113 177.935 230.215 175.859 231.39 175.109C232.561 174.359 237.51 172.704 243.357 173.598Z" fill="black"/>
<path d="M246.074 172.504C250.24 173.404 251.821 177.068 256.211 178.126C260.589 179.187 266.614 179.07 267.91 179.908C269.206 180.743 271.399 179.974 271.399 179.974C271.399 179.974 270.279 176.914 267.475 175.596C264.663 174.275 256.496 172.006 252.059 171.688C247.619 171.365 244.881 172.248 246.074 172.504Z" fill="black"/>
<path d="M318.18 182.973C318.254 180.66 317.434 176.425 314.915 174.708C314.633 173.753 313.129 173.127 312.946 172.088C312.748 170.891 312.349 170.269 311.375 169.463C310.401 168.647 309.753 169.335 310.291 170.115C310.819 170.895 309.969 172.454 310.54 172.644C311.119 172.834 311.32 173.149 311.485 174.939C311.068 175.455 311.232 175.653 310.782 175.869C310.383 175.781 309.867 175.737 309.171 175.792C307.315 175.188 299.899 174.983 296.315 173.899C295.941 173.665 289.733 172.359 286.087 171.096C282.433 169.833 267.377 169.914 266.527 169.789C266.527 169.789 272.037 173.142 271.001 174.035C271.001 174.035 270.298 175.718 271.403 176.377C272.513 177.04 272.147 179.331 276.536 180.048C280.925 180.762 300.459 180.305 303.889 180.952C303.918 180.96 303.947 180.96 303.977 180.967L304.632 181.161C306.854 181.582 308.889 181.414 309.596 181C311.371 181.516 311.781 182.135 312.594 182.698C313.015 182.991 313.385 183.214 313.758 183.449C314.402 184.887 314.307 186.19 314.457 186.49C314.651 187.061 314.575 187.464 315.204 187.284C315.307 187.376 315.406 187.207 315.486 186.98C315.72 186.574 315.94 185.853 316.094 185.271C316.445 185.729 316.705 186.245 316.701 186.995C316.683 189.213 317.335 192.211 317.265 193.243C317.185 194.268 319.019 193.375 319.026 189.389C319.037 185.399 318.671 184.338 318.18 182.973Z" fill="black"/>
<path d="M235.853 170.52C236.007 171.435 231.888 174.18 235.853 173.723C239.818 173.265 232.346 176.771 232.346 176.771C232.346 176.771 229.751 177.079 229.447 180.431C229.143 183.788 226.244 179.974 226.855 178.144C227.463 176.314 227.613 172.654 230.208 171.435C232.804 170.216 235.699 169.605 235.853 170.52" fill="black"/>
<rect x="15" y="18" width="350" height="539" rx="46" stroke="#0D6EFD" stroke-width="8"/>
</g>
<defs>
<clipPath id="clip0_117_537">
<rect width="380" height="570" fill="white"/>
</clipPath>
</defs>
</svg>
