<svg width="380" height="570" viewBox="0 0 380 570" fill="none" xmlns="http://www.w3.org/2000/svg">
<g clip-path="url(#clip0_118_2)">
<rect width="380" height="570" fill="white"/>
<path d="M97.2968 455.45C96.2552 455.45 95.3171 455.242 94.4826 454.828C93.648 454.414 92.9792 453.846 92.4762 453.124C91.9731 452.402 91.6979 451.579 91.6505 450.656H93.7812C93.8641 451.478 94.2369 452.159 94.8998 452.697C95.5686 453.23 96.3676 453.497 97.2968 453.497C98.0426 453.497 98.7054 453.322 99.2855 452.973C99.8714 452.624 100.33 452.144 100.662 451.535C100.999 450.919 101.168 450.224 101.168 449.448C101.168 448.655 100.993 447.948 100.644 447.326C100.301 446.699 99.827 446.205 99.2233 445.844C98.6196 445.483 97.9301 445.299 97.1548 445.293C96.5984 445.287 96.0273 445.373 95.4414 445.551C94.8554 445.722 94.3731 445.944 93.9943 446.217L91.9346 445.968L93.0355 437.019H102.481V438.972H94.8821L94.2429 444.335H94.3494C94.7223 444.039 95.1898 443.793 95.7521 443.598C96.3143 443.402 96.9003 443.305 97.5099 443.305C98.6226 443.305 99.6139 443.571 100.484 444.104C101.36 444.631 102.046 445.353 102.544 446.27C103.047 447.187 103.298 448.235 103.298 449.413C103.298 450.573 103.038 451.608 102.517 452.52C102.002 453.425 101.292 454.142 100.386 454.668C99.4808 455.189 98.451 455.45 97.2968 455.45ZM107.704 455.343C107.266 455.343 106.89 455.186 106.576 454.873C106.263 454.559 106.106 454.183 106.106 453.745C106.106 453.307 106.263 452.931 106.576 452.618C106.89 452.304 107.266 452.147 107.704 452.147C108.142 452.147 108.518 452.304 108.831 452.618C109.145 452.931 109.302 453.307 109.302 453.745C109.302 454.035 109.228 454.301 109.08 454.544C108.938 454.787 108.746 454.982 108.503 455.13C108.266 455.272 108 455.343 107.704 455.343ZM125.988 455.201H120.377V437.019H126.236C128 437.019 129.509 437.383 130.764 438.111C132.019 438.833 132.981 439.872 133.649 441.227C134.318 442.577 134.653 444.193 134.653 446.075C134.653 447.969 134.315 449.599 133.64 450.966C132.966 452.328 131.983 453.375 130.693 454.109C129.403 454.837 127.834 455.201 125.988 455.201ZM122.579 453.248H125.846C127.349 453.248 128.595 452.958 129.583 452.378C130.572 451.798 131.309 450.972 131.794 449.901C132.279 448.83 132.522 447.554 132.522 446.075C132.522 444.607 132.282 443.343 131.803 442.284C131.323 441.218 130.607 440.402 129.654 439.834C128.701 439.259 127.515 438.972 126.094 438.972H122.579V453.248ZM143.601 455.485C142.37 455.485 141.29 455.192 140.361 454.606C139.438 454.02 138.716 453.201 138.195 452.147C137.68 451.094 137.422 449.863 137.422 448.454C137.422 447.033 137.68 445.793 138.195 444.734C138.716 443.675 139.438 442.852 140.361 442.266C141.29 441.68 142.37 441.387 143.601 441.387C144.832 441.387 145.91 441.68 146.833 442.266C147.762 442.852 148.484 443.675 148.999 444.734C149.52 445.793 149.78 447.033 149.78 448.454C149.78 449.863 149.52 451.094 148.999 452.147C148.484 453.201 147.762 454.02 146.833 454.606C145.91 455.192 144.832 455.485 143.601 455.485ZM143.601 453.603C144.537 453.603 145.306 453.363 145.91 452.884C146.513 452.405 146.96 451.774 147.25 450.993C147.54 450.212 147.685 449.365 147.685 448.454C147.685 447.542 147.54 446.693 147.25 445.906C146.96 445.119 146.513 444.483 145.91 443.997C145.306 443.512 144.537 443.269 143.601 443.269C142.666 443.269 141.897 443.512 141.293 443.997C140.689 444.483 140.243 445.119 139.953 445.906C139.663 446.693 139.518 447.542 139.518 448.454C139.518 449.365 139.663 450.212 139.953 450.993C140.243 451.774 140.689 452.405 141.293 452.884C141.897 453.363 142.666 453.603 143.601 453.603ZM155.604 455.201L151.449 441.565H153.651L156.599 452.005H156.741L159.653 441.565H161.89L164.766 451.97H164.908L167.856 441.565H170.057L165.903 455.201H163.843L160.86 444.725H160.647L157.664 455.201H155.604ZM174.922 446.998V455.201H172.827V441.565H174.851V443.695H175.029C175.349 443.003 175.834 442.447 176.485 442.026C177.136 441.6 177.976 441.387 179.006 441.387C179.93 441.387 180.737 441.577 181.43 441.955C182.122 442.328 182.661 442.896 183.046 443.66C183.43 444.417 183.623 445.376 183.623 446.536V455.201H181.528V446.678C181.528 445.607 181.249 444.773 180.693 444.175C180.137 443.571 179.373 443.269 178.403 443.269C177.734 443.269 177.136 443.414 176.609 443.704C176.088 443.994 175.677 444.417 175.375 444.974C175.073 445.53 174.922 446.205 174.922 446.998ZM189.546 437.019V455.201H187.451V437.019H189.546ZM198.924 455.485C197.693 455.485 196.612 455.192 195.683 454.606C194.76 454.02 194.038 453.201 193.517 452.147C193.002 451.094 192.745 449.863 192.745 448.454C192.745 447.033 193.002 445.793 193.517 444.734C194.038 443.675 194.76 442.852 195.683 442.266C196.612 441.68 197.693 441.387 198.924 441.387C200.155 441.387 201.232 441.68 202.155 442.266C203.084 442.852 203.807 443.675 204.321 444.734C204.842 445.793 205.103 447.033 205.103 448.454C205.103 449.863 204.842 451.094 204.321 452.147C203.807 453.201 203.084 454.02 202.155 454.606C201.232 455.192 200.155 455.485 198.924 455.485ZM198.924 453.603C199.859 453.603 200.628 453.363 201.232 452.884C201.836 452.405 202.282 451.774 202.572 450.993C202.862 450.212 203.008 449.365 203.008 448.454C203.008 447.542 202.862 446.693 202.572 445.906C202.282 445.119 201.836 444.483 201.232 443.997C200.628 443.512 199.859 443.269 198.924 443.269C197.989 443.269 197.219 443.512 196.615 443.997C196.012 444.483 195.565 445.119 195.275 445.906C194.985 446.693 194.84 447.542 194.84 448.454C194.84 449.365 194.985 450.212 195.275 450.993C195.565 451.774 196.012 452.405 196.615 452.884C197.219 453.363 197.989 453.603 198.924 453.603ZM212.314 455.521C211.45 455.521 210.665 455.358 209.961 455.032C209.257 454.701 208.697 454.224 208.283 453.603C207.869 452.976 207.662 452.218 207.662 451.33C207.662 450.549 207.816 449.916 208.123 449.43C208.431 448.939 208.842 448.555 209.357 448.276C209.872 447.998 210.44 447.791 211.062 447.655C211.689 447.513 212.32 447.4 212.953 447.318C213.782 447.211 214.453 447.131 214.968 447.078C215.489 447.019 215.868 446.921 216.105 446.785C216.347 446.649 216.469 446.412 216.469 446.075V446.004C216.469 445.128 216.229 444.447 215.749 443.962C215.276 443.476 214.557 443.234 213.592 443.234C212.592 443.234 211.808 443.453 211.239 443.891C210.671 444.329 210.272 444.796 210.041 445.293L208.052 444.583C208.407 443.755 208.881 443.109 209.473 442.648C210.071 442.18 210.722 441.855 211.426 441.671C212.136 441.482 212.835 441.387 213.521 441.387C213.959 441.387 214.462 441.44 215.03 441.547C215.604 441.648 216.158 441.858 216.69 442.177C217.229 442.497 217.676 442.979 218.031 443.624C218.386 444.269 218.564 445.134 218.564 446.217V455.201H216.469V453.354H216.362C216.22 453.65 215.983 453.967 215.652 454.304C215.32 454.642 214.879 454.929 214.329 455.166C213.779 455.402 213.107 455.521 212.314 455.521ZM212.633 453.639C213.462 453.639 214.16 453.476 214.728 453.15C215.303 452.825 215.735 452.405 216.025 451.89C216.321 451.375 216.469 450.833 216.469 450.265V448.347C216.38 448.454 216.184 448.552 215.883 448.64C215.587 448.723 215.243 448.797 214.853 448.862C214.468 448.921 214.092 448.975 213.725 449.022C213.364 449.064 213.071 449.099 212.846 449.129C212.302 449.2 211.793 449.315 211.319 449.475C210.852 449.629 210.473 449.863 210.183 450.176C209.899 450.484 209.757 450.904 209.757 451.437C209.757 452.165 210.026 452.715 210.565 453.088C211.109 453.455 211.799 453.639 212.633 453.639ZM227.537 455.485C226.401 455.485 225.397 455.198 224.527 454.624C223.657 454.044 222.977 453.227 222.485 452.174C221.994 451.114 221.749 449.863 221.749 448.418C221.749 446.986 221.994 445.743 222.485 444.69C222.977 443.636 223.66 442.822 224.536 442.248C225.412 441.674 226.424 441.387 227.572 441.387C228.46 441.387 229.162 441.535 229.677 441.831C230.197 442.121 230.594 442.452 230.866 442.825C231.144 443.192 231.36 443.494 231.514 443.731H231.692V437.019H233.787V455.201H231.763V453.106H231.514C231.36 453.354 231.141 453.668 230.857 454.047C230.573 454.42 230.168 454.754 229.641 455.05C229.114 455.34 228.413 455.485 227.537 455.485ZM227.821 453.603C228.662 453.603 229.372 453.384 229.952 452.946C230.532 452.502 230.973 451.89 231.275 451.108C231.576 450.321 231.727 449.413 231.727 448.383C231.727 447.365 231.579 446.474 231.283 445.711C230.987 444.941 230.55 444.343 229.97 443.917C229.389 443.485 228.673 443.269 227.821 443.269C226.933 443.269 226.193 443.497 225.602 443.953C225.016 444.403 224.575 445.015 224.279 445.791C223.989 446.56 223.844 447.424 223.844 448.383C223.844 449.354 223.992 450.235 224.288 451.028C224.59 451.816 225.033 452.443 225.619 452.911C226.211 453.372 226.945 453.603 227.821 453.603ZM248.959 455.521C248.095 455.521 247.311 455.358 246.607 455.032C245.902 454.701 245.343 454.224 244.929 453.603C244.514 452.976 244.307 452.218 244.307 451.33C244.307 450.549 244.461 449.916 244.769 449.43C245.077 448.939 245.488 448.555 246.003 448.276C246.518 447.998 247.086 447.791 247.707 447.655C248.335 447.513 248.965 447.4 249.598 447.318C250.427 447.211 251.099 447.131 251.614 447.078C252.135 447.019 252.513 446.921 252.75 446.785C252.993 446.649 253.114 446.412 253.114 446.075V446.004C253.114 445.128 252.874 444.447 252.395 443.962C251.921 443.476 251.202 443.234 250.238 443.234C249.237 443.234 248.453 443.453 247.885 443.891C247.317 444.329 246.917 444.796 246.686 445.293L244.698 444.583C245.053 443.755 245.526 443.109 246.118 442.648C246.716 442.18 247.367 441.855 248.071 441.671C248.782 441.482 249.48 441.387 250.167 441.387C250.605 441.387 251.108 441.44 251.676 441.547C252.25 441.648 252.803 441.858 253.336 442.177C253.875 442.497 254.321 442.979 254.677 443.624C255.032 444.269 255.209 445.134 255.209 446.217V455.201H253.114V453.354H253.008C252.865 453.65 252.629 453.967 252.297 454.304C251.966 454.642 251.525 454.929 250.974 455.166C250.424 455.402 249.752 455.521 248.959 455.521ZM249.279 453.639C250.107 453.639 250.806 453.476 251.374 453.15C251.948 452.825 252.38 452.405 252.67 451.89C252.966 451.375 253.114 450.833 253.114 450.265V448.347C253.025 448.454 252.83 448.552 252.528 448.64C252.232 448.723 251.889 448.797 251.498 448.862C251.114 448.921 250.738 448.975 250.371 449.022C250.01 449.064 249.717 449.099 249.492 449.129C248.947 449.2 248.438 449.315 247.965 449.475C247.497 449.629 247.119 449.863 246.829 450.176C246.544 450.484 246.402 450.904 246.402 451.437C246.402 452.165 246.672 452.715 247.21 453.088C247.755 453.455 248.444 453.639 249.279 453.639ZM261.129 446.998V455.201H259.033V441.565H261.057V443.695H261.235C261.555 443.003 262.04 442.447 262.691 442.026C263.342 441.6 264.182 441.387 265.212 441.387C266.136 441.387 266.943 441.577 267.636 441.955C268.328 442.328 268.867 442.896 269.252 443.66C269.636 444.417 269.829 445.376 269.829 446.536V455.201H267.734V446.678C267.734 445.607 267.455 444.773 266.899 444.175C266.343 443.571 265.579 443.269 264.609 443.269C263.94 443.269 263.342 443.414 262.815 443.704C262.294 443.994 261.883 444.417 261.581 444.974C261.279 445.53 261.129 446.205 261.129 446.998ZM278.807 455.485C277.67 455.485 276.667 455.198 275.797 454.624C274.927 454.044 274.246 453.227 273.755 452.174C273.264 451.114 273.018 449.863 273.018 448.418C273.018 446.986 273.264 445.743 273.755 444.69C274.246 443.636 274.93 442.822 275.806 442.248C276.682 441.674 277.694 441.387 278.842 441.387C279.73 441.387 280.431 441.535 280.946 441.831C281.467 442.121 281.863 442.452 282.136 442.825C282.414 443.192 282.63 443.494 282.784 443.731H282.961V437.019H285.057V455.201H283.032V453.106H282.784C282.63 453.354 282.411 453.668 282.127 454.047C281.843 454.42 281.437 454.754 280.911 455.05C280.384 455.34 279.682 455.485 278.807 455.485ZM279.091 453.603C279.931 453.603 280.641 453.384 281.221 452.946C281.801 452.502 282.242 451.89 282.544 451.108C282.846 450.321 282.997 449.413 282.997 448.383C282.997 447.365 282.849 446.474 282.553 445.711C282.257 444.941 281.819 444.343 281.239 443.917C280.659 443.485 279.943 443.269 279.091 443.269C278.203 443.269 277.463 443.497 276.871 443.953C276.285 444.403 275.844 445.015 275.548 445.791C275.258 446.56 275.113 447.424 275.113 448.383C275.113 449.354 275.261 450.235 275.557 451.028C275.859 451.816 276.303 452.443 276.889 452.911C277.481 453.372 278.215 453.603 279.091 453.603ZM76.718 485.521C75.8539 485.521 75.0697 485.358 74.3654 485.032C73.6611 484.701 73.1018 484.224 72.6875 483.603C72.2732 482.976 72.066 482.218 72.066 481.33C72.066 480.549 72.2199 479.916 72.5277 479.43C72.8354 478.939 73.2468 478.555 73.7617 478.276C74.2766 477.998 74.8448 477.791 75.4662 477.655C76.0936 477.513 76.7239 477.4 77.3572 477.318C78.1858 477.211 78.8576 477.131 79.3725 477.078C79.8933 477.019 80.2721 476.921 80.5088 476.785C80.7515 476.649 80.8728 476.412 80.8728 476.075V476.004C80.8728 475.128 80.6331 474.447 80.1537 473.962C79.6802 473.476 78.9611 473.234 77.9964 473.234C76.9962 473.234 76.212 473.453 75.6438 473.891C75.0756 474.329 74.6761 474.796 74.4453 475.293L72.4566 474.583C72.8117 473.755 73.2852 473.109 73.8771 472.648C74.4749 472.18 75.1259 471.855 75.8302 471.671C76.5404 471.482 77.2388 471.387 77.9254 471.387C78.3634 471.387 78.8664 471.44 79.4346 471.547C80.0087 471.648 80.5621 471.858 81.0948 472.177C81.6334 472.497 82.0802 472.979 82.4353 473.624C82.7904 474.269 82.968 475.134 82.968 476.217V485.201H80.8728V483.354H80.7663C80.6242 483.65 80.3875 483.967 80.0561 484.304C79.7246 484.642 79.2837 484.929 78.7333 485.166C78.1828 485.402 77.5111 485.521 76.718 485.521ZM77.0376 483.639C77.8662 483.639 78.5646 483.476 79.1328 483.15C79.7069 482.825 80.1389 482.405 80.4289 481.89C80.7249 481.375 80.8728 480.833 80.8728 480.265V478.347C80.784 478.454 80.5887 478.552 80.2869 478.64C79.991 478.723 79.6477 478.797 79.2571 478.862C78.8724 478.921 78.4965 478.975 78.1296 479.022C77.7685 479.064 77.4756 479.099 77.2507 479.129C76.7062 479.2 76.1972 479.315 75.7237 479.475C75.2561 479.629 74.8773 479.863 74.5873 480.176C74.3032 480.484 74.1612 480.904 74.1612 481.437C74.1612 482.165 74.4305 482.715 74.9691 483.088C75.5136 483.455 76.2031 483.639 77.0376 483.639ZM88.8873 476.998V485.201H86.7921V471.565H88.8163V473.695H88.9938C89.3134 473.003 89.7988 472.447 90.4498 472.026C91.1008 471.6 91.9413 471.387 92.9711 471.387C93.8944 471.387 94.7023 471.577 95.3948 471.955C96.0872 472.328 96.6258 472.896 97.0105 473.66C97.3952 474.417 97.5876 475.376 97.5876 476.536V485.201H95.4924V476.678C95.4924 475.607 95.2142 474.773 94.6579 474.175C94.1015 473.571 93.3381 473.269 92.3674 473.269C91.6986 473.269 91.1008 473.414 90.5741 473.704C90.0533 473.994 89.6419 474.417 89.3401 474.974C89.0382 475.53 88.8873 476.205 88.8873 476.998ZM105.429 485.521C104.565 485.521 103.781 485.358 103.076 485.032C102.372 484.701 101.813 484.224 101.398 483.603C100.984 482.976 100.777 482.218 100.777 481.33C100.777 480.549 100.931 479.916 101.239 479.43C101.546 478.939 101.958 478.555 102.473 478.276C102.988 477.998 103.556 477.791 104.177 477.655C104.805 477.513 105.435 477.4 106.068 477.318C106.897 477.211 107.568 477.131 108.083 477.078C108.604 477.019 108.983 476.921 109.22 476.785C109.462 476.649 109.584 476.412 109.584 476.075V476.004C109.584 475.128 109.344 474.447 108.865 473.962C108.391 473.476 107.672 473.234 106.707 473.234C105.707 473.234 104.923 473.453 104.355 473.891C103.787 474.329 103.387 474.796 103.156 475.293L101.168 474.583C101.523 473.755 101.996 473.109 102.588 472.648C103.186 472.18 103.837 471.855 104.541 471.671C105.251 471.482 105.95 471.387 106.636 471.387C107.074 471.387 107.577 471.44 108.146 471.547C108.72 471.648 109.273 471.858 109.806 472.177C110.344 472.497 110.791 472.979 111.146 473.624C111.501 474.269 111.679 475.134 111.679 476.217V485.201H109.584V483.354H109.477C109.335 483.65 109.098 483.967 108.767 484.304C108.436 484.642 107.995 484.929 107.444 485.166C106.894 485.402 106.222 485.521 105.429 485.521ZM105.749 483.639C106.577 483.639 107.276 483.476 107.844 483.15C108.418 482.825 108.85 482.405 109.14 481.89C109.436 481.375 109.584 480.833 109.584 480.265V478.347C109.495 478.454 109.3 478.552 108.998 478.64C108.702 478.723 108.359 478.797 107.968 478.862C107.583 478.921 107.207 478.975 106.841 479.022C106.479 479.064 106.187 479.099 105.962 479.129C105.417 479.2 104.908 479.315 104.435 479.475C103.967 479.629 103.588 479.863 103.298 480.176C103.014 480.484 102.872 480.904 102.872 481.437C102.872 482.165 103.141 482.715 103.68 483.088C104.225 483.455 104.914 483.639 105.749 483.639ZM117.598 467.019V485.201H115.503V467.019H117.598ZM122.785 490.315C122.43 490.315 122.113 490.285 121.835 490.226C121.557 490.173 121.365 490.119 121.258 490.066L121.791 488.22C122.3 488.35 122.75 488.397 123.14 488.362C123.531 488.326 123.877 488.151 124.179 487.838C124.487 487.53 124.768 487.03 125.022 486.337L125.413 485.272L120.37 471.565H122.643L126.407 482.431H126.549L130.314 471.565H132.586L126.798 487.19C126.537 487.894 126.215 488.477 125.83 488.939C125.446 489.406 124.999 489.752 124.49 489.977C123.987 490.202 123.418 490.315 122.785 490.315ZM134.961 485.201V483.603L142.703 473.66V473.518H135.21V471.565H145.401V473.234L137.873 483.106V483.248H145.65V485.201H134.961ZM154.204 485.485C152.89 485.485 151.756 485.195 150.804 484.615C149.857 484.029 149.126 483.212 148.611 482.165C148.102 481.111 147.847 479.886 147.847 478.489C147.847 477.093 148.102 475.862 148.611 474.796C149.126 473.725 149.842 472.89 150.759 472.293C151.682 471.689 152.76 471.387 153.991 471.387C154.701 471.387 155.402 471.506 156.095 471.742C156.787 471.979 157.418 472.364 157.986 472.896C158.554 473.423 159.007 474.122 159.344 474.992C159.681 475.862 159.85 476.933 159.85 478.205V479.093H149.339V477.282H157.719C157.719 476.513 157.566 475.826 157.258 475.222C156.956 474.619 156.524 474.142 155.962 473.793C155.405 473.444 154.748 473.269 153.991 473.269C153.156 473.269 152.434 473.476 151.825 473.891C151.221 474.299 150.756 474.832 150.431 475.489C150.105 476.146 149.942 476.85 149.942 477.602V478.809C149.942 479.839 150.12 480.712 150.475 481.428C150.836 482.138 151.336 482.68 151.975 483.053C152.615 483.42 153.357 483.603 154.204 483.603C154.754 483.603 155.251 483.526 155.695 483.372C156.145 483.212 156.533 482.976 156.858 482.662C157.184 482.342 157.435 481.946 157.613 481.472L159.637 482.041C159.424 482.727 159.066 483.331 158.563 483.852C158.06 484.367 157.438 484.769 156.698 485.059C155.959 485.343 155.127 485.485 154.204 485.485ZM171.418 490.315C171.063 490.315 170.746 490.285 170.468 490.226C170.19 490.173 169.997 490.119 169.891 490.066L170.424 488.22C170.933 488.35 171.382 488.397 171.773 488.362C172.164 488.326 172.51 488.151 172.812 487.838C173.12 487.53 173.401 487.03 173.655 486.337L174.046 485.272L169.003 471.565H171.276L175.04 482.431H175.182L178.946 471.565H181.219L175.431 487.19C175.17 487.894 174.848 488.477 174.463 488.939C174.078 489.406 173.631 489.752 173.122 489.977C172.619 490.202 172.051 490.315 171.418 490.315ZM189.036 485.485C187.805 485.485 186.725 485.192 185.796 484.606C184.872 484.02 184.15 483.201 183.629 482.147C183.114 481.094 182.857 479.863 182.857 478.454C182.857 477.033 183.114 475.793 183.629 474.734C184.15 473.675 184.872 472.852 185.796 472.266C186.725 471.68 187.805 471.387 189.036 471.387C190.267 471.387 191.344 471.68 192.268 472.266C193.197 472.852 193.919 473.675 194.434 474.734C194.955 475.793 195.215 477.033 195.215 478.454C195.215 479.863 194.955 481.094 194.434 482.147C193.919 483.201 193.197 484.02 192.268 484.606C191.344 485.192 190.267 485.485 189.036 485.485ZM189.036 483.603C189.971 483.603 190.741 483.363 191.344 482.884C191.948 482.405 192.395 481.774 192.685 480.993C192.975 480.212 193.12 479.365 193.12 478.454C193.12 477.542 192.975 476.693 192.685 475.906C192.395 475.119 191.948 474.483 191.344 473.997C190.741 473.512 189.971 473.269 189.036 473.269C188.101 473.269 187.331 473.512 186.728 473.997C186.124 474.483 185.677 475.119 185.387 475.906C185.097 476.693 184.952 477.542 184.952 478.454C184.952 479.365 185.097 480.212 185.387 480.993C185.677 481.774 186.124 482.405 186.728 482.884C187.331 483.363 188.101 483.603 189.036 483.603ZM207.007 479.626V471.565H209.102V485.201H207.007V482.893H206.865C206.545 483.585 206.048 484.174 205.373 484.66C204.699 485.139 203.846 485.379 202.817 485.379C201.964 485.379 201.207 485.192 200.544 484.819C199.881 484.441 199.36 483.872 198.981 483.115C198.603 482.351 198.413 481.389 198.413 480.229V471.565H200.508V480.087C200.508 481.082 200.787 481.875 201.343 482.467C201.905 483.059 202.621 483.354 203.491 483.354C204.012 483.354 204.542 483.221 205.08 482.955C205.625 482.689 206.081 482.28 206.448 481.73C206.821 481.179 207.007 480.478 207.007 479.626ZM212.94 485.201V471.565H214.964V473.624H215.106C215.354 472.95 215.804 472.402 216.455 471.982C217.106 471.562 217.84 471.352 218.657 471.352C218.811 471.352 219.003 471.355 219.234 471.36C219.465 471.366 219.639 471.375 219.758 471.387V473.518C219.687 473.5 219.524 473.473 219.269 473.438C219.021 473.396 218.758 473.376 218.479 473.376C217.816 473.376 217.225 473.515 216.704 473.793C216.189 474.065 215.78 474.444 215.479 474.929C215.183 475.409 215.035 475.956 215.035 476.572V485.201H212.94ZM229.273 485.201V471.565H231.297V473.624H231.439C231.687 472.95 232.137 472.402 232.788 471.982C233.439 471.562 234.173 471.352 234.99 471.352C235.144 471.352 235.336 471.355 235.567 471.36C235.798 471.366 235.972 471.375 236.091 471.387V473.518C236.02 473.5 235.857 473.473 235.602 473.438C235.354 473.396 235.091 473.376 234.812 473.376C234.149 473.376 233.558 473.515 233.037 473.793C232.522 474.065 232.114 474.444 231.812 474.929C231.516 475.409 231.368 475.956 231.368 476.572V485.201H229.273ZM243.877 485.485C242.563 485.485 241.429 485.195 240.476 484.615C239.529 484.029 238.799 483.212 238.284 482.165C237.775 481.111 237.52 479.886 237.52 478.489C237.52 477.093 237.775 475.862 238.284 474.796C238.799 473.725 239.515 472.89 240.432 472.293C241.355 471.689 242.433 471.387 243.664 471.387C244.374 471.387 245.075 471.506 245.768 471.742C246.46 471.979 247.09 472.364 247.659 472.896C248.227 473.423 248.68 474.122 249.017 474.992C249.354 475.862 249.523 476.933 249.523 478.205V479.093H239.012V477.282H247.392C247.392 476.513 247.238 475.826 246.931 475.222C246.629 474.619 246.197 474.142 245.634 473.793C245.078 473.444 244.421 473.269 243.664 473.269C242.829 473.269 242.107 473.476 241.497 473.891C240.894 474.299 240.429 474.832 240.104 475.489C239.778 476.146 239.615 476.85 239.615 477.602V478.809C239.615 479.839 239.793 480.712 240.148 481.428C240.509 482.138 241.009 482.68 241.648 483.053C242.288 483.42 243.03 483.603 243.877 483.603C244.427 483.603 244.924 483.526 245.368 483.372C245.818 483.212 246.206 482.976 246.531 482.662C246.857 482.342 247.108 481.946 247.286 481.472L249.31 482.041C249.097 482.727 248.739 483.331 248.236 483.852C247.733 484.367 247.111 484.769 246.371 485.059C245.631 485.343 244.8 485.485 243.877 485.485ZM262.369 474.619L260.487 475.151C260.369 474.838 260.194 474.533 259.963 474.237C259.738 473.935 259.431 473.686 259.04 473.491C258.649 473.296 258.149 473.198 257.54 473.198C256.705 473.198 256.01 473.391 255.453 473.775C254.903 474.154 254.628 474.636 254.628 475.222C254.628 475.743 254.817 476.155 255.196 476.456C255.575 476.758 256.167 477.01 256.971 477.211L258.996 477.708C260.215 478.004 261.123 478.457 261.721 479.066C262.319 479.67 262.618 480.448 262.618 481.401C262.618 482.183 262.393 482.881 261.943 483.497C261.499 484.112 260.878 484.597 260.079 484.952C259.28 485.308 258.35 485.485 257.291 485.485C255.9 485.485 254.749 485.183 253.838 484.58C252.926 483.976 252.349 483.094 252.106 481.934L254.095 481.437C254.284 482.171 254.643 482.721 255.169 483.088C255.702 483.455 256.397 483.639 257.256 483.639C258.232 483.639 259.007 483.431 259.582 483.017C260.162 482.597 260.452 482.094 260.452 481.508C260.452 481.034 260.286 480.638 259.954 480.318C259.623 479.993 259.114 479.75 258.427 479.59L256.155 479.058C254.906 478.762 253.989 478.303 253.403 477.682C252.823 477.054 252.533 476.27 252.533 475.329C252.533 474.559 252.749 473.879 253.181 473.287C253.619 472.695 254.213 472.231 254.965 471.893C255.723 471.556 256.581 471.387 257.54 471.387C258.889 471.387 259.948 471.683 260.718 472.275C261.493 472.867 262.044 473.648 262.369 474.619ZM274.365 479.626V471.565H276.461V485.201H274.365V482.893H274.223C273.904 483.585 273.407 484.174 272.732 484.66C272.057 485.139 271.205 485.379 270.175 485.379C269.323 485.379 268.565 485.192 267.902 484.819C267.239 484.441 266.719 483.872 266.34 483.115C265.961 482.351 265.772 481.389 265.772 480.229V471.565H267.867V480.087C267.867 481.082 268.145 481.875 268.701 482.467C269.264 483.059 269.98 483.354 270.85 483.354C271.371 483.354 271.9 483.221 272.439 482.955C272.983 482.689 273.439 482.28 273.806 481.73C274.179 481.179 274.365 480.478 274.365 479.626ZM282.393 467.019V485.201H280.298V467.019H282.393ZM292.161 471.565V473.34H285.094V471.565H292.161ZM287.154 468.298H289.249V481.295C289.249 481.887 289.335 482.331 289.507 482.626C289.684 482.916 289.909 483.112 290.181 483.212C290.459 483.307 290.752 483.354 291.06 483.354C291.291 483.354 291.48 483.343 291.628 483.319C291.776 483.289 291.895 483.266 291.983 483.248L292.41 485.13C292.268 485.183 292.069 485.237 291.815 485.29C291.56 485.349 291.238 485.379 290.847 485.379C290.255 485.379 289.675 485.251 289.107 484.997C288.545 484.742 288.077 484.355 287.704 483.834C287.337 483.313 287.154 482.656 287.154 481.863V468.298ZM304.728 474.619L302.845 475.151C302.727 474.838 302.553 474.533 302.322 474.237C302.097 473.935 301.789 473.686 301.398 473.491C301.008 473.296 300.508 473.198 299.898 473.198C299.064 473.198 298.368 473.391 297.812 473.775C297.261 474.154 296.986 474.636 296.986 475.222C296.986 475.743 297.176 476.155 297.554 476.456C297.933 476.758 298.525 477.01 299.33 477.211L301.354 477.708C302.573 478.004 303.482 478.457 304.08 479.066C304.677 479.67 304.976 480.448 304.976 481.401C304.976 482.183 304.751 482.881 304.301 483.497C303.858 484.112 303.236 484.597 302.437 484.952C301.638 485.308 300.709 485.485 299.649 485.485C298.259 485.485 297.107 485.183 296.196 484.58C295.285 483.976 294.707 483.094 294.465 481.934L296.453 481.437C296.643 482.171 297.001 482.721 297.528 483.088C298.06 483.455 298.756 483.639 299.614 483.639C300.591 483.639 301.366 483.431 301.94 483.017C302.52 482.597 302.81 482.094 302.81 481.508C302.81 481.034 302.644 480.638 302.313 480.318C301.981 479.993 301.472 479.75 300.786 479.59L298.513 479.058C297.264 478.762 296.347 478.303 295.761 477.682C295.181 477.054 294.891 476.27 294.891 475.329C294.891 474.559 295.107 473.879 295.539 473.287C295.977 472.695 296.572 472.231 297.323 471.893C298.081 471.556 298.939 471.387 299.898 471.387C301.247 471.387 302.307 471.683 303.076 472.275C303.852 472.867 304.402 473.648 304.728 474.619Z" fill="black"/>
<path d="M118.296 353.87V105.722H244.222L276.166 138.13L308.574 171V353.87H118.296Z" fill="white"/>
<path d="M114.75 105.935V353.658C114.75 355.32 116.263 356.834 117.925 356.834H308.481C310.143 356.834 311.657 355.32 311.657 353.658V169.454C311.694 168.61 311.347 167.779 310.764 167.171L247.245 103.653C246.637 103.07 245.806 102.735 244.962 102.759H117.925C115.816 102.908 114.762 104.633 114.75 105.935ZM121.101 109.111H241.787V169.454C241.787 171.116 243.3 172.63 244.962 172.63H305.305V350.482H121.101V109.111ZM248.138 113.577L300.84 166.279H248.138V113.577Z" fill="black"/>
<path d="M101.63 372.389V124.241H227.556L259.5 156.648L291.908 189.519V372.389H101.63Z" fill="white"/>
<path d="M98.0835 124.454V372.176C98.0835 373.838 99.597 375.352 101.259 375.352H291.815C293.477 375.352 294.991 373.838 294.991 372.176V187.972C295.028 187.129 294.681 186.298 294.098 185.69L230.579 122.171C229.971 121.588 229.14 121.253 228.296 121.278H101.259C99.1504 121.427 98.0959 123.151 98.0835 124.454ZM104.435 127.63H225.121V187.972C225.121 189.635 226.634 191.148 228.296 191.148H288.639V369H104.435V127.63ZM231.472 132.096L284.174 184.797H231.472V132.096Z" fill="black"/>
<path d="M85.8887 388.13V139.981H211.815L243.759 172.389L276.166 205.259V388.13H85.8887Z" fill="white"/>
<path d="M82.3423 140.195V387.917C82.3423 389.579 83.8558 391.093 85.5182 391.093H276.074C277.736 391.093 279.25 389.579 279.25 387.917V203.713C279.287 202.87 278.94 202.038 278.356 201.43L214.838 137.912C214.23 137.329 213.399 136.994 212.555 137.019H85.5182C83.4092 137.168 82.3547 138.892 82.3423 140.195ZM88.6941 143.371H209.379V203.713C209.379 205.376 210.893 206.889 212.555 206.889H272.898V384.741H88.6941V143.371ZM215.731 147.837L268.432 200.538H215.731V147.837Z" fill="black"/>
<g opacity="0.5">
<path d="M143.429 325.64C146.45 316.579 153.652 310.073 153.652 310.073V303.335L166.664 300.082L162.249 314.487L153.652 330.519C148.541 341.207 145.753 349.339 145.753 349.339C144.591 353.753 150.4 357.936 150.4 357.936H143.429L135.065 355.845L139.712 348.177C140.874 340.742 143.429 325.64 143.429 325.64Z" fill="#F1A083"/>
<path d="M132.509 358.168V363.512C141.493 363.744 159.554 364.07 159.926 363.512C160.39 362.815 161.552 362.583 160.855 360.492C160.158 358.4 155.744 356.774 152.723 356.542C150.307 356.356 146.76 357.084 145.288 357.471C142.268 357.471 138.55 354.915 138.55 354.915H134.833C132.509 355.845 132.509 358.168 132.509 358.168Z" fill="#174752"/>
<path d="M154.117 295.435C155.604 290.974 156.286 281.34 156.441 277.08H181.302L172.472 309.841H150.4C151.019 306.898 152.63 299.896 154.117 295.435Z" fill="#5677A9"/>
<path d="M198.03 353.289C198.588 355.148 198.262 356.232 198.03 356.542L209.647 359.098L212.435 354.451C209.802 352.824 204.303 349.107 203.374 347.248C202.212 344.925 198.03 330.752 196.636 325.408C195.242 320.064 194.545 312.164 194.313 310.305C194.127 308.818 193.151 306.898 192.686 306.123C189.433 307.905 182.928 311.607 182.928 312.164C182.928 312.861 184.089 326.802 186.413 332.843C188.736 338.884 197.333 350.966 198.03 353.289Z" fill="#F1A083"/>
<path d="M196.636 356.077C195.893 356.635 196.326 360.491 196.636 362.35C200.741 362.66 209.694 363.094 212.668 362.35C215.642 361.607 221.807 358.942 224.517 357.703C225.059 357.161 225.818 355.705 224.517 354.218C222.891 352.359 218.941 353.753 215.688 353.521C212.435 353.289 210.577 352.127 209.647 351.895C208.718 351.662 209.415 353.289 208.95 355.147C208.486 357.006 207.092 356.774 205.001 357.006C202.909 357.239 197.565 355.38 196.636 356.077Z" fill="#174752"/>
<path d="M156.513 287.12C155.026 283.588 154.732 278.368 155.351 276.432C157.288 276.432 162.926 276.199 169.989 275.27C177.052 274.341 180.987 274.883 182.071 275.27C183.852 278.988 187.879 287.538 189.738 291.999C191.597 296.46 194.385 303.461 195.547 306.404L178.353 314.768C176.34 310.896 171.848 302.454 169.989 299.666C168.13 296.878 160.231 290.14 156.513 287.12Z" fill="#254F8E"/>
<path d="M169.452 206.68L166.664 214.812L177.119 222.247C177.274 221.086 177.723 218.205 178.281 215.974C178.838 213.744 180.837 212.412 181.766 212.024L172.472 203.892L169.452 206.68Z" fill="#F18F6A"/>
<path d="M172.16 204.608C171.463 205.615 169.837 207.629 168.907 207.629C168.598 207.009 167.885 205.398 167.513 203.911C167.049 202.053 166.119 200.426 165.887 198.335C165.655 196.244 165.655 195.779 166.119 193.688C166.584 191.597 167.049 189.971 169.372 188.809C171.696 187.647 174.484 187.88 178.898 187.88C183.313 187.88 182.616 188.809 184.242 189.738C185.868 190.668 185.636 192.062 185.636 192.991C185.636 193.735 183.932 193.92 183.08 193.92L181.919 199.497L172.16 204.608Z" fill="#1A4555"/>
<path d="M182.231 212.091C179.257 211.719 173.789 207.367 171.775 205.121C172.318 203.882 173.169 201.589 174.099 200.474C175.261 199.08 174.564 200.706 176.887 200.706C179.21 200.706 179.534 200.524 180.14 199.312C180.604 198.383 179.907 196.292 180.837 194.665C181.58 193.364 184.167 193.349 185.019 193.503C185.484 194.433 185.484 194.757 185.484 195.595V199.312C185.484 200.938 186.181 200.939 186.878 201.868C187.435 202.611 187.342 203.494 187.342 203.959L186.181 204.191L185.716 210.929C185.561 211.472 185.205 212.463 182.231 212.091Z" fill="#F4AE94"/>
<path d="M156.441 263.372C156.627 266.718 154.505 273.905 153.42 277.08C155.589 276.771 161.599 276.012 168.29 275.454C174.982 274.896 180.682 275.686 182.696 276.151C181.999 272.898 180.558 265.788 180.372 263.372C180.14 260.351 180.605 259.19 181.302 254.311C181.999 249.432 179.675 227.591 178.513 223.409C177.352 219.227 174.796 213.418 169.917 212.489C165.038 211.56 158.764 219.924 157.138 223.409C155.511 226.894 154.582 241.299 154.35 247.573C154.117 253.846 156.209 259.19 156.441 263.372Z" fill="#5383C9"/>
<path d="M166.896 252.219C165.812 249.509 163.597 242.926 163.411 238.279H173.867V249.896C174.409 251.058 175.772 254.125 176.887 257.099C178.002 260.073 179.83 268.716 180.605 272.666L185.019 282.192V290.324H176.887C177.042 286.839 177.259 279.032 176.887 275.686C176.422 271.504 170.381 265.928 168.523 261.281C167.036 257.563 166.277 253.149 166.896 252.219Z" fill="#F1A083"/>
</g>
<mask id="mask0_118_2" style="mask-type:alpha" maskUnits="userSpaceOnUse" x="135" y="243" width="33" height="59">
<path d="M159.963 301.555L167.371 275.167V247.852L163.204 246.463L152.556 243.685L135.889 273.778L159.963 301.555Z" fill="#C4C4C4"/>
</mask>
<g mask="url(#mask0_118_2)">
<circle cx="167.371" cy="274.704" r="15.2778" stroke="black" stroke-width="0.925926"/>
</g>
<line x1="154.044" y1="266.656" x2="143.858" y2="253.693" stroke="black" stroke-width="0.925926"/>
<path d="M125.151 244.354V252.296H124.147V245.607L122.123 246.345V245.439L124.993 244.354H125.151ZM131.954 244.386H132.041V245.238H131.954C131.422 245.238 130.978 245.325 130.619 245.498C130.261 245.668 129.977 245.898 129.768 246.187C129.558 246.473 129.406 246.795 129.312 247.153C129.222 247.511 129.176 247.875 129.176 248.244V249.405C129.176 249.755 129.218 250.066 129.301 250.338C129.384 250.605 129.498 250.831 129.643 251.016C129.788 251.2 129.95 251.34 130.131 251.434C130.316 251.528 130.507 251.575 130.706 251.575C130.938 251.575 131.144 251.531 131.325 251.444C131.506 251.354 131.658 251.229 131.781 251.07C131.907 250.907 132.003 250.716 132.068 250.495C132.133 250.274 132.166 250.032 132.166 249.768C132.166 249.533 132.137 249.307 132.079 249.09C132.021 248.869 131.932 248.674 131.813 248.504C131.694 248.33 131.544 248.195 131.363 248.097C131.186 247.996 130.974 247.945 130.728 247.945C130.449 247.945 130.189 248.014 129.947 248.151C129.708 248.285 129.511 248.462 129.355 248.683C129.203 248.9 129.117 249.137 129.095 249.394L128.563 249.388C128.614 248.983 128.708 248.638 128.845 248.352C128.986 248.063 129.16 247.828 129.366 247.647C129.576 247.462 129.809 247.328 130.066 247.245C130.327 247.158 130.601 247.115 130.891 247.115C131.285 247.115 131.625 247.189 131.911 247.337C132.196 247.486 132.432 247.685 132.616 247.934C132.8 248.18 132.936 248.459 133.023 248.77C133.113 249.077 133.159 249.394 133.159 249.719C133.159 250.092 133.106 250.441 133.001 250.766C132.896 251.092 132.739 251.378 132.529 251.624C132.323 251.869 132.068 252.061 131.764 252.199C131.46 252.336 131.108 252.405 130.706 252.405C130.279 252.405 129.907 252.318 129.589 252.144C129.27 251.967 129.006 251.732 128.797 251.439C128.587 251.146 128.429 250.821 128.325 250.462C128.22 250.104 128.167 249.741 128.167 249.372V248.9C128.167 248.343 128.223 247.797 128.335 247.262C128.448 246.726 128.641 246.242 128.916 245.808C129.194 245.374 129.58 245.028 130.072 244.771C130.563 244.515 131.191 244.386 131.954 244.386ZM135.622 248.536L134.819 248.33L135.215 244.397H139.267V245.325H136.067L135.828 247.473C135.972 247.39 136.155 247.312 136.376 247.24C136.6 247.168 136.857 247.131 137.146 247.131C137.511 247.131 137.839 247.195 138.128 247.321C138.418 247.444 138.663 247.621 138.866 247.853C139.072 248.084 139.23 248.363 139.338 248.688C139.447 249.014 139.501 249.377 139.501 249.779C139.501 250.159 139.448 250.508 139.343 250.826C139.242 251.144 139.088 251.423 138.882 251.661C138.676 251.897 138.416 252.079 138.101 252.209C137.79 252.34 137.423 252.405 137 252.405C136.681 252.405 136.379 252.361 136.094 252.275C135.812 252.184 135.558 252.049 135.334 251.868C135.113 251.683 134.933 251.455 134.792 251.184C134.654 250.909 134.567 250.587 134.531 250.218H135.486C135.529 250.515 135.616 250.765 135.746 250.967C135.877 251.17 136.047 251.323 136.256 251.428C136.47 251.529 136.718 251.58 137 251.58C137.238 251.58 137.45 251.539 137.634 251.455C137.819 251.372 137.974 251.253 138.101 251.097C138.228 250.942 138.323 250.754 138.389 250.533C138.457 250.312 138.492 250.065 138.492 249.79C138.492 249.54 138.457 249.309 138.389 249.095C138.32 248.882 138.217 248.696 138.079 248.536C137.946 248.377 137.781 248.254 137.586 248.168C137.39 248.077 137.166 248.032 136.913 248.032C136.577 248.032 136.322 248.077 136.148 248.168C135.978 248.258 135.802 248.381 135.622 248.536ZM140.656 245.694C140.656 245.437 140.72 245.202 140.846 244.988C140.973 244.775 141.141 244.605 141.351 244.478C141.561 244.348 141.79 244.283 142.04 244.283C142.289 244.283 142.517 244.348 142.723 244.478C142.93 244.605 143.094 244.775 143.217 244.988C143.34 245.202 143.402 245.437 143.402 245.694C143.402 245.95 143.34 246.186 143.217 246.399C143.094 246.609 142.93 246.777 142.723 246.903C142.517 247.026 142.289 247.088 142.04 247.088C141.79 247.088 141.561 247.026 141.351 246.903C141.141 246.777 140.973 246.609 140.846 246.399C140.72 246.186 140.656 245.95 140.656 245.694ZM141.329 245.694C141.329 245.893 141.398 246.059 141.535 246.193C141.676 246.327 141.845 246.393 142.04 246.393C142.235 246.393 142.398 246.327 142.528 246.193C142.662 246.059 142.729 245.893 142.729 245.694C142.729 245.491 142.662 245.321 142.528 245.184C142.398 245.046 142.235 244.977 142.04 244.977C141.845 244.977 141.676 245.046 141.535 245.184C141.398 245.321 141.329 245.491 141.329 245.694Z" fill="black"/>
<path d="M144.933 298.184C144.605 297.792 144.021 297.739 143.629 298.067L137.234 303.411C136.842 303.739 136.789 304.323 137.117 304.715C137.445 305.107 138.029 305.16 138.422 304.832L144.106 300.082L148.856 305.766C149.183 306.159 149.767 306.211 150.16 305.883C150.552 305.555 150.604 304.971 150.277 304.579L144.933 298.184ZM139.589 360.897L145.145 298.86L143.3 298.695L137.745 360.732L139.589 360.897Z" fill="black"/>
<path d="M112.972 321.205V329.148H111.969V322.459L109.945 323.197V322.29L112.815 321.205H112.972ZM121.262 326.49V327.314H115.555V326.723L119.092 321.249H119.911L119.033 322.833L116.694 326.49H121.262ZM120.161 321.249V329.148H119.157V321.249H120.161ZM131.267 321.249V329.148H130.214L126.237 323.055V329.148H125.19V321.249H126.237L130.23 327.358V321.249H131.267Z" fill="black"/>
<line x1="167.292" y1="274.08" x2="188.165" y2="308.651" stroke="#00FF0A" stroke-width="2.77778"/>
<line x1="167.454" y1="275.124" x2="158.322" y2="312.956" stroke="#0029FF" stroke-width="2.77778"/>
<line x1="156.824" y1="360.323" x2="138.56" y2="358.366" stroke="black" stroke-width="2.77778" stroke-dasharray="2.78 2.78"/>
<line x1="138.727" y1="358.417" x2="157.643" y2="312.105" stroke="#FF0000" stroke-width="2.77778"/>
<line x1="188.301" y1="308.952" x2="203.304" y2="356.568" stroke="#FF8A00" stroke-width="2.77778"/>
<line x1="221.085" y1="355.752" x2="202.169" y2="358.361" stroke="black" stroke-width="2.77778" stroke-dasharray="2.78 2.78"/>
<line x1="166.294" y1="274.117" x2="169.555" y2="222.587" stroke="black" stroke-width="0.925926" stroke-dasharray="3.7 3.7"/>
<path d="M36 256L4.5 284.579L4.5 227.421L36 256Z" fill="#AFD0FF"/>
</g>
<defs>
<clipPath id="clip0_118_2">
<rect width="380" height="570" fill="white"/>
</clipPath>
</defs>
</svg>
