<svg width="223" height="220" viewBox="0 0 223 220" fill="none" xmlns="http://www.w3.org/2000/svg">
<g clip-path="url(#clip0_107_28)">
<path fill-rule="evenodd" clip-rule="evenodd" d="M110 192C159.706 192 200 153.944 200 107C200 60.0558 159.706 22 110 22C60.2944 22 20 60.0558 20 107C20 153.944 60.2944 192 110 192ZM110 185C147.555 185 178 150.75 178 108.5C178 66.2502 147.555 32 110 32C72.4446 32 42 66.2502 42 108.5C42 150.75 72.4446 185 110 185Z" fill="#D9D9D9"/>
<path d="M69.2664 179.98L8.85267 151.258L62.1725 113.464L69.2664 179.98Z" fill="#0D6EFD"/>
<path d="M124.5 25.5C63 19.5 30.5757 83.2241 48 133L25.2478 143.786C4.38487 68.6192 61 12 124.5 25.5Z" fill="#0D6EFD"/>
<path d="M163.81 40.748L216.029 65.9838L169.593 98.4563L163.81 40.748Z" fill="#0D6EFD"/>
<path d="M102.5 187.5C153.5 196.5 198.963 130.884 181.539 81.1085L196.525 74.205C217.388 149.371 153 206 102.5 187.5Z" fill="#0D6EFD"/>
<path d="M131 43C129.4 42.6 127.667 42.8333 127 43L130 41C131.5 40 134.5 39.5 136 39.5C137.5 39.5 142 42 141.5 43C141 44 140 44 137.5 44H137.5C135 44 133 43.5 131 43Z" fill="#151515"/>
<path d="M156 55C153.6 53.8 150.333 51.5 149 50.5C151.833 50.8333 158.1 51.7 160.5 52.5C162.9 53.3 165.167 54.8333 166 55.5C163.667 55.8333 158.4 56.2 156 55Z" fill="#151515"/>
<path d="M131 43C129.4 42.6 127.667 42.8333 127 43L130 41C131.5 40 134.5 39.5 136 39.5C137.5 39.5 142 42 141.5 43C141 44 140 44 137.5 44H137.5C135 44 133 43.5 131 43Z" stroke="#151515"/>
<path d="M156 55C153.6 53.8 150.333 51.5 149 50.5C151.833 50.8333 158.1 51.7 160.5 52.5C162.9 53.3 165.167 54.8333 166 55.5C163.667 55.8333 158.4 56.2 156 55Z" stroke="#151515"/>
<path d="M128.5 48C126.1 48.8 121.333 48.8333 119 48.5C119.833 48.1667 122 47.4 124 47C126.5 46.5 125 45.5 127.5 45C129.5 44.6 132.833 45.6667 134 46.5C133.333 46.8333 130.9 47.2 128.5 48Z" fill="#151515"/>
<path d="M118 47C117.6 46.6 118.5 43.5 119 42C118.894 42.3333 118.946 43.2 120 44C121.054 44.8 123.106 44.3333 124 44C122.167 45.1667 118.4 47.4 118 47Z" fill="#151515"/>
<path d="M128.5 48C126.1 48.8 121.333 48.8333 119 48.5C119.833 48.1667 122 47.4 124 47C126.5 46.5 125 45.5 127.5 45C129.5 44.6 132.833 45.6667 134 46.5C133.333 46.8333 130.9 47.2 128.5 48Z" stroke="#151515"/>
<path d="M118 47C117.6 46.6 118.5 43.5 119 42C118.894 42.3333 118.946 43.2 120 44C121.054 44.8 123.106 44.3333 124 44C122.167 45.1667 118.4 47.4 118 47Z" stroke="#151515"/>
<path d="M117 54C116.6 53.2 117.167 51.6667 117.5 51H122C124 51 126 50.6667 127 51C126.5 51 125.5 51.2 125.5 52C125.5 53 125 53 127.5 53C130 53 133.5 48.5 135 47.5C136.112 46.7585 138.456 47.3916 139.722 47.8863C140.059 47.843 140.083 47.9174 140 48C139.915 47.9634 139.822 47.9253 139.722 47.8863C139.379 47.9303 138.711 48.0964 137.5 48.5C134.5 49.5 133.5 51.5 132.5 52.5C131.5 53.5 127.5 59 125.5 60C123.5 61 119.5 60.5 118.5 60C117.5 59.5 119.5 57.5 119.5 56C119.5 54.5 117.5 55 117 54Z" fill="#151515"/>
<path d="M117.5 51C117.167 51.6667 116.6 53.2 117 54C117.5 55 119.5 54.5 119.5 56C119.5 57.5 117.5 59.5 118.5 60C119.5 60.5 123.5 61 125.5 60C127.5 59 131.5 53.5 132.5 52.5C133.5 51.5 134.5 49.5 137.5 48.5C139.9 47.7 140.167 47.8333 140 48C138.833 47.5 136.2 46.7 135 47.5C133.5 48.5 130 53 127.5 53C125 53 125.5 53 125.5 52C125.5 51.2 126.5 51 127 51C126 50.6667 124 51 122 51C120.351 51 118.333 51 117.5 51Z" stroke="#151515"/>
<path d="M112.5 212H102V208.5C102 205 107 201.5 108.5 199C110 196.5 107.5 196.5 108.5 193.5C109.5 190.5 111.5 193 112.5 189.5C113.5 186 112.5 165 113 161C113.5 157 116 156.5 116 153.5C116 150.5 115.5 148 115 143.5C114.5 139 121.5 122.5 123.5 114C125.1 107.2 131.167 98.8333 134 95.5C133.833 98.8333 133.4 106.5 133 110.5C132.6 114.5 127.167 132.5 124.5 141L126.5 142C129 133 134.2 114.1 135 110.5C135.8 106.9 135.667 95 135.5 89.5C136.167 93.3333 137.5 101.9 137.5 105.5C137.5 110 136.5 121.5 135 127.5C133.5 133.5 125.5 149 125.5 152C125.5 155 127 154.5 126.5 161.5C126 168.5 118 186.5 117.5 189.5C117 192.5 118.5 192 118 195C117.5 198 113.5 204 112.5 206.5C111.7 208.5 112.167 211 112.5 212Z" fill="#151515" stroke="#151515"/>
<path d="M129.5 92.5C130.7 90.9 133.333 88.8333 134.5 88V75C134.5 71 135 65.5 136 63.5C137 61.5 136.5 57.5 136.5 56C136.5 54.5 137.5 54 139.5 53.5C141.5 53 142.5 54 144 55C145.2 55.8 149.5 55.3333 151.5 55C150.833 54 149 52 147 52C144.5 52 140.5 51 140.5 50.5C140.5 50.1 144.5 49.6667 146.5 49.5C145.167 49.3333 142 49 140 49C137.5 49 139 50.5 136.5 52.5C134.5 54.1 131 58.5 129.5 60.5C130.167 60.6667 131.8 61.2 133 62C134.5 63 133.5 64.5 133.5 65.5C133.5 66.5 130.5 64.5 129 63.5C127.5 62.5 125 62.5 122.5 62.5C120 62.5 120 63 117.5 63.5C116.113 63.7773 113 64 112 64C111 64 109.656 63.922 111.5 63C113.5 62 114.5 62.5 115 62C115.4 61.6 115.667 57.5 115.5 56C115.5 55.6667 114.5 54 112 54.5C109.978 54.9043 110.5 56 110 55C109.5 54 112 53.5 112 53.5L114.5 49C116.1 48.6 116.667 44.6667 117.5 43V37.5C117.167 39 116.4 39.8 116 41C115.5 42.5 115 44 114 43.5C113 43 114.5 40 114.5 39C114.5 38 116 37 117 35.5C118 34 117 27 117 25.5C117 24 116 23.5 115 22.5C114 21.5 112.5 18 112 16.5C111.684 15.5513 110 15.5 108 15C106 14.5 104.5 16.5 103.5 16.5C102.5 16.5 101 19 99.5 20C98 21 99 24.5 98 24.5C97 24.5 97 26.5 96 26.5C95 26.5 95.5 26 95 25C94.6 24.2 95.5 23.6667 96 23.5C95.6667 23.3333 94.8 23.3 94 24.5C93 26 94.5 26.5 95.5 27.5C96.5 28.5 97 28 98 28C99 28 99.5 29.5 100 30.5C100.5 31.5 99.5 32.5 99 33C98.6 33.4 98.8333 35.5 99 36.5C99 36.1667 99.1 35.4 99.5 35C99.9 34.6 100.667 34.8333 101 35C102 35.1667 101.8 36.4 103 36C104.5 35.5 104.5 37 105.5 39C106.5 41 107 43.5 106 45.5C105 47.5 102.5 47.5 101.5 49C100.5 50.5 98.5 53 96.5 54C94.5 55 93.5 56.5 92 57.5C90.5 58.5 91 58 89 58.5C87 59 85.5 59.5 78.5 63C71.5 66.5 71 72 68.5 74C66 76 57.5 78.5 54.5 80C51.5 81.5 40.5 88.5 38.5 89.5C36.5 90.5 34.5 91.5 32 92C29.5 92.5 28 91.5 27.5 92.5C27 93.5 29 93.5 30 94C31 94.5 31.5 93 32 94.5C32.4 95.7 28.1667 99.3333 26 101L27 102L33 97.5L28 104L29 105L35 99.5L31 105L32 106L36.5 100.5V107.5H37.5C37.5 106 37.6 102.7 38 101.5C38.5 100 40 95.5 41.5 93.5C43 91.5 51.5 90.5 56.5 88.5C61.5 86.5 70.5 78.5 74.5 76.5C78.5 74.5 84 72 86.5 71C89 70 93 66 93.5 63.5C94 61 95.5 58 96.5 58.5C97.5 59 96.5 63 97.5 66C98.5 69 102.5 73 103 78C103.4 82 103.167 92 103 96.5C100.667 98.3333 95.1 102.7 91.5 105.5C87 109 79 119.5 77 121.5C75 123.5 69 133.5 72.5 138C76 142.5 84.5 134.5 89 131.5C93.5 128.5 100 118 101.5 115C102.7 112.6 103 107.333 103 105C103.833 107 105.5 111.8 105.5 115C105.5 118.2 100.5 124.667 98 127.5C98.1667 127.667 99.1 127.8 101.5 127C104.5 126 109.5 119.5 111 117C112.2 115 115.5 109.167 117 106.5L116 112.5C115.6 114.9 115.5 127.5 115.5 133.5C116.5 127.333 119.2 113.7 122 108.5C124.8 103.3 130.167 96 132.5 93C132.167 93 131.3 93.2 130.5 94C129.7 94.8 128.833 96 128.5 96.5L127.5 96C127.667 95.5 128.3 94.1 129.5 92.5Z" fill="#151515"/>
<path d="M115.5 19.5C115.9 20.3 117 21.5 117.5 22C117.5 21.1667 117.4 19.3 117 18.5C116.6 17.7 114.833 16.1667 114 15.5C114.333 16.5 115.1 18.7 115.5 19.5Z" fill="#151515"/>
<path d="M101 15C102 14 104 14 107 13.5C105.833 13.3333 103.3 13 102.5 13C101.5 13 100.5 14 99.5 14.9999L99.5 15C98.5 16 97.5 15.5 97 15C96.6 14.6 96.8333 13.5 97 13C96.5 13.3333 95.5 14.3 95.5 15.5C95.5 17 96 17.5 97.5 18C99 18.5 100 16 101 15Z" fill="#151515"/>
<path d="M101 35C102 35.1667 101.8 36.4 103 36C104.5 35.5 104.5 37 105.5 39C106.5 41 107 43.5 106 45.5C105 47.5 102.5 47.5 101.5 49C100.5 50.5 98.5 53 96.5 54C94.5 55 93.5 56.5 92 57.5C90.5 58.5 91 58 89 58.5C87 59 85.5 59.5 78.5 63C71.5 66.5 71 72 68.5 74C66 76 57.5 78.5 54.5 80C51.5 81.5 40.5 88.5 38.5 89.5C36.5 90.5 34.5 91.5 32 92C29.5 92.5 28 91.5 27.5 92.5C27 93.5 29 93.5 30 94C31 94.5 31.5 93 32 94.5C32.4 95.7 28.1667 99.3333 26 101L27 102L33 97.5L28 104L29 105L35 99.5L31 105L32 106L36.5 100.5V107.5H37.5C37.5 106 37.6 102.7 38 101.5C38.5 100 40 95.5 41.5 93.5C43 91.5 51.5 90.5 56.5 88.5C61.5 86.5 70.5 78.5 74.5 76.5C78.5 74.5 84 72 86.5 71C89 70 93 66 93.5 63.5C94 61 95.5 58 96.5 58.5C97.5 59 96.5 63 97.5 66C98.5 69 102.5 73 103 78C103.4 82 103.167 92 103 96.5C100.667 98.3333 95.1 102.7 91.5 105.5C87 109 79 119.5 77 121.5C75 123.5 69 133.5 72.5 138C76 142.5 84.5 134.5 89 131.5C93.5 128.5 100 118 101.5 115C102.7 112.6 103 107.333 103 105C103.833 107 105.5 111.8 105.5 115C105.5 118.2 100.5 124.667 98 127.5C98.1667 127.667 99.1 127.8 101.5 127C104.5 126 109.5 119.5 111 117C112.2 115 115.5 109.167 117 106.5C116.833 107.5 116.4 110.1 116 112.5C115.6 114.9 115.5 127.5 115.5 133.5C116.5 127.333 119.2 113.7 122 108.5C124.8 103.3 130.167 96 132.5 93C132.167 93 131.3 93.2 130.5 94C129.7 94.8 128.833 96 128.5 96.5L127.5 96C127.667 95.5 128.3 94.1 129.5 92.5C130.7 90.9 133.333 88.8333 134.5 88C134.5 85 134.5 78.2 134.5 75C134.5 71 135 65.5 136 63.5C137 61.5 136.5 57.5 136.5 56C136.5 54.5 137.5 54 139.5 53.5C141.5 53 142.5 54 144 55C145.2 55.8 149.5 55.3333 151.5 55C150.833 54 149 52 147 52C144.5 52 140.5 51 140.5 50.5C140.5 50.1 144.5 49.6667 146.5 49.5C145.167 49.3333 142 49 140 49C137.5 49 139 50.5 136.5 52.5C134.5 54.1 131 58.5 129.5 60.5C130.167 60.6667 131.8 61.2 133 62C134.5 63 133.5 64.5 133.5 65.5C133.5 66.5 130.5 64.5 129 63.5C127.5 62.5 125 62.5 122.5 62.5C120 62.5 120 63 117.5 63.5C116.113 63.7773 113 64 112 64C111 64 109.656 63.922 111.5 63C113.5 62 114.5 62.5 115 62C115.4 61.6 115.667 57.5 115.5 56C115.5 55.6667 114.5 54 112 54.5C109.978 54.9043 110.5 56 110 55C109.5 54 112 53.5 112 53.5L114.5 49C116.1 48.6 116.667 44.6667 117.5 43V37.5C117.167 39 116.4 39.8 116 41C115.5 42.5 115 44 114 43.5C113 43 114.5 40 114.5 39C114.5 38 116 37 117 35.5C118 34 117 27 117 25.5C117 24 116 23.5 115 22.5C114 21.5 112.5 18 112 16.5C111.684 15.5513 110 15.5 108 15C106 14.5 104.5 16.5 103.5 16.5C102.5 16.5 101 19 99.5 20C98 21 99 24.5 98 24.5C97 24.5 97 26.5 96 26.5C95 26.5 95.5 26 95 25C94.6 24.2 95.5 23.6667 96 23.5C95.6667 23.3333 94.8 23.3 94 24.5C93 26 94.5 26.5 95.5 27.5C96.5 28.5 97 28 98 28C99 28 99.5 29.5 100 30.5C100.5 31.5 99.5 32.5 99 33C98.6 33.4 98.8333 35.5 99 36.5C99 36.1667 99.1 35.4 99.5 35C99.9 34.6 100.667 34.8333 101 35ZM101 35C101.167 35 101.4 35 101 35ZM117.5 22C117 21.5 115.9 20.3 115.5 19.5C115.1 18.7 114.333 16.5 114 15.5C114.833 16.1667 116.6 17.7 117 18.5C117.4 19.3 117.5 21.1667 117.5 22ZM107 13.5C104 14 102 14 101 15C100 16 99 18.5 97.5 18C96 17.5 95.5 17 95.5 15.5C95.5 14.3 96.5 13.3333 97 13C96.8333 13.5 96.6 14.6 97 15C97.5 15.5 98.5 16 99.5 15C100.5 14 101.5 13 102.5 13C103.3 13 105.833 13.3333 107 13.5Z" stroke="#151515"/>
<path d="M92.5 54.5C94.1 53.3 96.1667 50 97 48.5C95 49 90.6 50.3 89 51.5C87.4 52.7 85.3333 55.6667 84.5 57C86.5 56.6667 90.9 55.7 92.5 54.5Z" fill="#151515" stroke="#151515"/>
<path d="M147 47C144.5 46.5 139.5 46.5 139.5 46C140.833 45.5 143.9 44.5 145.5 44.5C147.5 44.5 154 45.5 157 46C159.4 46.4 162.333 48.1667 163.5 49H172.5C176 49 181.5 51 185 52C188.5 53 195 54 195 53C195 52.2 194.333 50.3333 194 49.5L194.5 49C194.667 48.8333 195.1 48.8 195.5 50C196 51.5 197 52 198 53.5C199 55 199 56.5 199.5 57.5C199.9 58.3 200 62.8333 200 65H199C199 64.3333 198.9 62.7 198.5 61.5C198 60 196 58.5 194.5 57C193 55.5 169 56.5 168 56C167.2 55.6 166.333 52.8333 166 51.5L161.5 50.5C159 50.5 149.5 47.5 147 47Z" fill="#151515" stroke="#151515"/>
<path d="M91.5 136C89.9 137.2 86.5 137.5 85 137.5L95 130C94.5 131.5 93.1 134.8 91.5 136Z" fill="#151515"/>
<path d="M110.5 122L104 129.5C103.833 129.833 103.6 130.7 104 131.5C104.5 132.5 106 132.5 106.5 132C107 131.5 107 128 108 127C109 126 112 125.5 112.5 124.5C112.9 123.7 111.333 122.5 110.5 122Z" fill="#151515"/>
<path d="M91.5 136C89.9 137.2 86.5 137.5 85 137.5L95 130C94.5 131.5 93.1 134.8 91.5 136Z" stroke="#151515"/>
<path d="M110.5 122L104 129.5C103.833 129.833 103.6 130.7 104 131.5C104.5 132.5 106 132.5 106.5 132C107 131.5 107 128 108 127C109 126 112 125.5 112.5 124.5C112.9 123.7 111.333 122.5 110.5 122Z" stroke="#151515"/>
</g>
<defs>
<clipPath id="clip0_107_28">
<rect width="223" height="220" fill="white"/>
</clipPath>
</defs>
</svg>
