<?xml version="1.0" encoding="UTF-8" standalone="no"?>
<svg
   width="223"
   height="220"
   version="1.1"
   id="svg15186"
   xmlns="http://www.w3.org/2000/svg">
  <defs
     id="defs15175">
    <clipPath
       id="clip0_118_110">
      <rect
         fill="white"
         height="220"
         id="svg_1"
         width="223" />
    </clipPath>
  </defs>
  <g
     class="layer"
     id="g15184">
    <title
       id="title15177">Layer 1</title>
    <g
       clip-path="url(#clip0_118_110)"
       id="svg_2">
      <path
         d="m163.81,40.75l52.22,25.23l-46.44,32.48l-5.78,-57.71z"
         fill="#FF8A00"
         id="svg_4" />
      <path
         d="m102.5,187.5c51,9 96.46,-56.62 79.04,-106.39l14.99,-6.91c20.86,75.17 -43.53,131.8 -94.03,113.3z"
         fill="#FF8A00"
         id="svg_5" />
    </g>
    <path
       d="m172.04,36.41c1.1,-0.68 -0.63,-2.72 -1.59,-3.85c0,0 1.4,1.09 1.46,0.43c0.07,-0.64 -0.23,-1.92 -2.19,-2.93c-1.08,-0.55 -1.81,-0.57 -2.57,-1.31c-0.76,-0.74 -1.79,-1.58 -1.98,-2.3c-0.19,-0.68 -0.48,-0.8 0.25,-1.28c0.48,-0.3 0.61,-1.21 0.44,-1.68c-0.34,-0.97 -0.95,-1.01 -1.2,-0.28c-0.13,0.39 -0.57,0.27 -1.02,0.16c-0.44,-0.09 -1.05,0.02 -1.33,0.57c-0.57,1.07 -1.1,1.28 -1.35,2.14c-0.17,0.7 -2.22,1.64 -3.54,2.24c-1.31,0.58 -7.02,2.3 -10.37,2.6c-3.33,0.3 -7.49,0.61 -10.76,2.99c0,0 -1.96,-0.09 -3.9,0c-1.94,0.06 -10.08,2.3 -11.75,2.83c-1.67,0.52 -2.34,0.77 -4.11,0.39c-1.79,-0.34 -3.61,-0.85 -5.32,-0.06c-2.74,1.23 -4.37,2.75 -4.37,2.75c0,0 -2.27,0.12 -3.08,0.12l-2.15,0c0,0 -0.5,-4 -0.5,-5.73c0,-1.76 -0.31,-2.78 -0.31,-2.78c0,0 0.63,0.51 1.24,-0.22c0.61,-0.73 0.44,-2.38 0.38,-3.33c-0.06,-0.79 -0.64,-2.6 -1.35,-2.38c-0.17,0.06 -0.25,0.09 -0.31,0.1c0,-0.06 -0.38,-4.18 -0.91,-5.49c-0.48,-1.17 -1.24,-2.54 -2.53,-3.78c-0.74,-0.7 -1.89,-1.31 -3.1,-1.71c-0.25,-0.95 -1.02,-2.83 -3.16,-3.01c-2.59,-0.22 -4.79,1.25 -5.07,3.01c-0.13,0.92 0.17,1.55 0.48,1.92c-0.15,0.18 -0.32,0.34 -0.48,0.52c-1.45,1.59 -1.92,3.05 -2,5.09c-0.02,0.57 0.45,3.81 0.88,5.27c0.29,1.03 0.29,1.28 0.29,1.28c0,0 -1.02,-0.24 -1.08,0.63c-0.06,0.86 0.25,2.32 0.45,3.13c0.21,0.79 0.63,1.88 1.39,1.96c0.76,0.09 1.02,-0.45 1.02,-0.45c0,0 1.02,2.41 1.37,2.9c0.34,0.51 1.64,2.04 1.98,3.27c0.34,1.23 0.34,3.47 0.21,4.2c-0.13,0.73 -2.95,1.82 -4.07,3.13c-0.8,0.91 -2.15,1.74 -2.15,1.74c0,0 -2.87,0.09 -4.31,1.46c-1.43,1.37 -3.96,3.91 -4.98,6.01c-1.02,2.1 -1.48,3.41 -1.48,3.41c0,0 -3.33,1.9 -5.65,4.18c-2.34,2.32 -5.59,6.62 -6.98,8.3c-0.72,0.86 -2.68,2.28 -4.45,4.06c-2.19,2.22 -3.77,3.55 -6.75,7.31c-2.98,3.78 -8.41,9.85 -9.93,11.19c-1.54,1.34 -2.62,1.07 -3.35,2.28c-0.78,1.35 -1.46,2.16 -1.64,4.08c-0.1,1.19 -0.31,1.7 -0.53,2.2c-0.31,0.63 -0.99,0.98 -1.02,1.4c-0.04,0.45 0.53,0.51 0.82,0.57c0.44,0.09 1.67,-0.39 1.86,-1.43c0.21,-1.31 1.35,-1.17 1.35,-0.8c0,0.36 -0.97,3.05 -1.43,4.22c-0.55,1.47 -0.82,3.37 -0.8,4.24c0.02,0.68 0.36,1.4 0.8,0.86c0.48,-0.52 0.74,-1.92 0.74,-1.92c0,0 -0.13,1.31 -0.07,2.34c0.1,1.29 0.93,1.98 1.4,-0.15c0,0 0,1.07 0.7,1.04c0.69,-0.04 0.88,-1.49 0.88,-1.49c-0.07,0.98 0.38,1.31 0.97,0.58c0.4,-0.49 1.46,-2.59 1.59,-4.45c0.13,-1.86 0.7,-6.95 0.7,-8.05c0,-1.11 0.17,-0.89 0.76,-1.11c0.67,-0.22 1.05,-1.47 1.94,-2.2c0.89,-0.74 8.35,-6.71 11.89,-9.88c3.8,-3.41 5.02,-4.46 6.32,-6.41c0.45,-0.73 1.5,-1.25 2.4,-2.11c0.91,-0.91 6.08,-4.97 7.68,-6.29c1.59,-1.34 3.9,-2.34 6.16,-4.6c2.27,-2.24 3.6,-3.29 3.6,-3.29c0,0 3.22,1.96 4.41,3.07c1.2,1.13 2.34,4.22 3.12,5.98c0.76,1.77 0.17,4.91 0.04,6.54c-0.15,1.64 -0.34,1.8 -0.7,2.59c-1.29,2.9 -1.75,8.21 -1.67,9.1c0.07,0.86 -8.06,9.88 -10.63,14.25c-2.59,4.4 -8.33,16.63 -9.23,20.53c-0.88,3.75 -1.37,5.71 -0.38,7.36c0.97,1.68 4.01,3.2 5.99,2.26c1.98,-0.92 3.99,-2.56 5.76,-4.08c1.29,-1.11 9.24,-11.29 10.8,-12.11c1.56,-0.83 5.99,-4.08 7.28,-6.17c1.46,-2.38 3.04,-4.79 3.5,-6.1c0.19,-0.51 1.96,-0.67 1.73,0.3c-0.25,0.97 -1.08,13.87 -0.55,17.48c0.51,3.61 0.19,11.44 0.12,14.47c-0.07,3.05 -0.07,7.9 -0.13,9.43c-0.02,0.36 0.12,-0.33 -0.78,1.71c-0.89,2.02 -2.08,6.34 -1.37,9.73c0.69,3.41 -0.5,10.65 -0.53,11.75l-0.04,1.09c0,0 -2.22,-0.64 -3,0.64c-0.76,1.28 -1.54,3.41 -1.26,6.58c0.31,3.17 -1.01,8.46 -1.67,9.4c-0.64,0.95 -3.38,3.02 -2.85,8.5c0.51,5.45 2.68,5.33 4.68,4c2,-1.35 6.56,-7.75 7.7,-14.83c0.23,-1.37 2.59,-6.32 2.24,-8.18c-0.34,-1.88 1.18,-7.36 2.22,-10.8c1.05,-3.45 5.23,-11.13 4.07,-19.34c-0.26,-1.98 0.97,-5.37 1.84,-7.93c1.56,-4.52 6.05,-20.69 7.93,-32.58c0.5,-3.15 0.69,-3.23 1.31,-11.19c0.42,-5.21 -1.5,-14.31 -2.11,-15.44c-1.07,-2 -1.2,-6.17 -2.21,-9.33c-0.57,-1.76 -0.45,-5.43 -0.59,-7.39c-0.13,-1.96 -0.4,-6.9 -1.16,-10.82c-0.76,-3.91 -0.76,-4.86 -0.61,-5.88c0.13,-1.01 2.22,-1.03 3.98,-1.31c1.73,-0.3 5.65,-0.64 10.5,-4.09c0.63,-0.46 4.24,-1.58 5.42,-1.94c1.18,-0.39 2.74,-0.64 3.44,-0.57c0.69,0.09 1.29,-0.7 1.71,-0.92c0.4,-0.22 14.81,-5.07 17.21,-6.5c1.65,-0.98 2.57,-0.46 2.97,-1.01c0.38,-0.51 0.74,-0.18 2.05,0.04c1.33,0.22 3.19,0.83 3.77,1.35c0.55,0.52 2.11,4.24 2.24,5.45c0.15,1.23 0.72,1.98 1.07,1.01c0.42,-1.21 -0.13,-2.93 -0.13,-2.93c0,0 0.17,0.3 0.51,0.58c0.36,0.3 1.01,-0.98 0.57,-2.05"
       id="svg_28" />
  </g>
</svg>
