<svg height='100px' width='100px'  fill="#93b0b3" xmlns="http://www.w3.org/2000/svg" xmlns:xlink="http://www.w3.org/1999/xlink" version="1.1" x="0px" y="0px" viewBox="0 0 64 64" style="enable-background:new 0 0 64 64;" xml:space="preserve"><path d="M56.7,34.8v11c0,3-2.5,5.5-5.5,5.5H13.4c-3,0-5.5-2.5-5.5-5.5v-11c0-0.8,0.7-1.5,1.5-1.5s1.5,0.7,1.5,1.5v11  c0,1.4,1.1,2.5,2.5,2.5h37.8c1.4,0,2.5-1.1,2.5-2.5v-11c0-0.8,0.7-1.5,1.5-1.5S56.7,33.9,56.7,34.8z M29.4,39.5  c0.8,0.8,1.9,1.2,2.9,1.2s2.1-0.4,2.9-1.2l7-7c0.6-0.6,0.6-1.5,0-2.1c-0.6-0.6-1.5-0.6-2.1,0l-6.3,6.3V12.1c0-0.8-0.7-1.5-1.5-1.5  c-0.8,0-1.5,0.7-1.5,1.5v24.5l-6.3-6.3c-0.6-0.6-1.5-0.6-2.1,0c-0.6,0.6-0.6,1.5,0,2.1L29.4,39.5z"></path></svg>